<svg width="14" height="14" viewBox="0 0 14 14" fill="none" xmlns="http://www.w3.org/2000/svg">
<path d="M10.5 3.50001H7.7V4.83001H10.5C11.697 4.83001 12.67 5.80301 12.67 7.00001C12.67 8.00101 11.984 8.84101 11.053 9.08601L12.075 10.108C13.216 9.52701 14 8.36501 14 7.00001C14 5.06801 12.432 3.50001 10.5 3.50001ZM9.8 6.30001H8.267L9.667 7.70001H9.8V6.30001ZM0 1.58901L2.177 3.76601C0.903 4.28401 0 5.53701 0 7.00001C0 8.93201 1.568 10.5 3.5 10.5H6.3V9.17001H3.5C2.303 9.17001 1.33 8.19701 1.33 7.00001C1.33 5.88701 2.177 4.97001 3.262 4.85101L4.711 6.30001H4.2V7.70001H6.111L7.7 9.28901V10.5H8.911L11.718 13.3L12.6 12.418L0.889 0.700012L0 1.58901Z" fill="#828282"/>
</svg>
