<svg width="14" height="8" viewBox="0 0 14 8" fill="none" xmlns="http://www.w3.org/2000/svg">
<path d="M1.33012 4C1.33012 2.803 2.30312 1.83 3.50012 1.83H6.30012V0.5H3.50012C1.56812 0.5 0.00012207 2.068 0.00012207 4C0.00012207 5.932 1.56812 7.5 3.50012 7.5H6.30012V6.17H3.50012C2.30312 6.17 1.33012 5.197 1.33012 4ZM4.20012 4.7H9.80012V3.3H4.20012V4.7ZM10.5001 0.5H7.70012V1.83H10.5001C11.6971 1.83 12.6701 2.803 12.6701 4C12.6701 5.197 11.6971 6.17 10.5001 6.17H7.70012V7.5H10.5001C12.4321 7.5 14.0001 5.932 14.0001 4C14.0001 2.068 12.4321 0.5 10.5001 0.5Z" fill="#2F80ED"/>
</svg>
