<svg width="24" height="24" viewBox="0 0 24 24" fill="none" xmlns="http://www.w3.org/2000/svg">
<path d="M4.80537 19.361V19.1279L4.62685 18.9781C2.14787 16.8977 0.499844 14.3865 0.499844 11.2654C0.499844 5.91155 4.83086 0.50375 12.0075 0.50375C17.8196 0.50375 23.5002 4.89224 23.5002 11.1004C23.5002 17.1131 18.1629 21.6512 12.045 21.6512C11.0833 21.6512 10.0799 21.5399 9.05799 21.3186L8.86814 21.2775L8.70036 21.3753L5.11153 23.4687C5.11146 23.4687 5.11138 23.4687 5.11131 23.4688C5.07913 23.4874 5.04375 23.4966 5.00843 23.4966C4.97272 23.4966 4.93816 23.4875 4.90779 23.47L4.90758 23.4699C4.84414 23.4334 4.80537 23.3661 4.80537 23.2935V19.361ZM8.88317 20.8625L8.88333 20.8626C9.96045 21.1156 11.0242 21.2451 12.045 21.2451C18.0947 21.2451 23.094 16.7359 23.094 11.1004C23.094 4.95259 17.3148 0.909873 12.0075 0.909873C5.08601 0.909873 0.905967 6.15454 0.905967 11.2654C0.905967 14.1163 2.33706 16.6074 5.13579 18.8713C5.18401 18.9103 5.2115 18.9684 5.2115 19.0292V22.07V22.9402L5.96321 22.5017L8.73453 20.885L8.73485 20.8849C8.77986 20.8586 8.83277 20.8507 8.88317 20.8625Z" fill="white" stroke="white" stroke-width="0.999688"/>
<path d="M19.6252 8.04925C19.4148 7.77464 19.0357 7.69358 18.7316 7.85899C17.1196 8.73528 15.5034 9.51598 13.9448 10.3459L11.2283 7.85243C10.9462 7.5933 10.5085 7.60782 10.2443 7.88524C8.34313 9.87914 6.40405 11.9972 4.48887 14.0052C4.25363 14.2522 4.22973 14.6322 4.4317 14.9068C4.63367 15.1819 5.00386 15.2718 5.30939 15.1205C5.45513 15.0483 8.75035 13.3299 10.1641 12.5221C11.0282 13.3927 11.9509 14.188 12.8506 15.0118C12.9856 15.135 13.1557 15.1959 13.3253 15.1959C13.5109 15.1959 13.696 15.1228 13.8338 14.9785L19.5756 8.96209C19.8145 8.71138 19.8356 8.32432 19.6252 8.04925ZM13.2902 13.5118C12.4186 12.7259 11.5592 11.9668 10.7771 11.1331C10.6388 10.986 10.4518 10.9115 10.2644 10.9115C10.0671 10.9115 9.88109 10.9935 9.74754 11.1378C9.46825 11.3056 8.9795 11.5769 8.41295 11.8848C9.19271 11.0497 9.99496 10.1908 10.7864 9.35524L13.3619 11.7198C13.5831 11.9227 13.9092 11.963 14.173 11.8196C14.6529 11.5586 15.1426 11.3023 15.6468 11.0422L13.2902 13.5118Z" fill="white"/>
</svg>
