<svg width="24" height="24" viewBox="0 0 24 24" fill="none" xmlns="http://www.w3.org/2000/svg">
<g clip-path="url(#clip0)">
<path d="M17.5071 14.3069L17.4981 14.3819C15.2991 13.2859 15.0691 13.1399 14.7851 13.5659C14.5881 13.8609 14.0141 14.5299 13.8411 14.7279C13.6661 14.9229 13.4921 14.9379 13.1951 14.8029C12.8951 14.6529 11.9321 14.3379 10.7921 13.3179C9.90414 12.5229 9.30814 11.5479 9.13214 11.2479C8.83914 10.7419 9.45214 10.6699 10.0101 9.61393C10.1101 9.40393 10.0591 9.23893 9.98514 9.08993C9.91014 8.93993 9.31314 7.46993 9.06314 6.88393C8.82314 6.29993 8.57614 6.37393 8.39114 6.37393C7.81514 6.32393 7.39414 6.33193 7.02314 6.71793C5.40914 8.49193 5.81614 10.3219 7.19714 12.2679C9.91114 15.8199 11.3571 16.4739 14.0011 17.3819C14.7151 17.6089 15.3661 17.5769 15.8811 17.5029C16.4551 17.4119 17.6481 16.7819 17.8971 16.0769C18.1521 15.3719 18.1521 14.7869 18.0771 14.6519C18.0031 14.5169 17.8071 14.4419 17.5071 14.3069Z" fill="white"/>
<path d="M20.52 3.44894C12.831 -3.98406 0.106 1.40694 0.101 11.8929C0.101 13.9889 0.65 16.0329 1.696 17.8379L0 23.9999L6.335 22.3479C14.24 26.6179 23.996 20.9479 24 11.8989C24 8.72295 22.76 5.73394 20.505 3.48794L20.52 3.44894ZM22.002 11.8659C21.996 19.4989 13.617 24.2659 6.99 20.3699L6.63 20.1559L2.88 21.1309L3.885 17.4859L3.646 17.1109C-0.478 10.5459 4.26 1.96594 12.072 1.96594C14.726 1.96594 17.217 3.00094 19.093 4.87594C20.968 6.73494 22.002 9.22594 22.002 11.8659Z" fill="white"/>
</g>
<defs>
<clipPath id="clip0">
<rect width="24" height="24" fill="white"/>
</clipPath>
</defs>
</svg>
