<svg width="30" height="30" viewBox="0 0 30 30" fill="none" xmlns="http://www.w3.org/2000/svg">
<path d="M23.75 16.25H16.25V23.75H13.75V16.25H6.25V13.75H13.75V6.25H16.25V13.75H23.75V16.25Z" fill="#828282"/>
<path d="M2.66038 29.2346C2.4053 29.1288 2.11276 29.2499 2.00699 29.505C1.90121 29.76 2.02224 30.0526 2.27732 30.1583L2.66038 29.2346ZM-0.158341 27.7227C-0.0525637 27.9778 0.239969 28.0988 0.495049 27.993C0.750129 27.8872 0.871162 27.5947 0.765385 27.3396L-0.158341 27.7227ZM0.5 23.25C0.5 22.9739 0.276142 22.75 0 22.75C-0.276142 22.75 -0.5 22.9739 -0.5 23.25H0.5ZM-0.5 17.75C-0.5 18.0261 -0.276142 18.25 0 18.25C0.276142 18.25 0.5 18.0261 0.5 17.75H-0.5ZM0.5 12.25C0.5 11.9739 0.276142 11.75 0 11.75C-0.276142 11.75 -0.5 11.9739 -0.5 12.25H0.5ZM-0.5 6.75C-0.5 7.02614 -0.276142 7.25 0 7.25C0.276142 7.25 0.5 7.02614 0.5 6.75H-0.5ZM0.765385 2.66038C0.871163 2.4053 0.750129 2.11276 0.495049 2.00699C0.239969 1.90121 -0.0525633 2.02224 -0.158341 2.27732L0.765385 2.66038ZM2.27732 -0.158341C2.02224 -0.0525637 1.90121 0.239969 2.00699 0.495049C2.11276 0.750129 2.4053 0.871162 2.66038 0.765385L2.27732 -0.158341ZM6.75 0.5C7.02614 0.5 7.25 0.276142 7.25 0C7.25 -0.276142 7.02614 -0.5 6.75 -0.5V0.5ZM12.25 -0.5C11.9739 -0.5 11.75 -0.276142 11.75 0C11.75 0.276142 11.9739 0.5 12.25 0.5V-0.5ZM17.75 0.5C18.0261 0.5 18.25 0.276142 18.25 0C18.25 -0.276142 18.0261 -0.5 17.75 -0.5V0.5ZM23.25 -0.5C22.9739 -0.5 22.75 -0.276142 22.75 0C22.75 0.276142 22.9739 0.5 23.25 0.5V-0.5ZM27.3396 0.765385C27.5947 0.871163 27.8872 0.750129 27.993 0.495049C28.0988 0.239969 27.9778 -0.0525633 27.7227 -0.158341L27.3396 0.765385ZM30.1583 2.27732C30.0526 2.02224 29.76 1.90121 29.505 2.00699C29.2499 2.11276 29.1288 2.4053 29.2346 2.66038L30.1583 2.27732ZM29.5 6.75C29.5 7.02614 29.7239 7.25 30 7.25C30.2761 7.25 30.5 7.02614 30.5 6.75H29.5ZM30.5 12.25C30.5 11.9739 30.2761 11.75 30 11.75C29.7239 11.75 29.5 11.9739 29.5 12.25H30.5ZM29.5 17.75C29.5 18.0261 29.7239 18.25 30 18.25C30.2761 18.25 30.5 18.0261 30.5 17.75H29.5ZM30.5 23.25C30.5 22.9739 30.2761 22.75 30 22.75C29.7239 22.75 29.5 22.9739 29.5 23.25H30.5ZM29.2346 27.3396C29.1288 27.5947 29.2499 27.8872 29.505 27.993C29.76 28.0988 30.0526 27.9778 30.1583 27.7227L29.2346 27.3396ZM27.7227 30.1583C27.9778 30.0526 28.0988 29.76 27.993 29.505C27.8872 29.2499 27.5947 29.1288 27.3396 29.2346L27.7227 30.1583ZM23.25 29.5C22.9739 29.5 22.75 29.7239 22.75 30C22.75 30.2761 22.9739 30.5 23.25 30.5V29.5ZM17.75 30.5C18.0261 30.5 18.25 30.2761 18.25 30C18.25 29.7239 18.0261 29.5 17.75 29.5V30.5ZM12.25 29.5C11.9739 29.5 11.75 29.7239 11.75 30C11.75 30.2761 11.9739 30.5 12.25 30.5V29.5ZM6.75 30.5C7.02614 30.5 7.25 30.2761 7.25 30C7.25 29.7239 7.02614 29.5 6.75 29.5V30.5ZM4 29.5C3.52451 29.5 3.07236 29.4055 2.66038 29.2346L2.27732 30.1583C2.8086 30.3787 3.39076 30.5 4 30.5V29.5ZM0.765385 27.3396C0.594542 26.9276 0.5 26.4755 0.5 26H-0.5C-0.5 26.6092 -0.378653 27.1914 -0.158341 27.7227L0.765385 27.3396ZM0.5 26V23.25H-0.5V26H0.5ZM0.5 17.75V12.25H-0.5V17.75H0.5ZM0.5 6.75V4H-0.5V6.75H0.5ZM0.5 4C0.5 3.52451 0.594543 3.07236 0.765385 2.66038L-0.158341 2.27732C-0.378653 2.8086 -0.5 3.39076 -0.5 4H0.5ZM2.66038 0.765385C3.07236 0.594542 3.52451 0.5 4 0.5V-0.5C3.39076 -0.5 2.8086 -0.378653 2.27732 -0.158341L2.66038 0.765385ZM4 0.5H6.75V-0.5H4V0.5ZM12.25 0.5H17.75V-0.5H12.25V0.5ZM23.25 0.5H26V-0.5H23.25V0.5ZM26 0.5C26.4755 0.5 26.9276 0.594543 27.3396 0.765385L27.7227 -0.158341C27.1914 -0.378653 26.6092 -0.5 26 -0.5V0.5ZM29.2346 2.66038C29.4055 3.07236 29.5 3.52451 29.5 4H30.5C30.5 3.39076 30.3787 2.8086 30.1583 2.27732L29.2346 2.66038ZM29.5 4V6.75H30.5V4H29.5ZM29.5 12.25V17.75H30.5V12.25H29.5ZM29.5 23.25V26H30.5V23.25H29.5ZM29.5 26C29.5 26.4755 29.4055 26.9276 29.2346 27.3396L30.1583 27.7227C30.3787 27.1914 30.5 26.6092 30.5 26H29.5ZM27.3396 29.2346C26.9276 29.4055 26.4755 29.5 26 29.5V30.5C26.6092 30.5 27.1914 30.3787 27.7227 30.1583L27.3396 29.2346ZM26 29.5H23.25V30.5H26V29.5ZM17.75 29.5H12.25V30.5H17.75V29.5ZM6.75 29.5H4V30.5H6.75V29.5ZM2.8519 28.7728C2.34174 28.5612 1.75668 28.8033 1.54512 29.3134C1.33357 29.8236 1.57563 30.4086 2.08579 30.6202L2.8519 28.7728ZM-0.620204 27.9142C-0.408649 28.4244 0.176416 28.6664 0.686576 28.4549C1.19674 28.2433 1.4388 27.6583 1.22725 27.1481L-0.620204 27.9142ZM1 23.25C1 22.6977 0.552285 22.25 0 22.25C-0.552285 22.25 -1 22.6977 -1 23.25H1ZM-1 17.75C-1 18.3023 -0.552285 18.75 0 18.75C0.552285 18.75 1 18.3023 1 17.75H-1ZM1 12.25C1 11.6977 0.552285 11.25 0 11.25C-0.552285 11.25 -1 11.6977 -1 12.25H1ZM-1 6.75C-1 7.30228 -0.552285 7.75 0 7.75C0.552285 7.75 1 7.30228 1 6.75H-1ZM1.22725 2.8519C1.4388 2.34174 1.19674 1.75668 0.686576 1.54512C0.176416 1.33357 -0.408649 1.57563 -0.620204 2.08579L1.22725 2.8519ZM2.0858 -0.620204C1.57564 -0.408649 1.33357 0.176416 1.54512 0.686576C1.75668 1.19674 2.34174 1.4388 2.8519 1.22725L2.0858 -0.620204ZM6.75 1C7.30229 1 7.75 0.552285 7.75 0C7.75 -0.552285 7.30229 -1 6.75 -1V1ZM12.25 -1C11.6977 -1 11.25 -0.552285 11.25 0C11.25 0.552285 11.6977 1 12.25 1V-1ZM17.75 1C18.3023 1 18.75 0.552285 18.75 0C18.75 -0.552285 18.3023 -1 17.75 -1V1ZM23.25 -1C22.6977 -1 22.25 -0.552285 22.25 0C22.25 0.552285 22.6977 1 23.25 1V-1ZM27.1481 1.22725C27.6583 1.4388 28.2433 1.19674 28.4549 0.686576C28.6664 0.176416 28.4244 -0.408649 27.9142 -0.620204L27.1481 1.22725ZM30.6202 2.0858C30.4086 1.57564 29.8236 1.33357 29.3134 1.54512C28.8033 1.75668 28.5612 2.34174 28.7728 2.8519L30.6202 2.0858ZM29 6.75C29 7.30229 29.4477 7.75 30 7.75C30.5523 7.75 31 7.30229 31 6.75H29ZM31 12.25C31 11.6977 30.5523 11.25 30 11.25C29.4477 11.25 29 11.6977 29 12.25H31ZM29 17.75C29 18.3023 29.4477 18.75 30 18.75C30.5523 18.75 31 18.3023 31 17.75H29ZM31 23.25C31 22.6977 30.5523 22.25 30 22.25C29.4477 22.25 29 22.6977 29 23.25H31ZM28.7728 27.1481C28.5612 27.6583 28.8033 28.2433 29.3134 28.4549C29.8236 28.6664 30.4086 28.4244 30.6202 27.9142L28.7728 27.1481ZM27.9142 30.6202C28.4244 30.4086 28.6664 29.8236 28.4549 29.3134C28.2433 28.8033 27.6583 28.5612 27.1481 28.7728L27.9142 30.6202ZM23.25 29C22.6977 29 22.25 29.4477 22.25 30C22.25 30.5523 22.6977 31 23.25 31V29ZM17.75 31C18.3023 31 18.75 30.5523 18.75 30C18.75 29.4477 18.3023 29 17.75 29V31ZM12.25 29C11.6977 29 11.25 29.4477 11.25 30C11.25 30.5523 11.6977 31 12.25 31V29ZM6.75 31C7.30228 31 7.75 30.5523 7.75 30C7.75 29.4477 7.30228 29 6.75 29V31ZM4 29C3.59138 29 3.20424 28.9189 2.8519 28.7728L2.08579 30.6202C2.67672 30.8653 3.32388 31 4 31V29ZM1.22725 27.1481C1.08114 26.7958 1 26.4086 1 26H-1C-1 26.6761 -0.865251 27.3233 -0.620204 27.9142L1.22725 27.1481ZM1 26V23.25H-1V26H1ZM1 17.75V12.25H-1V17.75H1ZM1 6.75V4H-1V6.75H1ZM1 4C1 3.59138 1.08114 3.20424 1.22725 2.8519L-0.620204 2.08579C-0.865251 2.67672 -1 3.32388 -1 4H1ZM2.8519 1.22725C3.20424 1.08114 3.59138 1 4 1V-1C3.32389 -1 2.67672 -0.865251 2.0858 -0.620204L2.8519 1.22725ZM4 1H6.75V-1H4V1ZM12.25 1H17.75V-1H12.25V1ZM23.25 1H26V-1H23.25V1ZM26 1C26.4086 1 26.7958 1.08114 27.1481 1.22725L27.9142 -0.620204C27.3233 -0.865251 26.6761 -1 26 -1V1ZM28.7728 2.8519C28.9189 3.20424 29 3.59138 29 4H31C31 3.32389 30.8653 2.67672 30.6202 2.0858L28.7728 2.8519ZM29 4V6.75H31V4H29ZM29 12.25V17.75H31V12.25H29ZM29 23.25V26H31V23.25H29ZM29 26C29 26.4086 28.9189 26.7958 28.7728 27.1481L30.6202 27.9142C30.8653 27.3233 31 26.6761 31 26H29ZM27.1481 28.7728C26.7958 28.9189 26.4086 29 26 29V31C26.6761 31 27.3233 30.8653 27.9142 30.6202L27.1481 28.7728ZM26 29H23.25V31H26V29ZM17.75 29H12.25V31H17.75V29ZM6.75 29H4V31H6.75V29Z" fill="#828282"/>
</svg>
