<svg width="60" height="60" viewBox="0 0 60 60" fill="none" xmlns="http://www.w3.org/2000/svg">
<path d="M0 30C0 13.4315 13.4315 0 30 0C46.5685 0 60 13.4315 60 30C60 46.5685 46.5685 60 30 60C13.4315 60 0 46.5685 0 30Z" fill="#EB5757"/>
<path d="M30 12.5C20.34 12.5 12.5 20.34 12.5 30C12.5 39.66 20.34 47.5 30 47.5C39.66 47.5 47.5 39.66 47.5 30C47.5 20.34 39.66 12.5 30 12.5ZM16 30C16 22.265 22.265 16 30 16C33.2375 16 36.2125 17.1025 38.575 18.9575L18.9575 38.575C17.1025 36.2125 16 33.2375 16 30ZM30 44C26.7625 44 23.7875 42.8975 21.425 41.0425L41.0425 21.425C42.8975 23.7875 44 26.7625 44 30C44 37.735 37.735 44 30 44Z" fill="white"/>
</svg>
