<svg width="50" height="50" viewBox="0 0 50 50" fill="none" xmlns="http://www.w3.org/2000/svg">
<circle cx="25" cy="25" r="25" fill="#FBF5F0"/>
<path d="M34.1108 21.1108L28.8783 15.8783C28.4775 15.4775 27.925 15.25 27.3508 15.25H17.4167C16.225 15.25 15.25 16.225 15.25 17.4167V32.5833C15.25 33.775 16.225 34.75 17.4167 34.75H32.5833C33.775 34.75 34.75 33.775 34.75 32.5833V22.6492C34.75 22.075 34.5225 21.5225 34.1108 21.1108ZM19.5833 19.5833H27.1667V21.75H19.5833V19.5833ZM30.4167 30.4167H19.5833V28.25H30.4167V30.4167ZM30.4167 26.0833H19.5833V23.9167H30.4167V26.0833Z" fill="black"/>
</svg>
