<svg width="16" height="16" viewBox="0 0 16 16" fill="none" xmlns="http://www.w3.org/2000/svg">
<path d="M4.66667 7.33301H6V8.66634H4.66667V7.33301ZM14 3.99967V13.333C14 14.0663 13.4 14.6663 12.6667 14.6663H3.33333C2.59333 14.6663 2 14.0663 2 13.333L2.00667 3.99967C2.00667 3.26634 2.59333 2.66634 3.33333 2.66634H4V1.33301H5.33333V2.66634H10.6667V1.33301H12V2.66634H12.6667C13.4 2.66634 14 3.26634 14 3.99967ZM3.33333 5.33301H12.6667V3.99967H3.33333V5.33301ZM12.6667 13.333V6.66634H3.33333V13.333H12.6667ZM10 8.66634H11.3333V7.33301H10V8.66634ZM7.33333 8.66634H8.66667V7.33301H7.33333V8.66634Z" fill="black"/>
</svg>
