<svg width="76" height="76" viewBox="0 0 76 76" fill="none" xmlns="http://www.w3.org/2000/svg">
<path d="M74.5293 37.9984C74.5293 58.4438 58.1629 74.9968 38 74.9968C17.8371 74.9968 1.4707 58.4438 1.4707 37.9984C1.4707 17.553 17.8371 1 38 1C58.1629 1 74.5293 17.553 74.5293 37.9984Z" fill="#FBF5F0" stroke="#E2B695" stroke-width="2"/>
<mask id="path-2-inside-1_16544_250995" fill="white">
<path d="M33.2041 51.5609C33.0064 51.5609 32.9076 51.4608 32.7099 51.3607L18.2789 39.8518C17.9823 39.5515 17.8835 39.1512 18.18 38.7509C18.4765 38.4507 18.8719 38.3506 19.2673 38.6508L33.2041 49.7595L55.7402 24.2396C56.0367 23.9393 56.5309 23.9393 56.8274 24.1395C57.124 24.4397 57.124 24.9401 56.9263 25.2404L33.7971 51.2607C33.5995 51.4608 33.4018 51.5609 33.2041 51.5609Z"/>
</mask>
<path d="M33.2041 51.5609C33.0064 51.5609 32.9076 51.4608 32.7099 51.3607L18.2789 39.8518C17.9823 39.5515 17.8835 39.1512 18.18 38.7509C18.4765 38.4507 18.8719 38.3506 19.2673 38.6508L33.2041 49.7595L55.7402 24.2396C56.0367 23.9393 56.5309 23.9393 56.8274 24.1395C57.124 24.4397 57.124 24.9401 56.9263 25.2404L33.7971 51.2607C33.5995 51.4608 33.4018 51.5609 33.2041 51.5609Z" fill="#2EB67D"/>
<path d="M32.7099 51.3607L31.4628 52.9244L31.6234 53.0524L31.8065 53.1451L32.7099 51.3607ZM18.2789 39.8518L16.8559 41.2572L16.9392 41.3415L17.0318 41.4154L18.2789 39.8518ZM18.18 38.7509L16.757 37.3455L16.6574 37.4464L16.5729 37.5604L18.18 38.7509ZM19.2673 38.6508L20.5139 37.0869L20.4955 37.0722L20.4768 37.058L19.2673 38.6508ZM33.2041 49.7595L31.9575 51.3235L33.4445 52.5087L34.7032 51.0833L33.2041 49.7595ZM55.7402 24.2396L54.3172 22.8342L54.278 22.8739L54.241 22.9157L55.7402 24.2396ZM56.8274 24.1395L58.2504 22.7341L58.1109 22.5929L57.9464 22.4818L56.8274 24.1395ZM56.9263 25.2404L58.4211 26.5691L58.5172 26.461L58.5967 26.3402L56.9263 25.2404ZM33.7971 51.2607L35.2201 52.6661L35.257 52.6287L35.292 52.5894L33.7971 51.2607ZM33.2041 49.5609C33.3307 49.5609 33.4644 49.5779 33.5973 49.6141C33.7248 49.6489 33.8171 49.6921 33.8603 49.714C33.8806 49.7242 33.8922 49.731 33.8891 49.7292C33.8834 49.726 33.8779 49.7227 33.8515 49.7073C33.8083 49.682 33.7204 49.6307 33.6132 49.5764L31.8065 53.1451C31.7981 53.1409 31.7968 53.1395 31.8339 53.1612C31.8544 53.1732 31.9508 53.2306 32.0536 53.2827C32.3248 53.42 32.71 53.5609 33.2041 53.5609V49.5609ZM33.9569 49.7971L19.5259 38.2881L17.0318 41.4154L31.4628 52.9244L33.9569 49.7971ZM19.7018 38.4464C19.7782 38.5237 19.9442 38.7305 19.9899 39.0777C20.0409 39.4647 19.9094 39.7763 19.7871 39.9414L16.5729 37.5604C16.1541 38.1259 15.9238 38.8378 16.0242 39.6C16.1193 40.3225 16.483 40.8796 16.8559 41.2572L19.7018 38.4464ZM19.603 40.1563C19.528 40.2322 19.3164 40.4088 18.9542 40.4577C18.5485 40.5125 18.2249 40.3706 18.0578 40.2436L20.4768 37.058C19.9143 36.6308 19.1953 36.3889 18.419 36.4937C17.6861 36.5926 17.1285 36.9694 16.757 37.3455L19.603 40.1563ZM18.0207 40.2148L31.9575 51.3235L34.4507 48.1955L20.5139 37.0869L18.0207 40.2148ZM34.7032 51.0833L57.2393 25.5634L54.241 22.9157L31.7049 48.4356L34.7032 51.0833ZM57.1632 25.645C56.9119 25.8993 56.6193 25.9847 56.4101 25.9979C56.2168 26.0101 55.966 25.971 55.7085 25.7972L57.9464 22.4818C56.957 21.814 55.3751 21.763 54.3172 22.8342L57.1632 25.645ZM55.4045 25.5449C55.1553 25.2926 55.078 25.0069 55.066 24.8132C55.0549 24.6337 55.0891 24.3937 55.2559 24.1405L58.5967 26.3402C59.2427 25.3591 59.2973 23.794 58.2504 22.7341L55.4045 25.5449ZM55.4315 23.9116L32.3023 49.9319L35.292 52.5894L58.4211 26.5691L55.4315 23.9116ZM32.3742 49.8553C32.3916 49.8376 32.6751 49.5609 33.2041 49.5609V53.5609C34.1285 53.5609 34.8073 53.084 35.2201 52.6661L32.3742 49.8553Z" fill="#BD6F34" mask="url(#path-2-inside-1_16544_250995)"/>
</svg>
