<svg width="16" height="16" viewBox="0 0 16 16" fill="none" xmlns="http://www.w3.org/2000/svg">
<path d="M15.9141 2.51008C15.8244 2.35852 15.6764 2.25225 15.5056 2.21757L6.44253 0.0116262C6.14384 -0.0468313 5.84916 0.119756 5.74578 0.407897L2.29121 9.26846L3.4445 9.69278L6.71831 1.26781L14.593 3.29661C14.1012 4.83591 12.931 8.04872 11.8091 11.0402C10.8311 13.6502 10.2683 14.544 9.1986 14.7265C9.19734 14.7253 9.19617 14.724 9.19617 14.7221C7.00998 15.0315 7.04922 12.2177 7.04922 12.2177L0.0671423 9.37019C-0.429025 12.5453 1.98747 13.309 1.98747 13.309L7.09933 15.6522C7.10056 15.6528 7.89855 16.0366 8.76586 15.9972C11.1053 15.9415 11.9274 14.2265 12.9575 11.4789C14.4457 7.50788 15.9562 3.05844 15.9711 3.01125C16.0243 2.8429 16.0033 2.66132 15.9141 2.51008Z" fill="#354253"/>
<path d="M11.7846 6.08336C11.8378 6.09806 11.8929 6.10586 11.9474 6.10586C12.2166 6.10586 12.463 5.92461 12.5385 5.6496C12.6282 5.31927 12.4344 4.97802 12.1077 4.88802L9.44774 4.05913C9.12463 3.96883 8.78286 4.16288 8.69371 4.49289C8.60453 4.82319 8.79651 5.16447 9.1245 5.2548L11.7846 6.08336Z" fill="#354253"/>
<path d="M7.62521 6.97516C7.51859 7.30049 7.69168 7.65085 8.01301 7.75944L10.659 8.71409C10.7233 8.73568 10.7864 8.74538 10.8501 8.74574C11.1082 8.74711 11.35 8.58274 11.4361 8.32249C11.543 7.99804 11.3703 7.64716 11.0476 7.53864L8.40263 6.5846C8.07939 6.4766 7.73308 6.65132 7.62521 6.97516Z" fill="#354253"/>
<path d="M7.39535 9.17132C7.07343 9.06257 6.72583 9.24003 6.62058 9.56635C6.51474 9.89011 6.69116 10.2414 7.01307 10.3476L9.66463 11.2983C9.72852 11.3202 9.79215 11.3295 9.85665 11.3295C10.1142 11.3295 10.3544 11.164 10.4392 10.9039C10.545 10.5783 10.3692 10.2277 10.0473 10.1214L7.39535 9.17132Z" fill="#354253"/>
<path d="M7.29815 3.33635C7.67392 3.33635 7.97882 3.63572 7.97882 4.0045C7.97882 4.37356 7.67392 4.67261 7.29815 4.67261C6.92209 4.67261 6.61719 4.37353 6.61719 4.0045C6.61722 3.63572 6.92209 3.33635 7.29815 3.33635Z" fill="#354253"/>
<path d="M6.33331 5.82008C6.7094 5.82008 7.01398 6.11916 7.01398 6.4879C7.01398 6.85635 6.7094 7.1554 6.33331 7.1554C5.95724 7.1554 5.65234 6.85635 5.65234 6.4879C5.65234 6.1192 5.95724 5.82008 6.33331 5.82008Z" fill="#354253"/>
<path d="M5.30596 8.38271C5.68206 8.38271 5.98693 8.68211 5.98693 9.05151C5.98693 9.42021 5.68206 9.71897 5.30596 9.71897C4.9299 9.71897 4.625 9.42028 4.625 9.05151C4.625 8.68211 4.9299 8.38271 5.30596 8.38271Z" fill="#354253"/>
</svg>
