<svg width="6" height="14" viewBox="0 0 6 14" fill="none" xmlns="http://www.w3.org/2000/svg">
<path d="M3 6C2.44771 6 2 6.44772 2 7C2 7.55228 2.44771 8 3 8C3.55228 8 4 7.55228 4 7C4 6.44772 3.55228 6 3 6Z" fill="#354253"/>
<path d="M1.22462 3.75201L2.23912 2.6611L2.23912 4.18182C2.23912 4.39881 2.31929 4.60692 2.46198 4.76036C2.60467 4.9138 2.7982 5 3 5C3.2018 5 3.39533 4.9138 3.53802 4.76036C3.68072 4.60692 3.76088 4.39881 3.76088 4.18182L3.76088 2.6611L4.77538 3.75201C4.90992 3.89667 5.09238 3.97795 5.28264 3.97795C5.47289 3.97795 5.65536 3.89667 5.78989 3.75201C5.92442 3.60735 6 3.41114 6 3.20655C6 3.00197 5.92442 2.80576 5.78989 2.6611L3.53804 0.239655C3.46738 0.163675 3.3835 0.103405 3.29119 0.0622849C3.19887 0.0211648 3.09992 0 3 0C2.90008 0 2.80113 0.0211648 2.70882 0.0622849C2.6165 0.103405 2.53262 0.163675 2.46196 0.239655L0.210111 2.6611C0.0755794 2.80576 4.7542e-07 3.00197 4.76837e-07 3.20655C4.78255e-07 3.41114 0.0755794 3.60735 0.210111 3.75201C0.344643 3.89667 0.527107 3.97795 0.717363 3.97795C0.90762 3.97795 1.09008 3.89667 1.22462 3.75201Z" fill="#27AE60"/>
<path d="M5.78988 10.248C5.72327 10.1763 5.64419 10.1195 5.55716 10.0808C5.47012 10.042 5.37684 10.022 5.28263 10.022C5.18843 10.022 5.09514 10.042 5.00811 10.0808C4.92107 10.1195 4.84199 10.1763 4.77538 10.248L3.76088 11.3389V9.81818C3.76088 9.60118 3.68071 9.39308 3.53802 9.23964C3.39533 9.0862 3.2018 9 3 9C2.7982 9 2.60467 9.0862 2.46198 9.23964C2.31929 9.39308 2.23912 9.60118 2.23912 9.81818V11.3389L1.22462 10.248C1.15801 10.1763 1.07893 10.1195 0.991891 10.0808C0.904857 10.042 0.811573 10.022 0.717368 10.022C0.623162 10.022 0.529878 10.042 0.442844 10.0808C0.355809 10.1195 0.276728 10.1763 0.210116 10.248C0.143501 10.3196 0.0906597 10.4046 0.0546079 10.4982C0.0185561 10.5918 0 10.6921 0 10.7934C0 10.8947 0.0185561 10.995 0.0546079 11.0886C0.0906597 11.1822 0.143501 11.2673 0.210116 11.3389L2.46196 13.7603C2.53262 13.8363 2.6165 13.8966 2.70882 13.9377C2.80113 13.9788 2.90008 14 3 14C3.09992 14 3.19887 13.9788 3.29118 13.9377C3.3835 13.8966 3.46738 13.8363 3.53804 13.7603L5.78988 11.3389C5.8565 11.2673 5.90934 11.1822 5.94539 11.0886C5.98144 10.995 6 10.8947 6 10.7934C6 10.6921 5.98144 10.5918 5.94539 10.4982C5.90934 10.4046 5.8565 10.3196 5.78988 10.248Z" fill="#27AE60"/>
</svg>
