<svg width="196" height="130" viewBox="0 0 196 130" fill="none" xmlns="http://www.w3.org/2000/svg">
<path d="M0 61.0027L4.94725 39.6111H5.03206L16.6833 61.5059C18.529 62.2586 19.5346 62.3432 21.041 62.3432C26.9938 62.3432 31.3514 58.4143 31.3514 53.0684C31.3514 49.059 29.1706 45.6333 24.3082 43.0408L14.7529 37.856C6.95846 33.5929 2.34641 27.9089 2.34641 19.4714C2.34641 9.02521 10.0601 0.837311 23.7226 0.837311C30.261 0.837311 36.2139 1.75513 42.7523 4.51261L37.8091 22.9817H37.7243L26.6586 3.17614C24.9826 2.75748 24.2274 2.67295 22.5514 2.67295C18.2745 2.67295 14.5873 5.76454 14.5873 10.3617C14.5873 14.037 16.6833 17.2976 22.8866 20.9729L33.8675 27.5748C40.9107 31.7533 44.9332 36.8496 44.9332 44.4538C44.9332 55.9869 35.2083 64.3438 21.2065 64.3438C14.0825 64.3438 6.78884 63.257 0 61.0027Z" fill="#D46F2C"/>
<path d="M97.2448 61.3368V62.6733H72.9326V61.3368H76.2846V36.1813C76.2846 29.664 74.6934 27.4902 71.2566 27.4902C69.5806 27.4902 67.9046 27.9934 66.2245 28.7422V61.3328H69.5765V62.6692H45.2643V61.3328H49.4564V11.6136L44.6787 7.51966L66.2286 0V27.5748C71.6766 22.8971 76.539 19.6365 82.2415 19.6365C89.3696 19.6365 93.0568 24.0645 93.0568 32.5865V61.3328H97.2448V61.3368Z" fill="#D46F2C"/>
<path d="M196 39.8607C196 54.5659 187.866 63.5106 176.55 63.5106C172.693 63.5106 169.341 62.3391 166.49 60.5035V82.2292H173.198V83.5657H145.534V82.2292H149.726V30.8354L144.944 26.7415L166.49 19.2218V27.4943C170.933 22.9817 176.13 20.0591 181.077 20.0591C189.542 20.0551 196 26.9065 196 39.8607ZM178.061 44.6228C178.061 33.4239 175.629 27.8284 170.012 27.8284C168.756 27.8284 167.665 28.1625 166.49 28.6657V59.0825C167.665 59.9198 169.172 60.3344 170.597 60.3344C174.959 60.3344 178.061 54.6504 178.061 44.6228Z" fill="#D46F2C"/>
<path d="M121.068 63.6555C105.035 63.6555 97.1842 53.8131 97.1842 41.5312C97.1842 28.3235 107.228 19.9142 121.149 19.9142C134.904 19.9142 144.355 29.503 144.355 41.5312C144.359 55.0731 133.22 63.6555 121.068 63.6555ZM128.358 41.5796C128.358 30.7268 125.939 25.0749 120.495 25.0749C115.128 25.0749 113.387 30.7268 113.387 41.5796C113.387 52.4323 115.729 58.2371 121.173 58.2371C126.464 58.2331 128.358 52.4323 128.358 41.5796Z" fill="#D46F2C"/>
<path d="M64.4152 98.3031C64.4152 118.056 50.6195 129.062 28.5406 129.062H0.860214V127.73H7.54809V73.5502L0.109039 69.0497H29.627C51.621 69.0497 64.4152 79.2986 64.4152 98.3031ZM45.1795 98.3876C45.1795 80.1319 38.9924 70.3821 28.0358 70.3821H25.9438V127.73H27.2806C38.0716 127.73 45.1795 116.893 45.1795 98.3876Z" fill="#D46F2C"/>
<path d="M149.035 121.393C145.942 126.313 140.421 129.895 132.728 129.895C122.777 129.895 118.847 124.062 118.847 113.226V89.5556H112.41V89.4711L135.575 71.2999V88.2192H147.363V89.5516H135.575V108.971C135.575 118.64 137.832 122.223 144.02 122.223C145.861 122.223 147.279 121.973 148.955 121.305L149.035 121.393Z" fill="#D46F2C"/>
<path d="M91.2798 129.895C75.069 129.895 67.1332 119.944 67.1332 107.53C67.1332 94.1769 77.2862 85.671 91.3646 85.671C105.273 85.671 114.829 95.3645 114.829 107.53C114.829 121.22 103.565 129.895 91.2798 129.895ZM98.6462 107.578C98.6462 96.6043 96.1988 90.8921 90.6942 90.8921C85.2664 90.8921 83.5096 96.6083 83.5096 107.578C83.5096 118.551 85.8802 124.417 91.3848 124.417C96.7359 124.417 98.6462 118.547 98.6462 107.578Z" fill="#D46F2C"/>
<path d="M155.247 123.523C155.247 119.518 157.791 117.046 161.676 117.046C165.561 117.046 168.106 119.518 168.106 123.523C168.106 127.528 165.561 130 161.676 130C157.791 130 155.247 127.528 155.247 123.523Z" fill="#D46F2C"/>
</svg>
