<svg width="7" height="14" viewBox="0 0 7 14" fill="none" xmlns="http://www.w3.org/2000/svg">
<path d="M3.33337 8C3.88566 8 4.33337 7.55228 4.33337 7C4.33337 6.44772 3.88566 6 3.33337 6C2.78109 6 2.33337 6.44772 2.33337 7C2.33337 7.55228 2.78109 8 3.33337 8Z" fill="#354253"/>
<path d="M0.54349 3.75202C0.610102 3.82365 0.689184 3.88048 0.776218 3.91924C0.863253 3.95801 0.956536 3.97796 1.05074 3.97796C1.14495 3.97796 1.23823 3.95801 1.32527 3.91924C1.4123 3.88048 1.49138 3.82365 1.55799 3.75202L2.5725 2.66112V4.18182C2.5725 4.39882 2.65266 4.60692 2.79535 4.76036C2.93804 4.9138 3.13158 5 3.33337 5C3.53517 5 3.7287 4.9138 3.8714 4.76036C4.01409 4.60692 4.09425 4.39882 4.09425 4.18182V2.66112L5.10875 3.75202C5.17537 3.82365 5.25445 3.88048 5.34148 3.91924C5.42852 3.95801 5.5218 3.97796 5.61601 3.97796C5.71021 3.97796 5.8035 3.95801 5.89053 3.91924C5.97756 3.88048 6.05665 3.82365 6.12326 3.75202C6.18987 3.68039 6.24271 3.59536 6.27877 3.50177C6.31482 3.40818 6.33337 3.30787 6.33337 3.20657C6.33337 3.10527 6.31482 3.00496 6.27877 2.91137C6.24271 2.81778 6.18987 2.73275 6.12326 2.66112L3.87141 0.239654C3.80076 0.163674 3.71687 0.103404 3.62456 0.0622841C3.53224 0.0211642 3.4333 0 3.33337 0C3.23345 0 3.13451 0.0211642 3.04219 0.0622841C2.94987 0.103404 2.86599 0.163674 2.79534 0.239654L0.54349 2.66112C0.476875 2.73275 0.424033 2.81778 0.387981 2.91137C0.35193 3.00496 0.333374 3.10527 0.333374 3.20657C0.333374 3.30787 0.35193 3.40818 0.387981 3.50177C0.424033 3.59536 0.476875 3.68039 0.54349 3.75202Z" fill="#27AE60"/>
</svg>
