<svg width="158" height="138" viewBox="0 0 158 138" fill="none" xmlns="http://www.w3.org/2000/svg">
<path d="M66.5661 39.7144C67.2666 39.5668 67.9618 39.4111 68.6516 39.2474C85.6502 35.3299 105.089 33.0591 119.829 39.9681C134.279 46.7361 132.503 61.0814 124.052 74.2552C109.586 96.8019 54.8015 118.197 40.0173 95.2719C35.2382 87.8637 43.4758 74.8188 37.5493 66.086C30.8014 56.1413 -0.425833 62.4302 5.81477 40.4593C9.27328 28.276 18.147 28.9927 27.681 32.9464C33.1527 35.2131 38.3787 38.0355 44.0395 39.952C50.9122 42.2831 58.9324 41.3491 66.5661 39.7144Z" fill="#2F80ED"/>
<path opacity="0.8" d="M66.5661 39.7144C67.2666 39.5668 67.9618 39.4111 68.6516 39.2474C85.6502 35.3299 105.089 33.0591 119.829 39.9681C134.279 46.7361 132.503 61.0814 124.052 74.2552C109.586 96.8019 54.8015 118.197 40.0173 95.2719C35.2382 87.8637 43.4758 74.8188 37.5493 66.086C30.8014 56.1413 -0.425833 62.4302 5.81477 40.4593C9.27328 28.276 18.147 28.9927 27.681 32.9464C33.1527 35.2131 38.3787 38.0355 44.0395 39.952C50.9122 42.2831 58.9324 41.3491 66.5661 39.7144Z" fill="white"/>
<path d="M78.9995 137.897C122.113 137.897 157.063 135.857 157.063 133.34C157.063 130.823 122.113 128.782 78.9995 128.782C35.886 128.782 0.935547 130.823 0.935547 133.34C0.935547 135.857 35.886 137.897 78.9995 137.897Z" fill="#E0E0E0"/>
<path d="M29.1182 102.116H80.8306V128.814C80.8306 129.156 80.7633 129.495 80.6323 129.811C80.5014 130.127 80.3096 130.414 80.0677 130.656C79.8258 130.898 79.5386 131.09 79.2226 131.221C78.9065 131.351 78.5678 131.419 78.2257 131.419H31.7231C31.381 131.419 31.0423 131.351 30.7262 131.221C30.4102 131.09 30.123 130.898 29.8811 130.656C29.6392 130.414 29.4474 130.127 29.3165 129.811C29.1855 129.495 29.1182 129.156 29.1182 128.814V102.116Z" fill="#DAA277"/>
<path d="M29.1179 101.905H65.712L61.2108 96.1434C60.7155 95.5113 59.4916 95 58.4729 95H25.5628C24.5482 95 24.1214 95.5113 24.6166 96.1434L29.1179 101.905Z" fill="#CD8249"/>
<path opacity="0.2" d="M29.1179 101.905H65.712L61.2108 96.1434C60.7155 95.5113 59.4916 95 58.4729 95H25.5628C24.5482 95 24.1214 95.5113 24.6166 96.1434L29.1179 101.905Z" fill="#CD8249"/>
<path d="M80.8303 102.117H44.2402L48.7415 98.3601C49.2367 97.9575 50.4607 97.6152 51.4793 97.6152H84.3854C85.4041 97.6152 85.8268 97.9494 85.3316 98.3601L80.8303 102.117Z" fill="#CD8249"/>
<path opacity="0.2" d="M44.2402 102.116H80.8303V128.814C80.8303 129.156 80.7629 129.495 80.632 129.811C80.5011 130.127 80.3092 130.414 80.0673 130.656C79.8255 130.898 79.5383 131.09 79.2222 131.221C78.9062 131.351 78.5675 131.419 78.2254 131.419H46.8452C46.5031 131.419 46.1644 131.351 45.8483 131.221C45.5323 131.09 45.2451 130.898 45.0032 130.656C44.7613 130.414 44.5694 130.127 44.4385 129.811C44.3076 129.495 44.2402 129.156 44.2402 128.814V102.116Z" fill="white"/>
<path opacity="0.5" d="M33.6602 102.116V120.427L34.9244 119.429L35.8142 120.427L36.5872 119.316L37.3804 120.427L38.4835 119.594L39.6995 120.427V102.116H33.6602Z" fill="white"/>
<path d="M64.6947 76.4292L86.1463 49.6187L57.5844 25.6387L38.6613 47.3519L35.843 52.7833C35.703 52.9375 35.5964 53.1189 35.5298 53.3161C35.4632 53.5134 35.438 53.7223 35.4557 53.9297C35.4735 54.1372 35.5338 54.3387 35.633 54.5218C35.7322 54.7049 35.8681 54.8655 36.0322 54.9937L61.7999 76.6305C62.2189 76.9681 62.75 77.1349 63.2868 77.0976C63.8236 77.0603 64.3265 76.8215 64.6947 76.4292Z" fill="#DAA277"/>
<path opacity="0.5" d="M49.9826 56.6567L46.8945 61.6291L48.1386 61.8988L48.5614 63.0503L49.3867 63.0987L49.7692 64.0851L50.7798 64.379L51.5569 65.615L54.645 60.6427L49.9826 56.6567Z" fill="white"/>
<path opacity="0.1" d="M85.2114 48.8336L65.9742 70.2932L38.6484 47.3519L57.5836 25.6387L85.2114 48.8336Z" fill="#354253"/>
<path d="M85.2372 48.8335L66 70.2931L73.9638 70.8809L92.9031 49.1677L85.2372 48.8335Z" fill="#CD8249"/>
<path opacity="0.3" d="M85.2372 48.8335L66 70.2931L73.9638 70.8809L92.9031 49.1677L85.2372 48.8335Z" fill="#CD8249"/>
<path d="M50.2412 25.3008L31 46.7644L38.9678 47.3523L57.903 25.639L50.2412 25.3008Z" fill="#CD8249"/>
<path opacity="0.4" d="M50.2412 25.3008L31 46.7644L38.9678 47.3523L57.903 25.639L50.2412 25.3008Z" fill="#CD8249"/>
<path opacity="0.1" d="M79.2891 55.4406L85.2116 48.8336L57.5838 25.6387L54.0488 34.1581L79.2891 55.4406Z" fill="#354253"/>
<path opacity="0.2" d="M38.6484 47.3519L57.5836 25.6387L54.0486 34.1581L40.7139 49.0872L38.6484 47.3519Z" fill="#354253"/>
<path d="M91.8829 8.43098C91.9594 8.68866 91.8829 8.94231 91.7138 8.99062C91.5447 9.03894 91.3474 8.86984 91.2709 8.61216C91.1944 8.35448 91.2709 8.10083 91.44 8.04849C91.6091 7.99615 91.8104 8.1733 91.8829 8.43098Z" fill="#354253"/>
<path d="M91.9111 8.93799C91.8352 9.82387 91.6374 10.695 91.3232 11.5268C91.5385 11.6015 91.7675 11.6283 91.9942 11.6053C92.2209 11.5824 92.4398 11.5103 92.6358 11.394L91.9111 8.93799Z" fill="#EB5757"/>
<path d="M92.4191 6.71138C92.4533 6.69172 92.4791 6.66021 92.4916 6.6228C92.4992 6.60329 92.5027 6.58243 92.5019 6.56152C92.5011 6.5406 92.496 6.52008 92.4869 6.50121C92.4779 6.48234 92.465 6.46553 92.4492 6.45181C92.4334 6.4381 92.4149 6.42778 92.395 6.42149C92.1592 6.33106 91.905 6.29884 91.6541 6.32758C91.4032 6.35632 91.1629 6.44516 90.9536 6.58657C90.9264 6.61418 90.91 6.65069 90.9076 6.6894C90.9051 6.7281 90.9167 6.7664 90.9402 6.79724C90.9637 6.82809 90.9975 6.84942 91.0355 6.85732C91.0735 6.86521 91.113 6.85914 91.1469 6.84022C91.3141 6.73052 91.5051 6.66233 91.7039 6.64132C91.9028 6.62031 92.1039 6.64709 92.2903 6.71943C92.3112 6.72705 92.3334 6.73026 92.3556 6.72888C92.3777 6.72749 92.3994 6.72154 92.4191 6.71138Z" fill="#354253"/>
<path d="M100.837 10.1542C101.014 12.2881 101.542 16.1935 102.802 17.0954C102.802 17.0954 102.504 19.6601 97.9705 20.3163C93.0021 21.0491 95.2326 18.1986 95.2326 18.1986C97.8456 17.1518 97.4793 15.1507 96.7304 13.3309L98.6468 11.1326C99.3836 10.3193 100.74 9.06312 100.837 10.1542Z" fill="#E6C1A4"/>
<path d="M104.424 18.1383C104.827 17.7719 104.022 16.3064 103.527 16.101C102.23 15.5575 96.9277 16.101 94.9347 17.8122C94.7694 18.0953 94.6695 18.4118 94.6423 18.7385C94.6152 19.0652 94.6614 19.3939 94.7777 19.7004L104.424 18.1383Z" fill="white"/>
<path d="M121.31 125.758C121.18 125.818 121.038 125.851 120.894 125.855C120.75 125.859 120.607 125.834 120.473 125.782C120.42 125.74 120.381 125.683 120.362 125.618C120.342 125.554 120.343 125.484 120.364 125.42C120.375 125.367 120.397 125.318 120.429 125.275C120.461 125.231 120.502 125.196 120.549 125.17C120.984 124.917 122.059 125.251 122.104 125.267C122.118 125.271 122.132 125.279 122.142 125.291C122.152 125.302 122.158 125.316 122.16 125.331C122.162 125.347 122.159 125.364 122.152 125.378C122.145 125.392 122.134 125.404 122.12 125.412C121.862 125.555 121.591 125.671 121.31 125.758ZM120.723 125.267L120.63 125.307C120.603 125.322 120.579 125.343 120.56 125.368C120.541 125.393 120.528 125.422 120.521 125.452C120.493 125.597 120.549 125.641 120.566 125.654C120.759 125.79 121.415 125.593 121.87 125.364C121.499 125.247 121.108 125.214 120.723 125.267Z" fill="#2F80ED"/>
<path d="M122.104 125.416C122.09 125.42 122.076 125.42 122.063 125.416C121.661 125.336 120.819 124.833 120.775 124.454C120.769 124.395 120.783 124.335 120.816 124.285C120.849 124.235 120.899 124.198 120.956 124.18C121.012 124.155 121.072 124.143 121.133 124.143C121.194 124.143 121.255 124.155 121.31 124.18C121.777 124.374 122.14 125.275 122.152 125.312C122.16 125.324 122.164 125.338 122.164 125.352C122.164 125.366 122.16 125.38 122.152 125.392C122.146 125.4 122.139 125.406 122.131 125.41C122.122 125.414 122.113 125.416 122.104 125.416ZM121.057 124.317C121.045 124.314 121.032 124.314 121.02 124.317C120.928 124.357 120.932 124.406 120.936 124.426C120.96 124.651 121.532 125.058 121.938 125.207C121.818 124.945 121.536 124.438 121.25 124.317C121.188 124.293 121.119 124.293 121.057 124.317Z" fill="#2F80ED"/>
<path d="M97.7128 130.082C97.282 130.082 96.8673 130.022 96.7264 129.829C96.6903 129.778 96.6709 129.718 96.6709 129.655C96.6709 129.593 96.6903 129.533 96.7264 129.482C96.7532 129.436 96.7891 129.395 96.832 129.362C96.8749 129.33 96.9238 129.306 96.976 129.293C97.5356 129.144 98.7113 129.812 98.7596 129.841C98.7745 129.848 98.7867 129.86 98.7944 129.874C98.802 129.889 98.8047 129.906 98.802 129.922C98.7992 129.939 98.7913 129.954 98.7793 129.965C98.7673 129.976 98.7519 129.984 98.7354 129.986C98.3982 130.049 98.0559 130.081 97.7128 130.082ZM97.1813 129.43C97.1296 129.428 97.0778 129.435 97.0283 129.45C96.9638 129.465 96.9075 129.504 96.8713 129.559C96.8149 129.659 96.8351 129.708 96.8713 129.736C97.0283 129.953 97.8779 129.957 98.4818 129.869C98.0807 129.64 97.6391 129.491 97.1813 129.43Z" fill="#2F80ED"/>
<path d="M98.7278 129.99H98.6956C98.293 129.809 97.4877 129.08 97.5481 128.702C97.5481 128.613 97.6287 128.5 97.8461 128.48C97.9247 128.471 98.0043 128.479 98.0799 128.502C98.1554 128.526 98.2252 128.565 98.2849 128.617C98.7157 128.967 98.8043 129.873 98.8083 129.909C98.8106 129.923 98.8087 129.938 98.803 129.95C98.7973 129.963 98.788 129.974 98.7761 129.982C98.7613 129.99 98.7444 129.993 98.7278 129.99ZM97.9226 128.629H97.8743C97.7293 128.629 97.7213 128.702 97.7172 128.718C97.681 128.947 98.2286 129.523 98.6392 129.768C98.6041 129.384 98.4492 129.021 98.1963 128.73C98.1209 128.663 98.0232 128.627 97.9226 128.629Z" fill="#2F80ED"/>
<path d="M102.424 129.909H99.0617L98.7275 122.13H102.089L102.424 129.909Z" fill="#E6C1A4"/>
<path d="M126.038 124.599L122.941 125.665L119.729 118.334L122.825 117.267L126.038 124.599Z" fill="#E6C1A4"/>
<path d="M122.205 124.897L125.828 123.789C125.893 123.77 125.961 123.773 126.024 123.798C126.086 123.823 126.138 123.868 126.171 123.926L127.681 126.584C127.717 126.649 127.738 126.721 127.742 126.795C127.747 126.87 127.734 126.944 127.706 127.013C127.678 127.082 127.635 127.143 127.579 127.193C127.524 127.243 127.458 127.28 127.387 127.3C126.118 127.667 125.486 127.779 123.9 128.267C122.922 128.565 120.458 129.499 119.068 129.776C117.679 130.054 117.233 128.726 117.772 128.488C120.188 127.421 121.178 126.209 121.754 125.267C121.854 125.093 122.015 124.961 122.205 124.897Z" fill="#354253"/>
<path d="M99.086 129.519H102.754C102.82 129.52 102.884 129.543 102.936 129.584C102.988 129.626 103.024 129.684 103.04 129.748L103.704 132.736C103.721 132.808 103.72 132.883 103.704 132.955C103.687 133.027 103.654 133.094 103.608 133.151C103.561 133.209 103.502 133.255 103.435 133.286C103.368 133.317 103.295 133.333 103.221 133.332C101.896 133.311 99.9999 133.231 98.321 133.231C96.3763 133.231 95.559 133.34 93.2762 133.34C91.8992 133.34 91.5167 131.947 92.0925 131.818C94.7216 131.242 96.0059 131.182 98.2767 129.78C98.5175 129.621 98.7974 129.531 99.086 129.519Z" fill="#354253"/>
<path d="M108.849 19.2373C109.827 20.1351 110.673 21.033 111.55 21.9711C112.428 22.9092 113.241 23.8795 114.03 24.9142C114.855 25.9654 115.603 27.0741 116.269 28.2318C116.633 28.8699 116.948 29.5348 117.211 30.2208C117.28 30.41 117.348 30.5912 117.404 30.7965C117.47 31.0042 117.525 31.2152 117.569 31.4286L117.638 31.7628L117.686 32.1332C117.731 32.4726 117.731 32.8165 117.686 33.1559C117.594 33.7965 117.357 34.4078 116.994 34.9435C116.729 35.3347 116.418 35.6929 116.068 36.0104C115.505 36.521 114.889 36.9705 114.232 37.3512C113.073 38.0139 111.861 38.5782 110.608 39.0381C108.231 39.9204 105.782 40.594 103.289 41.0512L102.584 38.6355C104.77 37.6894 106.985 36.6667 109.026 35.5756C110.02 35.0544 110.976 34.4651 111.889 33.8121C112.269 33.5421 112.618 33.2316 112.931 32.8861C113.026 32.784 113.106 32.6687 113.169 32.5439C113.201 32.4754 113.169 32.4835 113.129 32.6284C113.1 32.8982 113.104 32.6888 113.04 32.5439C113.02 32.4754 112.984 32.3828 112.947 32.2943C112.911 32.2057 112.867 32.105 112.823 32.0084C112.604 31.5693 112.361 31.1432 112.094 30.7321C111.472 29.8088 110.8 28.9204 110.081 28.0708C109.34 27.1931 108.559 26.3194 107.758 25.4618C106.956 24.6042 106.115 23.7386 105.342 22.9414L108.849 19.2373Z" fill="#E6C1A4"/>
<path d="M103.507 38.2529L100.338 39.2112L102.375 42.561C102.375 42.561 104.247 41.7879 104.662 40.1976L103.507 38.2529Z" fill="#E6C1A4"/>
<path d="M99.0576 40.3989L100.306 43.1609L102.355 42.565L100.318 39.2112L99.0576 40.3989Z" fill="#E6C1A4"/>
<path d="M101.425 20.1472C101.123 23.3681 107.935 28.3526 107.935 28.3526L114.494 23.8634C113.355 21.7628 111.69 19.994 109.662 18.73C105.902 16.3223 101.803 16.1451 101.425 20.1472Z" fill="#2F80ED"/>
<g opacity="0.3">
<path opacity="0.3" d="M101.425 20.1472C101.123 23.3681 107.935 28.3526 107.935 28.3526L114.494 23.8634C113.355 21.7628 111.69 19.994 109.662 18.73C105.902 16.3223 101.803 16.1451 101.425 20.1472Z" fill="white"/>
</g>
<path d="M90.6151 19.8895C90.6151 19.8895 87.672 24.4069 94.6614 48.6365L112.433 46.0115C112.183 43.5555 109.212 32.8418 109.111 21.1296C109.107 20.564 108.989 20.0051 108.763 19.4866C108.537 18.9681 108.208 18.5008 107.796 18.1129C107.384 17.7249 106.899 17.4244 106.368 17.2295C105.837 17.0345 105.272 16.9492 104.707 16.9786C104.191 17.0067 103.66 17.043 103.133 17.0953C100.595 17.3215 98.0736 17.6939 95.5794 18.2106C93.884 18.6419 92.2243 19.2032 90.6151 19.8895Z" fill="#EB5757"/>
<g opacity="0.3">
<path opacity="0.3" d="M90.6151 19.8895C90.6151 19.8895 87.672 24.4069 94.6614 48.6365L112.433 46.0115C112.183 43.5555 109.212 32.8418 109.111 21.1296C109.107 20.564 108.989 20.0051 108.763 19.4866C108.537 18.9681 108.208 18.5008 107.796 18.1129C107.384 17.7249 106.899 17.4244 106.368 17.2295C105.837 17.0345 105.272 16.9492 104.707 16.9786C104.191 17.0067 103.66 17.043 103.133 17.0953C100.595 17.3215 98.0736 17.6939 95.5794 18.2106C93.884 18.6419 92.2243 19.2032 90.6151 19.8895Z" fill="white"/>
</g>
<path opacity="0.2" d="M89.8379 27.6761L89.8983 27.6077L94.0775 27.9781C94.7136 30.6756 92.3865 34.3556 91.1585 36.0627C90.5673 33.293 90.1265 30.4934 89.8379 27.6761Z" fill="#354253"/>
<path opacity="0.2" d="M98.7275 122.135L98.9007 126.145H102.263L102.089 122.135H98.7275Z" fill="#354253"/>
<path opacity="0.2" d="M122.825 117.267L119.729 118.334L121.387 122.114L124.483 121.047L122.825 117.267Z" fill="#354253"/>
<path d="M100.399 5.33878C101.14 8.58792 101.736 10.452 100.604 12.5859C98.9052 15.7626 94.5327 15.4566 92.8377 12.4933C91.3117 9.82396 90.3535 4.96032 93.1074 2.77007C93.7109 2.2855 94.4281 1.96291 95.1911 1.83281C95.954 1.7027 96.7376 1.76939 97.4676 2.02656C98.1975 2.28374 98.8499 2.72289 99.3628 3.30248C99.8757 3.88207 100.232 4.58293 100.399 5.33878Z" fill="#E6C1A4"/>
<path d="M93.8715 8.52313L92.6355 9.28005L92.7522 5.05255C91.9553 5.08677 91.169 4.8591 90.5137 4.40433C90.9606 3.97755 97.9178 1.5417 100.088 1.96445C100.313 1.87185 100.587 1.45312 100.587 1.45312C100.587 1.45312 100.672 1.98056 100.305 2.18187C100.571 2.12953 101.235 2.25836 101.421 2.64891C101.116 2.56566 100.792 2.58403 100.499 2.70125C100.499 2.70125 102.914 3.06763 102.057 6.41743C101.095 10.1094 101.413 12.2313 101.413 12.2313C101.413 12.2313 99.6169 13.6203 98.0547 13.3626C96.3879 11.5267 93.9802 9.32032 93.8715 8.52313Z" fill="#354253"/>
<path d="M91.5046 4.0706C89.5438 4.0706 88.8392 3.11237 88.3359 2.30713C89.7451 2.15816 92.6802 1.25227 94.8584 1.09927C97.0366 0.946276 99.4241 1.35292 98.7034 2.30713C97.9827 3.26134 91.5046 4.0706 91.5046 4.0706Z" fill="#354253"/>
<path d="M91.9348 3.1968C90.3244 2.97133 88.7541 1.45346 89.962 0C90.4089 1.06694 93.4245 0.942131 95.5665 0.495224C98.3848 -0.0926012 100.338 0.857581 99.339 2.77808C98.7914 3.82891 91.9348 3.1968 91.9348 3.1968Z" fill="#354253"/>
<path d="M95.6104 7.56124C95.8409 8.35623 95.8041 9.20489 95.5057 9.97696C95.1031 10.9875 94.2093 10.7822 93.7422 9.90851C93.3396 9.10327 93.0336 7.64177 93.7181 6.91303C94.4025 6.18428 95.3205 6.60703 95.6104 7.56124Z" fill="#E6C1A4"/>
<path d="M100.624 47.7063C100.624 47.7063 103.507 72.2459 105.6 81.8605C107.891 92.393 119.193 121.108 119.193 121.108L124.83 119.159C124.83 119.159 117.582 97.5385 115.658 82.8147C114.18 71.5091 112.075 46.0112 112.075 46.0112L100.624 47.7063Z" fill="#354253"/>
<path d="M117.751 119.304C117.723 119.304 118.907 121.72 118.907 121.72L125.49 119.582L124.717 117.617L117.751 119.304Z" fill="#EB5757"/>
<path opacity="0.3" d="M102.214 60.2966C103.116 67.117 104.271 75.1936 105.286 80.3511C106.78 72.4477 107.13 62.4668 102.214 60.2966Z" fill="#354253"/>
<path d="M94.3184 48.6366C94.3184 48.6366 91.9268 71.6906 92.3053 81.9332C92.6837 92.5865 97.6601 125.368 97.6601 125.368H103.349C103.349 125.368 102.302 93.2066 102.544 82.7465C102.822 71.3403 107.098 46.7483 107.098 46.7483L94.3184 48.6366Z" fill="#354253"/>
<path d="M96.5539 123.101C96.5298 123.101 96.876 125.46 96.876 125.46H103.797L103.986 123.354L96.5539 123.101Z" fill="#EB5757"/>
<path d="M93.2157 25.5506C92.5876 26.5491 91.9515 27.4469 91.2912 28.3689C90.6309 29.2909 89.9384 30.1807 89.2338 31.0664C87.7975 32.8633 86.2411 34.5609 84.5755 36.1475C84.1245 36.5501 83.7098 36.9527 83.2227 37.3191L82.8684 37.605L82.6912 37.7459C82.6268 37.7982 82.5986 37.8264 82.4657 37.9231C82.0669 38.2076 81.6288 38.4327 81.1653 38.5914C80.4475 38.8365 79.6969 38.9723 78.9388 38.994C78.2974 39.0155 77.6553 38.9873 77.0183 38.9095C74.6896 38.6042 72.4178 37.9613 70.2744 37.0011L70.9709 34.5853C73.0309 34.8297 75.1055 34.9293 77.1793 34.8833C77.6381 34.8593 78.0951 34.8095 78.5482 34.7343C78.8897 34.6844 79.2212 34.5812 79.5306 34.4283C79.6273 34.376 79.6796 34.3236 79.6675 34.3116C79.6555 34.2995 79.7199 34.2592 79.7561 34.223L79.893 34.0982L80.1628 33.8445C80.5251 33.5224 80.8673 33.1319 81.2216 32.7776C81.9182 32.0287 82.6107 31.2597 83.267 30.4424C83.9232 29.6251 84.5875 28.8037 85.2317 27.9582C85.8759 27.1127 86.5 26.2551 87.1281 25.3976C87.7562 24.54 88.3681 23.6381 88.9479 22.8047L93.2157 25.5506Z" fill="#E6C1A4"/>
<path d="M95.5548 24.4831C96.9076 28.9119 89.0525 33.8199 89.0525 33.8199L83.9473 27.3176C85.098 25.1736 86.5187 23.1859 88.1748 21.4031C91.6494 17.6225 94.5241 21.1132 95.5548 24.4831Z" fill="#2F80ED"/>
<g opacity="0.3">
<path opacity="0.3" d="M95.5548 24.4831C96.9076 28.9119 89.0525 33.8199 89.0525 33.8199L83.9473 27.3176C85.098 25.1736 86.5187 23.1859 88.1748 21.4031C91.6494 17.6225 94.5241 21.1132 95.5548 24.4831Z" fill="white"/>
</g>
<path d="M72.1554 34.734L68.0205 33.9771L68.4553 37.5523C68.4553 37.5523 70.6053 38.7602 72.1635 36.8719L72.1554 34.734Z" fill="#E6C1A4"/>
<path d="M66.4258 34.7823L67.3196 37.3631L68.4469 37.5523L68.0121 33.9771L66.4258 34.7823Z" fill="#E6C1A4"/>
</svg>
