<svg width="24" height="24" viewBox="0 0 24 24" fill="none" xmlns="http://www.w3.org/2000/svg">
<circle cx="12" cy="12" r="12" fill="#27AE60"/>
<path d="M11.9998 13.2858C12.7362 13.2858 13.3332 12.7102 13.3332 12.0001C13.3332 11.29 12.7362 10.7144 11.9998 10.7144C11.2635 10.7144 10.6665 11.29 10.6665 12.0001C10.6665 12.7102 11.2635 13.2858 11.9998 13.2858Z" fill="white"/>
<path d="M8.28015 7.82403C8.36897 7.91613 8.47441 7.98918 8.59046 8.03903C8.70651 8.08887 8.83088 8.11452 8.95649 8.11452C9.0821 8.11452 9.20648 8.08887 9.32252 8.03903C9.43857 7.98918 9.54401 7.91613 9.63283 7.82403L10.9855 6.42144V8.37663C10.9855 8.65562 11.0924 8.92319 11.2826 9.12046C11.4729 9.31774 11.7309 9.42857 12 9.42857C12.2691 9.42857 12.5271 9.31774 12.7174 9.12046C12.9076 8.92319 13.0145 8.65562 13.0145 8.37663V6.42144L14.3672 7.82403C14.456 7.91613 14.5614 7.98918 14.6775 8.03903C14.7935 8.08887 14.9179 8.11452 15.0435 8.11452C15.1691 8.11452 15.2935 8.08887 15.4095 8.03903C15.5256 7.98918 15.631 7.91613 15.7198 7.82403C15.8087 7.73194 15.8791 7.6226 15.9272 7.50227C15.9753 7.38195 16 7.25298 16 7.12273C16 6.99249 15.9753 6.86352 15.9272 6.74319C15.8791 6.62287 15.8087 6.51353 15.7198 6.42144L12.7174 3.30813C12.6232 3.21044 12.5113 3.13295 12.3882 3.08008C12.2652 3.02721 12.1332 3 12 3C11.8668 3 11.7348 3.02721 11.6118 3.08008C11.4887 3.13295 11.3768 3.21044 11.2826 3.30813L8.28015 6.42144C8.19134 6.51353 8.12088 6.62287 8.07281 6.74319C8.02474 6.86352 8 6.99249 8 7.12273C8 7.25298 8.02474 7.38195 8.07281 7.50227C8.12088 7.6226 8.19134 7.73194 8.28015 7.82403Z" fill="white"/>
</svg>
