<svg width="158" height="138" viewBox="0 0 158 138" fill="none" xmlns="http://www.w3.org/2000/svg">
<path d="M66.5651 39.7145C67.2656 39.5668 67.9608 39.4112 68.6507 39.2474C85.6493 35.3299 105.088 33.0592 119.828 39.9681C134.278 46.7362 132.502 61.0815 124.051 74.2552C109.585 96.8019 54.8005 118.197 40.0163 95.272C35.2372 87.8638 43.4748 74.8189 37.5483 66.0861C30.8004 56.1414 -0.42681 62.4303 5.8138 40.4593C9.2723 28.2761 18.146 28.9927 27.6801 32.9464C33.1517 35.2132 38.3777 38.0356 44.0385 39.952C50.9112 42.2832 58.9314 41.3491 66.5651 39.7145Z" fill="#2F80ED"/>
<path opacity="0.8" d="M66.5651 39.7145C67.2656 39.5668 67.9608 39.4112 68.6507 39.2474C85.6493 35.3299 105.088 33.0592 119.828 39.9681C134.278 46.7362 132.502 61.0815 124.051 74.2552C109.585 96.8019 54.8005 118.197 40.0163 95.272C35.2372 87.8638 43.4748 74.8189 37.5483 66.0861C30.8004 56.1414 -0.42681 62.4303 5.8138 40.4593C9.2723 28.2761 18.146 28.9927 27.6801 32.9464C33.1517 35.2132 38.3777 38.0356 44.0385 39.952C50.9112 42.2832 58.9314 41.3491 66.5651 39.7145Z" fill="white"/>
<path d="M78.9995 137.897C122.113 137.897 157.063 135.857 157.063 133.34C157.063 130.822 122.113 128.782 78.9995 128.782C35.886 128.782 0.935547 130.822 0.935547 133.34C0.935547 135.857 35.886 137.897 78.9995 137.897Z" fill="#E0E0E0"/>
<path d="M29.1191 102.116H80.8316V128.814C80.8316 129.156 80.7642 129.495 80.6333 129.811C80.5024 130.127 80.3105 130.414 80.0686 130.656C79.8268 130.898 79.5396 131.09 79.2235 131.221C78.9075 131.351 78.5688 131.419 78.2267 131.419H31.7241C31.382 131.419 31.0433 131.351 30.7272 131.221C30.4112 131.09 30.124 130.898 29.8821 130.656C29.6402 130.414 29.4483 130.127 29.3174 129.811C29.1865 129.495 29.1191 129.156 29.1191 128.814V102.116Z" fill="#DAA277"/>
<path d="M29.1179 101.905H65.712L61.2108 96.1434C60.7155 95.5113 59.4916 94.9999 58.4729 94.9999H25.5628C24.5482 94.9999 24.1214 95.5113 24.6166 96.1434L29.1179 101.905Z" fill="#CD8249"/>
<path opacity="0.2" d="M29.1179 101.905H65.712L61.2108 96.1434C60.7155 95.5113 59.4916 94.9999 58.4729 94.9999H25.5628C24.5482 94.9999 24.1214 95.5113 24.6166 96.1434L29.1179 101.905Z" fill="#CD8249"/>
<path d="M80.8303 102.116H44.2402L48.7415 98.36C49.2367 97.9574 50.4607 97.6152 51.4793 97.6152H84.3854C85.4041 97.6152 85.8268 97.9493 85.3316 98.36L80.8303 102.116Z" fill="#CD8249"/>
<path opacity="0.2" d="M44.2402 102.116H80.8303V128.814C80.8303 129.156 80.7629 129.495 80.632 129.811C80.5011 130.127 80.3092 130.414 80.0673 130.656C79.8255 130.898 79.5383 131.09 79.2222 131.221C78.9062 131.351 78.5675 131.419 78.2254 131.419H46.8452C46.5031 131.419 46.1644 131.351 45.8483 131.221C45.5323 131.09 45.2451 130.898 45.0032 130.656C44.7613 130.414 44.5694 130.127 44.4385 129.811C44.3076 129.495 44.2402 129.156 44.2402 128.814V102.116Z" fill="white"/>
<path opacity="0.5" d="M33.6602 102.116V120.427L34.9244 119.429L35.8142 120.427L36.5872 119.316L37.3804 120.427L38.4835 119.594L39.6995 120.427V102.116H33.6602Z" fill="white"/>
<path d="M64.6937 76.4292L86.1453 49.6188L57.5835 25.6387L38.6603 47.352L35.842 52.7834C35.7021 52.9375 35.5955 53.1189 35.5288 53.3162C35.4622 53.5135 35.437 53.7223 35.4547 53.9298C35.4725 54.1372 35.5329 54.3388 35.632 54.5219C35.7312 54.7049 35.8671 54.8656 36.0312 54.9937L61.7989 76.6305C62.2179 76.9681 62.749 77.135 63.2858 77.0977C63.8226 77.0603 64.3255 76.8216 64.6937 76.4292Z" fill="#DAA277"/>
<path opacity="0.5" d="M49.9826 56.6568L46.8945 61.6292L48.1386 61.8989L48.5614 63.0504L49.3867 63.0987L49.7692 64.0851L50.7798 64.379L51.5569 65.6151L54.645 60.6427L49.9826 56.6568Z" fill="white"/>
<path opacity="0.1" d="M85.2114 48.8337L65.9742 70.2933L38.6484 47.352L57.5836 25.6387L85.2114 48.8337Z" fill="#354253"/>
<path d="M85.2372 48.8336L66 70.2932L73.9638 70.8811L92.9031 49.1678L85.2372 48.8336Z" fill="#CD8249"/>
<path opacity="0.3" d="M85.2372 48.8335L66 70.2931L73.9638 70.8809L92.9031 49.1677L85.2372 48.8335Z" fill="#CD8249"/>
<path d="M50.2412 25.3009L31 46.7646L38.9678 47.3524L57.903 25.6391L50.2412 25.3009Z" fill="#CD8249"/>
<path opacity="0.4" d="M50.2412 25.3008L31 46.7644L38.9678 47.3523L57.903 25.639L50.2412 25.3008Z" fill="#CD8249"/>
<path opacity="0.1" d="M79.2891 55.4406L85.2116 48.8337L57.5838 25.6387L54.0488 34.1582L79.2891 55.4406Z" fill="#354253"/>
<path opacity="0.2" d="M38.6484 47.352L57.5836 25.6387L54.0486 34.1582L40.7139 49.0873L38.6484 47.352Z" fill="#354253"/>
<path d="M91.8839 8.43092C91.9604 8.6886 91.8839 8.94225 91.7148 8.99056C91.5457 9.03888 91.3484 8.86977 91.2719 8.6121C91.1954 8.35442 91.2719 8.10077 91.441 8.04843C91.6101 7.99609 91.8114 8.17324 91.8839 8.43092Z" fill="#354253"/>
<path d="M91.9121 8.93799C91.8362 9.82387 91.6383 10.695 91.3242 11.5268C91.5395 11.6015 91.7685 11.6283 91.9952 11.6053C92.2219 11.5824 92.4408 11.5103 92.6368 11.394L91.9121 8.93799Z" fill="#EB5757"/>
<path d="M92.4182 6.71144C92.4523 6.69178 92.4781 6.66027 92.4906 6.62286C92.4982 6.60335 92.5017 6.58249 92.5009 6.56158C92.5001 6.54066 92.495 6.52014 92.4859 6.50127C92.4769 6.4824 92.4641 6.46559 92.4482 6.45188C92.4324 6.43816 92.414 6.42785 92.394 6.42155C92.1582 6.33112 91.904 6.2989 91.6531 6.32764C91.4022 6.35638 91.1619 6.44522 90.9526 6.58663C90.9254 6.61424 90.909 6.65076 90.9066 6.68946C90.9041 6.72816 90.9157 6.76646 90.9392 6.7973C90.9627 6.82815 90.9966 6.84948 91.0345 6.85738C91.0725 6.86527 91.112 6.8592 91.1459 6.84028C91.3131 6.73058 91.5041 6.66239 91.703 6.64138C91.9019 6.62037 92.1029 6.64715 92.2893 6.71949C92.3102 6.72711 92.3324 6.73033 92.3546 6.72894C92.3768 6.72755 92.3984 6.7216 92.4182 6.71144Z" fill="#354253"/>
<path d="M100.838 10.1541C101.015 12.288 101.543 16.1934 102.803 17.0953C102.803 17.0953 102.505 19.66 97.9714 20.3162C93.0031 21.049 95.2336 18.1984 95.2336 18.1984C97.8466 17.1516 97.4802 15.1506 96.7314 13.3308L98.6478 11.1325C99.3846 10.3192 100.741 9.063 100.838 10.1541Z" fill="#E6C1A4"/>
<path d="M104.424 18.1383C104.827 17.7719 104.022 16.3064 103.527 16.101C102.23 15.5575 96.9277 16.101 94.9347 17.8122C94.7694 18.0953 94.6695 18.4118 94.6423 18.7385C94.6152 19.0652 94.6614 19.3939 94.7777 19.7004L104.424 18.1383Z" fill="white"/>
<path d="M121.31 125.758C121.18 125.818 121.038 125.851 120.894 125.855C120.75 125.859 120.607 125.834 120.473 125.782C120.42 125.74 120.381 125.683 120.362 125.618C120.342 125.554 120.343 125.484 120.364 125.42C120.375 125.367 120.397 125.318 120.429 125.275C120.461 125.231 120.502 125.196 120.549 125.17C120.984 124.917 122.059 125.251 122.104 125.267C122.118 125.271 122.132 125.279 122.142 125.291C122.152 125.302 122.158 125.316 122.16 125.331C122.162 125.347 122.159 125.364 122.152 125.378C122.145 125.392 122.134 125.404 122.12 125.412C121.862 125.555 121.591 125.671 121.31 125.758ZM120.723 125.267L120.63 125.307C120.603 125.322 120.579 125.343 120.56 125.368C120.541 125.393 120.528 125.422 120.521 125.452C120.493 125.597 120.549 125.641 120.566 125.654C120.759 125.79 121.415 125.593 121.87 125.364C121.499 125.247 121.108 125.214 120.723 125.267Z" fill="#2F80ED"/>
<path d="M122.104 125.416C122.09 125.42 122.076 125.42 122.063 125.416C121.661 125.336 120.819 124.832 120.775 124.454C120.769 124.394 120.783 124.334 120.816 124.284C120.849 124.235 120.899 124.198 120.956 124.18C121.012 124.155 121.072 124.142 121.133 124.142C121.194 124.142 121.255 124.155 121.31 124.18C121.777 124.373 122.14 125.275 122.152 125.312C122.16 125.323 122.164 125.337 122.164 125.352C122.164 125.366 122.16 125.38 122.152 125.392C122.146 125.4 122.139 125.406 122.131 125.41C122.122 125.414 122.113 125.416 122.104 125.416ZM121.057 124.317C121.045 124.314 121.032 124.314 121.02 124.317C120.928 124.357 120.932 124.406 120.936 124.426C120.96 124.651 121.532 125.058 121.938 125.207C121.818 124.945 121.536 124.438 121.25 124.317C121.188 124.293 121.119 124.293 121.057 124.317Z" fill="#2F80ED"/>
<path d="M97.7118 130.082C97.281 130.082 96.8663 130.022 96.7254 129.829C96.6893 129.778 96.6699 129.718 96.6699 129.656C96.6699 129.593 96.6893 129.533 96.7254 129.482C96.7522 129.436 96.7882 129.395 96.831 129.363C96.8739 129.33 96.9229 129.306 96.975 129.293C97.5346 129.144 98.7103 129.813 98.7586 129.841C98.7736 129.848 98.7858 129.86 98.7934 129.874C98.801 129.889 98.8037 129.906 98.801 129.922C98.7983 129.939 98.7903 129.954 98.7783 129.965C98.7663 129.977 98.7509 129.984 98.7345 129.986C98.3972 130.049 98.0549 130.081 97.7118 130.082ZM97.1803 129.43C97.1286 129.428 97.0768 129.435 97.0274 129.45C96.9628 129.465 96.9065 129.504 96.8703 129.559C96.814 129.66 96.8341 129.708 96.8703 129.736C97.0274 129.953 97.8769 129.957 98.4808 129.869C98.0797 129.64 97.6381 129.491 97.1803 129.43Z" fill="#2F80ED"/>
<path d="M98.7278 129.99H98.6956C98.293 129.809 97.4877 129.08 97.5481 128.702C97.5481 128.613 97.6287 128.5 97.8461 128.48C97.9247 128.471 98.0043 128.479 98.0799 128.502C98.1554 128.526 98.2252 128.565 98.2849 128.617C98.7157 128.967 98.8043 129.873 98.8083 129.909C98.8106 129.923 98.8087 129.938 98.803 129.95C98.7973 129.963 98.788 129.974 98.7761 129.982C98.7613 129.99 98.7444 129.993 98.7278 129.99ZM97.9226 128.629H97.8743C97.7293 128.629 97.7213 128.702 97.7172 128.718C97.681 128.947 98.2286 129.523 98.6392 129.768C98.6041 129.384 98.4492 129.021 98.1963 128.73C98.1209 128.663 98.0232 128.627 97.9226 128.629Z" fill="#2F80ED"/>
<path d="M102.423 129.909H99.0607L98.7266 122.13H102.088L102.423 129.909Z" fill="#E6C1A4"/>
<path d="M126.038 124.599L122.941 125.665L119.729 118.334L122.825 117.267L126.038 124.599Z" fill="#E6C1A4"/>
<path d="M122.204 124.897L125.827 123.789C125.892 123.77 125.96 123.773 126.023 123.798C126.085 123.822 126.137 123.868 126.17 123.926L127.68 126.584C127.716 126.649 127.737 126.721 127.741 126.795C127.746 126.87 127.733 126.944 127.705 127.013C127.677 127.082 127.634 127.143 127.578 127.193C127.523 127.243 127.457 127.279 127.386 127.3C126.117 127.667 125.485 127.779 123.899 128.267C122.921 128.565 120.457 129.499 119.067 129.776C117.678 130.054 117.232 128.726 117.771 128.488C120.187 127.421 121.177 126.209 121.753 125.267C121.853 125.093 122.014 124.961 122.204 124.897Z" fill="#354253"/>
<path d="M99.086 129.519H102.754C102.82 129.52 102.884 129.543 102.936 129.584C102.988 129.626 103.024 129.684 103.04 129.748L103.704 132.736C103.721 132.808 103.72 132.883 103.704 132.955C103.687 133.027 103.654 133.094 103.608 133.151C103.561 133.209 103.502 133.255 103.435 133.286C103.368 133.317 103.295 133.333 103.221 133.332C101.896 133.311 99.9999 133.231 98.321 133.231C96.3763 133.231 95.559 133.34 93.2762 133.34C91.8992 133.34 91.5167 131.947 92.0925 131.818C94.7216 131.242 96.0059 131.182 98.2767 129.78C98.5175 129.621 98.7974 129.53 99.086 129.519Z" fill="#354253"/>
<path d="M108.849 19.2374C109.827 20.1352 110.673 21.0331 111.55 21.9712C112.428 22.9093 113.241 23.8796 114.03 24.9143C114.855 25.9655 115.603 27.0742 116.269 28.2319C116.633 28.87 116.948 29.5349 117.211 30.2208C117.28 30.4101 117.348 30.5912 117.404 30.7966C117.47 31.0043 117.525 31.2153 117.569 31.4287L117.638 31.7629L117.686 32.1333C117.731 32.4727 117.731 32.8165 117.686 33.1559C117.594 33.7966 117.357 34.4079 116.994 34.9436C116.729 35.3348 116.418 35.693 116.068 36.0105C115.505 36.5211 114.889 36.9705 114.232 37.3512C113.073 38.014 111.861 38.5783 110.608 39.0382C108.231 39.9205 105.782 40.594 103.289 41.0513L102.584 38.6356C104.77 37.6894 106.985 36.6668 109.026 35.5757C110.02 35.0544 110.976 34.4652 111.889 33.8122C112.269 33.5422 112.618 33.2317 112.931 32.8862C113.026 32.784 113.106 32.6688 113.169 32.544C113.201 32.4755 113.169 32.4836 113.129 32.6285C113.1 32.8983 113.104 32.6889 113.04 32.544C113.02 32.4755 112.984 32.3829 112.947 32.2943C112.911 32.2058 112.867 32.1051 112.823 32.0085C112.604 31.5694 112.361 31.1432 112.094 30.7322C111.472 29.8089 110.8 28.9205 110.081 28.0708C109.34 27.1931 108.559 26.3194 107.758 25.4619C106.956 24.6043 106.115 23.7387 105.342 22.9415L108.849 19.2374Z" fill="#E6C1A4"/>
<path d="M103.507 38.2529L100.338 39.2111L102.375 42.5609C102.375 42.5609 104.247 41.7879 104.662 40.1975L103.507 38.2529Z" fill="#E6C1A4"/>
<path d="M99.0586 40.3988L100.307 43.1608L102.356 42.5649L100.319 39.2111L99.0586 40.3988Z" fill="#E6C1A4"/>
<path d="M101.424 20.1473C101.122 23.3683 107.934 28.3527 107.934 28.3527L114.493 23.8635C113.354 21.763 111.689 19.9941 109.661 18.7301C105.901 16.3224 101.802 16.1453 101.424 20.1473Z" fill="#2F80ED"/>
<g opacity="0.3">
<path opacity="0.3" d="M101.424 20.1473C101.122 23.3683 107.934 28.3527 107.934 28.3527L114.493 23.8635C113.354 21.763 111.689 19.9941 109.661 18.7301C105.901 16.3224 101.802 16.1453 101.424 20.1473Z" fill="white"/>
</g>
<path d="M90.6151 19.8896C90.6151 19.8896 87.672 24.4069 94.6614 48.6366L112.433 46.0115C112.183 43.5555 109.212 32.8418 109.111 21.1296C109.107 20.564 108.989 20.0051 108.763 19.4866C108.537 18.9682 108.208 18.5009 107.796 18.1129C107.384 17.725 106.899 17.4245 106.368 17.2295C105.837 17.0346 105.272 16.9492 104.707 16.9786C104.191 17.0068 103.66 17.043 103.133 17.0954C100.595 17.3216 98.0736 17.6939 95.5794 18.2106C93.884 18.642 92.2243 19.2033 90.6151 19.8896Z" fill="#EB5757"/>
<g opacity="0.3">
<path opacity="0.3" d="M90.6151 19.8895C90.6151 19.8895 87.672 24.4069 94.6614 48.6365L112.433 46.0115C112.183 43.5555 109.212 32.8418 109.111 21.1296C109.107 20.564 108.989 20.0051 108.763 19.4866C108.537 18.9681 108.208 18.5008 107.796 18.1129C107.384 17.7249 106.899 17.4244 106.368 17.2295C105.837 17.0345 105.272 16.9492 104.707 16.9786C104.191 17.0067 103.66 17.043 103.133 17.0953C100.595 17.3215 98.0736 17.6939 95.5794 18.2106C93.884 18.6419 92.2243 19.2032 90.6151 19.8895Z" fill="white"/>
</g>
<path opacity="0.2" d="M89.8379 27.6762L89.8983 27.6077L94.0775 27.9781C94.7136 30.6757 92.3865 34.3556 91.1585 36.0627C90.5673 33.2931 90.1265 30.4935 89.8379 27.6762Z" fill="#354253"/>
<path opacity="0.2" d="M98.7266 122.135L98.8997 126.145H102.262L102.088 122.135H98.7266Z" fill="#354253"/>
<path opacity="0.2" d="M122.825 117.267L119.729 118.334L121.387 122.114L124.483 121.047L122.825 117.267Z" fill="#354253"/>
<path d="M100.399 5.3389C101.14 8.58804 101.736 10.4522 100.604 12.5861C98.9052 15.7627 94.5327 15.4567 92.8377 12.4935C91.3117 9.82408 90.3535 4.96044 93.1074 2.77019C93.7109 2.28562 94.4281 1.96303 95.1911 1.83293C95.954 1.70283 96.7376 1.76952 97.4676 2.02669C98.1975 2.28386 98.8499 2.72301 99.3628 3.3026C99.8757 3.88219 100.232 4.58306 100.399 5.3389Z" fill="#E6C1A4"/>
<path d="M93.8715 8.52325L92.6355 9.28018L92.7522 5.05267C91.9553 5.08689 91.169 4.85922 90.5137 4.40445C90.9606 3.97767 97.9178 1.54183 100.088 1.96458C100.313 1.87197 100.587 1.45325 100.587 1.45325C100.587 1.45325 100.672 1.98068 100.305 2.18199C100.571 2.12965 101.235 2.25849 101.421 2.64903C101.116 2.56578 100.792 2.58415 100.499 2.70137C100.499 2.70137 102.914 3.06775 102.057 6.41755C101.095 10.1096 101.413 12.2314 101.413 12.2314C101.413 12.2314 99.6169 13.6204 98.0547 13.3627C96.3879 11.5268 93.9802 9.32044 93.8715 8.52325Z" fill="#354253"/>
<path d="M91.5046 4.07054C89.5438 4.07054 88.8392 3.11231 88.3359 2.30707C89.7451 2.1581 92.6802 1.25221 94.8584 1.09921C97.0366 0.946215 99.4241 1.35286 98.7034 2.30707C97.9827 3.26128 91.5046 4.07054 91.5046 4.07054Z" fill="#354253"/>
<path d="M91.9358 3.1968C90.3253 2.97133 88.7551 1.45346 89.963 0C90.4099 1.06694 93.4255 0.942131 95.5674 0.495224C98.3858 -0.0926012 100.338 0.857581 99.34 2.77808C98.7924 3.82891 91.9358 3.1968 91.9358 3.1968Z" fill="#354253"/>
<path d="M95.6114 7.5613C95.8419 8.35629 95.8051 9.20495 95.5067 9.97702C95.1041 10.9876 94.2103 10.7823 93.7432 9.90857C93.3406 9.10334 93.0346 7.64183 93.7191 6.91309C94.4035 6.18434 95.3215 6.60709 95.6114 7.5613Z" fill="#E6C1A4"/>
<path d="M100.623 47.7064C100.623 47.7064 103.506 72.2461 105.599 81.8606C107.89 92.3932 119.192 121.108 119.192 121.108L124.829 119.159C124.829 119.159 117.581 97.5386 115.657 82.8148C114.179 71.5093 112.074 46.0114 112.074 46.0114L100.623 47.7064Z" fill="#354253"/>
<path d="M117.75 119.304C117.722 119.304 118.906 121.72 118.906 121.72L125.489 119.582L124.716 117.617L117.75 119.304Z" fill="#EB5757"/>
<path opacity="0.3" d="M102.215 60.2966C103.117 67.117 104.272 75.1936 105.287 80.3511C106.781 72.4477 107.131 62.4668 102.215 60.2966Z" fill="#354253"/>
<path d="M94.3174 48.6366C94.3174 48.6366 91.9258 71.6906 92.3043 81.9333C92.6827 92.5866 97.6591 125.368 97.6591 125.368H103.348C103.348 125.368 102.301 93.2066 102.543 82.7466C102.821 71.3404 107.097 46.7484 107.097 46.7484L94.3174 48.6366Z" fill="#354253"/>
<path d="M96.5539 123.101C96.5298 123.101 96.876 125.46 96.876 125.46H103.797L103.986 123.355L96.5539 123.101Z" fill="#EB5757"/>
<path d="M93.2147 25.5504C92.5866 26.5489 91.9505 27.4468 91.2902 28.3688C90.6299 29.2908 89.9374 30.1806 89.2328 31.0663C87.7965 32.8632 86.2402 34.5608 84.5745 36.1474C84.1236 36.55 83.7089 36.9526 83.2217 37.319L82.8674 37.6049L82.6902 37.7458C82.6258 37.7981 82.5976 37.8263 82.4648 37.9229C82.0659 38.2074 81.6278 38.4326 81.1643 38.5913C80.4465 38.8364 79.696 38.9721 78.9378 38.9939C78.2964 39.0154 77.6543 38.9872 77.0173 38.9094C74.6886 38.604 72.4168 37.9612 70.2734 37.0009L70.97 34.5852C73.0299 34.8296 75.1045 34.9292 77.1784 34.8832C77.6371 34.8591 78.0941 34.8094 78.5473 34.7342C78.8887 34.6843 79.2203 34.581 79.5297 34.4282C79.6263 34.3759 79.6786 34.3235 79.6666 34.3114C79.6545 34.2994 79.7189 34.2591 79.7551 34.2229L79.892 34.098L80.1618 33.8444C80.5241 33.5223 80.8664 33.1318 81.2207 32.7775C81.9172 32.0286 82.6097 31.2596 83.266 30.4423C83.9222 29.6249 84.5866 28.8036 85.2308 27.9581C85.875 27.1126 86.499 26.255 87.1271 25.3974C87.7552 24.5399 88.3672 23.638 88.9469 22.8046L93.2147 25.5504Z" fill="#E6C1A4"/>
<path d="M95.5548 24.4831C96.9076 28.9119 89.0525 33.8199 89.0525 33.8199L83.9473 27.3176C85.098 25.1736 86.5187 23.1859 88.1748 21.4031C91.6494 17.6225 94.5241 21.1132 95.5548 24.4831Z" fill="#2F80ED"/>
<g opacity="0.3">
<path opacity="0.3" d="M95.5548 24.4831C96.9076 28.9119 89.0525 33.8199 89.0525 33.8199L83.9473 27.3176C85.098 25.1736 86.5187 23.1859 88.1748 21.4031C91.6494 17.6225 94.5241 21.1132 95.5548 24.4831Z" fill="white"/>
</g>
<path d="M72.1544 34.734L68.0195 33.9771L68.4544 37.5523C68.4544 37.5523 70.6044 38.7602 72.1625 36.8719L72.1544 34.734Z" fill="#E6C1A4"/>
<path d="M66.4258 34.7823L67.3196 37.3631L68.4469 37.5523L68.0121 33.9771L66.4258 34.7823Z" fill="#E6C1A4"/>
</svg>
