<svg width="10" height="12" viewBox="0 0 10 12" fill="none" xmlns="http://www.w3.org/2000/svg">
<path d="M8.81408 4.70946L5.44882 1.19419C5.32979 1.06984 5.16835 1 5.00002 1C4.83165 1 4.67021 1.06989 4.55118 1.19423L1.18592 4.70973C0.938028 4.96867 0.938028 5.38847 1.18592 5.64741C1.30982 5.77693 1.47227 5.84164 1.63472 5.84164C1.79717 5.84164 1.95962 5.77688 2.08356 5.64741L4.36516 3.26396L4.36524 10.3369C4.36524 10.7032 4.64943 11 4.99998 11C5.35052 11 5.63472 10.7031 5.63472 10.3369L5.63463 3.26366L7.91644 5.64719C8.16428 5.90609 8.5662 5.90613 8.81408 5.64715C9.06197 5.3882 9.06197 4.9684 8.81408 4.70946Z" fill="#2F80ED" stroke="#2F80ED" stroke-width="0.8"/>
</svg>
