<svg width="24" height="24" viewBox="0 0 24 24" fill="none" xmlns="http://www.w3.org/2000/svg">
<path fill-rule="evenodd" clip-rule="evenodd" d="M19.8827 9.80008C19.2324 6.50584 15.9506 4.00008 11.9999 4.00008C8.04925 4.00008 4.76745 6.50584 4.11708 9.80008C4.04011 10.19 4 10.5909 4 11V11.0001H4.64653L7.8559 14.4112C8.08297 14.6526 8.46269 14.6641 8.70404 14.4371C8.94538 14.21 8.95695 13.8303 8.72988 13.5889L6.29416 11.0001H11.4L11.4 12.8001C11.4 13.1315 11.6686 13.4001 12 13.4001C12.3314 13.4001 12.6 13.1315 12.6 12.8001L12.6 11.0001H17.7056L15.27 13.5888C15.0429 13.8302 15.0545 14.2099 15.2958 14.437C15.5372 14.664 15.9169 14.6525 16.144 14.4111L19.3532 11.0001H19.9998V11C19.9998 10.5909 19.9597 10.19 19.8827 9.80008ZM18.6503 9.80008C18.0117 7.26011 15.3897 5.20008 11.9999 5.20008C8.61011 5.20008 5.98815 7.26011 5.3495 9.80008H18.6503ZM12.9999 15.2H10.9999C10.5581 15.2 10.1999 15.5582 10.1999 16V18C10.1999 18.4418 10.5581 18.8 10.9999 18.8H12.9999C13.4418 18.8 13.7999 18.4418 13.7999 18V16C13.7999 15.5582 13.4418 15.2 12.9999 15.2ZM10.9999 14C9.89538 14 8.99995 14.8954 8.99995 16V18C8.99995 19.1045 9.89538 20 10.9999 20H12.9999C14.1045 20 14.9999 19.1045 14.9999 18V16C14.9999 14.8954 14.1045 14 12.9999 14H10.9999Z" fill="#BDBDBD"/>
<line x1="11.4999" y1="17.4999" x2="11.9999" y2="17.4999" stroke="#BDBDBD" stroke-linecap="round"/>
<circle cx="12" cy="12" r="11.5" stroke="#C4C4C4"/>
</svg>
