<svg width="24" height="24" viewBox="0 0 24 24" fill="none" xmlns="http://www.w3.org/2000/svg">
<path d="M12 1C5.93457 1 1 5.95073 1 12.036C1.55301 26.6567 22.4492 26.6527 23 12.0359C23 5.95073 18.0654 1 12 1ZM2.28906 12.036C2.19539 4.92162 10.0015 0.0732335 16.2858 3.29515L14.8707 5.75419L12.3223 4.27804C12.1228 4.16255 11.8772 4.16255 11.6777 4.27804L5.46445 7.87695C5.26504 7.99244 5.14219 8.20591 5.14219 8.43694V15.635C5.14219 15.8661 5.26504 16.0796 5.46445 16.195L8.01293 17.6712L6.59874 20.1287C4.00158 18.3782 2.28906 15.4041 2.28906 12.036ZM11.764 11.1528L7.07574 8.43698L8.89332 7.38421L12.6729 9.57343L11.764 11.1528ZM11.1195 12.2728L8.65742 16.5512L6.43121 15.2617V9.55701L11.1195 12.2728ZM11.3555 14.4493V18.1139L9.77379 17.1978L11.3555 14.4493ZM12.6445 12.4095L14.4621 11.3566V11.9621C14.4937 12.8189 15.7197 12.8187 15.7512 11.9621V10.6099L17.5688 9.55701V15.2617L12.6445 18.1139V12.4095ZM15.1068 9.4898L14.4338 9.1L15.3425 7.52086L16.9242 8.43698L15.1068 9.4898ZM13.3175 8.45336L10.1825 6.63751L12 5.58473L14.2262 6.87422L13.3175 8.45336ZM12 21.7787C10.4624 21.7787 9.00757 21.4178 7.71417 20.7768L9.12926 18.3178L11.6777 19.7939C11.8772 19.9094 12.1228 19.9094 12.3223 19.7939L18.5355 16.195C18.735 16.0796 18.8578 15.8661 18.8578 15.635V8.43694C18.8578 8.20591 18.735 7.99244 18.5355 7.87695L15.9871 6.40079L17.4013 3.9433C25.2736 9.22455 21.5964 21.7395 12 21.7787Z" fill="#828282"/>
</svg>
