<svg width="14" height="16" viewBox="0 0 14 16" fill="none" xmlns="http://www.w3.org/2000/svg">
<path d="M12.6241 0H4.53255C4.40821 0 4.28899 0.0494063 4.20109 0.137313L1.0439 3.29484C0.956023 3.38275 0.906616 3.50197 0.906616 3.62628V15.5312C0.906616 15.7901 1.11649 16 1.37537 16H12.6241C12.883 16 13.0929 15.7901 13.0929 15.5312V0.46875C13.0929 0.209875 12.8831 0 12.6241 0ZM4.06377 1.60053V3.15716H2.5073L4.06377 1.60053ZM12.1554 15.0625H1.84415V4.09466H4.53255C4.79143 4.09466 5.0013 3.88478 5.0013 3.62591V0.9375H12.1554V15.0625Z" fill="#828282"/>
<path d="M4.78498 8.9725C4.61079 8.9725 4.45095 9.06909 4.36995 9.22334C4.28898 9.37759 4.3002 9.564 4.3991 9.7074L6.61395 12.9186C6.70145 13.0455 6.8457 13.1212 6.99982 13.1212C7.15395 13.1212 7.2982 13.0455 7.3857 12.9186L9.60054 9.7074C9.69945 9.564 9.71067 9.37759 9.6297 9.22334C9.5487 9.06909 9.38885 8.9725 9.21467 8.9725H8.65451V6.3009C8.65451 6.04203 8.44464 5.83215 8.18576 5.83215H5.81395C5.55507 5.83215 5.3452 6.04203 5.3452 6.3009V8.9725H4.78498ZM5.81392 9.91C6.07279 9.91 6.28267 9.70012 6.28267 9.44125V6.76965H7.71698V9.44125C7.71698 9.70012 7.92685 9.91 8.18573 9.91H8.32192L6.99982 11.8268L5.67773 9.91H5.81392Z" fill="#828282"/>
</svg>
