<svg width="24" height="22" viewBox="0 0 24 22" fill="none" xmlns="http://www.w3.org/2000/svg">
<path d="M23.9775 7.0685L22.4775 1.0685C22.395 0.734 22.0935 0.5 21.75 0.5H2.25C1.9065 0.5 1.605 0.734 1.5225 1.0685L0.0225 7.0685C0.0075 7.127 0 7.1885 0 7.25C0 8.507 0.5955 9.6155 1.5 10.2965V20.75C1.5 21.164 1.836 21.5 2.25 21.5H9.75C10.164 21.5 10.5 21.164 10.5 20.75V15.5H13.5V20.75C13.5 21.164 13.836 21.5 14.25 21.5H21.75C22.164 21.5 22.5 21.164 22.5 20.75V10.2965C23.4045 9.6155 24 8.507 24 7.25C24 7.1885 23.9925 7.127 23.9775 7.0685ZM21 20H15V14.75C15 14.336 14.664 14 14.25 14H9.75C9.336 14 9 14.336 9 14.75V20H3V10.94C3.1845 10.9715 3.3705 11 3.5625 11C4.7055 11 5.7225 10.4315 6.375 9.5495C7.0275 10.4315 8.0445 11 9.1875 11C10.3305 11 11.3475 10.4315 12 9.5495C12.6525 10.4315 13.6695 11 14.8125 11C15.9555 11 16.9725 10.4315 17.625 9.5495C18.2775 10.4315 19.2945 11 20.4375 11C20.6295 11 20.8155 10.9715 21 10.94V20ZM20.4375 9.5C19.3005 9.5 18.375 8.4905 18.375 7.25C18.375 6.836 18.039 6.5 17.625 6.5C17.211 6.5 16.875 6.836 16.875 7.25C16.875 8.4905 15.9495 9.5 14.8125 9.5C13.6755 9.5 12.75 8.4905 12.75 7.25C12.75 6.836 12.414 6.5 12 6.5C11.586 6.5 11.25 6.836 11.25 7.25C11.25 8.4905 10.3245 9.5 9.1875 9.5C8.0505 9.5 7.125 8.4905 7.125 7.25C7.125 6.836 6.789 6.5 6.375 6.5C5.961 6.5 5.625 6.836 5.625 7.25C5.625 8.4905 4.6995 9.5 3.5625 9.5C2.4525 9.5 1.5435 8.537 1.5015 7.337L2.8365 2H21.165L22.5 7.337C22.4565 8.537 21.5475 9.5 20.4375 9.5Z" fill="#354253"/>
</svg>
