<svg width="20" height="20" viewBox="0 0 20 20" fill="none" xmlns="http://www.w3.org/2000/svg">
<path d="M19.9888 4.32C19.985 4.2775 19.9762 4.2375 19.9637 4.19625C19.9513 4.155 19.9362 4.1175 19.9163 4.08C19.9075 4.06375 19.9062 4.04375 19.895 4.0275L17.395 0.2775C17.2788 0.105 17.0837 0 16.875 0H3.125C2.91625 0 2.72125 0.105 2.605 0.27875L0.105 4.02875C0.09375 4.045 0.0925 4.06375 0.08375 4.08125C0.06375 4.11875 0.04875 4.15625 0.03625 4.1975C0.02375 4.23875 0.015 4.27875 0.01125 4.32125C0.00875 4.33875 0 4.355 0 4.375V18.75C0 19.44 0.56125 20 1.25 20H18.75C19.4387 20 20 19.44 20 18.75V4.375C20 4.355 19.9913 4.33875 19.9888 4.32ZM16.54 1.25L18.2075 3.75H12.405L11.9875 1.25H16.54ZM9.27875 1.25H10.72L11.1375 3.75H8.8625L9.27875 1.25ZM8.75 5H11.25V7.25875L10.1975 6.90625C10.0688 6.865 9.93 6.865 9.8025 6.90625L8.75 7.25875V5ZM3.46 1.25H8.0125L7.595 3.75H1.7925L3.46 1.25ZM18.75 19.375V18.75H1.25V5H7.5V8.125C7.5 8.32625 7.59625 8.515 7.76 8.63125C7.9225 8.75 8.13125 8.7775 8.3225 8.71875L10 8.15875L11.6775 8.7175C11.7425 8.73875 11.8088 8.75 11.875 8.75C12.005 8.75 12.1325 8.71 12.24 8.63125C12.4037 8.515 12.5 8.32625 12.5 8.125V5H18.75V18.75C18.75 18.75 18.75 18.75 18.7513 18.75L18.75 19.375Z" fill="#354253"/>
</svg>
