<svg width="14" height="18" viewBox="0 0 14 18" fill="none" xmlns="http://www.w3.org/2000/svg">
<path d="M13.7409 9.49486L1.40438 17.9004C1.31674 17.96 1.21492 17.9942 1.10977 17.9993C1.00463 18.0045 0.900082 17.9804 0.807277 17.9296C0.714472 17.8788 0.636883 17.8032 0.582771 17.711C0.52866 17.6187 0.500054 17.5131 0.5 17.4055V0.594479C0.500054 0.486892 0.52866 0.381334 0.582771 0.289049C0.636883 0.196763 0.714472 0.121206 0.807277 0.0704242C0.900082 0.0196427 1.00463 -0.00446133 1.10977 0.000679522C1.21492 0.00582037 1.31674 0.0400138 1.40438 0.0996173L13.7409 8.50514C13.8206 8.55946 13.886 8.63304 13.9312 8.71937C13.9764 8.8057 14 8.90209 14 9C14 9.09791 13.9764 9.19431 13.9312 9.28063C13.886 9.36696 13.8206 9.44055 13.7409 9.49486V9.49486Z" fill="white"/>
</svg>
