<svg width="0" height="0" class="hidden">
  <symbol xmlns="http://www.w3.org/2000/svg" viewBox="0 0 14 14" id="icon-cancel">
    <path d="M7 0C3.136 0 0 3.136 0 7C0 10.864 3.136 14 7 14C10.864 14 14 10.864 14 7C14 3.136 10.864 0 7 0ZM1.4 7C1.4 3.906 3.906 1.4 7 1.4C8.295 1.4 9.485 1.841 10.43 2.583L2.583 10.43C1.841 9.485 1.4 8.295 1.4 7ZM7 12.6C5.705 12.6 4.515 12.159 3.57 11.417L11.417 3.57C12.159 4.515 12.6 5.705 12.6 7C12.6 10.094 10.094 12.6 7 12.6Z" stroke="none"></path>
  </symbol>
  <symbol viewBox="0 0 10 8" xmlns="http://www.w3.org/2000/svg" id="icon-ready">
    <path d="M9.00024 1L3.50024 6.5L1.00024 4" fill="none" stroke-width="2" stroke-linecap="round" stroke-linejoin="round"/>
  </symbol>
  <symbol  viewBox="0 0 10 12" xmlns="http://www.w3.org/2000/svg" id="icon-pushed">
    <path d="M8.81408 4.70946L5.44882 1.19419C5.32979 1.06984 5.16835 1 5.00002 1C4.83165 1 4.67021 1.06989 4.55118 1.19423L1.18592 4.70973C0.938028 4.96867 0.938028 5.38847 1.18592 5.64741C1.30982 5.77693 1.47227 5.84164 1.63472 5.84164C1.79717 5.84164 1.95962 5.77688 2.08356 5.64741L4.36516 3.26396L4.36524 10.3369C4.36524 10.7032 4.64943 11 4.99998 11C5.35052 11 5.63472 10.7031 5.63472 10.3369L5.63463 3.26366L7.91644 5.64719C8.16428 5.90609 8.5662 5.90613 8.81408 5.64715C9.06197 5.3882 9.06197 4.9684 8.81408 4.70946Z"  stroke-width="0.8"/>
  </symbol>
  <symbol viewBox="0 0 16 4" xmlns="http://www.w3.org/2000/svg" id="icon-more">
    <path d="M2 0C0.9 0 0 0.9 0 2C0 3.1 0.9 4 2 4C3.1 4 4 3.1 4 2C4 0.9 3.1 0 2 0ZM14 0C12.9 0 12 0.9 12 2C12 3.1 12.9 4 14 4C15.1 4 16 3.1 16 2C16 0.9 15.1 0 14 0ZM8 0C6.9 0 6 0.9 6 2C6 3.1 6.9 4 8 4C9.1 4 10 3.1 10 2C10 0.9 9.1 0 8 0Z" stroke="none"/>
  </symbol>
  <symbol  viewBox="0 0 14 16" xmlns="http://www.w3.org/2000/svg" id="icon-download">
    <path d="M12.6241 0H4.53255C4.40821 0 4.28899 0.0494063 4.20109 0.137313L1.0439 3.29484C0.956023 3.38275 0.906616 3.50197 0.906616 3.62628V15.5312C0.906616 15.7901 1.11649 16 1.37537 16H12.6241C12.883 16 13.0929 15.7901 13.0929 15.5312V0.46875C13.0929 0.209875 12.8831 0 12.6241 0ZM4.06377 1.60053V3.15716H2.5073L4.06377 1.60053ZM12.1554 15.0625H1.84415V4.09466H4.53255C4.79143 4.09466 5.0013 3.88478 5.0013 3.62591V0.9375H12.1554V15.0625Z" stroke="none"/>
    <path d="M4.78498 8.9725C4.61079 8.9725 4.45095 9.06909 4.36995 9.22334C4.28898 9.37759 4.3002 9.564 4.3991 9.7074L6.61395 12.9186C6.70145 13.0455 6.8457 13.1212 6.99982 13.1212C7.15395 13.1212 7.2982 13.0455 7.3857 12.9186L9.60054 9.7074C9.69945 9.564 9.71067 9.37759 9.6297 9.22334C9.5487 9.06909 9.38885 8.9725 9.21467 8.9725H8.65451V6.3009C8.65451 6.04203 8.44464 5.83215 8.18576 5.83215H5.81395C5.55507 5.83215 5.3452 6.04203 5.3452 6.3009V8.9725H4.78498ZM5.81392 9.91C6.07279 9.91 6.28267 9.70012 6.28267 9.44125V6.76965H7.71698V9.44125C7.71698 9.70012 7.92685 9.91 8.18573 9.91H8.32192L6.99982 11.8268L5.67773 9.91H5.81392Z" stroke="none"/>
  </symbol>

  <symbol xmlns="http://www.w3.org/2000/svg" viewBox="0 0 14 8" id="icon-connected">
    <path d="M1.33012 4C1.33012 2.803 2.30312 1.83 3.50012 1.83H6.30012V0.5H3.50012C1.56812 0.5 0.00012207 2.068 0.00012207 4C0.00012207 5.932 1.56812 7.5 3.50012 7.5H6.30012V6.17H3.50012C2.30312 6.17 1.33012 5.197 1.33012 4ZM4.20012 4.7H9.80012V3.3H4.20012V4.7ZM10.5001 0.5H7.70012V1.83H10.5001C11.6971 1.83 12.6701 2.803 12.6701 4C12.6701 5.197 11.6971 6.17 10.5001 6.17H7.70012V7.5H10.5001C12.4321 7.5 14.0001 5.932 14.0001 4C14.0001 2.068 12.4321 0.5 10.5001 0.5Z" stroke="none"></path>
  </symbol>
  <symbol xmlns="http://www.w3.org/2000/svg" viewBox="0 0 14 14" id="icon-not-connected">
    <path d="M10.5 3.50001H7.7V4.83001H10.5C11.697 4.83001 12.67 5.80301 12.67 7.00001C12.67 8.00101 11.984 8.84101 11.053 9.08601L12.075 10.108C13.216 9.52701 14 8.36501 14 7.00001C14 5.06801 12.432 3.50001 10.5 3.50001ZM9.8 6.30001H8.267L9.667 7.70001H9.8V6.30001ZM0 1.58901L2.177 3.76601C0.903 4.28401 0 5.53701 0 7.00001C0 8.93201 1.568 10.5 3.5 10.5H6.3V9.17001H3.5C2.303 9.17001 1.33 8.19701 1.33 7.00001C1.33 5.88701 2.177 4.97001 3.262 4.85101L4.711 6.30001H4.2V7.70001H6.111L7.7 9.28901V10.5H8.911L11.718 13.3L12.6 12.418L0.889 0.700012L0 1.58901Z" stroke="none"></path>
  </symbol>
  <symbol viewBox="0 0 17 20" xmlns="http://www.w3.org/2000/svg" id="icon-question">
    <path d="M8.5 0C3.81 0 0 3.81 0 8.5C0 13.19 3.81 17 8.5 17H9V20C13.86 17.66 17 13 17 8.5C17 3.81 13.19 0 8.5 0ZM9.5 14.5H7.5V12.5H9.5V14.5ZM9.5 11H7.5C7.5 7.75 10.5 8 10.5 6C10.5 4.9 9.6 4 8.5 4C7.4 4 6.5 4.9 6.5 6H4.5C4.5 3.79 6.29 2 8.5 2C10.71 2 12.5 3.79 12.5 6C12.5 8.5 9.5 8.75 9.5 11Z" stroke="none"/>
  </symbol>
  <symbol xmlns="http://www.w3.org/2000/svg" viewBox="0 0 7 12" id="icon-pending">
    <path d="M0 0V3.6H0.00583347L0 3.606L2.33333 6L0 8.4L0.00583347 8.406H0V12H7V8.406H6.99417L7 8.4L4.66667 6L7 3.606L6.99417 3.6H7V0H0ZM5.83333 8.7V10.8H1.16667V8.7L3.5 6.3L5.83333 8.7ZM3.5 5.7L1.16667 3.3V1.2H5.83333V3.3L3.5 5.7Z" stroke="none"></path>
  </symbol>
  <symbol xmlns="http://www.w3.org/2000/svg" viewBox="0 0 8 4" id="icon-polygon--up">
    <path d="M8 4L4 -5.96046e-08L-1.19209e-07 4H8Z" stroke="none"></path>
  </symbol>
  <symbol viewBox="0 0 18 18" xmlns="http://www.w3.org/2000/svg" id="icon-zoom">
    <path d="M12.8645 11.3208H12.0515L11.7633 11.0429C12.7719 9.86964 13.3791 8.34648 13.3791 6.68954C13.3791 2.99485 10.3842 0 6.68954 0C2.99485 0 0 2.99485 0 6.68954C0 10.3842 2.99485 13.3791 6.68954 13.3791C8.34648 13.3791 9.86964 12.7719 11.0429 11.7633L11.3208 12.0515V12.8645L16.4666 18L18 16.4666L12.8645 11.3208V11.3208ZM6.68954 11.3208C4.12693 11.3208 2.05832 9.25214 2.05832 6.68954C2.05832 4.12693 4.12693 2.05832 6.68954 2.05832C9.25214 2.05832 11.3208 4.12693 11.3208 6.68954C11.3208 9.25214 9.25214 11.3208 6.68954 11.3208Z" stroke="none"/>
    <path d="M9.26244 7.20412H7.20412V9.26244H6.17496V7.20412H4.11664V6.17496H6.17496V4.11664H7.20412V6.17496H9.26244V7.20412Z" stroke="none"/>
  </symbol>
  <symbol viewBox="0 0 16 16" xmlns="http://www.w3.org/2000/svg" id="icon-link">
    <path d="M14.2222 14.2222H1.77778V1.77778H8V0H1.77778C0.791111 0 0 0.8 0 1.77778V14.2222C0 15.2 0.791111 16 1.77778 16H14.2222C15.2 16 16 15.2 16 14.2222V8H14.2222V14.2222ZM9.77778 0V1.77778H12.9689L4.23111 10.5156L5.48444 11.7689L14.2222 3.03111V6.22222H16V0H9.77778Z" stroke="none"/>
  </symbol>
  <symbol xmlns="http://www.w3.org/2000/svg" viewBox="0 0 16 16" id="icon-search">
    <path d="M7.33333 12.6667C10.2789 12.6667 12.6667 10.2789 12.6667 7.33333C12.6667 4.38781 10.2789 2 7.33333 2C4.38781 2 2 4.38781 2 7.33333C2 10.2789 4.38781 12.6667 7.33333 12.6667Z" fill="none" stroke-width="2" stroke-linecap="round" stroke-linejoin="round"></path>
    <path d="M14 14L11.1 11.1" fill="none" stroke-width="2" stroke-linecap="round" stroke-linejoin="round"></path>
  </symbol>
  <symbol xmlns="http://www.w3.org/2000/svg" viewBox="0 0 12 12" id="icon-arrow--down">
    <path d="M5.25 0L5.25 9.1275L1.0575 4.935L0 6L6 12L12 6L10.9425 4.9425L6.75 9.1275L6.75 0H5.25Z" stroke="none"></path>
  </symbol>
  <symbol xmlns="http://www.w3.org/2000/svg" viewBox="0 0 12 12" id="icon-arrow--left">
    <path d="M12 5.25H2.8725L7.065 1.0575L6 0L0 6L6 12L7.0575 10.9425L2.8725 6.75H12V5.25Z" stroke="none"></path>
  </symbol>
  <symbol xmlns="http://www.w3.org/2000/svg" viewBox="0 0 12 12" id="icon-arrow--right">
    <path d="M0 6.75L9.1275 6.75L4.935 10.9425L6 12L12 6L6 0L4.9425 1.0575L9.1275 5.25L0 5.25V6.75Z" stroke="none"></path>
  </symbol>
  <symbol xmlns="http://www.w3.org/2000/svg" viewBox="0 0 12 12" id="icon-arrow--up">
    <path d="M6.75 12L6.75 2.8725L10.9425 7.065L12 6L6 0L0 6L1.0575 7.0575L5.25 2.8725L5.25 12H6.75Z" stroke="none"></path>
  </symbol>
  <symbol xmlns="http://www.w3.org/2000/svg" viewBox="0 0 20 20" id="icon-brands">
    <path d="M19.9888 4.32C19.985 4.2775 19.9762 4.2375 19.9637 4.19625C19.9513 4.155 19.9362 4.1175 19.9163 4.08C19.9075 4.06375 19.9062 4.04375 19.895 4.0275L17.395 0.2775C17.2788 0.105 17.0837 0 16.875 0H3.125C2.91625 0 2.72125 0.105 2.605 0.27875L0.105 4.02875C0.09375 4.045 0.0925 4.06375 0.08375 4.08125C0.06375 4.11875 0.04875 4.15625 0.03625 4.1975C0.02375 4.23875 0.015 4.27875 0.01125 4.32125C0.00875 4.33875 0 4.355 0 4.375V18.75C0 19.44 0.56125 20 1.25 20H18.75C19.4387 20 20 19.44 20 18.75V4.375C20 4.355 19.9913 4.33875 19.9888 4.32ZM16.54 1.25L18.2075 3.75H12.405L11.9875 1.25H16.54ZM9.27875 1.25H10.72L11.1375 3.75H8.8625L9.27875 1.25ZM8.75 5H11.25V7.25875L10.1975 6.90625C10.0688 6.865 9.93 6.865 9.8025 6.90625L8.75 7.25875V5ZM3.46 1.25H8.0125L7.595 3.75H1.7925L3.46 1.25ZM18.75 19.375V18.75H1.25V5H7.5V8.125C7.5 8.32625 7.59625 8.515 7.76 8.63125C7.9225 8.75 8.13125 8.7775 8.3225 8.71875L10 8.15875L11.6775 8.7175C11.7425 8.73875 11.8088 8.75 11.875 8.75C12.005 8.75 12.1325 8.71 12.24 8.63125C12.4037 8.515 12.5 8.32625 12.5 8.125V5H18.75V18.75C18.75 18.75 18.75 18.75 18.7513 18.75L18.75 19.375Z" stroke="none"></path>
  </symbol>
  <symbol xmlns="http://www.w3.org/2000/svg" viewBox="0 0 8 5" id="icon-chevron--down">
    <path d="M7.06 -8.7178e-08L4 3.09042L0.94 -8.7178e-08L-2.38419e-07 0.951417L4 5L8 0.951417L7.06 -8.7178e-08Z" stroke="none"></path>
  </symbol>
  <symbol viewBox="0 0 20 40" xmlns="http://www.w3.org/2000/svg" id="icon-chevron--left">
    <path d="M20 3.57576L16.9666 0L0 20L16.9666 40L20 36.4242L6.06684 20L20 3.57576Z" stroke="none"/>
  </symbol>
  <symbol viewBox="0 0 20 40" xmlns="http://www.w3.org/2000/svg" id="icon-chevron--right">
    <path d="M0 4.24L13.0033 20L0 35.76L3.49835 40L20 20L3.49835 0L0 4.24Z" stroke="none" />
  </symbol>
  <symbol xmlns="http://www.w3.org/2000/svg" viewBox="0 0 8 5" id="icon-chevron--up">
    <path d="M0.94 5L4 1.90958L7.06 5L8 4.04858L4 0L0 4.04858L0.94 5Z" stroke="none"></path>
  </symbol>
  <symbol viewBox="0 0 12 12" xmlns="http://www.w3.org/2000/svg" id="icon-clear">
    <path d="M6 0C2.682 0 0 2.682 0 6C0 9.318 2.682 12 6 12C9.318 12 12 9.318 12 6C12 2.682 9.318 0 6 0ZM9 8.154L8.154 9L6 6.846L3.846 9L3 8.154L5.154 6L3 3.846L3.846 3L6 5.154L8.154 3L9 3.846L6.846 6L9 8.154Z" stroke="none"/>
  </symbol>
  <symbol viewBox="0 0 12 12" xmlns="http://www.w3.org/2000/svg" id="icon-close">
    <path d="M12 1.20857L10.7914 0L6 4.79143L1.20857 0L0 1.20857L4.79143 6L0 10.7914L1.20857 12L6 7.20857L10.7914 12L12 10.7914L7.20857 6L12 1.20857Z" stroke="none"/>
  </symbol>

  <symbol viewBox="0 0 24 24" xmlns="http://www.w3.org/2000/svg" id="icon-dropship">
    <path fill-rule="evenodd" clip-rule="evenodd" d="M19.8827 9.80008C19.2324 6.50584 15.9506 4.00008 11.9999 4.00008C8.04925 4.00008 4.76745 6.50584 4.11708 9.80008C4.04011 10.19 4 10.5909 4 11V11.0001H4.64653L7.8559 14.4112C8.08297 14.6526 8.46269 14.6641 8.70404 14.4371C8.94538 14.21 8.95695 13.8303 8.72988 13.5889L6.29416 11.0001H11.4L11.4 12.8001C11.4 13.1315 11.6686 13.4001 12 13.4001C12.3314 13.4001 12.6 13.1315 12.6 12.8001L12.6 11.0001H17.7056L15.27 13.5888C15.0429 13.8302 15.0545 14.2099 15.2958 14.437C15.5372 14.664 15.9169 14.6525 16.144 14.4111L19.3532 11.0001H19.9998V11C19.9998 10.5909 19.9597 10.19 19.8827 9.80008ZM18.6503 9.80008C18.0117 7.26011 15.3897 5.20008 11.9999 5.20008C8.61011 5.20008 5.98815 7.26011 5.3495 9.80008H18.6503ZM12.9999 15.2H10.9999C10.5581 15.2 10.1999 15.5582 10.1999 16V18C10.1999 18.4418 10.5581 18.8 10.9999 18.8H12.9999C13.4418 18.8 13.7999 18.4418 13.7999 18V16C13.7999 15.5582 13.4418 15.2 12.9999 15.2ZM10.9999 14C9.89538 14 8.99995 14.8954 8.99995 16V18C8.99995 19.1045 9.89538 20 10.9999 20H12.9999C14.1045 20 14.9999 19.1045 14.9999 18V16C14.9999 14.8954 14.1045 14 12.9999 14H10.9999Z" stroke="none"/>
    <line x1="11.4999" y1="17.4999" x2="11.9999" y2="17.4999" fill="none"  stroke-linecap="round"/>
    <circle cx="12" cy="12" r="11.5" fill="none"/>
  </symbol>
  <symbol xmlns="http://www.w3.org/2000/svg" viewBox="0 0 24 22" id="icon-retailers">
    <path d="M23.9775 7.0685L22.4775 1.0685C22.395 0.734 22.0935 0.5 21.75 0.5H2.25C1.9065 0.5 1.605 0.734 1.5225 1.0685L0.0225 7.0685C0.0075 7.127 0 7.1885 0 7.25C0 8.507 0.5955 9.6155 1.5 10.2965V20.75C1.5 21.164 1.836 21.5 2.25 21.5H9.75C10.164 21.5 10.5 21.164 10.5 20.75V15.5H13.5V20.75C13.5 21.164 13.836 21.5 14.25 21.5H21.75C22.164 21.5 22.5 21.164 22.5 20.75V10.2965C23.4045 9.6155 24 8.507 24 7.25C24 7.1885 23.9925 7.127 23.9775 7.0685ZM21 20H15V14.75C15 14.336 14.664 14 14.25 14H9.75C9.336 14 9 14.336 9 14.75V20H3V10.94C3.1845 10.9715 3.3705 11 3.5625 11C4.7055 11 5.7225 10.4315 6.375 9.5495C7.0275 10.4315 8.0445 11 9.1875 11C10.3305 11 11.3475 10.4315 12 9.5495C12.6525 10.4315 13.6695 11 14.8125 11C15.9555 11 16.9725 10.4315 17.625 9.5495C18.2775 10.4315 19.2945 11 20.4375 11C20.6295 11 20.8155 10.9715 21 10.94V20ZM20.4375 9.5C19.3005 9.5 18.375 8.4905 18.375 7.25C18.375 6.836 18.039 6.5 17.625 6.5C17.211 6.5 16.875 6.836 16.875 7.25C16.875 8.4905 15.9495 9.5 14.8125 9.5C13.6755 9.5 12.75 8.4905 12.75 7.25C12.75 6.836 12.414 6.5 12 6.5C11.586 6.5 11.25 6.836 11.25 7.25C11.25 8.4905 10.3245 9.5 9.1875 9.5C8.0505 9.5 7.125 8.4905 7.125 7.25C7.125 6.836 6.789 6.5 6.375 6.5C5.961 6.5 5.625 6.836 5.625 7.25C5.625 8.4905 4.6995 9.5 3.5625 9.5C2.4525 9.5 1.5435 8.537 1.5015 7.337L2.8365 2H21.165L22.5 7.337C22.4565 8.537 21.5475 9.5 20.4375 9.5Z" stroke="none"></path>
  </symbol>
  <symbol viewBox="0 0 14 18" xmlns="http://www.w3.org/2000/svg" id="icon-play">
    <path d="M13.7409 9.49486L1.40438 17.9004C1.31674 17.96 1.21492 17.9942 1.10977 17.9993C1.00463 18.0045 0.900082 17.9804 0.807277 17.9296C0.714472 17.8788 0.636883 17.8032 0.582771 17.711C0.52866 17.6187 0.500054 17.5131 0.5 17.4055V0.594479C0.500054 0.486892 0.52866 0.381334 0.582771 0.289049C0.636883 0.196763 0.714472 0.121206 0.807277 0.0704242C0.900082 0.0196427 1.00463 -0.00446133 1.10977 0.000679522C1.21492 0.00582037 1.31674 0.0400138 1.40438 0.0996173L13.7409 8.50514C13.8206 8.55946 13.886 8.63304 13.9312 8.71937C13.9764 8.8057 14 8.90209 14 9C14 9.09791 13.9764 9.19431 13.9312 9.28063C13.886 9.36696 13.8206 9.44055 13.7409 9.49486V9.49486Z" stroke="none"/>
  </symbol>
  <symbol viewBox="0 0 10 8" xmlns="http://www.w3.org/2000/svg" id="icon-checked">
    <path d="M9 1L3.5 6.5L1 4" fill="none"  stroke-width="2" stroke-linecap="round" stroke-linejoin="round"/>
  </symbol>
  <svg viewBox="0 0 42 30" xmlns="http://www.w3.org/2000/svg" id="icon-checked-1">
    <path d="M16.2037 28.5609C16.006 28.5609 15.9072 28.4608 15.7095 28.3607L1.2785 16.8518C0.981967 16.5515 0.883125 16.1512 1.17965 15.7509C1.47618 15.4507 1.87155 15.3506 2.26692 15.6508L16.2037 26.7595L38.7398 1.23957C39.0363 0.93934 39.5306 0.93934 39.8271 1.1395C40.1236 1.43973 40.1236 1.94012 39.9259 2.24036L16.7968 28.2607C16.5991 28.4608 16.4014 28.5609 16.2037 28.5609Z" stroke-width="2"/>
  </svg>
  <symbol viewBox="0 0 14 12" xmlns="http://www.w3.org/2000/svg" id="icon-danger">
    <path d="M0.583984 11.25H13.4173L7.00065 0.166672L0.583984 11.25ZM7.58398 9.50001H6.41732V8.33334H7.58398V9.50001ZM7.58398 7.16667H6.41732V4.83334H7.58398V7.16667Z" stroke="none"/>
  </symbol>
  <symbol viewBox="0 0 24 24" xmlns="http://www.w3.org/2000/svg" id="icon-danger-1">
    <path fill-rule="evenodd" clip-rule="evenodd" d="M12 14C11.4477 14 11 13.5523 11 13V10C11 9.44772 11.4477 9 12 9C12.5523 9 13 9.44772 13 10V13C13 13.5523 12.5523 14 12 14Z" stroke="none"/>
    <path d="M10.5 16.5C10.5 15.6716 11.1716 15 12 15C12.8284 15 13.5 15.6716 13.5 16.5C13.5 17.3284 12.8284 18 12 18C11.1716 18 10.5 17.3284 10.5 16.5Z" stroke="none"/>
    <path fill-rule="evenodd" clip-rule="evenodd" d="M10.2301 3.2156C10.98 1.79093 13.02 1.79092 13.7698 3.2156L22.1135 19.0685C22.8144 20.4003 21.8486 22 20.3436 22H3.65635C2.15133 22 1.18556 20.4003 1.88651 19.0685L10.2301 3.2156ZM20.3436 20L12 4.1471L3.65635 20H20.3436Z" stroke="none"/>
  </symbol>
  <symbol viewBox="0 0 16 16" xmlns="http://www.w3.org/2000/svg" id="icon-list">
    <path d="M15.9141 2.51008C15.8244 2.35852 15.6764 2.25225 15.5056 2.21757L6.44253 0.0116262C6.14384 -0.0468313 5.84916 0.119756 5.74578 0.407897L2.29121 9.26846L3.4445 9.69278L6.71831 1.26781L14.593 3.29661C14.1012 4.83591 12.931 8.04872 11.8091 11.0402C10.8311 13.6502 10.2683 14.544 9.1986 14.7265C9.19734 14.7253 9.19617 14.724 9.19617 14.7221C7.00998 15.0315 7.04922 12.2177 7.04922 12.2177L0.0671423 9.37019C-0.429025 12.5453 1.98747 13.309 1.98747 13.309L7.09933 15.6522C7.10056 15.6528 7.89855 16.0366 8.76586 15.9972C11.1053 15.9415 11.9274 14.2265 12.9575 11.4789C14.4457 7.50788 15.9562 3.05844 15.9711 3.01125C16.0243 2.8429 16.0033 2.66132 15.9141 2.51008Z" stroke="none"/>
    <path d="M11.7846 6.08336C11.8378 6.09806 11.8929 6.10586 11.9474 6.10586C12.2166 6.10586 12.463 5.92461 12.5385 5.6496C12.6282 5.31927 12.4344 4.97802 12.1077 4.88802L9.44774 4.05913C9.12463 3.96883 8.78286 4.16288 8.69371 4.49289C8.60453 4.82319 8.79651 5.16447 9.1245 5.2548L11.7846 6.08336Z" stroke="none"/>
    <path d="M7.62521 6.97516C7.51859 7.30049 7.69168 7.65085 8.01301 7.75944L10.659 8.71409C10.7233 8.73568 10.7864 8.74538 10.8501 8.74574C11.1082 8.74711 11.35 8.58274 11.4361 8.32249C11.543 7.99804 11.3703 7.64716 11.0476 7.53864L8.40263 6.5846C8.07939 6.4766 7.73308 6.65132 7.62521 6.97516Z" stroke="none"/>
    <path d="M7.39535 9.17132C7.07343 9.06257 6.72583 9.24003 6.62058 9.56635C6.51474 9.89011 6.69116 10.2414 7.01307 10.3476L9.66463 11.2983C9.72852 11.3202 9.79215 11.3295 9.85665 11.3295C10.1142 11.3295 10.3544 11.164 10.4392 10.9039C10.545 10.5783 10.3692 10.2277 10.0473 10.1214L7.39535 9.17132Z" stroke="none"/>
    <path d="M7.29815 3.33635C7.67392 3.33635 7.97882 3.63572 7.97882 4.0045C7.97882 4.37356 7.67392 4.67261 7.29815 4.67261C6.92209 4.67261 6.61719 4.37353 6.61719 4.0045C6.61722 3.63572 6.92209 3.33635 7.29815 3.33635Z" stroke="none"/>
    <path d="M6.33331 5.82008C6.7094 5.82008 7.01398 6.11916 7.01398 6.4879C7.01398 6.85635 6.7094 7.1554 6.33331 7.1554C5.95724 7.1554 5.65234 6.85635 5.65234 6.4879C5.65234 6.1192 5.95724 5.82008 6.33331 5.82008Z" stroke="none"/>
    <path d="M5.30596 8.38271C5.68206 8.38271 5.98693 8.68211 5.98693 9.05151C5.98693 9.42021 5.68206 9.71897 5.30596 9.71897C4.9299 9.71897 4.625 9.42028 4.625 9.05151C4.625 8.68211 4.9299 8.38271 5.30596 8.38271Z" stroke="none"/>
  </symbol>
  <symbol viewBox="0 0 14 14" xmlns="http://www.w3.org/2000/svg" id="icon-info">
    <path d="M7 0C3.136 0 0 3.136 0 7C0 10.864 3.136 14 7 14C10.864 14 14 10.864 14 7C14 3.136 10.864 0 7 0ZM7.7 10.5H6.3V6.3H7.7V10.5ZM7.7 4.9H6.3V3.5H7.7V4.9Z" stroke="none"/>
  </symbol>
  <symbol viewBox="0 0 60 60" xmlns="http://www.w3.org/2000/svg" id="icon-info-1">
    <path d="M27 39H33V45H27V39ZM27 15H33V33H27V15ZM29.97 0C13.41 0 0 13.44 0 30C0 46.56 13.41 60 29.97 60C46.56 60 60 46.56 60 30C60 13.44 46.56 0 29.97 0ZM30 54C16.74 54 6 43.26 6 30C6 16.74 16.74 6 30 6C43.26 6 54 16.74 54 30C54 43.26 43.26 54 30 54Z" stroke="none"/>
  </symbol>
  <symbol xmlns="http://www.w3.org/2000/svg" viewBox="0 0 22 18" id="icon-mail">
    <path d="M3 1H19C20.1 1 21 1.9 21 3V15C21 16.1 20.1 17 19 17H3C1.9 17 1 16.1 1 15V3C1 1.9 1.9 1 3 1Z" fill="none" stroke-width="2" stroke-linecap="round" stroke-linejoin="round"></path>
    <path d="M21 3L11 10L1 3" fill="none" stroke-width="2" stroke-linecap="round" stroke-linejoin="round"></path>
  </symbol>
  <symbol xmlns="http://www.w3.org/2000/svg" viewBox="0 0 20 22" id="icon-notification">
    <path d="M16 7C16 5.4087 15.3679 3.88258 14.2426 2.75736C13.1174 1.63214 11.5913 1 10 1C8.4087 1 6.88258 1.63214 5.75736 2.75736C4.63214 3.88258 4 5.4087 4 7C4 14 1 16 1 16H19C19 16 16 14 16 7Z" fill="none" stroke-width="2" stroke-linecap="round" stroke-linejoin="round"></path>
    <path d="M11.73 20C11.5542 20.3031 11.3019 20.5547 10.9982 20.7295C10.6946 20.9044 10.3504 20.9965 10 20.9965C9.64964 20.9965 9.30541 20.9044 9.00179 20.7295C8.69818 20.5547 8.44583 20.3031 8.27002 20" fill="none" stroke-width="2" stroke-linecap="round" stroke-linejoin="round"></path>
  </symbol>
    
    <symbol width="22" height="20" viewBox="0 0 22 20" fill="none" xmlns="http://www.w3.org/2000/svg" id="icon-cart">
<path d="M16.8585 9.7285L16.8579 9.72958C16.6042 10.1922 16.1107 10.5 15.5463 10.5H8.09634H7.8007L7.65823 10.759L6.55823 12.759L6.1507 13.5H6.99634H18.4963V14.5H6.99634C5.86093 14.5 5.1353 13.2812 5.6847 12.2705C5.68494 12.2701 5.68517 12.2696 5.68541 12.2692L7.03384 9.83206L7.15805 9.60755L7.0481 9.37573L3.4481 1.78573L3.31258 1.5H2.99634H1.49634V0.5H3.94887L4.75383 2.21268L4.88887 2.5H5.20634H20.0063C20.3854 2.5 20.6228 2.90977 20.4402 3.23549L20.4385 3.2385L16.8585 9.7285ZM6.15634 3.5H5.36601L5.70452 4.21416L8.07452 9.21416L8.21001 9.5H8.52634H15.5463H15.8415L15.9841 9.24163L18.7441 4.24163L19.1535 3.5H18.3063H6.15634ZM5.50634 18C5.50634 17.1729 6.17574 16.5 6.99634 16.5C7.8202 16.5 8.49634 17.1761 8.49634 18C8.49634 18.8239 7.8202 19.5 6.99634 19.5C6.17574 19.5 5.50634 18.8271 5.50634 18ZM15.5063 18C15.5063 17.1729 16.1757 16.5 16.9963 16.5C17.8202 16.5 18.4963 17.1761 18.4963 18C18.4963 18.8239 17.8202 19.5 16.9963 19.5C16.1757 19.5 15.5063 18.8271 15.5063 18Z" fill="#283B49" stroke="#283B49"/>
</symbol>

    
  <symbol xmlns="http://www.w3.org/2000/svg" viewBox="0 0 8 4" id="icon-polygon--down">
    <path d="M0 0L4 4L8 0L0 0Z" stroke="none"></path>
  </symbol>
  <symbol xmlns="http://www.w3.org/2000/svg" viewBox="0 0 4 8" id="icon-polygon--left">
    <path d="M4 0L-5.96046e-08 4L4 8L4 0Z" stroke="none"></path>
  </symbol>
  <symbol xmlns="http://www.w3.org/2000/svg" viewBox="0 0 4 8" id="icon-polygon--right">
    <path d="M0 8L4 4L0 -1.19209e-07L0 8Z" stroke="none"></path>
  </symbol>
    
    <symbol width="16" height="20" viewBox="0 0 16 20" xmlns="http://www.w3.org/2000/svg" id="doc">
<path d="M4 14H12V16H4V14ZM4 10H12V12H4V10ZM10 0H2C0.9 0 0 0.9 0 2V18C0 19.1 0.89 20 1.99 20H14C15.1 20 16 19.1 16 18V6L10 0ZM14 18H2V2H9V7H14V18Z" fill="red" stroke="none" />
</symbol>

    
      <symbol xmlns="http://www.w3.org/2000/svg" viewBox="0 0 24 24" id="icon-not-available">
    <path d="M12 1C5.93457 1 1 5.95073 1 12.036C1.55301 26.6567 22.4492 26.6527 23 12.0359C23 5.95073 18.0654 1 12 1ZM2.28906 12.036C2.19539 4.92162 10.0015 0.0732335 16.2858 3.29515L14.8707 5.75419L12.3223 4.27804C12.1228 4.16255 11.8772 4.16255 11.6777 4.27804L5.46445 7.87695C5.26504 7.99244 5.14219 8.20591 5.14219 8.43694V15.635C5.14219 15.8661 5.26504 16.0796 5.46445 16.195L8.01293 17.6712L6.59874 20.1287C4.00158 18.3782 2.28906 15.4041 2.28906 12.036ZM11.764 11.1528L7.07574 8.43698L8.89332 7.38421L12.6729 9.57343L11.764 11.1528ZM11.1195 12.2728L8.65742 16.5512L6.43121 15.2617V9.55701L11.1195 12.2728ZM11.3555 14.4493V18.1139L9.77379 17.1978L11.3555 14.4493ZM12.6445 12.4095L14.4621 11.3566V11.9621C14.4937 12.8189 15.7197 12.8187 15.7512 11.9621V10.6099L17.5688 9.55701V15.2617L12.6445 18.1139V12.4095ZM15.1068 9.4898L14.4338 9.1L15.3425 7.52086L16.9242 8.43698L15.1068 9.4898ZM13.3175 8.45336L10.1825 6.63751L12 5.58473L14.2262 6.87422L13.3175 8.45336ZM12 21.7787C10.4624 21.7787 9.00757 21.4178 7.71417 20.7768L9.12926 18.3178L11.6777 19.7939C11.8772 19.9094 12.1228 19.9094 12.3223 19.7939L18.5355 16.195C18.735 16.0796 18.8578 15.8661 18.8578 15.635V8.43694C18.8578 8.20591 18.735 7.99244 18.5355 7.87695L15.9871 6.40079L17.4013 3.9433C25.2736 9.22455 21.5964 21.7395 12 21.7787Z" fill="#828282"/>
  </symbol>
    
    <symbol width="24" height="24" viewBox="0 0 24 24" fill="none" xmlns="http://www.w3.org/2000/svg" id="edit-icon">
<path d="M0 4C0 1.79086 1.79086 0 4 0H20C22.2091 0 24 1.79086 24 4V20C24 22.2091 22.2091 24 20 24H4C1.79086 24 0 22.2091 0 20V4Z" fill="white"/>
<path d="M13.8311 9.35111L14.6489 10.1689L6.59556 18.2222H5.77778V17.4044L13.8311 9.35111ZM17.0311 4C16.8089 4 16.5778 4.08889 16.4089 4.25778L14.7822 5.88444L18.1156 9.21778L19.7422 7.59111C20.0889 7.24444 20.0889 6.68444 19.7422 6.33778L17.6622 4.25778C17.4844 4.08 17.2622 4 17.0311 4ZM13.8311 6.83556L4 16.6667V20H7.33333L17.1644 10.1689L13.8311 6.83556Z" fill="#283B49" stroke="none"/>
</symbol>
    
<svg width="24" height="24" viewBox="0 0 24 24" fill="none" xmlns="http://www.w3.org/2000/svg" id="edit-icons">
<path d="M0 4C0 1.79086 1.79086 0 4 0H20C22.2091 0 24 1.79086 24 4V20C24 22.2091 22.2091 24 20 24H4C1.79086 24 0 22.2091 0 20V4Z" fill="white"/>
<path d="M13.8311 9.35111L14.6489 10.1689L6.59556 18.2222H5.77778V17.4044L13.8311 9.35111ZM17.0311 4C16.8089 4 16.5778 4.08889 16.4089 4.25778L14.7822 5.88444L18.1156 9.21778L19.7422 7.59111C20.0889 7.24444 20.0889 6.68444 19.7422 6.33778L17.6622 4.25778C17.4844 4.08 17.2622 4 17.0311 4ZM13.8311 6.83556L4 16.6667V20H7.33333L17.1644 10.1689L13.8311 6.83556Z" fill="#283B49"/>
</svg>

    
<symbol width="10" height="12" viewBox="0 0 10 12" fill="none" xmlns="http://www.w3.org/2000/svg" id="delete-icon">
<path d="M1.00004 10.6667C1.00004 11.4 1.60004 12 2.33337 12H7.66671C8.40004 12 9.00004 11.4 9.00004 10.6667V2.66667H1.00004V10.6667ZM9.66671 0.666667H7.33337L6.66671 0H3.33337L2.66671 0.666667H0.333374V2H9.66671V0.666667Z" fill="white"/>
</symbol>
    
<symbol width="10" height="10" viewBox="0 0 10 10" fill="none" xmlns="http://www.w3.org/2000/svg" id="plus-icon-sm">
<path d="M9.66671 5.66683H5.66671V9.66683H4.33337V5.66683H0.333374V4.3335H4.33337V0.333496H5.66671V4.3335H9.66671V5.66683Z" fill="#C9632B"/>
</symbol>
    
<symbol width="60" height="60" viewBox="0 0 60 60" fill="none" xmlns="http://www.w3.org/2000/svg" id="delete-user-md">
<path d="M0 30C0 13.4315 13.4315 0 30 0V0C46.5685 0 60 13.4315 60 30V30C60 46.5685 46.5685 60 30 60V60C13.4315 60 0 46.5685 0 30V30Z" fill="#EB5757"/>
<path d="M0 0H60V60H0V0Z" fill="#EB5757"/>
<path fill-rule="evenodd" clip-rule="evenodd" d="M26.7857 17.5V19.0625H18.75V22.1875H41.25V19.0625H33.2143V17.5H26.7857ZM36.4286 42.5C38.2013 42.5 39.6429 41.0977 39.6429 39.375V23.75H20.3572V39.375C20.3572 41.0977 21.7987 42.5 23.5715 42.5H36.4286Z" fill="white"/>
</symbol>
    
<symbol width="60" height="60" viewBox="0 0 60 60" fill="none" xmlns="http://www.w3.org/2000/svg" id="user-added-check">
<path d="M59.1666 10.108L25.8875 43.4163L13.5208 31.0497L17.6333 26.9372L25.8875 35.1913L55.0541 6.02467L59.1666 10.108ZM52.7208 24.808C53.1 26.4705 53.3333 28.2205 53.3333 29.9997C53.3333 42.8913 42.8916 53.333 30 53.333C17.1083 53.333 6.66665 42.8913 6.66665 29.9997C6.66665 17.108 17.1083 6.66634 30 6.66634C34.6083 6.66634 38.8666 8.00801 42.4833 10.3122L46.6833 6.11217C41.9583 2.78717 36.2125 0.833008 30 0.833008C13.9 0.833008 0.833313 13.8997 0.833313 29.9997C0.833313 46.0997 13.9 59.1663 30 59.1663C46.1 59.1663 59.1666 46.0997 59.1666 29.9997C59.1666 26.5288 58.525 23.2038 57.4166 20.1122L52.7208 24.808Z" fill="#C9632B"/>
</symbol>

<symbol width="17" height="16" viewBox="0 0 17 16" fill="none" xmlns="http://www.w3.org/2000/svg" id="edit-email">
<path d="M9.83111 5.35111L10.6489 6.16889L2.59556 14.2222H1.77778V13.4044L9.83111 5.35111ZM13.0311 0C12.8089 0 12.5778 0.0888889 12.4089 0.257778L10.7822 1.88444L14.1156 5.21778L15.7422 3.59111C16.0889 3.24444 16.0889 2.68444 15.7422 2.33778L13.6622 0.257778C13.4844 0.08 13.2622 0 13.0311 0ZM9.83111 2.83556L0 12.6667V16H3.33333L13.1644 6.16889L9.83111 2.83556Z" fill="#283B49"/>
</symbol>
    
<symbol width="20" height="20" viewBox="0 0 20 20" fill="none" xmlns="http://www.w3.org/2000/svg" id="info_note">
<path d="M9.99958 0C4.47746 0 0 4.47746 0 9.99958C0 15.5217 4.47746 20 9.99958 20C15.5217 20 20 15.5217 20 9.99958C20 4.47746 15.5217 0 9.99958 0ZM12.0813 15.498C11.5666 15.7012 11.1568 15.8552 10.8495 15.9619C10.5431 16.0686 10.1867 16.1219 9.78116 16.1219C9.1581 16.1219 8.67302 15.9695 8.32762 15.6656C7.98222 15.3617 7.81037 14.9765 7.81037 14.5084C7.81037 14.3263 7.82307 14.1401 7.84847 13.9505C7.87471 13.7608 7.91619 13.5475 7.97291 13.3079L8.61714 11.0324C8.67386 10.814 8.72296 10.6066 8.7619 10.4135C8.80085 10.2188 8.81947 10.0402 8.81947 9.87767C8.81947 9.58815 8.75937 9.38497 8.64 9.27069C8.51894 9.1564 8.29122 9.10053 7.95175 9.10053C7.78582 9.10053 7.61481 9.12508 7.43958 9.17672C7.26603 9.23005 7.11534 9.27831 6.99175 9.32571L7.1619 8.62476C7.58349 8.45291 7.9873 8.30561 8.37249 8.1837C8.75767 8.06011 9.12169 7.99915 9.46455 7.99915C10.0834 7.99915 10.5608 8.14984 10.8969 8.44783C11.2313 8.74667 11.3998 9.13524 11.3998 9.6127C11.3998 9.71175 11.3879 9.88614 11.3651 10.135C11.3422 10.3848 11.299 10.6125 11.2364 10.8216L10.5956 13.0904C10.5431 13.2724 10.4965 13.4806 10.4542 13.7134C10.4127 13.9462 10.3924 14.124 10.3924 14.2434C10.3924 14.5448 10.4593 14.7505 10.5947 14.8597C10.7285 14.9689 10.963 15.0239 11.2948 15.0239C11.4514 15.0239 11.6267 14.996 11.8248 14.9418C12.0212 14.8876 12.1634 14.8394 12.2531 14.7979L12.0813 15.498ZM11.9678 6.2891C11.669 6.56677 11.3092 6.70561 10.8885 6.70561C10.4686 6.70561 10.1062 6.56677 9.80487 6.2891C9.50519 6.01143 9.35365 5.67365 9.35365 5.27915C9.35365 4.8855 9.50603 4.54688 9.80487 4.26667C10.1062 3.98561 10.4686 3.84593 10.8885 3.84593C11.3092 3.84593 11.6698 3.98561 11.9678 4.26667C12.2667 4.54688 12.4165 4.8855 12.4165 5.27915C12.4165 5.6745 12.2667 6.01143 11.9678 6.2891Z" fill="#283B49"/>
</symbol>
    
<symbol width="14" height="14" viewBox="0 0 14 14" fill="none" xmlns="http://www.w3.org/2000/svg" id="question-mark">
<circle cx="7" cy="7" r="7" fill="#283B49"/>
<path d="M6.375 9.72H7.625V11H6.375V9.72ZM7.625 8.76H6.375C6.375 6.68 8.25 6.84 8.25 5.56C8.25 4.856 7.6875 4.28 7 4.28C6.3125 4.28 5.75 4.856 5.75 5.56H4.5C4.5 4.1456 5.61875 3 7 3C8.38125 3 9.5 4.1456 9.5 5.56C9.5 7.16 7.625 7.32 7.625 8.76Z" fill="white"/>
</symbol>
    
<svg width="60" height="60" viewBox="0 0 60 60" fill="none" xmlns="http://www.w3.org/2000/svg" id="confirmtation-round">
<path d="M27.0833 38.7497H32.9166V44.583H27.0833V38.7497ZM27.0833 15.4163H32.9166V32.9163H27.0833V15.4163ZM29.9707 0.833008C13.8708 0.833008 0.833252 13.8997 0.833252 29.9997C0.833252 46.0997 13.8708 59.1663 29.9707 59.1663C46.0999 59.1663 59.1666 46.0997 59.1666 29.9997C59.1666 13.8997 46.0999 0.833008 29.9707 0.833008ZM29.9999 53.333C17.1083 53.333 6.66658 42.8913 6.66658 29.9997C6.66658 17.108 17.1083 6.66634 29.9999 6.66634C42.8916 6.66634 53.3332 17.108 53.3332 29.9997C53.3332 42.8913 42.8916 53.333 29.9999 53.333Z" fill="#C9632B"/>
</svg>
    

<symbol width="24" height="24" viewBox="0 0 24 24" fill="none" xmlns="http://www.w3.org/2000/svg" id="question-mark-dark">
<path d="M12 2C7.31 2 3.5 5.81 3.5 10.5C3.5 15.19 7.31 19 12 19H12.5V22C17.36 19.66 20.5 15 20.5 10.5C20.5 5.81 16.69 2 12 2ZM13 16.5H11V14.5H13V16.5ZM13 13H11C11 9.75 14 10 14 8C14 6.9 13.1 6 12 6C10.9 6 10 6.9 10 8H8C8 5.79 9.79 4 12 4C14.21 4 16 5.79 16 8C16 10.5 13 10.75 13 13Z" fill="#283B49"/>
</symbol>
    
<symbol width="24" height="24" viewBox="0 0 24 24" fill="none" xmlns="http://www.w3.org/2000/svg" class="delete-square">
<path d="M0 4C0 1.79086 1.79086 0 4 0H20C22.2091 0 24 1.79086 24 4V20C24 22.2091 22.2091 24 20 24H4C1.79086 24 0 22.2091 0 20V4Z" fill="#EB5757"/>
<path d="M7.99998 16.6667C7.99998 17.4 8.59998 18 9.33331 18H14.6666C15.4 18 16 17.4 16 16.6667V8.66667H7.99998V16.6667ZM16.6666 6.66667H14.3333L13.6666 6H10.3333L9.66665 6.66667H7.33331V8H16.6666V6.66667Z" fill="white"/>
</symbol>
    
<symbol width="24" height="24" viewBox="0 0 24 24" fill="none" xmlns="http://www.w3.org/2000/svg" id="black-arrow">
<path d="M0 4C0 1.79086 1.79086 0 4 0H20C22.2091 0 24 1.79086 24 4V20C24 22.2091 22.2091 24 20 24H4C1.79086 24 0 22.2091 0 20V4Z" fill="white"/>
<path d="M7.41 9L12 13.6356L16.59 9L18 10.4271L12 16.5L6 10.4271L7.41 9Z" fill="#000000"/>
</symbol>
    
<symbol width="20" height="20" viewBox="0 0 20 20" fill="none" xmlns="http://www.w3.org/2000/svg" id="black-message">
<path d="M16.6667 3.33325H3.33341C2.41675 3.33325 1.67508 4.08325 1.67508 4.99992L1.66675 14.9999C1.66675 15.9166 2.41675 16.6666 3.33341 16.6666H16.6667C17.5834 16.6666 18.3334 15.9166 18.3334 14.9999V4.99992C18.3334 4.08325 17.5834 3.33325 16.6667 3.33325ZM16.6667 6.66659L10.0001 10.8333L3.33341 6.66659V4.99992L10.0001 9.16658L16.6667 4.99992V6.66659Z" fill="#283B49"/>
</symbol>
    

<symbol width="10" height="12" viewBox="0 0 10 12" xmlns="http://www.w3.org/2000/svg" id="delete-sm">
<path d="M1.00004 10.6667C1.00004 11.4 1.60004 12 2.33337 12H7.66671C8.40004 12 9.00004 11.4 9.00004 10.6667V2.66667H1.00004V10.6667ZM9.66671 0.666667H7.33337L6.66671 0H3.33337L2.66671 0.666667H0.333374V2H9.66671V0.666667Z" stroke="none"/>
</symbol>
    
<symbol width="17" height="16" viewBox="0 0 17 16" xmlns="http://www.w3.org/2000/svg" id="visibility-sm">
<path d="M8.50008 4.33333C11.0267 4.33333 13.2801 5.75333 14.3801 8C13.2801 10.2467 11.0267 11.6667 8.50008 11.6667C5.97341 11.6667 3.72008 10.2467 2.62008 8C3.72008 5.75333 5.97341 4.33333 8.50008 4.33333ZM8.50008 3C5.16675 3 2.32008 5.07333 1.16675 8C2.32008 10.9267 5.16675 13 8.50008 13C11.8334 13 14.6801 10.9267 15.8334 8C14.6801 5.07333 11.8334 3 8.50008 3ZM8.50008 6.33333C9.42008 6.33333 10.1667 7.08 10.1667 8C10.1667 8.92 9.42008 9.66667 8.50008 9.66667C7.58008 9.66667 6.83341 8.92 6.83341 8C6.83341 7.08 7.58008 6.33333 8.50008 6.33333ZM8.50008 5C6.84675 5 5.50008 6.34667 5.50008 8C5.50008 9.65333 6.84675 11 8.50008 11C10.1534 11 11.5001 9.65333 11.5001 8C11.5001 6.34667 10.1534 5 8.50008 5Z" stroke="none"/>
</symbol>
    
<symbol width="17" height="16" viewBox="0 0 17 16" xmlns="http://www.w3.org/2000/svg" id="visibility-off">
<path d="M8.50008 3.98337C11.0267 3.98337 13.2801 5.40337 14.3801 7.65003C13.9867 8.46337 13.4334 9.16337 12.7734 9.73003L13.7134 10.67C14.6401 9.85003 15.3734 8.82337 15.8334 7.65003C14.6801 4.72337 11.8334 2.65003 8.50008 2.65003C7.65341 2.65003 6.84008 2.78337 6.07341 3.03003L7.17341 4.13003C7.60675 4.04337 8.04675 3.98337 8.50008 3.98337ZM7.78675 4.74337L9.16675 6.12337C9.54675 6.29003 9.85341 6.5967 10.0201 6.9767L11.4001 8.3567C11.4534 8.13003 11.4934 7.89003 11.4934 7.64337C11.5001 5.99003 10.1534 4.65003 8.50008 4.65003C8.25341 4.65003 8.02008 4.68337 7.78675 4.74337ZM1.84008 2.56337L3.62675 4.35003C2.54008 5.20337 1.68008 6.3367 1.16675 7.65003C2.32008 10.5767 5.16675 12.65 8.50008 12.65C9.51341 12.65 10.4867 12.4567 11.3801 12.1034L13.6601 14.3834L14.6001 13.4434L2.78008 1.6167L1.84008 2.56337ZM6.84008 7.56337L8.58008 9.30337C8.55341 9.31003 8.52675 9.3167 8.50008 9.3167C7.58008 9.3167 6.83341 8.57003 6.83341 7.65003C6.83341 7.6167 6.84008 7.5967 6.84008 7.56337ZM4.57341 5.2967L5.74008 6.46337C5.58675 6.83003 5.50008 7.23003 5.50008 7.65003C5.50008 9.30337 6.84675 10.65 8.50008 10.65C8.92008 10.65 9.32008 10.5634 9.68008 10.41L10.3334 11.0634C9.74675 11.2234 9.13341 11.3167 8.50008 11.3167C5.97341 11.3167 3.72008 9.8967 2.62008 7.65003C3.08675 6.6967 3.76675 5.91003 4.57341 5.2967Z" stroke="none"/>
</symbol>

<symbol width="32" height="32" viewBox="0 0 32 32" xmlns="http://www.w3.org/2000/svg" id="minus-icon">
<rect width="32" height="32" rx="4" fill="#283B49"/>
<path d="M25.3334 17.3334H17.3334H14.6667H6.66669V14.6667H14.6667H17.3334H25.3334V17.3334Z" stroke="none"/>
</symbol>
    
<symbol width="32" height="32" viewBox="0 0 32 32" xmlns="http://www.w3.org/2000/svg" id="plus-icon">
<rect width="32" height="32" rx="4" fill="#C9632B"/>
<path d="M25.3334 17.3334H17.3334V25.3334H14.6667V17.3334H6.66669V14.6667H14.6667V6.66669H17.3334V14.6667H25.3334V17.3334Z" stroke="none"/>
</symbol>
    
<symbol width="16" height="20" viewBox="0 0 16 20" fill="none" xmlns="http://www.w3.org/2000/svg" id="download-order">
<path d="M10 0H2C0.9 0 0 0.9 0 2V18C0 19.1 0.9 20 2 20H14C15.1 20 16 19.1 16 18V6L10 0ZM2 18V2H9V6H14V18H2ZM7 17H9V16H10C10.55 16 11 15.55 11 15V12C11 11.45 10.55 11 10 11H7V10H11V8H9V7H7V8H6C5.45 8 5 8.45 5 9V12C5 12.55 5.45 13 6 13H9V14H5V16H7V17Z" fill="#283B49"/>
</symbol>
    
<symbol width="22" height="19" viewBox="0 0 22 19" fill="none" xmlns="http://www.w3.org/2000/svg" id="eye">
<path d="M11 4C13.76 4 16 6.24 16 9C16 9.65 15.87 10.26 15.64 10.83L18.56 13.75C20.07 12.49 21.26 10.86 21.99 9C20.26 4.61 15.99 1.5 10.99 1.5C9.59 1.5 8.25 1.75 7.01 2.2L9.17 4.36C9.74 4.13 10.35 4 11 4ZM1 1.27L3.28 3.55L3.74 4.01C2.08 5.3 0.78 7.02 0 9C1.73 13.39 6 16.5 11 16.5C12.55 16.5 14.03 16.2 15.38 15.66L15.8 16.08L18.73 19L20 17.73L2.27 0L1 1.27ZM6.53 6.8L8.08 8.35C8.03 8.56 8 8.78 8 9C8 10.66 9.34 12 11 12C11.22 12 11.44 11.97 11.65 11.92L13.2 13.47C12.53 13.8 11.79 14 11 14C8.24 14 6 11.76 6 9C6 8.21 6.2 7.47 6.53 6.8V6.8ZM10.84 6.02L13.99 9.17L14.01 9.01C14.01 7.35 12.67 6.01 11.01 6.01L10.84 6.02Z" fill="#354253"/>
</symbol>
    
<svg width="20" height="18" viewBox="0 0 20 18" fill="none" xmlns="http://www.w3.org/2000/svg" id="verify-mail">
<path d="M20 6.98V16C20 17.1 19.1 18 18 18H2C0.9 18 0 17.1 0 16L0.00999999 4C0.00999999 2.9 0.9 2 2 2H12.1C12.04 2.32 12 2.66 12 3C12 3.34 12.04 3.68 12.1 4H2L10 9L13.67 6.71C14.14 7.14 14.69 7.47 15.3 7.69L10 11L2 6V16H18V7.9C18.74 7.75 19.42 7.42 20 6.98ZM14 3C14 4.66 15.34 6 17 6C18.66 6 20 4.66 20 3C20 1.34 18.66 0 17 0C15.34 0 14 1.34 14 3Z" fill="#000000"/>
</svg>
    
<symbol width="56" height="56" viewBox="0 0 56 56" fill="none" xmlns="http://www.w3.org/2000/svg" id="brand-icon">
<path d="M0.820312 41.8787C0.367281 41.8787 0 42.2459 0 42.699V55.1797C0 55.6328 0.367281 56 0.820312 56C1.27334 56 1.64062 55.6328 1.64062 55.1797V42.699C1.64062 42.2459 1.27334 41.8787 0.820312 41.8787ZM34.6172 6.61719C26.2378 6.61719 18.97 11.4629 15.4653 18.4986H5.46875V2.73438C5.46875 1.22664 4.24211 0 2.73438 0C1.22664 0 0 1.22664 0 2.73438V39.4178C0 39.8709 0.367281 40.2381 0.820312 40.2381C1.27334 40.2381 1.64062 39.8709 1.64062 39.4178V2.73438C1.64062 2.13128 2.13128 1.64062 2.73438 1.64062C3.33747 1.64062 3.82812 2.13128 3.82812 2.73438V55.1797C3.82812 55.6328 4.19541 56 4.64844 56C5.10147 56 5.46875 55.6328 5.46875 55.1797V37.5014H15.4653C18.97 44.5371 26.2378 49.3828 34.6172 49.3828C46.4077 49.3828 56 39.7905 56 28C56 16.2095 46.4077 6.61719 34.6172 6.61719ZM14.7314 35.8608H5.46875V20.1392H14.7314C13.7657 22.5737 13.2344 25.2259 13.2344 28C13.2344 30.7741 13.7657 33.4263 14.7314 35.8608ZM34.6172 47.7422C23.7313 47.7422 14.875 38.8859 14.875 28C14.875 17.1141 23.7313 8.25781 34.6172 8.25781C45.5031 8.25781 54.3594 17.1141 54.3594 28C54.3594 38.8859 45.5031 47.7422 34.6172 47.7422ZM51.8984 28.8203C52.3515 28.8203 52.7188 28.4531 52.7188 28C52.7188 18.0188 44.5984 9.89844 34.6172 9.89844C24.636 9.89844 16.5156 18.0188 16.5156 28C16.5156 37.9812 24.636 46.1016 34.6172 46.1016C43.2212 46.1016 50.6871 39.9807 52.3696 31.5476C52.4583 31.1032 52.1699 30.6712 51.7256 30.5826C51.2813 30.4945 50.8493 30.7824 50.7607 31.2266C49.2308 38.8951 42.4414 44.4609 34.6172 44.4609C25.5406 44.4609 18.1562 37.0766 18.1562 28C18.1562 18.9234 25.5406 11.5391 34.6172 11.5391C43.6938 11.5391 51.0781 18.9234 51.0781 28C51.0781 28.4531 51.4454 28.8203 51.8984 28.8203ZM28.6103 40.5637H40.6241C41.3829 40.5637 42.0002 39.9453 42.0002 39.1851V26.343L43.1718 27.227C43.4693 27.4516 43.8526 27.5461 44.2188 27.487C44.5869 27.4276 44.9197 27.2173 45.1317 26.9103L47.3872 23.6448C47.739 23.1351 47.7069 22.4479 47.309 21.9737L43.4761 17.4044C43.4054 17.3243 43.3043 17.2301 43.1479 17.1682L39.0992 15.4983C39.0152 15.4708 38.9442 15.4374 38.7865 15.4364H30.4478C30.382 15.4392 30.2607 15.4447 30.1351 15.4983L26.0854 17.1685C25.9793 17.2149 25.8747 17.2697 25.7581 17.4044L21.9254 21.9737C21.5274 22.4479 21.4953 23.1351 21.8472 23.6448L24.1025 26.9103C24.3555 27.2773 24.7856 27.5044 25.2322 27.5044C25.5293 27.5044 25.8231 27.4077 26.0624 27.2272L27.234 26.343V39.1851C27.234 39.9453 27.8515 40.5637 28.6103 40.5637ZM43.2575 19.6965L45.9244 22.8758L43.939 25.7505L42.106 24.3674L43.2575 19.6965ZM25.2955 25.7506L23.31 22.8758L25.9769 19.6965L27.1284 24.3674L25.2955 25.7506ZM37.5978 17.0769C36.9871 17.712 35.7508 18.1108 34.6172 18.1108C33.4836 18.1108 32.2472 17.712 31.6366 17.0769H37.5978ZM29.8793 17.3784C30.5493 18.7704 32.4016 19.7514 34.6172 19.7514C36.8328 19.7514 38.6851 18.7704 39.3551 17.3784L41.8823 18.4207C41.8436 18.593 40.4677 24.2586 40.4111 24.411C40.3438 24.5922 40.3619 24.7822 40.3597 24.9687V38.9231H28.8747V24.9687C28.8705 24.8104 28.8865 24.5962 28.7856 24.2356L27.3521 18.4207L29.8793 17.3784Z" fill="#D18D58"/>
</symbol>
    

    <symbol width="56" height="56" viewBox="0 0 56 56" fill="none" xmlns="http://www.w3.org/2000/svg" id="retailer-icon">
<path d="M9.40625 10.0985C9.69391 10.0985 9.97609 9.98246 10.1795 9.77793C10.383 9.5746 10.5 9.29242 10.5 9.00476C10.5 8.7171 10.383 8.43492 10.1795 8.23148C9.97609 8.02804 9.69391 7.91101 9.40625 7.91101C9.11859 7.91101 8.83641 8.02793 8.63297 8.23148C8.42953 8.43492 8.3125 8.7171 8.3125 9.00476C8.3125 9.29242 8.42953 9.5746 8.63297 9.77793C8.83641 9.98257 9.11859 10.0985 9.40625 10.0985V10.0985Z" fill="#E6C1A4"/>
<path d="M14.2549 10.0985C14.5425 10.0985 14.8247 9.98246 15.0282 9.77793C15.2327 9.5746 15.3486 9.29242 15.3486 9.00476C15.3486 8.7171 15.2327 8.43492 15.0282 8.23148C14.8247 8.02804 14.5425 7.91101 14.2549 7.91101C13.9672 7.91101 13.6861 8.02793 13.4816 8.23148C13.2782 8.43492 13.1611 8.7171 13.1611 9.00476C13.1611 9.29242 13.2782 9.5746 13.4816 9.77793C13.6861 9.98257 13.9683 10.0985 14.2549 10.0985V10.0985Z" fill="#E6C1A4"/>
<path d="M19.1045 10.0985C19.3921 10.0985 19.6732 9.98246 19.8778 9.77793C20.0812 9.5746 20.1982 9.29242 20.1982 9.00476C20.1982 8.7171 20.0812 8.43492 19.8778 8.23148C19.6743 8.02804 19.3921 7.91101 19.1045 7.91101C18.8168 7.91101 18.5346 8.02793 18.3301 8.23148C18.1267 8.43492 18.0107 8.7171 18.0107 9.00476C18.0107 9.29242 18.1267 9.5746 18.3301 9.77793C18.5346 9.98257 18.8168 10.0985 19.1045 10.0985V10.0985Z" fill="#E6C1A4"/>
<path d="M56 22.6361V19.9062C56 19.7693 55.9743 19.6337 55.9242 19.5063L53.5938 13.5747V7.65625C53.5938 4.64078 51.1405 2.1875 48.125 2.1875H7.875C4.85953 2.1875 2.40625 4.64078 2.40625 7.65625V13.5733L0.0756875 19.5064C0.0257031 19.6338 0 19.7694 0 19.9062V22.6361C0 24.5026 0.932859 26.0828 2.40625 27.0079V51.625H1.09375C0.489672 51.625 0 52.1148 0 52.7188C0 53.3227 0.489672 53.8125 1.09375 53.8125H52.5H54.9062C55.5103 53.8125 56 53.3227 56 52.7188C56 52.1148 55.5103 51.625 54.9062 51.625H53.5938V27.0079C55.0671 26.0828 56 24.5026 56 22.6361ZM50.4219 25.6985C48.4573 25.6985 47.0312 24.4106 47.0312 22.6361V22.636V21H53.8125V22.6361C53.8125 24.4106 52.3865 25.6985 50.4219 25.6985ZM44.8438 22.636C44.8438 24.4106 43.4177 25.6985 41.4531 25.6985C39.4885 25.6985 38.0625 24.4106 38.0625 22.636V21H44.8438V22.636ZM35.875 22.636C35.875 24.4106 34.449 25.6985 32.4844 25.6985C30.5198 25.6985 29.0938 24.4106 29.0938 22.636V21H35.875V22.636ZM26.9062 22.636C26.9062 24.4106 25.4802 25.6985 23.5156 25.6985C21.551 25.6985 20.125 24.4106 20.125 22.636V21H26.9062V22.636ZM17.9375 22.636C17.9375 24.4106 16.5115 25.6985 14.5469 25.6985C12.5823 25.6985 11.1562 24.4106 11.1562 22.636V21H17.9375V22.636ZM4.24517 14.875H51.7543L53.3013 18.8125H2.6985L4.24517 14.875ZM7.875 4.375H48.125C49.9343 4.375 51.4062 5.84697 51.4062 7.65625V12.6875H4.59375V7.65625C4.59375 5.84697 6.06572 4.375 7.875 4.375ZM2.1875 21H8.96875V22.636V22.6361C8.96875 24.4106 7.54272 25.6985 5.57812 25.6985C3.61353 25.6985 2.1875 24.4106 2.1875 22.6361V21ZM9.84375 51.625V33.136H21.6562V51.625H9.84375ZM51.4062 51.625H23.8438V32.0423C23.8438 31.4383 23.3541 30.9485 22.75 30.9485H8.75C8.14592 30.9485 7.65625 31.4383 7.65625 32.0423V51.625H4.59375V27.81C4.91203 27.8591 5.24027 27.886 5.57812 27.886C7.4573 27.886 9.06292 27.0977 10.0625 25.8352C11.0621 27.0977 12.6677 27.886 14.5469 27.886C16.426 27.886 18.0317 27.0977 19.0312 25.8352C20.0308 27.0977 21.6365 27.886 23.5156 27.886C25.3948 27.886 27.0004 27.0977 28 25.8352C28.9996 27.0977 30.6052 27.886 32.4844 27.886C34.3635 27.886 35.9692 27.0977 36.9688 25.8352C37.9683 27.0977 39.574 27.886 41.4531 27.886C43.3322 27.886 44.9379 27.0977 45.9375 25.8352C46.9371 27.0977 48.5427 27.886 50.4219 27.886C50.7597 27.886 51.088 27.8591 51.4062 27.81V51.625Z" fill="#E6C1A4"/>
<path d="M13.125 42.0524C12.8373 42.0524 12.5552 42.1694 12.3517 42.373C12.1483 42.5763 12.0312 42.8585 12.0312 43.1461C12.0312 43.4338 12.1483 43.716 12.3517 43.9194C12.5552 44.1229 12.8373 44.2399 13.125 44.2399C13.4127 44.2399 13.6948 44.123 13.8983 43.9194C14.1017 43.7159 14.2188 43.4338 14.2188 43.1461C14.2188 42.8585 14.1017 42.5763 13.8983 42.373C13.6948 42.1695 13.4127 42.0524 13.125 42.0524Z" fill="#E6C1A4"/>
<path d="M47.25 30.9485H42.6632C42.0592 30.9485 41.5695 31.4383 41.5695 32.0423C41.5695 32.6463 42.0592 33.136 42.6632 33.136H46.1562V44.625H29.0938V33.136H32.8194C33.4235 33.136 33.9131 32.6463 33.9131 32.0423C33.9131 31.4383 33.4235 30.9485 32.8194 30.9485H28C27.3959 30.9485 26.9062 31.4383 26.9062 32.0423V45.7188C26.9062 46.3227 27.3959 46.8125 28 46.8125H47.25C47.8541 46.8125 48.3438 46.3227 48.3438 45.7188V32.0423C48.3438 31.4383 47.8541 30.9485 47.25 30.9485V30.9485Z" fill="#E6C1A4"/>
<path d="M37.741 33.1363C38.0297 33.1363 38.3108 33.0193 38.5142 32.8157C38.7188 32.6124 38.8347 32.3302 38.8347 32.0425C38.8347 31.7537 38.7188 31.4727 38.5142 31.2693C38.3108 31.0647 38.0297 30.9488 37.741 30.9488C37.4533 30.9488 37.1711 31.0647 36.9677 31.2693C36.7642 31.4727 36.6472 31.7538 36.6472 32.0425C36.6472 32.3302 36.7642 32.6124 36.9677 32.8157C37.1711 33.0193 37.4533 33.1363 37.741 33.1363Z" fill="#E6C1A4"/>
</symbol>
    
<symbol width="20" height="20" viewBox="0 0 20 20" fill="none" xmlns="http://www.w3.org/2000/svg" id="round-tick">
<path d="M20 3.18L8.59 14.6L4.35 10.36L5.76 8.95L8.59 11.78L18.59 1.78L20 3.18ZM17.79 8.22C17.92 8.79 18 9.39 18 10C18 14.42 14.42 18 10 18C5.58 18 2 14.42 2 10C2 5.58 5.58 2 10 2C11.58 2 13.04 2.46 14.28 3.25L15.72 1.81C14.1 0.67 12.13 0 10 0C4.48 0 0 4.48 0 10C0 15.52 4.48 20 10 20C15.52 20 20 15.52 20 10C20 8.81 19.78 7.67 19.4 6.61L17.79 8.22Z" fill="#BDBDBD"/>
</symbol>
    
<symbol width="20" height="20" viewBox="0 0 20 20" fill="none" xmlns="http://www.w3.org/2000/svg" id="round-tick-green">
<path d="M20 3.18L8.59 14.6L4.35 10.36L5.76 8.95L8.59 11.78L18.59 1.78L20 3.18ZM17.79 8.22C17.92 8.79 18 9.39 18 10C18 14.42 14.42 18 10 18C5.58 18 2 14.42 2 10C2 5.58 5.58 2 10 2C11.58 2 13.04 2.46 14.28 3.25L15.72 1.81C14.1 0.67 12.13 0 10 0C4.48 0 0 4.48 0 10C0 15.52 4.48 20 10 20C15.52 20 20 15.52 20 10C20 8.81 19.78 7.67 19.4 6.61L17.79 8.22Z" fill="#219653"/>
</symbol>
    
<symbol width="24" height="24" viewBox="0 0 24 24" fill="none" xmlns="http://www.w3.org/2000/svg" id="acceleration-red">
<path fill-rule="evenodd" clip-rule="evenodd" d="M12 14C11.4477 14 11 13.5523 11 13V10C11 9.44772 11.4477 9 12 9C12.5523 9 13 9.44772 13 10V13C13 13.5523 12.5523 14 12 14Z" fill="#EB5757"/>
<path d="M10.5 16.5C10.5 15.6716 11.1716 15 12 15C12.8284 15 13.5 15.6716 13.5 16.5C13.5 17.3284 12.8284 18 12 18C11.1716 18 10.5 17.3284 10.5 16.5Z" fill="#EB5757"/>
<path fill-rule="evenodd" clip-rule="evenodd" d="M10.23 3.21548C10.9799 1.79081 13.0199 1.7908 13.7697 3.21548L22.1134 19.0684C22.8143 20.4002 21.8485 21.9999 20.3435 21.9999H3.65629C2.15127 21.9999 1.1855 20.4002 1.88645 19.0684L10.23 3.21548ZM20.3435 19.9999L11.9999 4.14698L3.65629 19.9999H20.3435Z" fill="#EB5757"/>
</symbol>
    
<symbol width="24" height="24" viewBox="0 0 24 24" fill="none" xmlns="http://www.w3.org/2000/svg" id="supported">
<path d="M10.5085 23.3822C10.9069 23.7806 11.4366 24 12 24C12.5634 24 13.0931 23.7806 13.4915 23.3822L23.3821 13.4916C23.7806 13.0931 24 12.5634 24 12C24 11.4366 23.7806 10.9069 23.3821 10.5084L13.4915 0.617766C13.0931 0.219422 12.5634 0 12 0C11.4366 0 10.9069 0.219422 10.5085 0.617813L0.617859 10.5084C0.219422 10.9068 0 11.4366 0 12C0 12.5634 0.219422 13.0932 0.617859 13.4916C1.09322 13.9669 10.0365 22.9102 10.5085 23.3822V23.3822ZM1.61222 11.5028L11.5028 1.61222C11.6356 1.47938 11.8122 1.40625 12 1.40625C12.1878 1.40625 12.3644 1.47938 12.4972 1.61217C12.505 1.62005 22.3935 11.5086 22.3888 11.5038C22.521 11.6365 22.5938 11.8127 22.5938 12C22.5938 12.1878 22.5206 12.3644 22.3878 12.4972C21.8542 13.0307 12.9367 21.9482 12.4972 22.3878C12.3644 22.5206 12.1878 22.5938 12 22.5938C11.8127 22.5938 11.6366 22.521 11.5038 22.3888C11.5035 22.3885 11.5032 22.3882 11.5028 22.3878L1.61222 12.4972C1.47938 12.3644 1.40625 12.1878 1.40625 12C1.40625 11.8122 1.47938 11.6356 1.61222 11.5028V11.5028Z" fill="#000000"/>
<path d="M12 18.3281C13.5508 18.3281 14.8125 17.0664 14.8125 15.5156V13.4062C14.8125 13.0179 14.4977 12.7031 14.1094 12.7031H12.7031V7.03125H13.4062C13.7946 7.03125 14.1094 6.71644 14.1094 6.32812C14.1094 5.93981 13.7946 5.625 13.4062 5.625H10.5938C10.2054 5.625 9.89062 5.93981 9.89062 6.32812C9.89062 6.71644 10.2054 7.03125 10.5938 7.03125H11.2969V12.7031H9.89062C9.50231 12.7031 9.1875 13.0179 9.1875 13.4062V15.5156C9.1875 17.0664 10.4492 18.3281 12 18.3281ZM10.5938 14.1094H13.4062V15.5156C13.4062 16.291 12.7754 16.9219 12 16.9219C11.2246 16.9219 10.5938 16.291 10.5938 15.5156V14.1094Z" fill="#000000"/>
<path d="M12 4.21875C12.3883 4.21875 12.7031 3.90395 12.7031 3.51562C12.7031 3.1273 12.3883 2.8125 12 2.8125C11.6117 2.8125 11.2969 3.1273 11.2969 3.51562C11.2969 3.90395 11.6117 4.21875 12 4.21875Z" fill="#000000"/>
<path d="M3.5625 12.7031C3.95083 12.7031 4.26562 12.3883 4.26562 12C4.26562 11.6117 3.95083 11.2969 3.5625 11.2969C3.17417 11.2969 2.85938 11.6117 2.85938 12C2.85938 12.3883 3.17417 12.7031 3.5625 12.7031Z" fill="#000000"/>
<path d="M20.4375 12.7031C20.8258 12.7031 21.1406 12.3883 21.1406 12C21.1406 11.6117 20.8258 11.2969 20.4375 11.2969C20.0492 11.2969 19.7344 11.6117 19.7344 12C19.7344 12.3883 20.0492 12.7031 20.4375 12.7031Z" fill="#000000"/>
<path d="M12 21.1875C12.3883 21.1875 12.7031 20.8727 12.7031 20.4844C12.7031 20.096 12.3883 19.7812 12 19.7812C11.6117 19.7812 11.2969 20.096 11.2969 20.4844C11.2969 20.8727 11.6117 21.1875 12 21.1875Z" fill="#000000"/>
</symbol>
    
<svg width="14" height="18" viewBox="0 0 14 18" fill="none" xmlns="http://www.w3.org/2000/svg" id="bookmark-line">
<path d="M12 0H2C0.9 0 0 0.9 0 2V18L7 15L14 18V2C14 0.9 13.1 0 12 0ZM12 15L7 12.82L2 15V2H12V15Z" fill="#2B4053"/>
</svg>
    
<svg width="14" height="18" viewBox="0 0 14 18" fill="none" xmlns="http://www.w3.org/2000/svg" id="bookmark-fill">
<path d="M12 0H2C0.9 0 0.0100002 0.9 0.0100002 2L0 18L7 15L14 18V2C14 0.9 13.1 0 12 0Z" fill="#2B4053"/>
</svg>
    
<svg width="14" height="14" viewBox="0 0 14 14" fill="none" xmlns="http://www.w3.org/2000/svg" id="close-white">
<path d="M14 1.41L12.59 0L7 5.59L1.41 0L0 1.41L5.59 7L0 12.59L1.41 14L7 8.41L12.59 14L14 12.59L8.41 7L14 1.41Z" fill="white"/>
</svg>
    
<svg width="16" height="20" viewBox="0 0 16 20" fill="none" xmlns="http://www.w3.org/2000/svg" id="order-receipt">
<path d="M14 0H6L0 6V18C0 19.1 0.9 20 2 20H14C15.1 20 16 19.1 16 18V2C16 0.9 15.1 0 14 0ZM14 2V18H2V6.83L6.83 2H14Z" fill="#283B49"/>
<path d="M12 11L8 15L4 11L5.41 9.59L7 11.17V7.02L9 7V11.17L10.59 9.58L12 11Z" fill="#283B49"/>
</svg>
    
<svg width="16" height="16" viewBox="0 0 16 16" fill="none" xmlns="http://www.w3.org/2000/svg" id="message-white">
<path d="M13.3333 2.6665H2.66668C1.93334 2.6665 1.34001 3.2665 1.34001 3.99984L1.33334 11.9998C1.33334 12.7332 1.93334 13.3332 2.66668 13.3332H13.3333C14.0667 13.3332 14.6667 12.7332 14.6667 11.9998V3.99984C14.6667 3.2665 14.0667 2.6665 13.3333 2.6665ZM13.3333 5.33317L8.00001 8.6665L2.66668 5.33317V3.99984L8.00001 7.33317L13.3333 3.99984V5.33317Z" fill="white"/>
</svg>


<symbol width="24" height="24" viewBox="0 0 24 24" fill="none" xmlns="http://www.w3.org/2000/svg" id="exclamation-red">
<path d="M11 15H13V17H11V15ZM11 7H13V13H11V7ZM11.99 2C6.47 2 2 6.48 2 12C2 17.52 6.47 22 11.99 22C17.52 22 22 17.52 22 12C22 6.48 17.52 2 11.99 2ZM12 20C7.58 20 4 16.42 4 12C4 7.58 7.58 4 12 4C16.42 4 20 7.58 20 12C20 16.42 16.42 20 12 20Z" fill="#D33E3E"/>
</symbol>
    
<symbol width="24" height="24" viewBox="0 0 24 24" fill="none" xmlns="http://www.w3.org/2000/svg" id="alert_red">
<path d="M11 15H13V17H11V15ZM11 7H13V13H11V7ZM11.99 2C6.47 2 2 6.48 2 12C2 17.52 6.47 22 11.99 22C17.52 22 22 17.52 22 12C22 6.48 17.52 2 11.99 2ZM12 20C7.58 20 4 16.42 4 12C4 7.58 7.58 4 12 4C16.42 4 20 7.58 20 12C20 16.42 16.42 20 12 20Z" fill="#D33E3E"/>
</symbol>
    
<symbol width="20" height="20" viewBox="0 0 20 20" fill="none" xmlns="http://www.w3.org/2000/svg" id="alert_green">
<path d="M20 3.18L8.59 14.6L4.35 10.36L5.76 8.95L8.59 11.78L18.59 1.78L20 3.18ZM17.79 8.22C17.92 8.79 18 9.39 18 10C18 14.42 14.42 18 10 18C5.58 18 2 14.42 2 10C2 5.58 5.58 2 10 2C11.58 2 13.04 2.46 14.28 3.25L15.72 1.81C14.1 0.67 12.13 0 10 0C4.48 0 0 4.48 0 10C0 15.52 4.48 20 10 20C15.52 20 20 15.52 20 10C20 8.81 19.78 7.67 19.4 6.61L17.79 8.22Z" fill="#219653"/>
</symbol>
    
<symbol width="22" height="20" viewBox="0 0 22 20" fill="none" xmlns="http://www.w3.org/2000/svg" id="alert_orange">
<path d="M11 4.49L18.53 17.5H3.47L11 4.49ZM11 0.5L0 19.5H22L11 0.5ZM12 14.5H10V16.5H12V14.5ZM12 8.5H10V12.5H12V8.5Z" fill="#F2994A"/>
</symbol>
    
    <symbol width="14" height="14" viewBox="0 0 14 14" xmlns="http://www.w3.org/2000/svg" id="icon-info-blue-2">
<path d="M6.3 3.5H7.7V4.9H6.3V3.5ZM6.3 6.3H7.7V10.5H6.3V6.3ZM7 0C3.136 0 0 3.136 0 7C0 10.864 3.136 14 7 14C10.864 14 14 10.864 14 7C14 3.136 10.864 0 7 0ZM7 12.6C3.913 12.6 1.4 10.087 1.4 7C1.4 3.913 3.913 1.4 7 1.4C10.087 1.4 12.6 3.913 12.6 7C12.6 10.087 10.087 12.6 7 12.6Z" stroke="none"/>
</symbol>
    
    <svg width="16" height="16" viewBox="0 0 16 16" xmlns="http://www.w3.org/2000/svg" id="pencil">
<path d="M0 4C0 1.79086 1.79086 0 4 0H12C14.2091 0 16 1.79086 16 4V12C16 14.2091 14.2091 16 12 16H4C1.79086 16 0 14.2091 0 12V4Z" fill="white"/>
<path d="M9.22058 6.23391L9.76576 6.7791L4.39687 12.148H3.85169V11.6028L9.22058 6.23391ZM11.3539 2.6665C11.2058 2.6665 11.0517 2.72576 10.9391 2.83836L9.85465 3.9228L12.0769 6.14502L13.1613 5.06058C13.3924 4.82947 13.3924 4.45613 13.1613 4.22502L11.7747 2.83836C11.6561 2.71984 11.508 2.6665 11.3539 2.6665ZM9.22058 4.55687L2.6665 11.1109V13.3332H4.88873L11.4428 6.7791L9.22058 4.55687Z" stroke="none"/>
</svg>


</svg>