<svg width="56" height="49" viewBox="0 0 56 49" fill="none" xmlns="http://www.w3.org/2000/svg">
<path d="M45.868 27.999V28.249H46.118H55.75V42.5719H0.252031V28.249H0.435697L0.386575 27.9574C-0.608565 22.0513 3.96747 16.72 9.88402 16.72H10.134V16.47V11.529V11.279H9.88402H3.54603V0.25H21.163V1.647C21.163 5.41769 24.2303 8.48499 28.001 8.48499C31.7717 8.48499 34.839 5.41769 34.839 1.647V0.25H52.456V11.279H46.118H45.868V11.529V27.999ZM6.34002 8.23499V8.48499H6.59002H12.928V17.0353V17.2119L13.0945 17.271C17.4365 18.8106 20.1711 23.2709 19.3815 27.9574L19.3323 28.249H19.628H42.824H43.074V27.999V8.48499H49.412H49.662V8.23499V3.29399V3.04399H49.412H37.7457H37.5343L37.4992 3.25246C36.7327 7.80199 32.7646 11.279 28.001 11.279C23.2374 11.279 19.2693 7.80199 18.5028 3.25246L18.4677 3.04399H18.2563H6.59002H6.34002V3.29399V8.23499ZM10.5156 33.1597L10.5168 33.1596C14.0989 32.8144 16.722 29.8231 16.722 26.352C16.722 22.5813 13.6547 19.514 9.88402 19.514C6.11333 19.514 3.04603 22.5813 3.04603 26.352C3.04603 30.3489 6.48404 33.528 10.5156 33.1597ZM52.706 39.7779H52.956V39.5279V31.2929V31.0429H52.706H49.412H49.162V31.2929V34.3369H46.368V31.2929V31.0429H46.118H42.824H42.574V31.2929V35.9839H39.78V31.2929V31.0429H39.53H36.236H35.986V31.2929V34.3369H33.192V31.2929V31.0429H32.942H29.648H29.398V31.2929V35.9839H26.604V31.2929V31.0429H26.354H18.4423H18.2979L18.2258 31.1679C17.2914 32.7861 15.9185 34.0748 14.2991 34.9108C10.6936 36.771 6.39457 36.1521 3.46266 33.5307L3.04603 33.1582V33.7171V39.5279V39.7779H3.29603H52.706Z" fill="#828282" stroke="white" stroke-width="0.5"/>
<path d="M13.1778 21V17.706H10.9017L9.70993 15.3225L6.76367 16.7956L8.8659 21H13.1778Z" fill="#828282"/>
<path d="M26.3545 9.47095H29.6485V12.7649H26.3545V9.47095Z" fill="#828282"/>
</svg>
