<svg width="56" height="32" viewBox="0 0 56 32" fill="none" xmlns="http://www.w3.org/2000/svg">
<path d="M13.5119 0.550049H7.86663C7.38881 0.550049 7 0.943016 7 1.42612C7 1.90923 7.38881 2.3022 7.86663 2.3022H13.5119C14.0054 2.3022 14.2716 1.83226 14.2716 1.39011C14.2717 0.971937 14.0368 0.550049 13.5119 0.550049Z" fill="#828282"/>
<path d="M13.5115 25.0791H1.80448V14.5122H7.43783C7.95987 14.5122 8.19755 14.0953 8.19755 13.7081C8.19755 13.2005 7.87806 12.832 7.43783 12.832H1.80448V2.3022H4.60298C5.08091 2.3022 5.46961 1.90924 5.46961 1.42613C5.46961 0.94313 5.0808 0.550049 4.60298 0.550049H0.866625C0.638181 0.550049 0.426954 0.619707 0.271657 0.746083C0.0938534 0.890802 0 1.10102 0 1.3541V26.0272C0 26.5796 0.449236 26.8313 0.866625 26.8313H13.5115C14.0364 26.8313 14.2712 26.4093 14.2712 25.9912C14.2713 25.549 14.0051 25.0791 13.5115 25.0791Z" fill="#828282"/>
<path d="M20.8214 3.71182C21.7246 2.77655 23.0895 2.30233 24.8779 2.30233C26.8041 2.30233 28.2333 2.85341 29.1256 3.94015C29.8845 4.86473 30.1049 6.01336 30.1562 6.81326C30.1562 7.10011 30.2734 7.5813 31.0584 7.5813C31.6155 7.5813 31.9607 7.38066 31.9607 6.38225C31.9607 4.82906 31.3141 3.39042 30.1401 2.33136C28.8483 1.16607 27.0286 0.550171 24.878 0.550171C22.7681 0.550171 21.0008 1.14289 19.7672 2.26418C18.3412 3.56046 17.6182 5.52598 17.6182 8.10628V19.4902C17.6182 22.0729 18.3278 24.0384 19.7273 25.3322C20.9403 26.4536 22.6848 27.0463 24.7723 27.0463C26.9376 27.0463 28.78 26.4257 30.1001 25.2516C31.2999 24.1846 31.9607 22.7507 31.9607 21.2143C31.9607 20.1813 31.6168 19.9792 31.0229 19.9792C30.4824 19.9792 30.1989 20.23 30.1565 20.7451L30.1543 20.758C29.8688 22.5644 29.4375 25.2942 24.9848 25.2942C23.117 25.2942 21.7595 24.8375 20.8348 23.898C19.8846 22.9326 19.4228 21.4909 19.4228 19.4902V8.10628C19.4226 6.15144 19.8933 4.67297 20.8214 3.71182Z" fill="#828282"/>
<path d="M36.8836 19.3691C37.3811 19.3691 37.7859 18.96 37.7859 18.457V8.10616C37.7859 6.16517 38.2612 4.68669 39.1983 3.7117C40.0974 2.77642 41.422 2.30221 43.1355 2.30221C44.8521 2.30221 46.1827 2.77642 47.0905 3.71181C48.0396 4.6895 48.5207 6.16809 48.5207 8.10616V16.3572C48.5207 16.8595 48.9249 17.2681 49.4229 17.2681C49.9197 17.2681 50.324 16.8595 50.324 16.3572V8.10616C50.324 5.51427 49.622 3.54875 48.2374 2.26417C47.0114 1.12679 45.295 0.550049 43.1356 0.550049C40.9664 0.550049 39.251 1.12679 38.0376 2.26417C36.6732 3.54289 35.9814 5.50842 35.9814 8.10616V18.457C35.9814 18.9601 36.3858 19.3691 36.8836 19.3691Z" fill="#828282"/>
<path d="M41.096 29.0605C40.7281 29.0038 40.3941 28.9721 40.0712 28.9415C38.9354 28.8338 38.1147 28.7561 36.8164 27.6496C35.1577 26.236 34.3657 24.0248 34.7098 21.881C37.4119 21.8307 39.2178 22.8921 40.2779 23.8295C40.6272 24.1384 41.1604 24.1056 41.4693 23.7564C41.7781 23.4072 41.7453 22.8738 41.3963 22.5651C40.0115 21.3406 37.5958 19.9409 33.9529 20.2289C33.5951 20.257 33.2941 20.5087 33.203 20.8558C32.4294 23.8003 33.4179 26.9713 35.7215 28.9344C37.4252 30.3862 38.6893 30.5061 39.9117 30.622C40.2106 30.6503 40.5197 30.6797 40.839 30.7288C40.8825 30.7355 40.9258 30.7387 40.9685 30.7387C41.3779 30.7387 41.7374 30.4402 41.8016 30.0231C41.8726 29.5624 41.5567 29.1314 41.096 29.0605Z" fill="#828282"/>
<path d="M55.6797 18.4728C55.6017 18.1757 55.3683 17.9444 55.0705 17.869C52.6489 17.2562 49.3477 18.2604 47.9686 18.7501L47.7074 18.3722C47.4487 17.9979 46.9399 17.8962 46.5572 18.1417C46.1679 18.3915 45.3264 19.0757 45.0413 19.3188C43.5421 20.5965 42.4473 22.373 41.9586 24.3211C41.4229 26.457 41.6109 28.7405 42.5024 30.9249C42.5897 31.1388 42.7609 31.3075 42.9761 31.3918C43.0752 31.4306 43.1796 31.45 43.2838 31.45C43.4059 31.45 43.5278 31.4236 43.6408 31.3708C45.23 30.6292 46.373 30.5208 47.4785 30.416C49.0428 30.2677 50.5202 30.1277 52.5991 28.3561C53.7174 27.4028 54.5839 26.2392 55.1741 24.8976C55.3618 24.4708 55.168 23.9729 54.7413 23.7852C54.3146 23.5976 53.8166 23.7913 53.6289 24.2179C53.142 25.3246 52.4271 26.2847 51.504 27.0714C49.8307 28.4974 48.7773 28.5974 47.3191 28.7356C46.5894 28.8048 45.7992 28.8804 44.8702 29.1274C45.611 27.5077 46.6816 25.6926 49.2256 24.433C49.6434 24.2262 49.8143 23.7199 49.6076 23.3022C49.4007 22.8846 48.8944 22.7136 48.4766 22.9204C45.5994 24.3449 44.2767 26.4453 43.4587 28.1622C42.9056 24.7922 44.4223 22.0641 46.136 20.6036C46.3049 20.4597 46.564 20.2485 46.8151 20.0504L46.9546 20.2522C47.1801 20.5785 47.603 20.7034 47.9697 20.553C48.0086 20.5371 51.6283 19.0686 54.1633 19.4113C54.303 20.1289 54.3446 20.8619 54.2868 21.5968C54.2503 22.0615 54.5973 22.4679 55.0621 22.5044C55.5274 22.5411 55.9331 22.1938 55.9696 21.7292C56.0562 20.6302 55.9585 19.5345 55.6797 18.4728Z" fill="#828282"/>
<path d="M37.4594 23.3651C37.0593 23.1263 36.541 23.2569 36.3021 23.6573C36.0632 24.0574 36.1938 24.5757 36.5941 24.8146C36.6113 24.8248 38.3358 25.8596 39.9289 27.2694C40.0896 27.4115 40.2891 27.4813 40.488 27.4813C40.7213 27.4813 40.9537 27.3851 41.1203 27.1966C41.4292 26.8475 41.3967 26.3141 41.0476 26.0052C39.3375 24.492 37.5351 23.4104 37.4594 23.3651Z" fill="#828282"/>
</svg>
