<svg width="56" height="52" viewBox="0 0 56 52" fill="none" xmlns="http://www.w3.org/2000/svg">
<path d="M55.9897 17.6C55.8973 16.0031 53.998 14.7552 50.1993 13.8032C50.3272 13.5232 50.3991 13.232 50.4 12.9296V6.40005H50.3841C50.05 0.960582 27.7601 0.800049 25.2 0.800049C22.6399 0.800049 0.35 0.960582 0.0158667 6.40005H0V6.52138V12.9324C0.00466667 14.7058 2.2932 16.0936 5.698 17.1268C5.65133 17.2818 5.62333 17.4395 5.614 17.6H5.6V17.7214V24.1212C1.932 25.0658 0.0998667 26.2959 0.00933333 27.8667H0V27.9881V34.3991C0.0028 35.6339 1.11627 36.6811 2.93813 37.5538C2.86907 37.7433 2.82613 37.9364 2.814 38.1343H2.8V38.2556V44.6667C2.80747 47.771 9.7972 49.6983 17.5635 50.598C17.6204 50.6092 17.6727 50.6326 17.7333 50.6326C17.7511 50.6326 17.766 50.6232 17.7837 50.6223C19.2808 50.7912 20.8021 50.9229 22.3076 51.0171C22.3393 51.0209 22.3673 51.0358 22.4 51.0358C22.4177 51.0358 22.4317 51.0264 22.4485 51.0255C24.36 51.1413 26.2407 51.2001 28 51.2001C29.7593 51.2001 31.64 51.1413 33.5515 51.0246C33.5683 51.0255 33.5832 51.0349 33.6 51.0349C33.6327 51.0349 33.6607 51.019 33.6924 51.0162C35.1979 50.9219 36.7192 50.7912 38.2163 50.6214C38.234 50.6214 38.2489 50.6307 38.2667 50.6307C38.3273 50.6307 38.3796 50.6074 38.4365 50.5962C46.2028 49.6964 53.1916 47.7682 53.2 44.663V38.1334H53.1851C53.1197 36.9891 52.1444 36.0343 50.218 35.2363C50.3356 34.9666 50.4 34.6866 50.4 34.3963V28.296C53.7507 27.2656 55.9953 25.8871 56 24.1297V17.6H55.9897ZM48.4325 34.6996L48.1143 34.9787C47.6243 35.4108 46.8076 35.8467 45.7333 36.2667V31.8166C46.8431 31.4302 47.7876 31.0018 48.5333 30.5323V34.3944C48.5333 34.4906 48.4979 34.5932 48.4325 34.6996ZM27.5576 39.0368C27.4213 39.0406 27.2841 39.0424 27.1469 39.0452C26.8137 39.0518 26.4721 39.0536 26.1343 39.0564V34.3944C26.3909 34.3916 26.6476 34.3879 26.9043 34.3832C26.9537 34.3823 27.0032 34.3814 27.0527 34.3804C27.9925 34.3627 28.9324 34.3338 29.8676 34.2908V38.951C29.6679 38.9613 29.4672 38.9706 29.2647 38.979C28.7028 39.0042 28.1353 39.0228 27.5576 39.0368ZM23.4817 39.0499C23.0543 39.0424 22.6287 39.0322 22.2059 39.0191C22.1536 39.0173 22.1013 39.0154 22.0491 39.0135C21.5404 38.9967 21.0355 38.9753 20.5343 38.951V34.2918C21.4695 34.3356 22.4093 34.3646 23.3492 34.3814C23.3987 34.3823 23.4481 34.3833 23.4967 34.3842C23.7533 34.3889 24.01 34.3926 24.2667 34.3954V39.0602C24.0856 39.0583 23.9045 39.0583 23.7244 39.0555C23.6423 39.0536 23.5629 39.0508 23.4817 39.0499ZM6.62387 36.9219C6.59307 36.9126 6.56413 36.9042 6.53333 36.8958V32.3868C7.40507 32.622 8.34213 32.8367 9.33333 33.0318V37.5874C8.47653 37.4054 7.686 37.2141 6.9664 37.0181C6.85253 36.9854 6.73493 36.9546 6.62387 36.9219ZM26.2967 44.6509C26.5533 44.6555 26.81 44.6592 27.0667 44.662V49.3278C25.7768 49.3156 24.5317 49.2783 23.3333 49.2195V44.5594C24.2685 44.6032 25.2084 44.6322 26.1483 44.649C26.1977 44.649 26.2472 44.6499 26.2967 44.6509ZM29.8517 44.648C30.7916 44.6303 31.7315 44.6014 32.6667 44.5584V49.2186C31.4683 49.2774 30.2232 49.3147 28.9333 49.3269V44.6611C29.19 44.6583 29.4467 44.6546 29.7033 44.6499C29.7528 44.6499 29.8023 44.649 29.8517 44.648ZM37.3333 44.2262V48.8611C36.4364 48.9554 35.5031 49.0384 34.5333 49.1066V44.452C35.4797 44.3904 36.4149 44.3148 37.3333 44.2262ZM39.2 44.0246C40.1623 43.9088 41.0965 43.7772 42 43.6307V48.2134C41.1208 48.3683 40.1865 48.5111 39.2 48.6409V44.0246ZM43.8667 43.2975C44.8579 43.1025 45.7949 42.8878 46.6667 42.6526V47.1615C45.8351 47.4014 44.8989 47.6338 43.8667 47.8531V43.2975ZM12.1333 43.2975V47.8531C11.1011 47.6338 10.1649 47.4014 9.33333 47.1615V42.6526C10.2051 42.8878 11.1421 43.1034 12.1333 43.2975ZM14 43.6316C14.9035 43.7782 15.8377 43.9098 16.8 44.0255V48.6418C15.8135 48.512 14.8792 48.3692 14 48.2143V43.6316ZM18.6667 44.2262C19.5851 44.3148 20.5203 44.3904 21.4667 44.453V49.1075C20.4969 49.0394 19.5636 48.9563 18.6667 48.862V44.2262ZM16.3511 38.6448C16.2559 38.6355 16.1616 38.6252 16.0673 38.6159C16.0001 38.6094 15.9339 38.601 15.8667 38.5944V33.9604C16.7851 34.0491 17.7203 34.1247 18.6667 34.1872V38.8381C17.8827 38.7821 17.108 38.7186 16.3511 38.6448ZM14 33.7579V38.3742C13.0135 38.2444 12.0792 38.1016 11.2 37.9467V33.364C12.1035 33.5106 13.0377 33.6431 14 33.7579ZM32.3549 38.7942C32.1496 38.8101 31.9424 38.8259 31.7333 38.8408V34.1863C32.6797 34.1238 33.6149 34.0491 34.5333 33.9595V38.5944C33.9565 38.6551 33.3667 38.712 32.7609 38.7615C32.6256 38.7737 32.4903 38.7839 32.3549 38.7942ZM36.4 38.3742V33.7579C37.3623 33.6422 38.2965 33.5106 39.2 33.364V37.9467C38.3208 38.1016 37.3865 38.2454 36.4 38.3742ZM41.0667 33.0308C42.0579 32.8358 42.9949 32.6211 43.8667 32.3859V36.8948C43.0351 37.1347 42.0989 37.3671 41.0667 37.5864V33.0308ZM28.3033 28.7674C27.6015 28.7496 26.9155 28.7226 26.2416 28.6899C26.2052 28.688 26.1688 28.6862 26.1333 28.6852V24.0251C27.0685 24.069 28.0084 24.0979 28.9483 24.1147C28.9977 24.1156 29.0472 24.1166 29.0957 24.1175C29.3524 24.1222 29.6091 24.1259 29.8657 24.1287V28.7888C29.4112 28.7842 28.9529 28.7823 28.5096 28.7721C28.4415 28.7702 28.3715 28.7692 28.3033 28.7674ZM6.53333 15.4291V10.9202C7.40507 11.1554 8.34213 11.37 9.33333 11.5651V16.1207C9.21853 16.0964 9.1 16.0722 8.988 16.0479C8.49147 15.9387 8.00707 15.8248 7.54413 15.7044C7.19133 15.6139 6.85627 15.5215 6.53333 15.4291ZM23.4967 12.9175C23.7533 12.9222 24.01 12.9259 24.2667 12.9287V17.5889C23.0104 17.5767 21.7616 17.5441 20.5333 17.4824V12.826C21.4685 12.8699 22.4084 12.8988 23.3483 12.9156C23.3977 12.9156 23.4472 12.9166 23.4967 12.9175ZM27.0517 12.9147C27.9916 12.897 28.9315 12.868 29.8667 12.8251V17.4815C29.708 17.489 29.5559 17.5002 29.3963 17.5076C29.3832 17.5086 29.3701 17.5086 29.3561 17.5095C28.7299 17.5375 28.0915 17.5581 27.4447 17.573C27.3439 17.5758 27.2431 17.5767 27.1423 17.5795C26.81 17.5861 26.4703 17.587 26.1333 17.5907V12.9287C26.39 12.9259 26.6467 12.9222 26.9033 12.9175C26.9528 12.9166 27.0023 12.9156 27.0517 12.9147ZM48.3196 13.3832L48.2935 13.3776L47.9537 13.6418C47.4609 14.0254 46.704 14.4136 45.7333 14.7888V10.349C46.8431 9.96258 47.7876 9.53418 48.5333 9.06472V12.9268C48.5333 13.0687 48.4587 13.2218 48.3196 13.3832ZM36.4 16.9019V12.2912C37.3623 12.1755 38.2965 12.0439 39.2 11.8974V16.4726C38.3152 16.6294 37.3837 16.7731 36.4 16.9019ZM41.0667 16.1132V11.5651C42.0579 11.37 42.9949 11.1554 43.8667 10.9202V15.4188C43.0304 15.6624 42.0887 15.8948 41.0667 16.1132ZM34.5333 12.4928V17.1222C33.6317 17.2174 32.6984 17.3004 31.7333 17.3695V12.7196C32.6797 12.6571 33.6149 12.5815 34.5333 12.4928ZM15.8667 17.124V12.4928C16.7851 12.5815 17.7203 12.6571 18.6667 12.7196V17.3658C17.7165 17.2976 16.7795 17.2202 15.8667 17.124ZM14 12.2912V16.9028C13.8152 16.8786 13.6229 16.859 13.44 16.8338C13.3205 16.817 13.2067 16.7992 13.0891 16.7824C12.5496 16.705 12.0223 16.6219 11.5052 16.5351C11.4016 16.5174 11.3017 16.4987 11.2 16.481V11.8983C12.1035 12.0439 13.0377 12.1764 14 12.2912ZM24.0352 28.5564C23.9092 28.5471 23.7823 28.5378 23.6572 28.5284C23.0599 28.4818 22.4765 28.4304 21.9072 28.3735C21.7849 28.3614 21.6627 28.3483 21.5413 28.3362C21.5161 28.3334 21.4919 28.3296 21.4667 28.3278V23.6928C22.3851 23.7815 23.3203 23.8571 24.2667 23.9196V28.5714C24.1911 28.5658 24.1108 28.562 24.0352 28.5564ZM17.8687 27.8592C17.4991 27.8004 17.1519 27.737 16.8 27.6754V23.0983C17.7035 23.2449 18.6377 23.3764 19.6 23.4922V28.1084C19.0288 28.0328 18.4697 27.9545 17.9331 27.8705C17.9116 27.8658 17.8901 27.862 17.8687 27.8592ZM14.9333 22.7642V27.3123C13.902 27.0911 12.9668 26.8559 12.1333 26.6114V22.1192C13.0051 22.3544 13.9421 22.57 14.9333 22.7642ZM10.2667 21.549V25.9832C8.79947 25.4167 7.85307 24.838 7.54507 24.3228L7.48253 24.2183C7.47693 24.1894 7.4676 24.1586 7.46667 24.1297V20.2647C8.2124 20.7342 9.15693 21.1626 10.2667 21.549ZM32.6517 24.1147C33.5916 24.097 34.5315 24.0681 35.4667 24.0251V28.6806C34.2403 28.7413 32.9933 28.7748 31.7333 28.7879V24.1287C31.99 24.1259 32.2467 24.1222 32.5033 24.1175C32.5528 24.1166 32.6023 24.1156 32.6517 24.1147ZM44.7132 27.6959C44.3035 27.7668 43.89 27.8368 43.4653 27.9012C43.2217 27.9386 42.9725 27.974 42.7224 28.0095C42.4863 28.0431 42.2408 28.072 42.0009 28.1028V23.4912C42.9632 23.3755 43.8975 23.2439 44.8009 23.0974V27.68C44.7711 27.6856 44.7421 27.6912 44.7132 27.6959ZM38.3936 28.493C38.0455 28.5219 37.6861 28.5406 37.3333 28.5658V23.9196C38.2797 23.8571 39.2149 23.7824 40.1333 23.6928V28.3231C39.5911 28.38 39.0497 28.437 38.4925 28.4836C38.4589 28.4864 38.4272 28.4902 38.3936 28.493ZM49.0597 26.743C48.5949 26.8727 48.1031 26.994 47.6009 27.1126C47.3685 27.1667 47.1315 27.2208 46.8888 27.2731C46.8169 27.289 46.7404 27.303 46.6676 27.3188V22.7651C47.6588 22.57 48.5959 22.3554 49.4676 22.1202V26.6291C49.3332 26.6664 49.1979 26.7047 49.0597 26.743ZM54.1231 17.6607C54.0372 18.2944 52.6008 19.1372 50.0369 19.9296C46.7348 20.9498 41.5679 21.884 35.0196 22.1734C34.6845 22.1874 34.3504 22.2014 34.0088 22.2126C33.7297 22.2219 33.4497 22.2303 33.1651 22.2378C32.3923 22.2546 31.6083 22.2667 30.8 22.2667C29.9917 22.2667 29.2077 22.2546 28.4349 22.2368C28.1512 22.2303 27.8712 22.221 27.5912 22.2116C27.2487 22.2014 26.9145 22.1864 26.5804 22.1724C20.0321 21.8831 14.8643 20.9489 11.5631 19.9287C9.01973 19.1428 7.58613 18.3066 7.47973 17.6756C7.4844 17.6579 7.4844 17.643 7.4956 17.6206C7.55907 17.6364 7.63 17.6495 7.6944 17.6654C8.05933 17.7522 8.4336 17.8362 8.8144 17.9165C10.6689 18.3159 12.7241 18.6435 14.9137 18.8936C14.9212 18.8936 14.9268 18.8974 14.9333 18.8974C14.9352 18.8974 14.9371 18.8964 14.938 18.8964C16.4295 19.0663 17.9769 19.1998 19.5655 19.2941C19.5776 19.2941 19.5879 19.3006 19.6 19.3006C19.6065 19.3006 19.6112 19.2969 19.6177 19.2969C20.7611 19.364 21.9193 19.4135 23.0916 19.4396C23.8093 19.4574 24.514 19.4667 25.2 19.4667C25.69 19.4667 26.1921 19.4611 26.6989 19.4518C33.4805 19.3472 39.7656 18.5408 44.1392 17.2911C44.3408 17.2342 44.5377 17.1754 44.7319 17.1166C44.8504 17.0802 44.9717 17.0447 45.0865 17.0083C45.4244 16.9 45.7483 16.789 46.0609 16.6732C46.1151 16.6527 46.1664 16.6322 46.2205 16.6116C46.4847 16.5118 46.7385 16.4082 46.9812 16.3027C47.0512 16.2719 47.1231 16.242 47.1912 16.2112C47.4497 16.0946 47.6999 15.9751 47.9313 15.851C48.0359 15.7959 48.1264 15.739 48.2244 15.683C48.3364 15.6186 48.4484 15.5532 48.552 15.487C48.6108 15.4496 48.6808 15.4142 48.7368 15.3768C52.9153 16.2831 54.0167 17.2743 54.1231 17.6607ZM25.2 2.66672C40.5897 2.66672 48.3737 5.08965 48.5193 6.48032C48.4064 7.11125 46.9737 7.94472 44.4369 8.72872C41.1348 9.74885 35.9679 10.6831 29.4196 10.9724C29.0845 10.9864 28.7504 11.0004 28.4088 11.0116C28.1297 11.021 27.8497 11.0294 27.5651 11.0368C26.7923 11.0546 26.0083 11.0667 25.2 11.0667C24.3917 11.0667 23.6077 11.0546 22.8349 11.0368C22.5512 11.0303 22.2712 11.021 21.9912 11.0116C21.6487 11.0014 21.3145 10.9864 20.9804 10.9724C14.4321 10.6831 9.26427 9.74885 5.96307 8.72872C3.42533 7.94472 1.9936 7.11125 1.88067 6.48032C2.02627 5.08965 9.81027 2.66672 25.2 2.66672ZM1.86667 12.9296V9.06472C2.6124 9.53418 3.55693 9.96258 4.66667 10.349V14.8178C2.85133 14.1374 1.86853 13.4551 1.86667 12.9296ZM6.38773 25.846C6.40173 25.861 6.4232 25.8741 6.4372 25.889C7.71493 27.1789 10.3609 28.1924 13.6547 28.9485C13.7303 28.9662 13.8105 28.983 13.8871 29.0007C14.1288 29.0548 14.3743 29.108 14.6225 29.1594C17.6475 29.8034 21.2585 30.2691 25.1925 30.4996C25.1953 30.4996 25.1972 30.5006 25.1991 30.5006C25.2009 30.5006 25.2019 30.4996 25.2028 30.4996C26.4665 30.5734 27.7592 30.6247 29.0789 30.6471C29.6632 30.6592 30.2381 30.6667 30.8 30.6667C31.444 30.6667 32.1048 30.6592 32.7768 30.6434C33.9976 30.6182 35.2007 30.5678 36.3869 30.4987C36.3916 30.4987 36.3953 30.5015 36.4 30.5015C36.4084 30.5015 36.4149 30.4968 36.4233 30.4968C40.3676 30.2645 44.0683 29.794 47.1977 29.1174C46.5201 29.472 45.5924 29.8388 44.4369 30.1963C40.9509 31.2734 35.3836 32.2543 28.308 32.482C28.098 32.4886 27.8908 32.496 27.678 32.5016C27.4493 32.5072 27.2169 32.511 26.9845 32.5156C26.3975 32.525 25.8067 32.5334 25.2 32.5334C24.3917 32.5334 23.6077 32.5212 22.8349 32.5035C22.5512 32.497 22.2712 32.4876 21.9912 32.4783C21.6487 32.4681 21.3145 32.4531 20.9804 32.4391C14.4321 32.1498 9.26427 31.2155 5.96307 30.1954C3.3964 29.402 1.96 28.5583 1.87693 27.9246C1.98053 27.5736 2.92413 26.6954 6.38773 25.846ZM1.86667 34.3963V30.5314C2.6124 31.0008 3.55693 31.4292 4.66667 31.8156V36.2667L4.13373 36.0595L4.12253 36.0707C2.6572 35.4631 1.86853 34.8667 1.86667 34.3963ZM4.66667 44.663V40.798C5.4124 41.2675 6.35693 41.6959 7.46667 42.0823V46.5511C5.65133 45.8707 4.66853 45.1884 4.66667 44.663ZM48.5333 46.5511V42.0832C49.6431 41.6968 50.5876 41.2684 51.3333 40.799V44.6611C51.3324 45.1866 50.3487 45.8698 48.5333 46.5511ZM51.3212 38.2052C51.2195 38.8371 49.7859 39.6752 47.2369 40.463C43.9348 41.4831 38.7679 42.4174 32.2196 42.7067C31.8845 42.7207 31.5504 42.7347 31.2088 42.7459C30.9297 42.7552 30.6497 42.7636 30.3651 42.7711C29.5923 42.7879 28.8083 42.8 28 42.8C27.1917 42.8 26.4068 42.7879 25.6331 42.7702C25.3521 42.7636 25.0749 42.7543 24.7977 42.745C24.4533 42.7338 24.1173 42.7198 23.7804 42.7058C17.2321 42.4164 12.0652 41.4822 8.76307 40.462C6.2944 39.6995 4.86827 38.8894 4.68907 38.264C4.9672 38.3611 5.2556 38.4554 5.55147 38.5478C5.58133 38.5571 5.6112 38.5664 5.64107 38.5748C5.89307 38.6523 6.15067 38.727 6.4148 38.7998C6.51467 38.8278 6.61547 38.8558 6.7172 38.8829C6.86653 38.923 7.0196 38.9613 7.17267 39.0005C10.5719 39.8713 14.9109 40.4882 19.5953 40.7654C19.5972 40.7654 19.5981 40.7663 19.6 40.7663C19.6009 40.7663 19.6019 40.7654 19.6028 40.7654C21.0495 40.8512 22.5269 40.9044 24.0203 40.9222C24.4179 40.9296 24.8127 40.9334 25.2 40.9334C25.7143 40.9334 26.2407 40.9268 26.7736 40.9175C28.1353 40.8951 29.4793 40.8447 30.7935 40.7663C30.7963 40.7663 30.7981 40.7682 30.8009 40.7682C30.8056 40.7682 30.8084 40.7654 30.8131 40.7654C32.4137 40.6693 33.9631 40.5321 35.4517 40.3613C35.4573 40.3613 35.462 40.364 35.4676 40.364C35.4881 40.364 35.5049 40.3538 35.5255 40.3519C37.1831 40.1606 38.7548 39.9254 40.2136 39.6519C40.5141 39.5968 40.81 39.5399 41.1031 39.4811C41.1684 39.468 41.2337 39.455 41.2991 39.441C44.0552 38.8754 46.4408 38.1427 48.0779 37.2346C48.1675 37.186 48.2515 37.1356 48.3364 37.0862C48.44 37.0246 48.5389 36.962 48.6351 36.8986C48.7247 36.8407 48.8283 36.7847 48.9104 36.7259C50.7528 37.383 51.2605 37.971 51.3212 38.2052ZM51.3333 26.0178V21.5499C52.4431 21.1635 53.3876 20.7351 54.1333 20.2656V24.1278C54.1324 24.6532 53.1487 25.3364 51.3333 26.0178Z" fill="#828282"/>
</svg>
