<svg width="56" height="51" viewBox="0 0 56 51" fill="none" xmlns="http://www.w3.org/2000/svg">
<path d="M45.5636 40.4618C45.6312 40.326 45.7333 40.1903 45.869 40.0545C46.7172 39.4775 47.5321 39.0873 48.3127 38.8836C49.6024 38.5442 50.8581 38.3575 52.0798 38.3236C52.4192 38.2896 52.7415 38.3066 53.0473 38.3745C54.5744 38.5103 55.4906 38.7649 55.7961 39.1382C55.9318 39.3418 55.9998 39.6473 55.9998 40.0545V40.4108C55.9998 41.5987 55.6775 42.9987 55.0327 44.6109C54.3878 46.223 53.4884 47.5212 52.3344 48.5054C52.1647 48.6412 52.0118 48.7091 51.8761 48.7091C51.8084 48.7091 51.7404 48.6921 51.6727 48.6581C51.469 48.5563 51.4181 48.3696 51.5198 48.0981C52.7755 45.1455 53.4035 43.0921 53.4035 41.9382C53.4035 41.5648 53.3355 41.2933 53.1998 41.1236C52.8604 40.7163 51.9101 40.5127 50.349 40.5127C49.7721 40.5127 49.0933 40.5466 48.3127 40.6145C47.4641 40.7163 46.6836 40.8182 45.9707 40.9199C45.7669 40.9199 45.6312 40.886 45.5636 40.8182C45.4955 40.7503 45.4787 40.6824 45.5127 40.6145C45.5127 40.5806 45.5296 40.5296 45.5636 40.4618ZM24.1817 24.0691C24.1817 25.3927 24.5127 26.4533 25.1745 27.2508C25.8363 28.0485 26.7273 28.4473 27.8472 28.4473C27.949 28.4473 28.0932 28.4303 28.2799 28.3964C28.4666 28.3624 28.5938 28.3455 28.6617 28.3455C30.0871 27.9721 31.1902 27.0557 31.9708 25.5963C32.3441 24.9515 32.6241 24.2472 32.8108 23.4836C32.9974 22.72 33.0993 22.1005 33.1163 21.6254C33.1332 21.1502 33.1417 20.3696 33.1417 19.2837V18.0109C31.1732 18.0109 29.6799 18.1466 28.6617 18.4181C25.675 19.2666 24.1817 21.1502 24.1817 24.0691ZM15.4254 25.0872C15.4254 22.7454 16.0023 20.743 17.1563 19.08C18.3103 17.4169 19.8884 16.1611 21.8909 15.3125C23.7235 14.532 25.9805 13.972 28.6617 13.6325C29.5781 13.5308 31.0714 13.3951 33.1417 13.2254V12.36C33.1417 10.1877 32.9041 8.72858 32.429 7.98168C31.7162 6.96372 30.5962 6.45457 29.069 6.45457H28.6617C27.5417 6.55626 26.5745 6.91253 25.7599 7.52372C24.9454 8.13457 24.4192 8.98316 24.1817 10.0691C24.0459 10.7477 23.7066 11.1383 23.1635 11.24L17.3091 10.5271C16.7321 10.3914 16.4436 10.086 16.4436 9.61084C16.4436 9.50914 16.4605 9.39027 16.4944 9.25457C17.0714 6.234 18.4884 3.994 20.7454 2.53456C23.0024 1.07513 25.6411 0.260551 28.6617 0.0908356H29.9345C33.8035 0.0908356 36.8242 1.09196 38.9961 3.09457C39.3369 3.43538 39.6516 3.80127 39.9382 4.18914C40.2264 4.57943 40.4556 4.92711 40.6253 5.23253C40.795 5.53796 40.9479 5.97943 41.0836 6.55626C41.2193 7.13309 41.321 7.53197 41.389 7.75253C41.4567 7.97309 41.5079 8.44858 41.5415 9.17795C41.5756 9.90767 41.5927 10.3406 41.5927 10.4763V22.7963C41.5927 23.6787 41.7198 24.4849 41.9744 25.2145C42.229 25.9442 42.475 26.4703 42.7127 26.7927C42.9501 27.1151 43.3404 27.6327 43.8836 28.3455C44.087 28.6508 44.189 28.9223 44.189 29.1599C44.189 29.4315 44.0533 29.669 43.7815 29.8727C40.9647 32.3163 39.4376 33.64 39.1999 33.8437C38.7927 34.149 38.3004 34.183 37.7236 33.9454C37.2485 33.5381 36.8327 33.1479 36.4761 32.7746C36.1199 32.4012 35.8653 32.1297 35.7124 31.96C35.5599 31.7903 35.3139 31.4594 34.9744 30.9672C34.635 30.4751 34.3973 30.1442 34.2618 29.9745C32.3611 32.0448 30.4945 33.3344 28.6617 33.8437C27.5078 34.183 26.0824 34.3527 24.3854 34.3527C21.772 34.3527 19.6254 33.5467 17.9454 31.9345C16.2654 30.3223 15.4254 28.0399 15.4254 25.0872ZM0.101816 39.5963C0.271496 39.3249 0.542992 39.3078 0.916359 39.5454C9.40116 44.4667 18.6327 46.9272 28.6108 46.9272C35.2627 46.9272 41.8301 45.6885 48.3127 43.2108C48.4821 43.1431 48.7284 43.0412 49.0507 42.9055C49.3733 42.7696 49.6024 42.6678 49.7381 42.5999C50.2473 42.3964 50.6458 42.4982 50.9344 42.9055C51.2226 43.3127 51.1295 43.686 50.6544 44.0255C50.0435 44.4667 49.263 44.9757 48.3127 45.5527C45.3938 47.2837 42.1356 48.6242 38.5382 49.5745C34.9404 50.5249 31.4278 51 27.9999 51C22.7054 51 17.6993 50.0751 12.9818 48.2254C8.2642 46.3757 4.03875 43.7709 0.305457 40.4108C0.101816 40.2412 0 40.0715 0 39.9018C0 39.8 0.0339064 39.6982 0.101816 39.5963Z" fill="#100F0D"/>
</svg>
