<svg width="56" height="56" viewBox="0 0 56 56" fill="none" xmlns="http://www.w3.org/2000/svg">
<g clip-path="url(#clip0)">
<path d="M53.8796 55.7052C54.0574 55.5175 54.149 55.2641 54.1326 55.0061L51.3326 12.0729C51.3007 11.5812 50.8919 11.1993 50.3992 11.2002H42.9326V8.4002C42.9403 5.67084 41.6178 3.1092 39.3884 1.53466C37.159 -0.0398819 34.3025 -0.429529 31.7326 0.490585C29.1632 -0.429529 26.3063 -0.0398819 24.0769 1.53466C21.8474 3.1092 20.5249 5.67084 20.5327 8.4002V11.2002H13.066C12.5734 11.1993 12.1646 11.5812 12.1327 12.0729L11.0986 27.9395L12.9653 28.0608L13.9406 13.0669H20.5327V15.8668H22.3993V13.0669H35.466V15.8668H37.3326V13.0669H43.9247L46.6035 54.1334H42.9326V56.0001H53.1992C53.4572 56.0001 53.7033 55.8934 53.8796 55.7052ZM22.3993 8.4002C22.4039 4.79402 25.3265 1.87144 28.9326 1.86688C29.0375 1.86688 29.14 1.87828 29.2434 1.88283C27.2761 3.47469 26.1331 5.86954 26.1326 8.4002V11.2002H22.3993V8.4002ZM27.9993 11.2002V8.4002C28.003 5.88002 29.4558 3.58635 31.7326 2.50627C34.0099 3.58635 35.4628 5.88002 35.466 8.4002V11.2002H27.9993ZM34.2218 1.88283C34.3257 1.87828 34.4283 1.86688 34.5326 1.86688C38.1393 1.87144 41.0614 4.79402 41.0659 8.4002V11.2002H37.3326V8.4002C37.3326 5.86954 36.1892 3.47469 34.2218 1.88283ZM48.4738 54.1334L45.7959 13.0669H49.5293L52.208 54.1334H48.4738Z" fill="black"/>
<path d="M2.79985 55.9999H40.1332C40.3993 55.9999 40.6527 55.8864 40.8295 55.6877C41.0064 55.489 41.0902 55.2247 41.0601 54.9604L38.2601 30.6937C38.2059 30.2225 37.8076 29.867 37.3332 29.8666H5.59985C5.12589 29.867 4.72713 30.2225 4.67335 30.6937L1.87335 54.9604C1.84282 55.2247 1.92667 55.489 2.1035 55.6877C2.28077 55.8864 2.53416 55.9999 2.79985 55.9999ZM39.0859 54.1332H35.3649L32.7804 31.7332H36.5006L39.0859 54.1332ZM6.43247 31.7332H30.9006L33.4859 54.1332H3.84712L6.43247 31.7332Z" fill="black"/>
<path d="M25.1999 41.9999C25.1999 45.6083 22.2751 48.5332 18.6666 48.5332C15.0586 48.5332 12.1333 45.6083 12.1333 41.9999V34.5332H10.2666V41.9999C10.2666 46.6392 14.0273 50.3999 18.6666 50.3999C23.3059 50.3999 27.0666 46.6392 27.0666 41.9999V34.5332H25.1999V41.9999Z" fill="black"/>
<path d="M35.4662 20.5333C35.473 18.9765 34.5091 17.5806 33.0513 17.0351C31.5929 16.4896 29.9491 16.9107 28.9328 18.0901C27.8026 16.7959 25.9337 16.4422 24.4088 17.2347C22.8839 18.0268 22.0987 19.759 22.508 21.4279C22.9172 23.0972 24.4147 24.2698 26.1328 24.2666H26.6797L24.5396 26.4067L25.8594 27.7265L28.9328 24.6531L32.0063 27.7265L33.3261 26.4067L31.186 24.2666H31.7328C33.7946 24.2666 35.4662 22.5955 35.4662 20.5333ZM31.7328 18.6666C32.7637 18.6666 33.5995 19.5024 33.5995 20.5333C33.5995 21.5642 32.7637 22.4 31.7328 22.4H29.8662V20.5333C29.8662 19.5024 30.702 18.6666 31.7328 18.6666ZM24.2662 20.5333C24.2662 19.5024 25.102 18.6666 26.1328 18.6666C27.1637 18.6666 27.9995 19.5024 27.9995 20.5333V22.4H26.1328C25.102 22.4 24.2662 21.5642 24.2662 20.5333Z" fill="black"/>
<path d="M16.7991 41.0667L15.1193 43.307L16.6127 44.4268L18.6658 41.6892L20.7193 44.4268L22.2127 43.307L20.5324 41.0667C21.7852 41.0744 22.8904 40.2486 23.2386 39.045C23.5872 37.8415 23.0932 36.5531 22.03 35.8905C20.9672 35.2279 19.5932 35.3523 18.6658 36.1949C17.7388 35.3523 16.3648 35.2279 15.3016 35.8905C14.2384 36.5531 13.7448 37.8415 14.093 39.045C14.4412 40.2486 15.5463 41.0744 16.7991 41.0667ZM20.5324 37.3333C21.0479 37.3333 21.4658 37.7512 21.4658 38.2667C21.4658 38.7821 21.0479 39.2 20.5324 39.2H19.5991V38.2667C19.5991 37.7512 20.017 37.3333 20.5324 37.3333ZM16.7991 37.3333C17.3145 37.3333 17.7324 37.7512 17.7324 38.2667V39.2H16.7991C16.2837 39.2 15.8658 38.7821 15.8658 38.2667C15.8658 37.7512 16.2837 37.3333 16.7991 37.3333Z" fill="black"/>
</g>
<defs>
<clipPath id="clip0">
<rect width="56" height="56" fill="white"/>
</clipPath>
</defs>
</svg>
