<svg width="56" height="56" viewBox="0 0 56 56" fill="none" xmlns="http://www.w3.org/2000/svg">
<path d="M56 12.0312C56 10.5202 54.973 9.24514 53.5805 8.86561C53.7297 8.49111 53.8125 8.08336 53.8125 7.65625C53.8125 6.14523 52.7855 4.87014 51.393 4.49061C51.5422 4.11611 51.625 3.70836 51.625 3.28125C51.625 1.47197 50.153 0 48.3438 0H36.5531C34.1037 0 31.629 0.583844 29.392 1.6905L28.398 2.1875H16.4062C15.9792 2.1875 15.5714 2.27041 15.1969 2.41948C14.8174 1.02703 13.5423 0 12.0312 0C10.5202 0 9.24514 1.02703 8.86561 2.41948C8.49111 2.27041 8.08325 2.1875 7.65625 2.1875C6.14523 2.1875 4.87014 3.21453 4.49061 4.60698C4.11611 4.45791 3.70825 4.375 3.28125 4.375C1.47197 4.375 0 5.84697 0 7.65625V19.4469C0 24.0571 1.98363 27.0701 2.1875 27.602V39.5938C2.1875 40.0207 2.27041 40.4286 2.41948 40.8031C1.02703 41.1826 0 42.4577 0 43.9688C0 45.4798 1.02703 46.7549 2.41948 47.1344C2.27041 47.5089 2.1875 47.9168 2.1875 48.3438C2.1875 49.8548 3.21453 51.1299 4.60698 51.5094C4.45791 51.8839 4.375 52.2918 4.375 52.7188C4.375 54.528 5.84697 56 7.65625 56H10.2921C10.8962 56 11.3858 55.5103 11.3858 54.9062C11.3858 54.3022 10.8962 53.8125 10.2921 53.8125H7.65625C7.05316 53.8125 6.5625 53.3218 6.5625 52.7188C6.5625 52.1157 7.05316 51.625 7.65625 51.625H9.84375C10.4478 51.625 10.9375 51.1353 10.9375 50.5312C10.9375 49.9272 10.4478 49.4375 9.84375 49.4375C8.31359 49.4375 6.99891 49.4375 5.46875 49.4375C4.86566 49.4375 4.375 48.9468 4.375 48.3438C4.375 47.7407 4.86566 47.25 5.46875 47.25H9.84375C10.4478 47.25 10.9375 46.7603 10.9375 46.1562C10.9375 45.5522 10.4478 45.0625 9.84375 45.0625C8.84844 45.0625 5.00631 45.0625 3.28125 45.0625C2.67816 45.0625 2.1875 44.5718 2.1875 43.9688C2.1875 43.3657 2.67816 42.875 3.28125 42.875H9.84375C10.4478 42.875 10.9375 42.3853 10.9375 41.7812C10.9375 41.1772 10.4478 40.6875 9.84375 40.6875H5.46875C4.86566 40.6875 4.375 40.1968 4.375 39.5938C4.375 38.9907 4.86566 38.5 5.46875 38.5H16.4062C17.0103 38.5 17.5 38.0103 17.5 37.4062V36.3125H20.2563C22.8712 36.3125 25.2115 37.756 26.3639 40.0797C26.5486 40.452 26.9282 40.6875 27.3438 40.6875H36.3125V50.5312C36.3125 50.9147 36.3792 51.2827 36.5006 51.625H29.5312C29.3614 51.625 29.1939 51.6645 29.0421 51.7405L27.8212 52.3509C25.8885 53.3071 23.7491 53.8125 21.6344 53.8125H20.1143C19.5102 53.8125 19.0205 54.3022 19.0205 54.9062C19.0205 55.5103 19.5102 56 20.1143 56H21.6344C24.0838 56 26.5585 55.4162 28.7954 54.3095L29.7895 53.8125H39.5938C40.0207 53.8125 40.4286 53.7296 40.8031 53.5805C41.1828 54.973 42.4577 56 43.9688 56C45.4798 56 46.7549 54.973 47.1344 53.5805C47.509 53.7296 47.9168 53.8125 48.3438 53.8125C49.8548 53.8125 51.1299 52.7855 51.5094 51.393C51.884 51.5421 52.2918 51.625 52.7188 51.625C54.528 51.625 56 50.153 56 48.3438V35.2188C56 35.0525 55.9618 34.8957 55.8955 34.7546C55.6825 32.907 55.1455 31.0816 54.3095 29.3921L53.8125 28.3981V16.4062C53.8125 15.9792 53.7296 15.5714 53.5805 15.1969C54.9731 14.8174 56 13.5424 56 12.0312ZM15.3125 36.3125H5.46875C5.08528 36.3125 4.71734 36.3792 4.375 36.5006V27.3438C4.375 27.174 4.33552 27.0065 4.2595 26.8546C4.01089 26.2196 2.1875 23.5385 2.1875 19.4469V7.65625C2.1875 7.05316 2.67816 6.5625 3.28125 6.5625C3.88434 6.5625 4.375 7.05316 4.375 7.65625V9.84375C4.375 10.4478 4.86467 10.9375 5.46875 10.9375C6.07283 10.9375 6.5625 10.4478 6.5625 9.84375V5.46875C6.5625 4.86566 7.05316 4.375 7.65625 4.375C8.25934 4.375 8.75 4.86566 8.75 5.46875V9.84375C8.75 10.4478 9.23967 10.9375 9.84375 10.9375C10.4478 10.9375 10.9375 10.4478 10.9375 9.84375C10.9375 8.84844 10.9375 5.00631 10.9375 3.28125C10.9375 2.67816 11.4282 2.1875 12.0312 2.1875C12.6343 2.1875 13.125 2.67816 13.125 3.28125V9.84375C13.125 10.4478 13.6147 10.9375 14.2188 10.9375C14.8228 10.9375 15.3125 10.4478 15.3125 9.84375V5.46875C15.3125 4.86566 15.8032 4.375 16.4062 4.375C17.0093 4.375 17.5 4.86566 17.5 5.46875V16.4062C17.5 17.0103 17.9897 17.5 18.5938 17.5H19.6875V20.2563C19.6875 22.8315 18.2088 25.2289 15.9203 26.3639C15.548 26.5486 15.3125 26.9282 15.3125 27.3438V36.3125ZM20.2563 34.125H17.5V27.993C20.2153 26.3793 21.875 23.4744 21.875 20.2563V17.5H28.0071C29.6207 20.2153 32.5255 21.875 35.7437 21.875H38.5V28.007C35.7847 29.6207 34.125 32.5255 34.125 35.7437V38.5H27.993C26.3793 35.7848 23.4745 34.125 20.2563 34.125ZM53.8125 48.3438C53.8125 48.9468 53.3218 49.4375 52.7188 49.4375C52.1157 49.4375 51.625 48.9468 51.625 48.3438V46.1562C51.625 45.5522 51.1352 45.0625 50.5312 45.0625C49.9273 45.0625 49.4375 45.5522 49.4375 46.1562V50.5312C49.4375 51.1343 48.9468 51.625 48.3438 51.625C47.7407 51.625 47.25 51.1343 47.25 50.5312V46.1562C47.25 45.5522 46.7602 45.0625 46.1562 45.0625C45.5523 45.0625 45.0625 45.5522 45.0625 46.1562V52.7188C45.0625 53.3218 44.5718 53.8125 43.9688 53.8125C43.3657 53.8125 42.875 53.3218 42.875 52.7188V46.1562C42.875 45.5522 42.3852 45.0625 41.7812 45.0625C41.1773 45.0625 40.6875 45.5522 40.6875 46.1562V50.5312C40.6875 51.1343 40.1968 51.625 39.5938 51.625C38.9907 51.625 38.5 51.1343 38.5 50.5312V39.5938C38.5 38.9897 38.0102 38.5 37.4062 38.5H36.3125V35.7437C36.3125 33.1288 37.756 30.7885 40.0797 29.6361C40.452 29.4515 40.6875 29.0719 40.6875 28.6562V19.6875H50.5312C50.9147 19.6875 51.2827 19.6208 51.625 19.4994V28.6562C51.625 28.826 51.6645 28.9935 51.7405 29.1454L52.3509 30.3663C53.3071 32.299 53.8125 34.4384 53.8125 36.5531V48.3438ZM52.7188 13.125H46.1562C45.5523 13.125 45.0625 13.6147 45.0625 14.2188C45.0625 14.8228 45.5523 15.3125 46.1562 15.3125H50.5312C51.1343 15.3125 51.625 15.8032 51.625 16.4062C51.625 17.0093 51.1343 17.5 50.5312 17.5H39.5938C38.9898 17.5 38.5 17.9897 38.5 18.5938V19.6875H35.7437C33.1684 19.6875 30.771 18.2088 29.6361 15.9203C29.4515 15.5481 29.0719 15.3125 28.6562 15.3125H19.6875V5.46875C19.6875 5.08528 19.6208 4.71734 19.4994 4.375H28.6562C28.8261 4.375 28.9936 4.33552 29.1455 4.2595C29.7797 4.01133 32.4614 2.1875 36.5531 2.1875H48.3438C48.9468 2.1875 49.4375 2.67816 49.4375 3.28125C49.4375 3.88434 48.9468 4.375 48.3438 4.375H46.1562C45.5523 4.375 45.0625 4.86467 45.0625 5.46875C45.0625 6.07283 45.5523 6.5625 46.1562 6.5625H50.5312C51.1343 6.5625 51.625 7.05316 51.625 7.65625C51.625 8.25934 51.1343 8.75 50.5312 8.75H46.1562C45.5523 8.75 45.0625 9.23967 45.0625 9.84375C45.0625 10.4478 45.5523 10.9375 46.1562 10.9375H52.7188C53.3218 10.9375 53.8125 11.4282 53.8125 12.0312C53.8125 12.6343 53.3218 13.125 52.7188 13.125Z" fill="black"/>
<path d="M15.3125 55.6719C15.9166 55.6719 16.4062 55.1822 16.4062 54.5781C16.4062 53.9741 15.9166 53.4844 15.3125 53.4844C14.7084 53.4844 14.2188 53.9741 14.2188 54.5781C14.2188 55.1822 14.7084 55.6719 15.3125 55.6719Z" fill="black"/>
</svg>
