<svg width="56" height="56" viewBox="0 0 56 56" fill="none" xmlns="http://www.w3.org/2000/svg">
<path d="M27.9661 11.8806C27.963 11.8806 27.9597 11.8806 27.9566 11.8806H27.928C27.9249 11.8806 27.9218 11.8806 27.9185 11.8806C23.537 11.8903 19.4297 13.5609 16.3494 16.5875C13.2431 19.6397 11.5322 23.7323 11.5322 28.1112C11.5322 33.0196 13.6454 37.5489 17.3296 40.5374C17.8982 40.9988 18.8521 42.4689 18.8521 47.1312V54.6334C18.8521 55.2042 19.3151 55.6672 19.886 55.6672H35.9978C36.5687 55.6672 37.0316 55.2042 37.0316 54.6334V47.1312C37.0316 47.1229 37.0306 47.1151 37.0304 47.107C37.0306 47.0988 37.0316 47.0908 37.0316 47.0827C37.0316 42.3778 37.9857 40.9018 38.555 40.4403C42.2932 37.4067 44.3521 33.0281 44.3521 28.111C44.3521 23.732 42.6414 19.6396 39.5352 16.5873C36.4551 13.5609 32.3478 11.8903 27.9661 11.8806ZM34.9643 53.5995H20.9202V48.165H30.703C30.7487 48.1712 30.7947 48.1755 30.8421 48.1755C30.8894 48.1755 30.9354 48.1714 30.9811 48.165H34.9643V53.5995ZM25.9212 31.6658H29.984C29.887 35.5742 29.8208 42.2273 29.8098 46.0973H26.094C26.083 42.514 26.0197 35.6811 25.9212 31.6658ZM37.2527 38.8348C35.8345 39.9846 35.0891 42.3678 34.9802 46.0973H31.8774C31.8888 41.8552 31.9641 35.3411 32.052 31.6658H34.2627C36.1155 31.6658 37.6807 30.025 37.6807 28.0826C37.6807 26.1846 36.1155 24.5813 34.2627 24.5813C32.5629 24.5813 30.581 25.6455 30.1163 28.6329C30.0934 28.7807 30.0713 29.1162 30.0501 29.5982H25.856C25.8341 29.0962 25.8112 28.7463 25.7873 28.5915C25.4813 26.6131 24.2315 24.4989 21.6418 24.4989C19.7893 24.4989 18.2244 26.14 18.2244 28.0826C18.2244 30.025 19.7893 31.6658 21.6418 31.6658H23.8528C23.9407 35.359 24.0156 41.8655 24.0268 46.0973H20.9026C20.7875 42.4282 20.0433 40.0763 18.6326 38.9316C15.4344 36.3376 13.6001 32.3937 13.6001 28.1112C13.6001 24.2915 15.091 20.7227 17.7987 18.0624C20.4954 15.4127 24.0975 13.9519 27.9423 13.9483C31.7875 13.9519 35.3894 15.4127 38.086 18.0624C40.7934 20.7227 42.2844 24.2913 42.2844 28.1112C42.2846 32.3931 40.4974 36.2014 37.2527 38.8348ZM32.1157 29.5982C32.1302 29.2704 32.1449 29.0475 32.1593 28.9498C32.4709 26.9477 33.6107 26.6488 34.2625 26.6488C34.9819 26.6488 35.6129 27.3187 35.6129 28.0824C35.6129 28.8757 34.9693 29.598 34.2625 29.598H32.1157V29.5982ZM23.7894 29.5982H21.6416C20.9351 29.5982 20.2919 28.8759 20.2919 28.0826C20.2919 27.2893 20.9351 26.5666 21.6416 26.5666C23.1555 26.5666 23.6085 28.0333 23.7436 28.9079C23.7587 29.0097 23.7741 29.2477 23.7894 29.5982Z" fill="#354253"/>
<path d="M35.2636 10.6821C35.3962 10.739 35.5344 10.7661 35.6702 10.7661C36.0713 10.7661 36.453 10.5312 36.621 10.139L40.1801 1.83439C40.4052 1.30954 40.1621 0.701821 39.6372 0.476961C39.1122 0.251412 38.5045 0.495053 38.2798 1.0199L34.7206 9.32454C34.4956 9.84956 34.7387 10.4573 35.2636 10.6821Z" fill="#354253"/>
<path d="M19.3128 10.1403C19.4744 10.5445 19.8626 10.7904 20.2731 10.7904C20.4007 10.7904 20.5308 10.7664 20.6568 10.7161C21.1868 10.504 21.4447 9.90232 21.2328 9.37214L17.877 0.983241C17.665 0.453227 17.0635 0.195113 16.533 0.407222C16.003 0.61933 15.745 1.22102 15.957 1.75121L19.3128 10.1403Z" fill="#354253"/>
<path d="M0.688137 18.0509L8.99191 21.6121C9.12493 21.669 9.26295 21.696 9.3989 21.696C9.79986 21.696 10.1815 21.4612 10.3497 21.0693C10.5747 20.5445 10.3318 19.9368 9.80709 19.7116L1.50314 16.1505C0.977956 15.9257 0.370405 16.1684 0.145373 16.6931C-0.0794864 17.218 0.163465 17.8259 0.688137 18.0509Z" fill="#354253"/>
<path d="M9.03918 35.0987L0.649938 38.4564C0.119924 38.6685 -0.137846 39.2704 0.0742628 39.8004C0.236058 40.2046 0.624092 40.4503 1.03435 40.4503C1.1622 40.4503 1.29229 40.4264 1.41808 40.3759L9.80732 37.0182C10.3373 36.8061 10.5951 36.2042 10.383 35.6742C10.1711 35.1443 9.56885 34.8866 9.03918 35.0987Z" fill="#354253"/>
<path d="M55.3116 38.6109L47.0049 35.0521C46.4788 34.8269 45.8723 35.0702 45.6473 35.5952C45.4224 36.1201 45.6657 36.7278 46.1904 36.9528L54.4971 40.5117C54.6301 40.5685 54.7679 40.5954 54.9037 40.5954C55.3048 40.5954 55.6865 40.3605 55.8547 39.9684C56.0795 39.4437 55.8364 38.8358 55.3116 38.6109Z" fill="#354253"/>
<path d="M46.5744 21.6396C46.7022 21.6396 46.8322 21.6156 46.9583 21.5651L55.3496 18.2067C55.8796 17.9946 56.1374 17.3927 55.9253 16.8627C55.7134 16.3325 55.1117 16.0749 54.5813 16.2871L46.19 19.6455C45.66 19.8576 45.4022 20.4594 45.6143 20.9895C45.7761 21.3937 46.1641 21.6396 46.5744 21.6396Z" fill="#354253"/>
</svg>
