<svg width="56" height="56" viewBox="0 0 56 56" fill="none" xmlns="http://www.w3.org/2000/svg">
<path d="M55.4446 25.9312L54.022 23.4764C53.0802 21.851 52.793 20.7707 52.793 18.8565L52.8021 16.1222C52.8224 14.6252 52.0301 13.2326 50.7332 12.4862L48.274 11.0715C46.6464 10.1351 45.8575 9.34356 44.8994 7.68483L43.5403 5.31252C42.8102 4.00763 41.4304 3.19801 39.9364 3.19801C39.9344 3.19801 39.9324 3.19801 39.9304 3.19801L37.0934 3.2026C37.0843 3.2026 37.0752 3.2026 37.066 3.2026C35.2043 3.2026 34.1275 2.90936 32.4779 1.957L30.1137 0.581453C28.8277 -0.183978 27.2259 -0.19415 25.9311 0.555531L23.4762 1.97811C21.8508 2.91997 20.7705 3.20709 18.8564 3.20709L16.122 3.19801C16.1034 3.19779 16.0849 3.19768 16.0664 3.19768C14.5907 3.19768 13.223 3.9863 12.486 5.26691L11.0713 7.72639C10.1344 9.35493 9.34238 10.1438 7.68486 11.1007L5.31266 12.4598C4.00602 13.1907 3.19574 14.5732 3.19771 16.0699L3.20231 18.907C3.20526 20.7859 2.91376 21.8649 1.9567 23.5225L0.581703 25.8857C-0.184275 27.1722 -0.194557 28.7745 0.555453 30.0691L1.97803 32.524C2.91989 34.1493 3.20701 35.2297 3.20701 37.1438L3.19782 39.8781C3.1778 41.3752 3.97014 42.7679 5.26683 43.5141L7.7261 44.9288C9.35464 45.8656 10.1435 46.6576 11.1005 48.3153L12.4604 50.6891C13.1909 51.9933 14.5704 52.8024 16.0641 52.8023H16.0696L18.9067 52.7977H18.9349C20.7961 52.7977 21.8729 53.0911 23.5222 54.0433L25.8857 55.4184C26.5365 55.806 27.2683 56 28.0002 56C28.7147 55.9999 29.4292 55.815 30.0689 55.4446L32.5237 54.0221C34.1492 53.0801 35.2295 52.793 37.1435 52.793L39.8779 52.8022C41.3785 52.8188 42.7676 52.0299 43.5139 50.7332L44.9285 48.2739C45.8652 46.6455 46.6573 45.8567 48.315 44.8996L50.6883 43.5399C51.9944 42.8087 52.8042 41.4265 52.802 39.9305L52.7975 37.0935C52.7946 35.2147 53.086 34.1355 54.043 32.4779L55.4182 30.1142C56.1843 28.828 56.1945 27.2259 55.4446 25.9312ZM53.5371 28.998C53.535 29.0016 53.5328 29.0054 53.5306 29.0091L52.1506 31.3809C51.0097 33.357 50.6067 34.8528 50.6102 37.097L50.6147 39.9339C50.6156 40.6382 50.2334 41.2894 49.6168 41.633C49.6131 41.6351 49.6094 41.6372 49.6056 41.6393L47.2245 43.0035C45.2484 44.1444 44.1514 45.2381 43.0324 47.1834L41.6179 49.6425C41.2665 50.253 40.6065 50.6294 39.9042 50.615C39.8999 50.615 39.8957 50.6148 39.8914 50.6148L37.1472 50.6057C34.8656 50.6057 33.3687 51.0045 31.4269 52.1296L28.9723 53.552C28.363 53.905 27.608 53.8996 27.002 53.5373C26.9984 53.5351 26.9947 53.533 26.9908 53.5308L24.619 52.1509C22.6516 51.0148 21.1602 50.6104 18.9323 50.6104C18.9225 50.6104 18.9127 50.6104 18.903 50.6104L16.0661 50.615C16.0651 50.615 16.0644 50.615 16.0636 50.615C15.3602 50.615 14.7101 50.2328 14.3669 49.6171C14.3647 49.6134 14.3628 49.6097 14.3606 49.6059L12.9965 47.2248C11.8556 45.2488 10.7618 44.1518 8.8166 43.0327L6.35744 41.6181C5.747 41.2668 5.37435 40.6101 5.38496 39.9044C5.38496 39.9001 5.38507 39.8959 5.38507 39.8916L5.39425 37.1475C5.39425 34.8657 4.99546 33.3688 3.87039 31.4272L2.44836 28.9724C2.09528 28.3631 2.10086 27.608 2.46302 27.0022C2.46531 26.9985 2.46739 26.9949 2.46958 26.991L3.8495 24.6192C4.99043 22.6433 5.39349 21.1475 5.38999 18.9031L5.38539 16.0664C5.38441 15.3619 5.7668 14.7108 6.38326 14.3672C6.38697 14.3651 6.3908 14.3631 6.39452 14.3609L8.77558 12.9967C10.7514 11.856 11.8485 10.7622 12.9676 8.8169L14.3822 6.35774C14.7286 5.75572 15.3721 5.38504 16.0665 5.38504C16.0764 5.38504 16.0862 5.38504 16.096 5.38525C16.1002 5.38525 16.1045 5.38536 16.1088 5.38536L18.8529 5.39444C21.1346 5.39444 22.6316 4.99565 24.5731 3.87058L27.0278 2.44811C27.6373 2.09514 28.3924 2.10072 28.9982 2.46277C29.0018 2.46506 29.0055 2.46714 29.0092 2.46933L31.3812 3.84936C33.349 4.98548 34.8402 5.38985 37.0689 5.38985H37.0972L39.9342 5.38525H39.9369C40.6402 5.38525 41.2899 5.76742 41.6331 6.38301C41.6352 6.38672 41.6373 6.39044 41.6395 6.39427L43.0018 8.77216C43.0025 8.77326 43.003 8.77435 43.0037 8.77534C44.1445 10.7513 45.2383 11.8483 47.1836 12.9674L49.6426 14.382C50.2532 14.7333 50.6257 15.3899 50.6151 16.0955C50.6151 16.0998 50.615 16.1041 50.615 16.1084L50.6059 18.8526C50.6059 21.1344 51.0047 22.6313 52.1298 24.5729L53.5522 27.0275C53.9048 27.6372 53.8992 28.3922 53.5371 28.998Z" fill="black"/>
<path d="M14.4443 23.6688C14.1742 23.9906 14.1124 24.4388 14.2853 24.8219L15.9261 28.4571L14.4626 29.053C14.0751 29.2107 13.8116 29.5757 13.7837 29.9932C13.7558 30.4107 13.9684 30.8073 14.3316 31.0153L20.648 34.6317L20.3051 37.4328C20.2634 37.7725 20.3834 38.1124 20.6292 38.3508C20.8748 38.5891 21.2176 38.6991 21.5566 38.6469L26.9067 37.8264V41.1254C26.9067 41.7294 27.3965 42.2192 28.0005 42.2192C28.6045 42.2192 29.0943 41.7294 29.0943 41.1254V37.8264L34.4444 38.6469C34.4998 38.6553 34.5551 38.6595 34.6103 38.6595C34.8925 38.6595 35.1662 38.5502 35.3719 38.3508C35.6176 38.1124 35.7376 37.7726 35.696 37.4328L35.3531 34.6317L41.6694 31.0153C42.0325 30.8074 42.2452 30.4107 42.2173 29.9932C42.1894 29.5757 41.9259 29.2108 41.5384 29.053L40.0749 28.4571L41.7157 24.8219C41.8886 24.4388 41.8268 23.9906 41.5567 23.6688C41.2865 23.3469 40.8558 23.2078 40.4488 23.3119L36.5838 24.2966L36.2512 22.7518C36.159 22.3239 35.8204 21.9921 35.3909 21.9085C34.9605 21.824 34.523 22.0055 34.277 22.3674L33.1692 23.9985L34.1196 18.72C34.1937 18.3081 34.0265 17.8902 33.6889 17.6432C33.3513 17.3963 32.9023 17.3636 32.5323 17.5589L30.9175 18.4119L28.986 14.3999C28.8038 14.0214 28.4207 13.7806 28.0005 13.7806C27.5803 13.7806 27.1972 14.0214 27.0149 14.3999L25.0836 18.4119L23.4687 17.5589C23.0987 17.3634 22.6498 17.3963 22.3122 17.6432C21.9744 17.8902 21.8073 18.3081 21.8814 18.72L22.8318 23.9985L21.724 22.3674C21.478 22.0054 21.0401 21.8246 20.6101 21.9085C20.1804 21.9921 19.8421 22.3239 19.7499 22.7518L19.4172 24.2966L15.5522 23.3119C15.1452 23.2078 14.7144 23.3468 14.4443 23.6688ZM19.9775 26.6968C20.2653 26.7701 20.571 26.7233 20.8235 26.5668C21.0762 26.4103 21.2543 26.1577 21.3168 25.8672L21.3505 25.7109L23.9163 29.4886C24.2064 29.9157 24.7562 30.0822 25.2343 29.8868C25.7126 29.6916 25.9891 29.1885 25.8976 28.6802L24.4323 20.542L25.0658 20.8767C25.3286 21.0157 25.6366 21.0415 25.9187 20.9484C26.201 20.8555 26.4333 20.6517 26.5623 20.384L28.0005 17.3963L29.4389 20.384C29.5678 20.6518 29.8001 20.8556 30.0824 20.9484C30.3644 21.0415 30.6726 21.0156 30.9354 20.8767L31.5688 20.5421L30.1034 28.6802C30.0119 29.1885 30.2884 29.6916 30.7667 29.8868C31.2448 30.0822 31.7944 29.9158 32.0847 29.4886L34.6506 25.7108L34.6843 25.8672C34.7469 26.1577 34.9249 26.4103 35.1777 26.5668C35.4305 26.7234 35.7361 26.7701 36.0236 26.6968L38.7871 25.9927L37.6139 28.5919C37.4916 28.8629 37.4848 29.1717 37.5951 29.4477C37.7053 29.7237 37.9231 29.9429 38.1984 30.055L38.634 30.2324L33.6356 33.0941C33.2535 33.3128 33.0399 33.7393 33.0934 34.1763L33.3492 36.2657L28.1663 35.4709C28.1114 35.4624 28.056 35.4583 28.0005 35.4583C27.9451 35.4583 27.8896 35.4624 27.8347 35.4709L22.6518 36.2657L22.9076 34.1763C22.9611 33.7394 22.7475 33.3128 22.3654 33.0941L17.367 30.2324L17.8026 30.055C18.0779 29.943 18.2957 29.7238 18.4059 29.4477C18.5162 29.1716 18.5094 28.8628 18.3871 28.5919L17.2138 25.9927L19.9775 26.6968Z" fill="black"/>
<path d="M28.0007 7.21802C24.2674 7.21802 20.6044 8.22091 17.4078 10.1184C16.8884 10.4267 16.7173 11.0979 17.0255 11.6173C17.3339 12.1368 18.0049 12.308 18.5245 11.9996C21.3833 10.3026 24.6602 9.40559 28.0007 9.40559C38.2536 9.40559 46.5951 17.747 46.5951 28C46.5951 38.2529 38.2536 46.5943 28.0007 46.5943C17.7478 46.5943 9.40632 38.2529 9.40632 28C9.40632 24.6591 10.3031 21.3824 11.9998 18.5244C12.3081 18.0049 12.1371 17.3339 11.6176 17.0256C11.0983 16.7169 10.4269 16.8883 10.1188 17.4077C8.22153 20.6036 7.21875 24.2663 7.21875 28C7.21875 39.4592 16.5414 48.7819 28.0007 48.7819C39.46 48.7819 48.7826 39.4592 48.7826 28C48.7826 16.5407 39.46 7.21802 28.0007 7.21802Z" fill="black"/>
<path d="M14.0789 15.1722C14.3258 15.1722 14.5743 15.089 14.7788 14.9187C15.2428 14.5319 15.3055 13.8422 14.9189 13.3782C14.5319 12.9139 13.8423 12.8516 13.3784 13.2381L13.3778 13.2387C12.9137 13.6254 12.8514 14.3148 13.238 14.7789C13.4543 15.0383 13.7654 15.1722 14.0789 15.1722Z" fill="black"/>
</svg>
