<svg width="54" height="56" viewBox="0 0 54 56" fill="none" xmlns="http://www.w3.org/2000/svg">
<path d="M0.855469 17.5838C0.855469 19.8095 2.02053 21.5863 3.56797 21.8285L4.29061 26.6601C4.31 26.7896 4.37526 26.9079 4.47453 26.9934C4.57379 27.079 4.70045 27.126 4.83147 27.126H4.83234L7.70945 37.9432L7.32248 38.5119C7.2591 38.6051 7.22603 38.7155 7.22779 38.8282C7.22955 38.9408 7.26606 39.0502 7.33233 39.1413L13.9975 48.3061C14.0004 48.31 14.0032 48.3139 14.0062 48.3177C14.831 49.3951 15.279 50.7137 15.2813 52.0706V54.25C15.2813 54.3951 15.3389 54.5341 15.4414 54.6367C15.544 54.7393 15.6831 54.7969 15.8281 54.7969H47.4608C47.5732 54.7968 47.6829 54.7622 47.7748 54.6976C47.8668 54.633 47.9367 54.5416 47.9749 54.4359L48.1396 53.9806C48.3089 54.0171 48.4817 54.0354 48.6549 54.0353C49.1254 54.0312 49.587 53.9065 49.9957 53.6733C50.8545 53.1941 51.5209 52.3046 51.8242 51.2329C52.2955 49.5679 51.7523 47.9037 50.5992 47.1853L53.1124 40.2413C53.1392 40.1675 53.1497 40.0889 53.1434 40.0107C53.1371 39.9326 53.114 39.8567 53.0758 39.7882C53.0375 39.7198 52.985 39.6603 52.9218 39.6139C52.8585 39.5675 52.7861 39.5353 52.7093 39.5194L43.9456 37.7017C43.8159 37.6748 43.6809 37.6959 43.5655 37.761C43.4502 37.8262 43.3625 37.931 43.3186 38.0559L42.5698 40.188C42.3934 39.8397 42.1791 39.5121 41.9307 39.2109C41.5614 38.7836 41.1416 38.4028 40.6804 38.0767L41.0752 37.9313C41.3016 37.8508 41.49 37.689 41.6039 37.4775C41.7178 37.2659 41.7489 37.0195 41.6914 36.7862L39.2618 27.275C39.4432 27.2828 39.6235 27.3074 39.8003 27.3485C39.895 27.3709 39.994 27.3677 40.0871 27.3391C40.1801 27.3105 40.2638 27.2576 40.3296 27.1859C40.3954 27.1141 40.4408 27.0261 40.4612 26.9309C40.4816 26.8357 40.4762 26.7368 40.4456 26.6444L40.0664 25.4998L45.3875 23.9064C45.579 23.849 45.7461 23.7299 45.8628 23.5676C45.9796 23.4053 46.0394 23.209 46.033 23.0092C46.0265 22.8094 45.9542 22.6173 45.8273 22.4629C45.7004 22.3085 45.5259 22.2003 45.3312 22.1553L38.952 20.6847C38.7004 19.8396 38.3486 19.0277 37.9042 18.2662L41.8684 11.7744C41.8735 11.766 41.8784 11.7574 41.883 11.7487C41.9777 11.5732 42.0119 11.3713 41.9801 11.1744C41.9483 10.9775 41.8525 10.7966 41.7074 10.6598C41.5623 10.5229 41.3761 10.4378 41.1777 10.4176C40.9792 10.3974 40.7797 10.4432 40.61 10.548L34.0001 14.6031C33.5108 14.3606 33.003 14.1573 32.4815 13.9954C32.4041 13.9712 32.3264 13.9499 32.2488 13.9275L30.4685 6.34376C30.4661 6.33282 30.4634 6.32287 30.4602 6.31248C30.4033 6.12126 30.2848 5.95421 30.1231 5.83729C29.9615 5.72037 29.7657 5.66014 29.5663 5.66595C29.3669 5.67176 29.1749 5.7433 29.0204 5.86943C28.8658 5.99557 28.7572 6.16924 28.7115 6.36344L26.9317 13.776C26.6648 13.837 26.3995 13.9083 26.1359 13.9898C25.6074 14.1528 25.0929 14.358 24.5974 14.6035L17.9911 10.5516C17.8217 10.4456 17.6219 10.3985 17.4229 10.4179C17.2239 10.4372 17.037 10.5218 16.8911 10.6586C16.7453 10.7953 16.6487 10.9764 16.6166 11.1737C16.5845 11.371 16.6185 11.5735 16.7134 11.7494C16.7181 11.7581 16.723 11.7667 16.7282 11.7751L20.6922 18.2666C20.2476 19.0282 19.8957 19.8402 19.6441 20.6853L13.2653 22.156C13.0705 22.201 12.8961 22.3092 12.7692 22.4636C12.6423 22.618 12.57 22.8101 12.5635 23.0099C12.5571 23.2097 12.617 23.406 12.7337 23.5683C12.8504 23.7306 13.0176 23.8497 13.209 23.9071L18.5203 25.4975L18.154 26.6029C18.129 26.6778 18.1206 26.7573 18.1294 26.8358C18.1381 26.9143 18.1638 26.99 18.2047 27.0576C18.2456 27.1252 18.3007 27.1831 18.3661 27.2274C18.4316 27.2716 18.5059 27.3011 18.5838 27.3138L17.0671 32.6502L13.5718 30.6148L9.89269 18.3345L10.3718 13.3344H10.4864C10.6314 13.3344 10.7705 13.2767 10.8731 13.1742C10.9756 13.0716 11.0333 12.9325 11.0333 12.7875V10.2441C11.0333 10.099 10.9756 9.95993 10.8731 9.85737C10.7705 9.75481 10.6314 9.6972 10.4864 9.6972H9.79797C10.1837 9.14238 10.4383 8.50715 10.5425 7.83949C10.6467 7.17184 10.5978 6.48924 10.3995 5.84326C10.3691 5.74122 10.3095 5.65027 10.2282 5.58151C10.1469 5.51276 10.0473 5.46917 9.94163 5.45609C9.83595 5.443 9.72874 5.46098 9.63311 5.50783C9.53748 5.55467 9.45756 5.62836 9.40313 5.71988C9.32915 5.84333 9.21822 5.94038 9.08603 5.99731C8.95385 6.05423 8.80712 6.06814 8.66659 6.03707C8.52074 6.00917 8.38723 5.93642 8.2847 5.82899C8.18217 5.72156 8.11574 5.58481 8.09467 5.4378C7.82616 3.7438 7.0018 1.63844 6.9668 1.54963C6.93302 1.46405 6.8782 1.38836 6.80741 1.32959C6.73662 1.27082 6.65214 1.23086 6.5618 1.21341C6.47147 1.19597 6.37818 1.20159 6.2906 1.22977C6.20301 1.25795 6.12395 1.30778 6.06074 1.37463C3.6325 3.94144 2.55209 6.22093 2.85014 8.14921C2.93382 8.7051 3.14331 9.23455 3.46264 9.6972H2.07358C1.92854 9.6972 1.78944 9.75481 1.68688 9.85737C1.58432 9.95993 1.5267 10.099 1.5267 10.2441V12.7875C1.5267 12.9325 1.58432 13.0716 1.68688 13.1742C1.78944 13.2767 1.92854 13.3344 2.07358 13.3344H2.29703L2.3783 13.8775C1.46108 14.6091 0.855469 15.9797 0.855469 17.5838ZM4.6603 21.74C6.02059 21.2955 7.00486 19.6291 7.00486 17.5838C7.00486 15.3449 5.82591 13.5596 4.26502 13.3344H9.27297L8.79445 18.3289V18.3306L8.05639 26.0322H5.30233L4.6603 21.74ZM26.401 53.7031L33.5694 41.5568L35.3271 41.9248C35.7021 42.0031 36.0841 42.0426 36.4672 42.0424C37.1263 42.0419 37.7802 41.9264 38.3995 41.7012L34.5908 53.7031H26.401ZM23.0577 28.9487V26.6656C24.0559 26.1844 25.207 25.3238 26.5711 23.7964C26.8252 23.7336 27.0719 23.644 27.307 23.529C28.357 23.0138 29.1308 22.0161 29.6204 20.5521C30.1921 22.5674 31.2173 23.5037 32.1666 23.9258C33.7837 25.7305 34.9978 26.5963 36.0624 26.9929V28.9487C36.0624 30.6733 35.3773 32.3272 34.1579 33.5466C32.9385 34.766 31.2846 35.4511 29.5601 35.4511C27.8355 35.4511 26.1816 34.766 24.9622 33.5466C23.7428 32.3272 23.0577 30.6733 23.0577 28.9487ZM24.7386 34.825L24.2036 36.9316C23.7689 36.6126 23.3268 36.3233 22.8944 36.0566L23.1878 33.083C23.6129 33.7393 24.1358 34.3268 24.7386 34.825ZM23.8429 22.4527C24.3255 21.4971 25.0412 20.6785 25.9239 20.0726C26.8066 19.4668 27.8278 19.0933 28.8931 18.9866C28.5431 20.8435 27.8515 22.0405 26.8305 22.5446C25.7451 23.0803 24.4955 22.718 23.8429 22.4526V22.4527ZM30.4131 19.0127C31.479 19.1555 32.4912 19.5668 33.3546 20.208C34.218 20.8492 34.9043 21.6993 35.3492 22.6785C34.9916 22.907 34.5897 23.0573 34.1699 23.1195C33.7502 23.1817 33.322 23.1544 32.9135 23.0394C31.5985 22.6394 30.7408 21.2522 30.4126 19.0126L30.4131 19.0127ZM25.6964 35.4972C26.8657 36.1922 28.2007 36.559 29.5609 36.5588C30.9212 36.5587 32.2562 36.1916 33.4253 35.4963L34.743 40.685L26.3211 38.9214C25.9647 38.4754 25.5697 38.0616 25.1408 37.6848L25.6964 35.4972ZM35.6778 39.9224L39.3755 38.5589C39.7391 38.7466 40.0809 38.9741 40.3945 39.237L39.0075 40.175C38.1036 40.7827 37.0114 41.0455 35.93 40.9156L35.6778 39.9224ZM50.7716 50.9356C50.5501 51.7184 50.0607 52.3851 49.4625 52.7184C49.2882 52.8233 49.0948 52.8926 48.8936 52.9223C48.6923 52.952 48.4872 52.9416 48.29 52.8917C47.3056 52.6119 46.8174 51.2786 47.202 49.9197C47.4235 49.1369 47.913 48.4703 48.5111 48.1369C48.7558 47.9953 49.0324 47.918 49.315 47.9124C49.4397 47.9123 49.5638 47.9295 49.6838 47.9636C50.6689 48.2435 51.1567 49.5766 50.772 50.9359L50.7716 50.9356ZM42.8568 44.4361C43.1366 43.6365 43.2242 42.7822 43.1125 41.9424L44.1914 38.8708L51.8685 40.4632L49.5642 46.8326C49.0126 46.784 48.4593 46.9058 47.9791 47.1818C47.1204 47.661 46.4539 48.5506 46.1506 49.6222C45.7117 51.1732 46.1531 52.7234 47.1478 53.5093L47.0771 53.7031H39.5959L42.8568 44.4361ZM41.1785 40.0267C41.6134 40.5946 41.9003 41.2618 42.0131 41.9681C42.126 42.6745 42.0614 43.3978 41.8252 44.073L38.4361 53.7031H35.7378L39.7777 40.9743L41.1785 40.0267ZM40.6011 36.9409L35.4067 38.8565L34.3825 34.8238C35.25 34.1102 35.9487 33.2132 36.4282 32.1974C36.9077 31.1815 37.1562 30.0721 37.1557 28.9487V27.2605C37.482 27.2987 37.8107 27.3126 38.1391 27.302L40.6011 36.9409ZM39.3274 22.4547C39.3122 22.322 39.2853 22.1232 39.2399 21.874L44.3951 23.0625L39.7224 24.4617L39.2158 22.9324C39.3075 22.791 39.3469 22.6221 39.3274 22.4547ZM39.1382 26.1768C38.8936 26.1728 38.657 26.1847 38.4239 26.1964C37.2919 26.2529 36.1256 26.3099 33.9795 24.2379C34.9317 24.174 35.7752 23.7864 36.2451 23.3588L38.1789 23.2812L39.1382 26.1768ZM40.5174 11.8891L37.2327 17.2682C36.6286 16.4753 35.8992 15.7863 35.0732 15.2282L40.5174 11.8891ZM29.5903 7.38851L31.0618 13.6573C30.0847 13.492 29.0892 13.4646 28.1045 13.5761L29.5903 7.38851ZM18.0788 11.8891L23.5237 15.2286C22.6974 15.7865 21.9678 16.4754 21.3634 17.2682L18.0788 11.8891ZM26.4598 15.0347C28.3145 14.4564 30.3014 14.458 32.1551 15.0394C36.8102 16.4941 37.9289 20.6685 38.1846 22.1866L36.3603 22.2598C35.7708 20.956 34.8198 19.8486 33.6201 19.0687C32.4204 18.2889 31.0223 17.8694 29.5914 17.86C28.1606 17.8506 26.757 18.2516 25.5471 19.0155C24.3372 19.7794 23.3717 20.8742 22.765 22.1701H20.414C20.675 20.6376 21.8048 16.4786 26.4598 15.0347ZM20.4123 23.2641H22.9835C23.6118 23.5809 24.2891 23.7892 24.9869 23.8802C22.6401 26.2032 21.1522 26.1905 19.8231 26.1784C19.6961 26.1772 19.571 26.1758 19.4474 26.1766L20.4123 23.2641ZM22.2819 31.1244L21.8562 35.4392L21.7644 35.3856L20.3442 34.5587L21.5291 27.1682C21.6705 27.1426 21.8154 27.1105 21.964 27.0717V28.9488C21.9639 29.6856 22.071 30.4184 22.2819 31.1243V31.1244ZM14.2014 23.0628L19.3563 21.8745C19.3106 22.123 19.2838 22.3214 19.2688 22.4541C19.2498 22.6172 19.2868 22.7819 19.3739 22.9212L18.8643 24.4593L14.2014 23.0628ZM19.7327 27.2715C19.7595 27.2715 19.7855 27.2715 19.8126 27.2715C20.004 27.2732 20.2012 27.2749 20.4047 27.2715L19.3311 33.9687L18.0423 33.2183L19.7327 27.2715ZM20.7953 36.0871L17.4588 40.9433C17.4169 41.0025 17.3871 41.0694 17.3713 41.1401C17.3554 41.2109 17.3538 41.2841 17.3665 41.3555C17.3792 41.4269 17.4059 41.495 17.4452 41.556C17.4845 41.6169 17.5355 41.6694 17.5953 41.7105C17.6551 41.7515 17.7224 41.7803 17.7934 41.7951C17.8643 41.8099 17.9376 41.8104 18.0088 41.7966C18.0799 41.7828 18.1477 41.7551 18.208 41.7149C18.2684 41.6747 18.3201 41.6229 18.3603 41.5625L21.7424 36.6398C23.8869 37.9053 26.3184 39.5405 26.843 42.7037C26.8667 42.8468 26.9463 42.9746 27.0643 43.059C27.1822 43.1434 27.3289 43.1775 27.472 43.1538C27.6151 43.1301 27.7429 43.0505 27.8273 42.9325C27.9117 42.8145 27.9458 42.6679 27.9221 42.5248C27.7914 41.7194 27.5344 40.9398 27.1604 40.2147L32.439 41.3199L25.1309 53.7031H17.2943L23.63 47.6547C23.7336 47.5542 23.7934 47.4169 23.7962 47.2726C23.799 47.1282 23.7446 46.9887 23.6449 46.8843C23.5452 46.7799 23.4083 46.7191 23.264 46.7153C23.1197 46.7114 22.9797 46.7648 22.8746 46.8637L16.3747 53.0688V52.0701C16.3739 51.4512 16.2937 50.835 16.136 50.2365L18.1386 47.4227C18.1802 47.3642 18.21 47.2981 18.226 47.2281C18.2421 47.1581 18.2443 47.0856 18.2324 47.0148C18.2205 46.9439 18.1947 46.8762 18.1566 46.8153C18.1185 46.7544 18.0687 46.7016 18.0102 46.66C17.9517 46.6183 17.8856 46.5886 17.8156 46.5725C17.7456 46.5564 17.6731 46.5543 17.6023 46.5662C17.5315 46.5781 17.4637 46.6039 17.4028 46.642C17.3419 46.6801 17.2892 46.7298 17.2475 46.7883L15.6834 48.9859C15.4635 48.5149 15.1932 48.0691 14.8775 47.6562L12.0814 43.8126L14.7427 39.9029C14.8243 39.7829 14.855 39.6355 14.8279 39.493C14.8008 39.3505 14.7182 39.2246 14.5983 39.143C14.4784 39.0614 14.331 39.0308 14.1885 39.0578C14.046 39.0849 13.9201 39.1675 13.8385 39.2874L11.3985 42.8728L8.44292 38.8089L13.2751 31.7079L20.7953 36.0871ZM12.5112 30.8865L8.52288 36.7472L5.9635 27.126H8.55339C8.6894 27.126 8.82052 27.0753 8.92117 26.9838C9.02182 26.8924 9.08478 26.7667 9.09775 26.6313L9.61597 21.2221L12.5112 30.8865ZM6.25411 2.78907C6.51256 3.53894 6.86442 4.66244 7.01438 5.60908C7.05683 5.88033 7.16019 6.13842 7.3167 6.36399C7.4732 6.58956 7.67878 6.77674 7.918 6.91146C8.15721 7.04619 8.42384 7.12496 8.69786 7.14187C8.97189 7.15878 9.24618 7.11338 9.50014 7.00908C9.5767 8.46443 8.69164 9.3951 8.3517 9.6972H4.95878C4.67983 9.49107 4.44489 9.23129 4.26775 8.93309C4.09061 8.6349 3.97485 8.30432 3.92727 7.96076C3.72252 6.56251 4.52489 4.78483 6.25411 2.78907ZM2.62045 10.7909H9.9395V12.2406H2.62045V10.7909ZM3.5952 13.3344C3.5322 13.3434 3.46997 13.3557 3.40828 13.3698L3.40292 13.3344H3.5952ZM3.93011 14.4036C5.00395 14.4036 5.91111 15.8599 5.91111 17.5838C5.91111 19.3076 5.00395 20.764 3.93011 20.764C2.85627 20.764 1.94922 19.3076 1.94922 17.5838C1.94922 15.8599 2.85638 14.4036 3.93011 14.4036Z" fill="black" stroke="black" stroke-width="0.5"/>
</svg>
