<svg width="57" height="56" viewBox="0 0 57 56" fill="none" xmlns="http://www.w3.org/2000/svg">
<path d="M41.3439 0C32.9188 0 26.0645 6.85442 26.0645 15.2796C26.0645 23.7047 32.9188 30.559 41.3439 30.559C49.7691 30.559 56.6234 23.7047 56.6234 15.2796C56.6234 6.85442 49.7691 0 41.3439 0V0ZM41.3439 28.9205C33.8223 28.9205 27.703 22.8012 27.703 15.2796C27.703 7.75786 33.8223 1.63855 41.3439 1.63855C48.8655 1.63855 54.9847 7.75786 54.9847 15.2796C54.9847 22.8012 48.8655 28.9205 41.3439 28.9205Z" fill="#828282"/>
<path d="M51.1208 14.1906C51.4498 13.7962 51.6484 13.2895 51.6484 12.7369C51.6484 11.4836 50.6287 10.4638 49.3754 10.4638H45.0192C45.4073 8.88036 45.5622 7.41211 45.4794 6.096C45.4009 4.85197 44.364 3.87744 43.1186 3.87744H42.9638C41.7449 3.87744 40.7533 4.86904 40.7533 6.08791C40.7533 6.11339 40.7545 6.13899 40.7569 6.16436C40.7593 6.19116 40.9741 8.8644 38.0743 11.1267C37.6932 11.424 37.32 11.6934 37.0018 11.9145C36.7606 11.6521 36.4157 11.4863 36.032 11.4863H32.3567C31.6296 11.4863 31.0381 12.0778 31.0381 12.805V21.3911C31.0381 22.1182 31.6296 22.7097 32.3567 22.7097H36.032C36.4779 22.7097 36.8719 22.4868 37.1107 22.1472L37.4928 22.3846C38.7083 23.1397 39.6942 23.6779 41.3179 23.7283C41.3266 23.7287 41.3352 23.7288 41.3437 23.7288C41.7844 23.7288 42.1484 23.3785 42.1622 22.9348C42.1763 22.4826 41.821 22.1046 41.3687 22.0906C40.1885 22.054 39.5143 21.7114 38.3573 20.9927L37.3507 20.3674V13.6567C37.751 13.3936 38.3984 12.9521 39.0822 12.4185C42.4821 9.76619 42.4211 6.53777 42.3924 6.06538C42.4042 5.76033 42.656 5.51588 42.9639 5.51588H43.1187C43.5014 5.51588 43.82 5.81589 43.8441 6.19882C43.8971 7.03871 43.8561 8.43882 43.3607 10.3389C43.25 10.7638 43.3407 11.207 43.6093 11.5546C43.8783 11.9026 44.2847 12.1022 44.7243 12.1022H49.3756C49.7253 12.1022 50.0099 12.3868 50.0099 12.7367C50.0099 13.0865 49.7253 13.3712 49.3756 13.3712H45.9198C45.4673 13.3712 45.1004 13.7379 45.1004 14.1905C45.1004 14.6431 45.4672 15.0098 45.9198 15.0098H49.3756C49.7253 15.0098 50.0099 15.2944 50.0099 15.6443C50.0099 15.9942 49.7253 16.2788 49.3756 16.2788H45.9198C45.4673 16.2788 45.1004 16.6456 45.1004 17.0981C45.1004 17.5507 45.4672 17.9175 45.9198 17.9175H49.3756C49.7253 17.9175 50.0099 18.2021 50.0099 18.5521C50.0099 18.9018 49.7253 19.1864 49.3756 19.1864H45.9198C45.4673 19.1864 45.1004 19.5533 45.1004 20.0058C45.1004 20.4583 45.4672 20.8251 45.9198 20.8251H48.2481C48.5979 20.8251 48.8825 21.1097 48.8825 21.4596C48.8825 21.8095 48.5979 22.094 48.2481 22.094H45.0997C44.6471 22.094 44.2803 22.4608 44.2803 22.9133C44.2803 23.3658 44.6471 23.7326 45.0997 23.7326H48.2479C49.5012 23.7326 50.5209 22.7129 50.5209 21.4596C50.5209 21.156 50.46 20.8667 50.3516 20.6016C51.117 20.2355 51.6484 19.4557 51.6484 18.5521C51.6484 17.9995 51.4498 17.4927 51.1208 17.0983C51.4498 16.7038 51.6484 16.1971 51.6484 15.6444C51.6484 15.0919 51.4498 14.585 51.1208 14.1906ZM35.712 21.0713H32.6765V13.125H35.7002C35.6965 13.1566 35.6941 13.1884 35.6941 13.2207V20.8119C35.6941 20.8673 35.7013 20.9216 35.7121 20.9748V21.0713H35.712Z" fill="#828282"/>
<path d="M25.5842 28.3653C25.5842 26.6743 25.0658 25.0514 24.0851 23.6721C23.9917 23.5408 23.9635 23.3629 24.0076 23.1843C24.2124 22.3557 24.3279 21.4372 24.3606 20.3757C24.3863 19.5421 24.3298 18.6893 24.1927 17.8406C24.0917 17.2154 23.7338 16.6515 23.211 16.2932C22.688 15.935 22.0325 15.8049 21.4125 15.9366C21.0646 16.0105 20.6558 16.094 20.253 16.1733C18.3264 16.554 16.471 16.6639 14.5067 16.7801C14.0095 16.8095 13.5085 16.8392 13.0013 16.8736C10.8635 17.0187 8.36457 17.3249 6.04002 18.4951C4.28434 19.3788 3.18643 21.0978 3.17451 22.9867C3.17374 23.1307 3.1278 23.2681 3.04523 23.3737C1.93474 24.7922 1.32323 26.565 1.32323 28.3654V29.1154C0.938008 29.6459 0.709961 30.2976 0.709961 31.0019C0.709961 32.7763 2.15349 34.2199 3.92788 34.2199H4.23971C4.54946 37.9411 7.07066 41.0432 10.4822 42.2044V43.4471C6.53998 44.7078 3.67665 48.4046 3.67665 52.7595V55.181C3.67665 55.6335 4.04349 56.0003 4.49598 56.0003H22.4106C22.8631 56.0003 23.2299 55.6336 23.2299 55.181V52.7595C23.2299 51.3279 22.9273 49.9479 22.3304 48.6581C22.1405 48.2474 21.6536 48.0687 21.2428 48.2585C20.8322 48.4485 20.6534 48.9356 20.8434 49.3462C21.3397 50.4188 21.5914 51.5672 21.5914 52.7595V54.3617H5.3152V52.7595C5.3152 49.2835 7.50707 46.3123 10.5804 45.1487C10.9164 46.4209 12.0769 47.3618 13.4532 47.3618C14.8291 47.3618 15.9892 46.4216 16.3256 45.15C17.1978 45.4786 18.0147 45.9534 18.7333 46.5667C19.0775 46.8603 19.5946 46.8197 19.8884 46.4754C20.1822 46.1312 20.1413 45.6141 19.7972 45.3203C18.8028 44.4717 17.6536 43.8394 16.4245 43.4475V42.2046C19.8365 41.0436 22.3581 37.9414 22.668 34.2198H22.9949C24.7693 34.2198 26.2129 32.7763 26.2129 31.0018C26.2129 30.2881 25.9791 29.6283 25.5845 29.0941V28.3653H25.5842ZM4.20493 32.5812H3.92788C3.05704 32.5812 2.34851 31.8726 2.34851 31.0018C2.34851 30.131 3.05704 29.4224 3.92788 29.4224H4.20493V32.5812ZM14.7858 44.3905C14.7858 45.1253 14.188 45.723 13.4532 45.723C12.7185 45.723 12.1207 45.1253 12.1207 44.3905V42.5994C12.556 42.6625 13.0012 42.6953 13.4538 42.6953C13.9061 42.6953 14.3508 42.6626 14.7858 42.5996V44.3905ZM21.064 33.4464C21.064 37.6427 17.6501 41.0566 13.4538 41.0566C9.2889 41.0566 5.89652 37.6932 5.84588 33.5402C5.85376 33.4947 5.84348 27.4731 5.84348 27.4731C7.21165 28.23 8.82602 28.4904 10.0976 28.6322C12.0496 28.8498 14.1911 28.8755 16.2904 28.7066C17.4929 28.6099 18.4531 28.4434 19.3122 28.1825C19.8575 28.017 20.3354 27.8247 20.7739 27.5942C20.8721 27.5424 20.9692 27.488 21.064 27.4315V33.4464ZM21.9212 25.8492C21.4377 25.5899 20.852 25.6166 20.3923 25.9192C20.2711 25.9991 20.1426 26.0749 20.0111 26.1442C19.6659 26.3256 19.2815 26.4795 18.8363 26.6147C18.0923 26.8406 17.2417 26.9863 16.1592 27.0734C14.1622 27.234 12.129 27.2099 10.2793 27.0037C9.10909 26.8733 7.61995 26.6357 6.48463 25.9517C6.4808 25.9494 6.47709 25.947 6.47337 25.9448C6.01082 25.6637 5.43157 25.6526 4.96159 25.9161C4.48952 26.1807 4.20657 26.6623 4.20482 27.2046L4.20296 27.7838H3.92799C3.59757 27.7838 3.27863 27.834 2.9784 27.9269C3.06699 26.6439 3.54015 25.3998 4.33574 24.3835C4.64079 23.9936 4.81043 23.5006 4.81327 22.9913C4.82126 21.7264 5.57365 20.5645 6.77688 19.9586C8.84101 18.9195 11.1379 18.6423 13.1123 18.5082C13.6147 18.4742 14.1111 18.4449 14.6036 18.4156C16.6253 18.296 18.5348 18.183 20.5776 17.7792C20.98 17.7 21.3975 17.6148 21.7529 17.5393C22.1436 17.4561 22.5118 17.7096 22.5751 18.1018C22.6956 18.8477 22.7453 19.5956 22.7228 20.3249C22.6937 21.2694 22.5936 22.076 22.4169 22.791C22.2581 23.4337 22.3794 24.101 22.7498 24.6216C23.4462 25.6009 23.8494 26.7342 23.9299 27.9227C23.6339 27.8325 23.32 27.7837 22.9948 27.7837H22.7047L22.7026 27.1521C22.7008 26.6062 22.4014 26.1069 21.9212 25.8492ZM22.9947 32.5812H22.7025V29.4224H22.9947C23.8655 29.4224 24.5741 30.1311 24.5741 31.0018C24.5742 31.8726 23.8656 32.5812 22.9947 32.5812Z" fill="#828282"/>
<path d="M10.0625 30.6058C9.61001 30.6058 9.24316 30.9726 9.24316 31.4252V32.9844C9.24316 33.4369 9.61001 33.8037 10.0625 33.8037C10.515 33.8037 10.8818 33.437 10.8818 32.9844V31.4252C10.8818 30.9726 10.515 30.6058 10.0625 30.6058Z" fill="#828282"/>
<path d="M16.8447 30.6058C16.3922 30.6058 16.0254 30.9726 16.0254 31.4252V32.9844C16.0254 33.4369 16.3922 33.8037 16.8447 33.8037C17.2972 33.8037 17.664 33.437 17.664 32.9844V31.4252C17.664 30.9726 17.2972 30.6058 16.8447 30.6058Z" fill="#828282"/>
</svg>
