<svg width="53" height="53" viewBox="0 0 53 53" fill="none" xmlns="http://www.w3.org/2000/svg">
<path d="M50.8977 20.8529C50.0043 18.6423 48.7724 16.5842 47.2462 14.7525L46.1484 13.4352L47.4929 12.3148L48.5906 13.6321C50.2329 15.6031 51.5585 17.8177 52.5198 20.1963L50.8977 20.8529Z" fill="#828282"/>
<path d="M10.1211 21.9132L8.46875 21.3368C9.44571 18.527 10.9223 15.9169 12.8274 13.6321L13.196 13.1898L14.5403 14.3102L14.1717 14.7525C12.4013 16.8759 11.029 19.3018 10.1211 21.9132Z" fill="#828282"/>
<path d="M13.8481 21.9623L12.2334 21.2876C12.9114 19.6649 13.7877 18.1323 14.8423 16.725L16.2424 17.7748C15.2745 19.0665 14.4703 20.473 13.8481 21.9623Z" fill="#828282"/>
<path d="M50.1148 34.9754L48.4238 34.5246C48.8617 32.8839 49.0837 31.193 49.0844 29.4949H50.8344C50.8337 31.3452 50.5918 33.1876 50.1148 34.9754Z" fill="#828282"/>
<path d="M47.5701 21.9623C46.9479 20.473 46.1437 19.0665 45.1758 17.7748L46.5759 16.725C47.6305 18.1323 48.5068 19.6649 49.1848 21.2876L47.5701 21.9623Z" fill="#828282"/>
<path d="M52.584 41.7499V45.2499C52.584 47.339 50.239 49.1272 45.8027 50.4212C41.7591 51.6002 36.3987 52.2499 30.709 52.2499C25.0193 52.2499 19.6588 51.6002 15.6152 50.4212C11.179 49.1272 8.83398 47.339 8.83398 45.2499V44.3749H10.584V45.2499C10.584 47.4418 18.2402 50.4999 30.709 50.4999C43.1777 50.4999 50.834 47.4418 50.834 45.2499V44.6516C49.6932 45.5135 48.0066 46.278 45.8027 46.9212C41.7591 48.1002 36.3987 48.7499 30.709 48.7499C29.822 48.7499 28.9284 48.7335 28.0523 48.7018L28.1157 46.9529C28.9699 46.9846 29.8427 46.9999 30.709 46.9999C43.1777 46.9999 50.834 43.9418 50.834 41.7499C50.834 40.8191 49.4099 39.7265 47.0255 38.8263L47.6424 37.189C50.3735 38.2193 51.9835 39.4563 52.4451 40.8749C52.5375 41.1573 52.5844 41.4527 52.584 41.7499Z" fill="#828282"/>
<path d="M43.2138 18.1129L42.9141 17.7542C42.8273 17.1763 42.6159 16.6242 42.2944 16.1362C41.973 15.6481 41.5492 15.2359 41.0526 14.9279C38.7373 13.4988 36.1502 12.5669 33.4554 12.1913L33.2126 13.9249C35.6679 14.2671 38.0252 15.1159 40.1349 16.4176C40.4632 16.6196 40.7342 16.9024 40.9223 17.2389C41.1103 17.5754 41.209 17.9544 41.209 18.3399C41.209 18.7253 41.1103 19.1044 40.9223 19.4409C40.7342 19.7773 40.4632 20.0601 40.1349 20.2621C36.9711 22.216 33.278 23.1375 29.5671 22.8991L32.3966 15.8248C32.4528 15.684 32.4715 15.5311 32.4508 15.381C32.4301 15.2308 32.3707 15.0887 32.2785 14.9684L20.9035 0.0933789L19.5145 1.1565L30.5865 15.6367L27.7657 22.6903H27.7646C26.9851 22.5594 26.2149 22.3778 25.459 22.1467V16.3749H23.709V25.0374C22.7215 24.8342 21.8343 24.2969 21.1968 23.5159C20.5593 22.7349 20.2104 21.7581 20.209 20.7499V18.1249C20.2091 17.8928 20.117 17.6702 19.953 17.5059L19.5462 17.1001C18.6438 16.2026 17.9284 15.1351 17.4414 13.9592C16.9544 12.7834 16.7054 11.5226 16.709 10.2499V5.87494H14.959V8.70774L7.75664 0.0649414L6.41133 1.18494L15.0301 11.5274C15.3042 14.0289 16.4027 16.368 18.1527 18.1763C17.0726 19.4844 16.1854 20.9404 15.5179 22.4999H14.959C14.7269 22.4999 14.5042 22.5919 14.3399 22.7559L9.34695 27.7499H0.0839844V29.4999H9.70899C9.9411 29.5 10.1638 29.408 10.328 29.244L15.321 24.2499H17.5348C17.3412 25.9465 16.5764 27.5267 15.3659 28.731L14.3399 29.7559C14.2291 29.8668 14.1502 30.0055 14.1113 30.1573C14.0724 30.3092 14.075 30.4687 14.1188 30.6193C14.1626 30.7698 14.246 30.9058 14.3603 31.0131C14.4746 31.1204 14.6157 31.195 14.7687 31.2292L22.6437 32.9792C22.7061 32.9932 22.77 33.0001 22.834 32.9999H27.209C27.4411 32.9999 27.6636 33.0921 27.8277 33.2562C27.9918 33.4203 28.084 33.6429 28.084 33.8749C28.084 34.107 27.9918 34.3296 27.8277 34.4937C27.6636 34.6578 27.4411 34.7499 27.209 34.7499H22.9302L16.8993 33.4101L16.5187 35.1185L22.6437 36.4792C22.7061 36.4931 22.77 36.5001 22.834 36.4999H28.959C29.1911 36.4999 29.4136 36.5921 29.5777 36.7562C29.7418 36.9203 29.834 37.1429 29.834 37.3749C29.834 37.607 29.7418 37.8296 29.5777 37.9937C29.4136 38.1578 29.1911 38.2499 28.959 38.2499H22.9302L16.8993 36.9101L16.5187 38.6185L22.6437 39.9792C22.7061 39.9931 22.77 40.0001 22.834 39.9999H27.209C27.4411 39.9999 27.6636 40.0921 27.8277 40.2562C27.9918 40.4203 28.084 40.6429 28.084 40.8749C28.084 41.107 27.9918 41.3296 27.8277 41.4937C27.6636 41.6578 27.4411 41.7499 27.209 41.7499H22.9302L16.8993 40.4101L16.5187 42.1185L22.6437 43.4792C22.7061 43.4931 22.77 43.5001 22.834 43.4999H25.459C25.6911 43.4999 25.9136 43.5921 26.0777 43.7562C26.2418 43.9203 26.334 44.1429 26.334 44.3749C26.334 44.607 26.2418 44.8296 26.0777 44.9937C25.9136 45.1578 25.6911 45.2499 25.459 45.2499H22.9302L15.2543 43.5437L8.35055 40.0918C8.22882 40.0315 8.09483 40.0001 7.95898 39.9999H0.0839844V41.7499H7.75227L14.5674 45.1581C14.6315 45.1897 14.699 45.2135 14.7687 45.2292L22.6437 46.9792C22.7061 46.9932 22.77 47.0001 22.834 46.9999H25.459C26.1549 46.999 26.822 46.7222 27.3141 46.2301C27.8062 45.738 28.0831 45.0709 28.084 44.3749C28.0845 44.0434 28.0213 43.7148 27.898 43.407C28.3868 43.2745 28.8265 43.0028 29.1635 42.6249H37.4552C39.014 42.6246 40.5444 42.2076 41.8879 41.417C43.2313 40.6264 44.339 39.4911 45.0962 38.1285C46.839 34.992 47.5919 31.4015 47.2559 27.8291C46.9199 24.2567 45.5108 20.8695 43.2138 18.1129ZM17.4407 22.4999C17.7406 21.8804 18.0808 21.2812 18.459 20.7062V20.7499C18.458 21.3572 18.5484 21.9611 18.727 22.5415C18.6404 22.5137 18.5499 22.4997 18.459 22.4999H17.4407ZM43.5671 37.2787C42.9612 38.3683 42.0751 39.2763 41.0006 39.9086C39.926 40.5408 38.702 40.8745 37.4552 40.8749H29.834C29.8345 40.5434 29.7713 40.2148 29.648 39.907C30.2039 39.756 30.6947 39.4262 31.0446 38.9686C31.3944 38.511 31.584 37.951 31.584 37.3749C31.584 36.7989 31.3944 36.2389 31.0446 35.7813C30.6947 35.3237 30.2039 34.9939 29.648 34.8429C29.7713 34.5351 29.8345 34.2065 29.834 33.8749C29.8331 33.179 29.5562 32.5119 29.0641 32.0198C28.572 31.5277 27.9049 31.2509 27.209 31.2499H22.9302L16.7035 29.8664C18.2753 28.2551 19.2055 26.126 19.3198 23.8781C19.8622 24.791 20.6327 25.5473 21.5556 26.0727C22.4784 26.598 23.522 26.8745 24.584 26.8749C24.6989 26.875 24.8127 26.8524 24.9189 26.8084C25.025 26.7644 25.1215 26.7 25.2028 26.6187C25.284 26.5375 25.3485 26.441 25.3924 26.3348C25.4364 26.2287 25.459 26.1149 25.459 25.9999V23.9699C28.0707 24.6949 30.8041 24.8721 33.4876 24.4904C36.171 24.1087 38.7466 23.1763 41.0526 21.7518C41.6949 21.3544 42.212 20.7839 42.5445 20.1057C43.3014 21.1521 43.9284 22.2866 44.4115 23.4843C43.9616 23.9672 43.4487 24.3873 42.8868 24.7334C41.4266 25.6313 39.8717 26.3653 38.2504 26.922L38.8191 28.5779C40.5623 27.9792 42.2339 27.1894 43.8034 26.2231C44.2367 25.9574 44.6465 25.6552 45.0284 25.3196C45.3746 26.5979 45.5601 27.9144 45.5807 29.2385C43.3278 30.6183 40.8938 31.6777 38.3488 32.3864L38.8191 34.0729C41.1406 33.4265 43.3761 32.5041 45.4779 31.3254C45.2373 33.4159 44.588 35.4387 43.5671 37.2787Z" fill="#828282"/>
<path d="M33.4121 35.0589L33.2559 33.3159C33.8212 33.2652 34.3925 33.1967 34.9537 33.1122L35.2142 34.8426C34.6186 34.9324 34.0122 35.0051 33.4121 35.0589Z" fill="#828282"/>
<path d="M33.4296 29.7815L33.2393 28.0419C33.8023 27.9802 34.3698 27.897 34.9257 27.7944L35.2432 29.5154C34.6453 29.6257 34.0351 29.7152 33.4296 29.7815Z" fill="#828282"/>
</svg>
