<svg width="57" height="56" viewBox="0 0 57 56" fill="none" xmlns="http://www.w3.org/2000/svg">
<path d="M45.6818 39.4934L45.7724 39.7371L46.0124 39.637C49.3649 38.2389 53.4101 39.3242 55.5519 42.5368L56.3162 43.6832L48.2366 49.1784C42.5552 53.0425 37.9471 55.75 29.8924 55.75C25.7111 55.75 22.9129 55.1041 19.9285 54.4149C15.9805 53.5031 11.4985 52.4688 2.3125 52.4688H0.921875V36.5625H8.48934H8.5645L8.62719 36.5211C11.4387 34.6629 13.5957 33.4465 15.9395 33.5944L15.9396 33.5944C17.3782 33.6849 18.7802 34.2645 20.4892 35.2719L20.6722 35.3797L20.8082 35.2167C23.1978 32.3515 26.5851 30.5226 30.2847 30.097L30.5229 30.0696L30.5055 29.8305C30.178 25.3316 28.4443 21.029 25.6 17.6467L25.4577 17.4774L25.2724 17.598C22.2589 19.5581 18.0827 19.3024 15.3255 16.5451L15.1488 16.7219L15.3255 16.5451C12.1034 13.323 10.3281 8.99646 10.3281 4.35892V0.25H14.437C19.0079 0.25 23.3172 2.04187 26.5728 5.29771L26.5728 5.29772C28.0754 6.80013 28.9023 8.7965 28.9023 10.9214C28.9023 12.5283 28.4286 14.0607 27.5491 15.3619L27.4422 15.5201L27.5666 15.6649C29.3379 17.7261 30.7402 20.0983 31.7196 22.6498L31.953 23.2579L32.1864 22.6498C33.1658 20.0983 34.5681 17.7262 36.3395 15.6649L36.4639 15.5201L36.357 15.3619C34.2831 12.2938 34.577 8.05377 37.3332 5.29772L37.1564 5.12094L37.3332 5.29771C40.5889 2.04187 44.8982 0.25 49.4691 0.25H53.578V4.35881C53.578 8.99635 51.8027 13.3229 48.5806 16.545C45.8235 19.3022 41.6471 19.5579 38.6338 17.5979L38.4484 17.4773L38.3061 17.6465C35.462 21.0285 33.7283 25.3308 33.4007 29.8294L33.3833 30.0686L33.6215 30.0959C39.0926 30.7244 43.7894 34.4013 45.6818 39.4934ZM50.7969 3.28125V3.03125H50.5469H49.4692C45.641 3.03125 42.0288 4.53537 39.2998 7.26433C37.7101 8.85409 37.3751 11.2282 38.2904 13.1496L38.4426 13.4691L38.6928 13.2189L44.117 7.79467L46.0837 9.76139L40.6596 15.1855L40.4093 15.4358L40.7288 15.588C42.6503 16.5032 45.0242 16.1683 46.6141 14.5785L46.4373 14.4017L46.6141 14.5785C49.3121 11.8804 50.7969 8.24972 50.7969 4.35892V3.28125ZM25.2133 13.2189L25.4636 13.4691L25.6158 13.1496C26.5311 11.2282 26.1961 8.85408 24.6063 7.26433C21.8774 4.53537 18.2653 3.03125 14.437 3.03125H13.3594H13.1094V3.28125V4.35881C13.1094 8.24972 14.5941 11.8804 17.2921 14.5784L17.4689 14.4016L17.2922 14.5784C18.882 16.1682 21.256 16.5031 23.1774 15.5879L23.497 15.4357L23.2467 15.1854L17.8225 9.76128L19.7891 7.79466L25.2133 13.2189ZM43.1607 41.3249L43.3298 41.2239L43.2712 41.0358C41.7611 36.1932 37.1611 32.7812 31.9531 32.7812C28.5889 32.7812 25.4304 34.214 23.2194 36.6792L23.0275 36.8932L23.266 37.0536C23.4898 37.2041 23.7183 37.3585 23.953 37.5175C24.6139 37.9654 25.3815 38.2041 26.1723 38.2041L31.9531 38.2031C35.1742 38.2031 38.0079 40.1289 39.2464 42.9757L39.3433 43.1985L39.5687 43.108C40.7987 42.6143 42.0031 42.0161 43.1607 41.3249ZM3.95312 39.3438H3.70312V39.5938V49.4485V49.6951L3.9497 49.6985C12.3657 49.8138 16.696 50.8139 20.5507 51.7041L20.5543 51.705L20.5577 51.7057C23.4803 52.3807 26.0262 52.9688 29.8924 52.9688C33.2534 52.9688 35.8771 52.5193 38.4528 51.5277C41.0232 50.5382 43.5347 49.0127 46.6725 46.8786L52.0386 43.2289L52.3288 43.0315L52.0474 42.8218C50.3935 41.5891 48.0153 41.4251 46.1408 42.7172C41.6332 45.8241 36.2453 47.5758 31.2702 47.5759C28.5783 47.5759 25.5191 47.118 22.5587 46.1312L21.9068 45.9139L22.7864 43.2754L23.4382 43.4927L23.5173 43.2555L23.4382 43.4927C25.8014 44.2804 28.262 44.7159 30.752 44.7873C32.5868 44.8398 34.4942 44.615 36.3908 44.1408L36.697 44.0643L36.5524 43.7838C35.6852 42.1011 33.9316 40.9833 31.9531 40.9833L26.1722 40.9843C26.1722 40.9843 26.1722 40.9843 26.1722 40.9843C24.8241 40.9841 23.5176 40.582 22.3931 39.8201C20.8769 38.793 19.6205 37.9584 18.5518 37.369C17.4864 36.7815 16.5796 36.4214 15.765 36.3702C14.7119 36.3042 13.5033 36.8218 12.3847 37.4513C11.6358 37.8729 10.8934 38.3656 10.2417 38.7982C9.94219 38.997 9.66184 39.1831 9.40877 39.3438H3.95312Z" fill="#828282" stroke="white" stroke-width="0.5"/>
</svg>
