<svg width="24" height="24" viewBox="0 0 24 24" fill="none" xmlns="http://www.w3.org/2000/svg">
<path d="M13.2186 5.36602L12.3947 3.93905C12.0998 3.4283 11.4432 3.26115 10.9411 3.56893C10.0974 4.086 9.43434 4.85147 9.04242 5.75096C7.50075 5.04591 5.77964 5.08899 4.31934 5.75222C3.92751 4.85199 3.26413 4.08586 2.41987 3.56841C1.91891 3.26143 1.26196 3.42643 0.966321 3.93854L0.142492 5.36555C-0.0271484 5.65946 -0.0462265 6.00638 0.0901329 6.31749C0.225039 6.62518 0.489555 6.84371 0.815805 6.91693C1.28845 7.02314 1.74482 7.21735 2.15362 7.4843C1.79324 7.96046 1.50627 8.4961 1.30851 9.07594C1.22952 9.3076 1.25948 9.5626 1.38102 9.77072C0.851383 12.2343 2.07609 14.6776 4.27907 15.7684C3.84187 16.3258 3.62245 16.9998 3.62245 17.6739C3.62245 17.9818 3.8107 18.2624 4.09556 18.3803C4.05838 18.8121 4.36743 19.198 4.79915 19.2533V19.4695C4.79915 20.0851 5.30001 20.5859 5.91557 20.5859C6.21135 20.5859 6.48046 20.47 6.68043 20.2816C6.8804 20.47 7.14951 20.5859 7.44529 20.5859C8.0609 20.5859 8.56171 20.0851 8.56171 19.4695V19.2533C8.99334 19.198 9.30248 18.8122 9.26531 18.3803C9.54267 18.2655 9.73842 17.9922 9.73842 17.6739C9.73842 17.2854 9.66065 16.9821 9.66065 16.9821C9.5587 16.5362 9.36117 16.1246 9.08212 15.769C9.294 15.664 9.49996 15.5455 9.69801 15.4122C9.85907 15.3038 9.90178 15.0853 9.79336 14.9243C9.68493 14.7631 9.46645 14.7204 9.30539 14.829C8.53078 15.3503 7.62304 15.6259 6.68034 15.6259C3.74451 15.6259 1.49615 12.9608 2.04337 10.0435H3.78749C5.62931 10.0435 7.36762 9.36924 8.72034 8.13765L10.0674 9.48479C10.404 9.82135 10.8443 10.0166 11.3161 10.0408C11.5876 11.4826 11.1719 12.9022 10.2775 13.9581C10.152 14.1063 10.1704 14.3281 10.3185 14.4536C10.4668 14.5792 10.6886 14.5606 10.814 14.4126C11.8602 13.1775 12.3484 11.4893 11.9794 9.77171C12.1014 9.56349 12.1315 9.30788 12.0523 9.07571C11.8568 8.50271 11.5701 7.96547 11.2066 7.48519C11.6156 7.21796 12.0723 7.02352 12.5452 6.9173C13.2336 6.7628 13.5732 5.98041 13.2186 5.36602ZM6.32896 19.4696C6.32896 19.6975 6.14357 19.8829 5.91567 19.8829C5.68776 19.8829 5.50237 19.6975 5.50237 19.4696V19.2602H6.32896V19.4696ZM7.85868 19.4696C7.85868 19.6975 7.67325 19.8829 7.44539 19.8829C7.21753 19.8829 7.03209 19.6975 7.03209 19.4696V19.2602H7.85868V19.4696ZM4.38571 17.1389L4.38613 17.139C4.47984 16.729 4.6777 16.3565 4.96199 16.0503C5.50223 16.231 6.0801 16.3291 6.68048 16.3291C7.27134 16.3291 7.85025 16.234 8.39925 16.0508C8.68382 16.3572 8.88178 16.7296 8.97534 17.1389C9.01518 17.3133 9.03539 17.4933 9.03539 17.6739C9.03539 17.7076 9.00792 17.7351 8.97417 17.7351H8.95579L8.58829 17.1839C8.48067 17.0224 8.26228 16.9787 8.10079 17.0864C7.93926 17.1941 7.89557 17.4124 8.00329 17.5739C8.31281 18.0382 8.23631 17.9235 8.54746 18.3901C8.59495 18.4614 8.54465 18.5571 8.45812 18.5571H4.90288C4.81715 18.5571 4.76564 18.4621 4.81354 18.3901L5.35771 17.574C5.46543 17.4124 5.42179 17.1941 5.26021 17.0864C5.09878 16.9788 4.88038 17.0224 4.77267 17.1839L4.38684 17.7351C4.35309 17.7351 4.32562 17.7076 4.32562 17.6739C4.32567 17.4994 4.34699 17.3094 4.38571 17.1389ZM0.96993 6.23091C0.744414 6.18024 0.634305 5.92004 0.751399 5.71711L1.57527 4.29015C1.6724 4.12196 1.88826 4.0674 2.05246 4.16799C2.78962 4.61982 3.36473 5.29364 3.69604 6.08438C3.30009 6.32785 2.93765 6.618 2.61567 6.94772C2.11715 6.60825 1.55432 6.36216 0.96993 6.23091ZM11.3937 9.34022C11.0804 9.3345 10.7868 9.20982 10.5646 8.98763L8.97478 7.39772C8.83762 7.26057 8.61487 7.26043 8.47762 7.39777C7.22489 8.65055 5.55923 9.34046 3.78754 9.34046H1.96724C1.96762 9.32775 1.96987 9.31515 1.97404 9.30291C2.97459 6.36947 6.38282 5.08524 9.06239 6.54614C9.21904 6.63146 9.24698 6.7351 9.25439 6.80565C9.27314 6.98461 9.42407 7.12055 9.60403 7.12055C9.79078 7.12055 9.88814 7.10799 9.98746 7.19625C10.9649 8.06532 11.3894 9.21638 11.3937 9.34022ZM10.7448 6.94857C10.4551 6.65143 10.2634 6.45788 9.87093 6.42272C9.81942 6.30821 9.74545 6.20494 9.65259 6.11485C9.98184 5.31108 10.5622 4.62591 11.3086 4.16841C11.4734 4.06735 11.6891 4.12304 11.7858 4.29057L12.6097 5.71749C12.727 5.92065 12.6164 6.18071 12.3911 6.23133C11.8065 6.36268 11.2435 6.60886 10.7448 6.94857Z" fill="#283B49"/>
<path d="M4.33594 11.5171V11.9028C4.33594 12.097 4.49334 12.2543 4.6875 12.2543C4.88166 12.2543 5.03906 12.097 5.03906 11.9028V11.5171C5.03906 11.3229 4.88166 11.1655 4.6875 11.1655C4.49334 11.1655 4.33594 11.3229 4.33594 11.5171Z" fill="#283B49"/>
<path d="M8.3501 11.5171V11.9028C8.3501 12.097 8.5075 12.2543 8.70166 12.2543C8.89582 12.2543 9.05322 12.097 9.05322 11.9028V11.5171C9.05322 11.3229 8.89582 11.1655 8.70166 11.1655C8.5075 11.1655 8.3501 11.3229 8.3501 11.5171Z" fill="#283B49"/>
<path d="M6.95878 11.6604C6.89208 11.737 6.7958 11.7808 6.69469 11.7808C6.59358 11.7808 6.49734 11.7369 6.43059 11.6604C6.303 11.514 6.08095 11.4988 5.93456 11.6263C5.78817 11.7539 5.77294 11.9759 5.90048 12.1223C6.10078 12.3521 6.39023 12.484 6.69464 12.484C6.99905 12.484 7.2885 12.3522 7.4888 12.1223C7.61635 11.9759 7.60111 11.7539 7.45472 11.6263C7.30842 11.4988 7.08633 11.514 6.95878 11.6604Z" fill="#283B49"/>
<path d="M16.0986 11.7288V12.1211C16.0986 12.3153 16.256 12.4727 16.4502 12.4727C16.6444 12.4727 16.8018 12.3153 16.8018 12.1211V11.7288C16.8018 11.5346 16.6444 11.3772 16.4502 11.3772C16.256 11.3772 16.0986 11.5346 16.0986 11.7288Z" fill="#283B49"/>
<path d="M20.1826 11.7288V12.1211C20.1826 12.3153 20.34 12.4727 20.5342 12.4727C20.7284 12.4727 20.8857 12.3153 20.8857 12.1211V11.7288C20.8857 11.5346 20.7284 11.3772 20.5342 11.3772C20.34 11.3772 20.1826 11.5346 20.1826 11.7288Z" fill="#283B49"/>
<path d="M18.7658 11.8784C18.6967 11.9576 18.5971 12.0031 18.4924 12.0031C18.3878 12.0031 18.2882 11.9576 18.2191 11.8785C18.0916 11.732 17.8695 11.7168 17.7232 11.8443C17.5768 11.9719 17.5615 12.194 17.689 12.3403C17.8916 12.5728 18.1844 12.7062 18.4924 12.7062C18.8003 12.7062 19.0931 12.5729 19.2958 12.3404C19.4234 12.194 19.4081 11.972 19.2617 11.8444C19.1154 11.7167 18.8933 11.732 18.7658 11.8784Z" fill="#283B49"/>
<path d="M23.2116 7.95009C23.4198 7.56337 23.5855 7.15692 23.705 6.73898C23.9144 6.00656 23.1053 5.42329 22.4782 5.83284C22.2182 6.00276 21.9444 6.15473 21.6619 6.28598C20.7312 5.62889 19.6398 5.28271 18.4921 5.28271C15.4552 5.28271 12.9844 7.75354 12.9844 10.7906C12.9844 13.0113 14.3056 14.9291 16.2033 15.7996C15.9716 16.0525 15.7821 16.3425 15.6446 16.6578C15.4068 17.2032 15.3871 17.6272 15.3871 18.0494C15.3871 18.6723 15.894 19.1791 16.5169 19.1791H16.5325V19.4304C16.5325 20.0677 17.0509 20.586 17.688 20.586C18.0002 20.586 18.2839 20.4615 18.492 20.2597C18.7001 20.4615 18.9838 20.586 19.296 20.586C19.9332 20.586 20.4515 20.0676 20.4515 19.4304V19.1791H20.4675C21.0904 19.1791 21.5972 18.6723 21.5972 18.0494C21.5972 17.6272 21.5775 17.2032 21.3397 16.6577C21.2024 16.3427 21.0132 16.0531 20.7819 15.8004C21.0279 15.6878 21.2664 15.557 21.4953 15.4078C21.658 15.3018 21.7039 15.084 21.5979 14.9213C21.4918 14.7586 21.2739 14.7127 21.1114 14.8188C20.3319 15.3267 19.4262 15.5952 18.4921 15.5952C15.961 15.5952 13.8809 13.6278 13.7003 11.1419L18.0153 11.141C18.0174 11.141 18.0196 11.141 18.0218 11.1409C19.1194 11.1202 20.1602 10.8057 21.0581 10.25C21.707 10.7492 22.4848 11.0536 23.284 11.1251C23.2109 12.1736 22.7977 13.1711 22.0995 13.9638C21.9712 14.1095 21.9853 14.3317 22.131 14.46C22.2768 14.5883 22.4989 14.5742 22.6273 14.4285C23.5124 13.4234 23.9999 12.1314 23.9999 10.7906C24 9.7837 23.7281 8.80631 23.2116 7.95009ZM16.5324 18.0494V18.476H16.5168C16.2816 18.476 16.0902 18.2846 16.0902 18.0494C16.0902 17.8617 16.0905 17.6442 16.1436 17.3916C16.2695 17.4848 16.3997 17.5747 16.5324 17.6593V18.0494ZM19.7484 19.4304C19.7484 19.6799 19.5455 19.8829 19.296 19.8829C19.0466 19.8829 18.8436 19.6799 18.8436 19.4304V19.0964C18.8436 18.9022 18.6862 18.7448 18.492 18.7448C18.2978 18.7448 18.1405 18.9022 18.1405 19.0964V19.4304C18.1405 19.6799 17.9375 19.8829 17.688 19.8829C17.4386 19.8829 17.2357 19.6799 17.2357 19.4304V18.4009H19.7484V19.4304ZM20.8417 17.3908C20.8835 17.5931 20.8941 17.797 20.8941 18.0494C20.8941 18.2846 20.7028 18.476 20.4675 18.476H20.4516V18.0494V17.6595C20.5847 17.5746 20.7154 17.4844 20.8417 17.3908ZM16.9308 16.0725C17.4261 16.2192 17.95 16.2983 18.4921 16.2983C19.0255 16.2983 19.5508 16.2218 20.0542 16.0731C20.2642 16.2533 20.4409 16.4684 20.5777 16.7075C20.3722 16.8706 20.1487 17.0251 19.9202 17.1611C19.8137 17.2245 19.7484 17.3393 19.7484 17.4632V17.6977H17.2356V17.463C17.2356 17.3391 17.1704 17.2244 17.0639 17.161C16.8355 17.025 16.6121 16.8706 16.4067 16.7075C16.5436 16.4683 16.7206 16.253 16.9308 16.0725ZM18.0118 10.4379L13.7004 10.4389C13.8811 7.95314 15.9611 5.98589 18.4921 5.98589C19.555 5.98589 20.5623 6.32611 21.4052 6.96979C21.5115 7.05098 21.6502 7.06223 21.7647 7.01006C22.1464 6.84632 22.5158 6.64828 22.8628 6.42145C22.95 6.36454 23.0573 6.44592 23.029 6.54557C22.9061 6.97537 22.7278 7.39176 22.4991 7.78312C22.4972 7.7864 22.4959 7.78996 22.4941 7.79329C21.5431 9.41353 19.8687 10.4018 18.0118 10.4379ZM21.6639 9.82054C22.0839 9.48178 22.4619 9.08414 22.7857 8.63329C23.0657 9.18932 23.2342 9.79401 23.2822 10.418C22.709 10.3559 22.1505 10.1502 21.6639 9.82054Z" fill="#283B49"/>
</svg>
