<svg width="24" height="24" viewBox="0 0 24 24" fill="none" xmlns="http://www.w3.org/2000/svg">
<path d="M17.5984 16.4H14.3984V14.1505C15.8815 13.2942 16.796 11.7127 16.7984 10.0002V8.0002H17.1984V7.20021H16.0476C15.4929 7.19951 15.0107 6.81942 14.8804 6.28023L13.9836 3.09229C13.9352 2.91959 13.7778 2.80024 13.5984 2.80029C13.4197 2.80024 13.2627 2.91879 13.2137 3.09069L12.3897 5.98823C12.2117 6.70012 11.5723 7.19971 10.8385 7.20021H6.79857V8.0002H7.19857V10.0002C7.20092 11.7127 8.11545 13.2942 9.59852 14.1505V16.8C9.59852 16.9061 9.64072 17.0078 9.71572 17.0828L11.7157 19.0828C11.8719 19.2389 12.1251 19.2389 12.2813 19.0828L14.164 17.2H17.5984C18.7024 17.2013 19.597 18.096 19.5983 19.2V23.1999H4.39862V22.7999H3.59863V23.5999C3.59863 23.8208 3.77773 23.9999 3.99863 23.9999H19.9983C20.2192 23.9999 20.3983 23.8208 20.3983 23.5999V19.2C20.3966 17.6544 19.144 16.4018 17.5984 16.4ZM13.5984 16.6344L11.9985 18.2344L10.3985 16.6344V14.5201C11.4325 14.8934 12.5645 14.8934 13.5984 14.5201V16.6344ZM11.9985 14.0001C9.78937 14.0001 7.99855 12.2093 7.99855 10.0002V8.0002H10.8385C11.9358 8.0028 12.8942 7.25871 13.1637 6.19503L13.5976 4.66906L14.1088 6.48542C14.3267 7.35701 15.1002 7.97545 15.9984 7.9962V10.0002C15.9984 12.2093 14.2076 14.0001 11.9985 14.0001Z" fill="#283B49"/>
<path d="M7.59856 16.4001H6.39858V17.2001H7.59856C8.70309 17.2001 9.59852 18.0956 9.59852 19.2001C9.59852 20.3046 8.70309 21.2001 7.59856 21.2001H5.5986C4.93586 21.2001 4.39862 20.6628 4.39862 20.0001H3.59863C3.59993 21.1041 4.49462 21.9987 5.5986 22H7.59856C9.14493 22 10.3985 20.7465 10.3985 19.2001C10.3985 17.6537 9.14493 16.4001 7.59856 16.4001Z" fill="#283B49"/>
<path d="M21.0599 14.7136C20.7759 14.4602 20.4433 14.2674 20.0824 14.147V14.1454C20.2866 13.8725 20.3974 13.5411 20.3984 13.2002C20.3984 12.3166 19.682 11.6002 18.7984 11.6002V6.98113C18.8531 3.3 16.0015 0.227611 12.3265 0.00806487C8.57539 -0.173132 5.3877 2.72091 5.20655 6.47199C5.20125 6.58134 5.19865 6.69084 5.19865 6.80029V11.6002C4.31502 11.6002 3.59868 12.3165 3.59868 13.2002C3.59968 13.541 3.71048 13.8725 3.91467 14.1453C2.4485 14.6368 1.65837 16.2239 2.14986 17.69C2.53165 18.829 3.59743 19.5975 4.79866 19.6H7.19861V18.8001H4.79866C3.69413 18.8001 2.79869 17.9046 2.79869 16.8001C2.79869 15.6956 3.69413 14.8001 4.79866 14.8001H7.19861V14.0002H5.19865C4.75681 14.0002 4.39866 13.642 4.39866 13.2002C4.39866 12.7583 4.75681 12.4002 5.19865 12.4002H5.59864C5.81954 12.4002 5.99863 12.2211 5.99863 12.0002V6.80029C5.99848 3.48665 8.68464 0.8003 11.9983 0.80015C12.0953 0.80015 12.1924 0.8025 12.2893 0.8072C15.5369 1.0078 18.0521 3.72774 17.9984 6.98108V12.0002C17.9984 12.2211 18.1775 12.4002 18.3984 12.4002H18.7984C19.2402 12.4002 19.5984 12.7583 19.5984 13.2002C19.5984 13.642 19.2402 14.0002 18.7984 14.0002H16.7984V14.8001H19.1984C20.3029 14.8001 21.1984 15.6956 21.1983 16.8001C21.1983 17.292 21.017 17.7666 20.6892 18.1333L21.2852 18.6669C22.3146 17.513 22.2137 15.743 21.0599 14.7136Z" fill="#283B49"/>
<path d="M9.99882 8.90039C9.61222 8.90039 9.29883 9.21378 9.29883 9.60038C9.29883 9.98697 9.61222 10.3004 9.99882 10.3004C10.3854 10.3004 10.6988 9.98697 10.6988 9.60038C10.6984 9.21398 10.3852 8.90084 9.99882 8.90039ZM9.89882 9.60038C9.89882 9.54513 9.94357 9.50038 9.99882 9.50038C10.0541 9.50038 10.0988 9.54513 10.0988 9.60038C10.0988 9.71037 9.89882 9.71037 9.89882 9.60038Z" fill="#283B49"/>
<path d="M13.9988 8.90039C13.6122 8.90039 13.2988 9.21378 13.2988 9.60038C13.2993 9.98677 13.6124 10.2999 13.9988 10.3004C14.3854 10.3004 14.6988 9.98697 14.6988 9.60038C14.6988 9.21378 14.3854 8.90039 13.9988 8.90039ZM13.8988 9.60038C13.8988 9.54513 13.9436 9.50038 13.9988 9.50038C14.0541 9.50038 14.0988 9.54513 14.0988 9.60038C14.0988 9.71037 13.8988 9.71037 13.8988 9.60038Z" fill="#283B49"/>
<path d="M12.8985 11.6003C12.8985 12.0974 12.4955 12.5003 11.9985 12.5003C11.5015 12.5003 11.0985 12.0974 11.0985 11.6003H10.4985C10.4985 12.4288 11.1701 13.1003 11.9985 13.1003C12.8269 13.1003 13.4985 12.4288 13.4985 11.6003H12.8985Z" fill="#283B49"/>
</svg>
