<svg width="24" height="24" viewBox="0 0 24 24" fill="none" xmlns="http://www.w3.org/2000/svg">
<path d="M21.3399 22.7828L20.9514 19.132C20.8902 18.5638 20.6548 18.0285 20.2775 17.5994C19.9001 17.1702 19.3994 16.8683 18.8437 16.7348L14.5421 15.7073L14.3979 14.0087C15.402 13.2344 16.1555 12.1812 16.5641 10.9808C16.6187 10.9847 16.6732 10.9889 16.7263 10.9889C16.973 10.9966 17.2182 10.9487 17.4439 10.8487C17.6695 10.7487 17.8698 10.5993 18.0298 10.4114C18.2236 10.1778 18.3547 9.89873 18.4107 9.60047C18.4667 9.3022 18.4458 8.99458 18.35 8.70662C18.2979 8.55305 18.2138 8.41229 18.1032 8.29367C17.9926 8.17504 17.8581 8.08125 17.7086 8.01849C17.6968 8.01362 17.685 8.01043 17.6732 8.00612V6.12437C17.6732 0.91468 12.7395 0.854492 12.6898 0.854492H7.1531C7.06608 0.854492 6.98261 0.889062 6.92108 0.950598C6.85954 1.01213 6.82497 1.09559 6.82497 1.18262C6.82959 1.53002 6.90793 1.87248 7.05481 2.18734C7.20169 2.5022 7.41375 2.78229 7.67697 3.00905C7.26517 3.26068 6.9248 3.61376 6.68844 4.03452C6.45208 4.45528 6.32762 4.92964 6.32697 5.41224V8.0063C6.31516 8.01062 6.30316 8.0138 6.29135 8.01868C6.14183 8.08147 6.00734 8.17527 5.89677 8.29389C5.7862 8.41251 5.70206 8.55325 5.64991 8.7068C5.55414 8.99477 5.53328 9.30239 5.58931 9.60064C5.64534 9.8989 5.77641 10.178 5.97016 10.4116C6.13018 10.5995 6.33046 10.749 6.55615 10.849C6.78183 10.949 7.02713 10.9968 7.27385 10.9891C7.32691 10.9891 7.38147 10.9849 7.43604 10.981C7.84467 12.1814 8.59822 13.2347 9.60241 14.0091L9.45804 15.7075L5.15622 16.7348C4.60061 16.8683 4.09986 17.1703 3.72257 17.5994C3.34528 18.0286 3.10992 18.5639 3.04873 19.132L2.66004 22.7828C2.65085 22.8694 2.67642 22.9561 2.73113 23.0238C2.78585 23.0915 2.86522 23.1347 2.95179 23.1439C2.9636 23.1451 2.97523 23.1456 2.98685 23.1456C3.06776 23.1455 3.14576 23.1155 3.2059 23.0613C3.26605 23.0072 3.30409 22.9328 3.31273 22.8524L3.70141 19.2016C3.74806 18.7682 3.92757 18.3599 4.21534 18.0325C4.50311 17.7052 4.88506 17.4749 5.30885 17.3731L7.80522 16.7768L7.03647 20.4846C7.02474 20.5415 7.0283 20.6005 7.04679 20.6555C7.06528 20.7105 7.09804 20.7597 7.14173 20.798C7.18541 20.8362 7.23847 20.8622 7.29547 20.8733C7.35248 20.8843 7.4114 20.8801 7.46622 20.8609L9.43666 20.1698V22.8175C9.43666 22.9045 9.47123 22.988 9.53277 23.0495C9.5943 23.111 9.67776 23.1456 9.76479 23.1456C9.85181 23.1456 9.93527 23.111 9.99681 23.0495C10.0583 22.988 10.0929 22.9045 10.0929 22.8175V17.6781C10.3322 17.9475 10.6259 18.1631 10.9546 18.3108C11.2834 18.4585 11.6396 18.5348 12 18.5348C12.3603 18.5348 12.7166 18.4585 13.0453 18.3108C13.374 18.1631 13.6677 17.9475 13.907 17.6781V22.8175C13.907 22.9045 13.9416 22.988 14.0031 23.0495C14.0647 23.111 14.1481 23.1456 14.2352 23.1456C14.3222 23.1456 14.4056 23.111 14.4672 23.0495C14.5287 22.988 14.5633 22.9045 14.5633 22.8175V20.1698L16.5337 20.8609C16.5886 20.8802 16.6475 20.8845 16.7046 20.8735C16.7617 20.8625 16.8148 20.8365 16.8585 20.7982C16.9022 20.7599 16.935 20.7107 16.9535 20.6556C16.972 20.6005 16.9755 20.5415 16.9637 20.4846L16.1949 16.7768L18.6913 17.3731C19.1151 17.4749 19.497 17.7053 19.7848 18.0326C20.0726 18.3599 20.2522 18.7682 20.2989 19.2016L20.6874 22.8524C20.696 22.9328 20.734 23.0073 20.7942 23.0614C20.8543 23.1155 20.9324 23.1455 21.0133 23.1456C21.0249 23.1456 21.0365 23.1456 21.0485 23.1439C21.1351 23.1347 21.2144 23.0914 21.269 23.0237C21.3236 22.956 21.3492 22.8693 21.3399 22.7828ZM17.7375 8.93987C17.7917 9.11861 17.801 9.30799 17.7644 9.49117C17.7278 9.67435 17.6466 9.84566 17.5278 9.98987C17.4321 10.1007 17.313 10.1888 17.1791 10.2481C17.0452 10.3073 16.8998 10.3361 16.7535 10.3324C16.8841 9.77455 16.9555 9.20447 16.9667 8.63162C17.1295 8.57936 17.3045 8.57845 17.4678 8.62899C17.5324 8.65857 17.5898 8.70162 17.6363 8.75524C17.6828 8.80886 17.7173 8.87181 17.7375 8.93987ZM8.41872 3.37899C8.47845 3.35752 8.53068 3.31921 8.56911 3.2687C8.60754 3.21818 8.63052 3.15762 8.63528 3.09433C8.64004 3.03104 8.62637 2.96773 8.59593 2.91203C8.56548 2.85634 8.51957 2.81066 8.46372 2.78049C8.22727 2.64464 8.02103 2.46196 7.85763 2.24363C7.69424 2.0253 7.57713 1.77591 7.51347 1.51074H12.6903C12.867 1.51074 17.0175 1.56305 17.0175 6.12437V7.95005C16.9189 7.96442 16.8217 7.98655 16.7267 8.01624L16.1163 7.40087C15.8142 7.0949 15.6204 6.6986 15.5643 6.2723L15.4083 5.06912C15.4022 5.02299 15.3864 4.9787 15.3618 4.93917C15.3373 4.89963 15.3047 4.86577 15.266 4.83981C15.2274 4.81385 15.1837 4.7964 15.1379 4.78861C15.092 4.78082 15.045 4.78287 15 4.79462C14.0155 5.01549 13.0089 5.12213 12 5.11243C10.9911 5.12129 9.98449 5.01434 8.99997 4.79368C8.95489 4.78193 8.90781 4.77991 8.86189 4.78776C8.81596 4.79561 8.77222 4.81314 8.7336 4.83919C8.69497 4.86525 8.66233 4.89922 8.63784 4.93887C8.61336 4.97851 8.5976 5.02291 8.5916 5.06912L8.43579 6.27212C8.37962 6.69852 8.18565 7.09488 7.88341 7.40087L7.27497 8.0168C7.17986 7.98721 7.08256 7.96514 6.98397 7.9508V5.41224C6.98455 4.96682 7.12269 4.53244 7.3795 4.16851C7.63631 3.80457 7.99926 3.52883 8.41872 3.37899ZM6.47266 9.9893C6.3539 9.84511 6.27264 9.6738 6.2361 9.4906C6.19956 9.30741 6.20888 9.11802 6.26322 8.9393C6.28331 8.87117 6.31776 8.80812 6.36427 8.75443C6.41079 8.70074 6.46827 8.65765 6.53285 8.62805C6.69618 8.57757 6.87109 8.57856 7.03385 8.63087C7.04513 9.20366 7.11665 9.77367 7.24722 10.3315C7.10086 10.3352 6.9555 10.3064 6.82158 10.2472C6.68765 10.1881 6.5685 10.1 6.47266 9.9893ZM7.68747 8.53262L8.35066 7.8638C8.75404 7.45544 9.01282 6.92636 9.08754 6.35724L9.19741 5.50993C10.1212 5.68532 11.0597 5.77197 12 5.76868C12.9405 5.772 13.8791 5.68536 14.8031 5.50993L14.913 6.35724C14.9877 6.92636 15.2465 7.45544 15.6498 7.8638L16.3125 8.53262C16.2602 11.9502 14.2055 13.5111 12.975 14.14C12.673 14.2938 12.3389 14.374 12 14.374C11.6611 14.374 11.327 14.2938 11.025 14.14C9.79385 13.5111 7.73922 11.9502 7.68747 8.53262ZM7.79735 20.0496L8.50985 16.6084L9.43647 16.3872V19.4744L7.79735 20.0496ZM12 17.8786C11.4959 17.8779 11.0126 17.678 10.6554 17.3223C10.2982 16.9667 10.0961 16.4842 10.0933 15.9801L10.2245 14.4409C10.4006 14.5499 10.5699 14.6444 10.7267 14.7244C11.1211 14.9253 11.5576 15.03 12.0003 15.03C12.4429 15.03 12.8794 14.9253 13.2738 14.7244C13.4306 14.6444 13.5999 14.5499 13.7762 14.4409L13.9074 15.9807C13.9045 16.4848 13.7024 16.9673 13.345 17.3229C12.9876 17.6785 12.5041 17.8782 12 17.8786ZM16.2032 20.0496L14.5633 19.4744V16.3876L15.4897 16.6088L16.2032 20.0496Z" fill="#283B49"/>
<path d="M13.3723 12.0938C13.4483 12.0511 13.5041 11.98 13.5276 11.8961C13.5511 11.8122 13.5403 11.7224 13.4976 11.6464C13.4549 11.5705 13.3837 11.5147 13.2998 11.4912C13.2159 11.4677 13.1261 11.4785 13.0502 11.5212C12.7212 11.672 12.362 11.7456 12.0002 11.7363C11.6389 11.7456 11.2802 11.6724 10.9513 11.5223C10.8756 11.4795 10.7858 11.4685 10.7019 11.4917C10.6181 11.515 10.5468 11.5707 10.504 11.6464C10.4611 11.7222 10.4501 11.8119 10.4734 11.8958C10.4967 11.9797 10.5523 12.051 10.6281 12.0938C11.055 12.3017 11.5255 12.4041 12.0002 12.3925C12.4749 12.404 12.9454 12.3016 13.3723 12.0938Z" fill="#283B49"/>
<path d="M10.699 8.16026C10.7639 8.21817 10.8492 8.24789 10.9361 8.2429C11.023 8.23791 11.1044 8.1986 11.1623 8.13363C11.2202 8.06866 11.2499 7.98335 11.2449 7.89646C11.2399 7.80958 11.2006 7.72823 11.1356 7.67032C10.8616 7.45301 10.519 7.34059 10.1695 7.35326C9.81993 7.34059 9.47734 7.45301 9.20328 7.67032C9.14014 7.7279 9.10219 7.808 9.09763 7.89333C9.09307 7.97865 9.12226 8.06234 9.1789 8.12632C9.23608 8.19088 9.31618 8.23059 9.40218 8.23699C9.48818 8.2434 9.57329 8.21601 9.6394 8.16063C9.79849 8.06197 9.98198 8.00969 10.1692 8.00969C10.3564 8.00969 10.5399 8.06197 10.699 8.16063V8.16026Z" fill="#283B49"/>
<path d="M10.6224 9.03882C10.6225 8.94925 10.5959 8.86168 10.5462 8.7872C10.4965 8.71271 10.4258 8.65464 10.343 8.62034C10.2603 8.58604 10.1692 8.57704 10.0814 8.59449C9.99354 8.61194 9.91283 8.65506 9.84949 8.71837C9.78614 8.78169 9.743 8.86238 9.72551 8.95022C9.70802 9.03806 9.71698 9.12912 9.75125 9.21187C9.78551 9.29462 9.84355 9.36535 9.91802 9.41511C9.99249 9.46488 10.08 9.49144 10.1696 9.49144C10.2897 9.49144 10.4048 9.44376 10.4897 9.35888C10.5746 9.274 10.6224 9.15888 10.6224 9.03882Z" fill="#283B49"/>
<path d="M13.3001 8.16067C13.4592 8.062 13.6426 8.00972 13.8298 8.00972C14.017 8.00972 14.2004 8.062 14.3595 8.16067C14.4245 8.21858 14.5098 8.2483 14.5967 8.24331C14.6835 8.23832 14.7649 8.19901 14.8228 8.13404C14.8807 8.06908 14.9104 7.98376 14.9054 7.89688C14.9005 7.80999 14.8611 7.72864 14.7962 7.67073C14.5161 7.46489 14.1776 7.35388 13.8301 7.35388C13.4825 7.35388 13.144 7.46489 12.864 7.67073C12.8008 7.72828 12.7628 7.80839 12.7583 7.89373C12.7537 7.97907 12.7829 8.06277 12.8396 8.12673C12.8969 8.19111 12.977 8.23065 13.063 8.23699C13.1489 8.24332 13.234 8.21595 13.3001 8.16067Z" fill="#283B49"/>
<path d="M13.8304 8.58606C13.7409 8.58602 13.6533 8.61255 13.5788 8.66228C13.5043 8.71201 13.4463 8.78272 13.412 8.86546C13.3777 8.9482 13.3687 9.03925 13.3861 9.1271C13.4036 9.21495 13.4467 9.29565 13.51 9.35899C13.5733 9.42234 13.654 9.46548 13.7418 9.48297C13.8297 9.50046 13.9207 9.4915 14.0035 9.45723C14.0862 9.42297 14.157 9.36493 14.2067 9.29046C14.2565 9.21599 14.2831 9.12844 14.2831 9.03887C14.2831 8.91881 14.2354 8.80367 14.1505 8.71875C14.0656 8.63384 13.9505 8.58611 13.8304 8.58606Z" fill="#283B49"/>
</svg>
