<?xml version="1.0" encoding="utf-8"?>
<!-- Generator: Adobe Illustrator 25.0.0, SVG Export Plug-In . SVG Version: 6.00 Build 0)  -->
<svg version="1.1" id="Слой_1" xmlns="http://www.w3.org/2000/svg" xmlns:xlink="http://www.w3.org/1999/xlink" x="0px" y="0px"
	 viewBox="0 0 24.1 25.2" style="enable-background:new 0 0 24.1 25.2;" xml:space="preserve">
<style type="text/css">
	.st0{fill:#BD6F34;}
</style>
<path class="st0" d="M0,23.9l2-8.5h0l4.6,8.7c0.7,0.3,1.1,0.3,1.7,0.3c2.4,0,4.1-1.6,4.1-3.7c0-1.6-0.9-3-2.8-4l-3.8-2.1
	C2.8,13,0.9,10.7,0.9,7.4C0.9,3.3,4,0,9.4,0c2.6,0,4.9,0.4,7.5,1.5l-2,7.3h0l-4.4-7.9c-0.7-0.2-1-0.2-1.6-0.2C7.2,0.7,5.8,2,5.8,3.8
	c0,1.5,0.8,2.8,3.3,4.2l4.3,2.6c2.8,1.7,4.4,3.7,4.4,6.7c0,4.6-3.8,7.9-9.4,7.9C5.6,25.2,2.7,24.8,0,23.9z"/>
<path class="st0" d="M19,22.6c0-1.6,1-2.6,2.6-2.6s2.6,1,2.6,2.6c0,1.6-1,2.6-2.6,2.6S19,24.2,19,22.6z"/>
</svg>
