<svg width="0" height="0" class="hidden">
  <symbol xmlns="http://www.w3.org/2000/svg" viewBox="0 0 14 14" id="icon-cancel">
    <path d="M7 0C3.136 0 0 3.136 0 7C0 10.864 3.136 14 7 14C10.864 14 14 10.864 14 7C14 3.136 10.864 0 7 0ZM1.4 7C1.4 3.906 3.906 1.4 7 1.4C8.295 1.4 9.485 1.841 10.43 2.583L2.583 10.43C1.841 9.485 1.4 8.295 1.4 7ZM7 12.6C5.705 12.6 4.515 12.159 3.57 11.417L11.417 3.57C12.159 4.515 12.6 5.705 12.6 7C12.6 10.094 10.094 12.6 7 12.6Z" stroke="none"></path>
  </symbol>
  <symbol viewBox="0 0 10 8" xmlns="http://www.w3.org/2000/svg" id="icon-ready">
    <path d="M9.00024 1L3.50024 6.5L1.00024 4" fill="none" stroke-width="2" stroke-linecap="round" stroke-linejoin="round"/>
  </symbol>
  <symbol  viewBox="0 0 10 12" xmlns="http://www.w3.org/2000/svg" id="icon-pushed">
    <path d="M8.81408 4.70946L5.44882 1.19419C5.32979 1.06984 5.16835 1 5.00002 1C4.83165 1 4.67021 1.06989 4.55118 1.19423L1.18592 4.70973C0.938028 4.96867 0.938028 5.38847 1.18592 5.64741C1.30982 5.77693 1.47227 5.84164 1.63472 5.84164C1.79717 5.84164 1.95962 5.77688 2.08356 5.64741L4.36516 3.26396L4.36524 10.3369C4.36524 10.7032 4.64943 11 4.99998 11C5.35052 11 5.63472 10.7031 5.63472 10.3369L5.63463 3.26366L7.91644 5.64719C8.16428 5.90609 8.5662 5.90613 8.81408 5.64715C9.06197 5.3882 9.06197 4.9684 8.81408 4.70946Z"  stroke-width="0.8"/>
  </symbol>
  <symbol viewBox="0 0 16 4" xmlns="http://www.w3.org/2000/svg" id="icon-more">
    <path d="M2 0C0.9 0 0 0.9 0 2C0 3.1 0.9 4 2 4C3.1 4 4 3.1 4 2C4 0.9 3.1 0 2 0ZM14 0C12.9 0 12 0.9 12 2C12 3.1 12.9 4 14 4C15.1 4 16 3.1 16 2C16 0.9 15.1 0 14 0ZM8 0C6.9 0 6 0.9 6 2C6 3.1 6.9 4 8 4C9.1 4 10 3.1 10 2C10 0.9 9.1 0 8 0Z" stroke="none"/>
  </symbol>
  <symbol  viewBox="0 0 14 16" xmlns="http://www.w3.org/2000/svg" id="icon-download">
    <path d="M12.6241 0H4.53255C4.40821 0 4.28899 0.0494063 4.20109 0.137313L1.0439 3.29484C0.956023 3.38275 0.906616 3.50197 0.906616 3.62628V15.5312C0.906616 15.7901 1.11649 16 1.37537 16H12.6241C12.883 16 13.0929 15.7901 13.0929 15.5312V0.46875C13.0929 0.209875 12.8831 0 12.6241 0ZM4.06377 1.60053V3.15716H2.5073L4.06377 1.60053ZM12.1554 15.0625H1.84415V4.09466H4.53255C4.79143 4.09466 5.0013 3.88478 5.0013 3.62591V0.9375H12.1554V15.0625Z" stroke="none"/>
    <path d="M4.78498 8.9725C4.61079 8.9725 4.45095 9.06909 4.36995 9.22334C4.28898 9.37759 4.3002 9.564 4.3991 9.7074L6.61395 12.9186C6.70145 13.0455 6.8457 13.1212 6.99982 13.1212C7.15395 13.1212 7.2982 13.0455 7.3857 12.9186L9.60054 9.7074C9.69945 9.564 9.71067 9.37759 9.6297 9.22334C9.5487 9.06909 9.38885 8.9725 9.21467 8.9725H8.65451V6.3009C8.65451 6.04203 8.44464 5.83215 8.18576 5.83215H5.81395C5.55507 5.83215 5.3452 6.04203 5.3452 6.3009V8.9725H4.78498ZM5.81392 9.91C6.07279 9.91 6.28267 9.70012 6.28267 9.44125V6.76965H7.71698V9.44125C7.71698 9.70012 7.92685 9.91 8.18573 9.91H8.32192L6.99982 11.8268L5.67773 9.91H5.81392Z" stroke="none"/>
  </symbol>

  <symbol xmlns="http://www.w3.org/2000/svg" viewBox="0 0 14 8" id="icon-connected">
    <path d="M1.33012 4C1.33012 2.803 2.30312 1.83 3.50012 1.83H6.30012V0.5H3.50012C1.56812 0.5 0.00012207 2.068 0.00012207 4C0.00012207 5.932 1.56812 7.5 3.50012 7.5H6.30012V6.17H3.50012C2.30312 6.17 1.33012 5.197 1.33012 4ZM4.20012 4.7H9.80012V3.3H4.20012V4.7ZM10.5001 0.5H7.70012V1.83H10.5001C11.6971 1.83 12.6701 2.803 12.6701 4C12.6701 5.197 11.6971 6.17 10.5001 6.17H7.70012V7.5H10.5001C12.4321 7.5 14.0001 5.932 14.0001 4C14.0001 2.068 12.4321 0.5 10.5001 0.5Z" stroke="none"></path>
  </symbol>
  <symbol xmlns="http://www.w3.org/2000/svg" viewBox="0 0 14 14" id="icon-not-connected">
    <path d="M10.5 3.50001H7.7V4.83001H10.5C11.697 4.83001 12.67 5.80301 12.67 7.00001C12.67 8.00101 11.984 8.84101 11.053 9.08601L12.075 10.108C13.216 9.52701 14 8.36501 14 7.00001C14 5.06801 12.432 3.50001 10.5 3.50001ZM9.8 6.30001H8.267L9.667 7.70001H9.8V6.30001ZM0 1.58901L2.177 3.76601C0.903 4.28401 0 5.53701 0 7.00001C0 8.93201 1.568 10.5 3.5 10.5H6.3V9.17001H3.5C2.303 9.17001 1.33 8.19701 1.33 7.00001C1.33 5.88701 2.177 4.97001 3.262 4.85101L4.711 6.30001H4.2V7.70001H6.111L7.7 9.28901V10.5H8.911L11.718 13.3L12.6 12.418L0.889 0.700012L0 1.58901Z" stroke="none"></path>
  </symbol>
  <symbol viewBox="0 0 17 20" xmlns="http://www.w3.org/2000/svg" id="icon-question">
    <path d="M8.5 0C3.81 0 0 3.81 0 8.5C0 13.19 3.81 17 8.5 17H9V20C13.86 17.66 17 13 17 8.5C17 3.81 13.19 0 8.5 0ZM9.5 14.5H7.5V12.5H9.5V14.5ZM9.5 11H7.5C7.5 7.75 10.5 8 10.5 6C10.5 4.9 9.6 4 8.5 4C7.4 4 6.5 4.9 6.5 6H4.5C4.5 3.79 6.29 2 8.5 2C10.71 2 12.5 3.79 12.5 6C12.5 8.5 9.5 8.75 9.5 11Z" stroke="none"/>
  </symbol>
  <symbol xmlns="http://www.w3.org/2000/svg" viewBox="0 0 7 12" id="icon-pending">
    <path d="M0 0V3.6H0.00583347L0 3.606L2.33333 6L0 8.4L0.00583347 8.406H0V12H7V8.406H6.99417L7 8.4L4.66667 6L7 3.606L6.99417 3.6H7V0H0ZM5.83333 8.7V10.8H1.16667V8.7L3.5 6.3L5.83333 8.7ZM3.5 5.7L1.16667 3.3V1.2H5.83333V3.3L3.5 5.7Z" stroke="none"></path>
  </symbol>
  <symbol xmlns="http://www.w3.org/2000/svg" viewBox="0 0 8 4" id="icon-polygon--up">
    <path d="M8 4L4 -5.96046e-08L-1.19209e-07 4H8Z" stroke="none"></path>
  </symbol>
  <symbol viewBox="0 0 18 18" xmlns="http://www.w3.org/2000/svg" id="icon-zoom">
    <path d="M12.8645 11.3208H12.0515L11.7633 11.0429C12.7719 9.86964 13.3791 8.34648 13.3791 6.68954C13.3791 2.99485 10.3842 0 6.68954 0C2.99485 0 0 2.99485 0 6.68954C0 10.3842 2.99485 13.3791 6.68954 13.3791C8.34648 13.3791 9.86964 12.7719 11.0429 11.7633L11.3208 12.0515V12.8645L16.4666 18L18 16.4666L12.8645 11.3208V11.3208ZM6.68954 11.3208C4.12693 11.3208 2.05832 9.25214 2.05832 6.68954C2.05832 4.12693 4.12693 2.05832 6.68954 2.05832C9.25214 2.05832 11.3208 4.12693 11.3208 6.68954C11.3208 9.25214 9.25214 11.3208 6.68954 11.3208Z" stroke="none"/>
    <path d="M9.26244 7.20412H7.20412V9.26244H6.17496V7.20412H4.11664V6.17496H6.17496V4.11664H7.20412V6.17496H9.26244V7.20412Z" stroke="none"/>
  </symbol>
  <symbol viewBox="0 0 16 16" xmlns="http://www.w3.org/2000/svg" id="icon-link">
    <path d="M14.2222 14.2222H1.77778V1.77778H8V0H1.77778C0.791111 0 0 0.8 0 1.77778V14.2222C0 15.2 0.791111 16 1.77778 16H14.2222C15.2 16 16 15.2 16 14.2222V8H14.2222V14.2222ZM9.77778 0V1.77778H12.9689L4.23111 10.5156L5.48444 11.7689L14.2222 3.03111V6.22222H16V0H9.77778Z" stroke="none"/>
  </symbol>
  <symbol xmlns="http://www.w3.org/2000/svg" viewBox="0 0 16 16" id="icon-search">
    <path d="M7.33333 12.6667C10.2789 12.6667 12.6667 10.2789 12.6667 7.33333C12.6667 4.38781 10.2789 2 7.33333 2C4.38781 2 2 4.38781 2 7.33333C2 10.2789 4.38781 12.6667 7.33333 12.6667Z" fill="none" stroke-width="2" stroke-linecap="round" stroke-linejoin="round"></path>
    <path d="M14 14L11.1 11.1" fill="none" stroke-width="2" stroke-linecap="round" stroke-linejoin="round"></path>
  </symbol>
  <symbol xmlns="http://www.w3.org/2000/svg" viewBox="0 0 12 12" id="icon-arrow--down">
    <path d="M5.25 0L5.25 9.1275L1.0575 4.935L0 6L6 12L12 6L10.9425 4.9425L6.75 9.1275L6.75 0H5.25Z" stroke="none"></path>
  </symbol>
  <symbol xmlns="http://www.w3.org/2000/svg" viewBox="0 0 12 12" id="icon-arrow--left">
    <path d="M12 5.25H2.8725L7.065 1.0575L6 0L0 6L6 12L7.0575 10.9425L2.8725 6.75H12V5.25Z" stroke="none"></path>
  </symbol>
  <symbol xmlns="http://www.w3.org/2000/svg" viewBox="0 0 12 12" id="icon-arrow--right">
    <path d="M0 6.75L9.1275 6.75L4.935 10.9425L6 12L12 6L6 0L4.9425 1.0575L9.1275 5.25L0 5.25V6.75Z" stroke="none"></path>
  </symbol>
  <symbol xmlns="http://www.w3.org/2000/svg" viewBox="0 0 12 12" id="icon-arrow--up">
    <path d="M6.75 12L6.75 2.8725L10.9425 7.065L12 6L6 0L0 6L1.0575 7.0575L5.25 2.8725L5.25 12H6.75Z" stroke="none"></path>
  </symbol>
  <symbol xmlns="http://www.w3.org/2000/svg" viewBox="0 0 20 20" id="icon-brands">
    <path d="M19.9888 4.32C19.985 4.2775 19.9762 4.2375 19.9637 4.19625C19.9513 4.155 19.9362 4.1175 19.9163 4.08C19.9075 4.06375 19.9062 4.04375 19.895 4.0275L17.395 0.2775C17.2788 0.105 17.0837 0 16.875 0H3.125C2.91625 0 2.72125 0.105 2.605 0.27875L0.105 4.02875C0.09375 4.045 0.0925 4.06375 0.08375 4.08125C0.06375 4.11875 0.04875 4.15625 0.03625 4.1975C0.02375 4.23875 0.015 4.27875 0.01125 4.32125C0.00875 4.33875 0 4.355 0 4.375V18.75C0 19.44 0.56125 20 1.25 20H18.75C19.4387 20 20 19.44 20 18.75V4.375C20 4.355 19.9913 4.33875 19.9888 4.32ZM16.54 1.25L18.2075 3.75H12.405L11.9875 1.25H16.54ZM9.27875 1.25H10.72L11.1375 3.75H8.8625L9.27875 1.25ZM8.75 5H11.25V7.25875L10.1975 6.90625C10.0688 6.865 9.93 6.865 9.8025 6.90625L8.75 7.25875V5ZM3.46 1.25H8.0125L7.595 3.75H1.7925L3.46 1.25ZM18.75 19.375V18.75H1.25V5H7.5V8.125C7.5 8.32625 7.59625 8.515 7.76 8.63125C7.9225 8.75 8.13125 8.7775 8.3225 8.71875L10 8.15875L11.6775 8.7175C11.7425 8.73875 11.8088 8.75 11.875 8.75C12.005 8.75 12.1325 8.71 12.24 8.63125C12.4037 8.515 12.5 8.32625 12.5 8.125V5H18.75V18.75C18.75 18.75 18.75 18.75 18.7513 18.75L18.75 19.375Z" stroke="none"></path>
  </symbol>
  <symbol xmlns="http://www.w3.org/2000/svg" viewBox="0 0 8 5" id="icon-chevron--down">
    <path d="M7.06 -8.7178e-08L4 3.09042L0.94 -8.7178e-08L-2.38419e-07 0.951417L4 5L8 0.951417L7.06 -8.7178e-08Z" stroke="none"></path>
  </symbol>
  <symbol viewBox="0 0 20 40" xmlns="http://www.w3.org/2000/svg" id="icon-chevron--left">
    <path d="M20 3.57576L16.9666 0L0 20L16.9666 40L20 36.4242L6.06684 20L20 3.57576Z" stroke="none"/>
  </symbol>
  <symbol viewBox="0 0 20 40" xmlns="http://www.w3.org/2000/svg" id="icon-chevron--right">
    <path d="M0 4.24L13.0033 20L0 35.76L3.49835 40L20 20L3.49835 0L0 4.24Z" stroke="none" />
  </symbol>
  <symbol xmlns="http://www.w3.org/2000/svg" viewBox="0 0 8 5" id="icon-chevron--up">
    <path d="M0.94 5L4 1.90958L7.06 5L8 4.04858L4 0L0 4.04858L0.94 5Z" stroke="none"></path>
  </symbol>
  <symbol viewBox="0 0 12 12" xmlns="http://www.w3.org/2000/svg" id="icon-clear">
    <path d="M6 0C2.682 0 0 2.682 0 6C0 9.318 2.682 12 6 12C9.318 12 12 9.318 12 6C12 2.682 9.318 0 6 0ZM9 8.154L8.154 9L6 6.846L3.846 9L3 8.154L5.154 6L3 3.846L3.846 3L6 5.154L8.154 3L9 3.846L6.846 6L9 8.154Z" stroke="none"/>
  </symbol>
  <symbol viewBox="0 0 12 12" xmlns="http://www.w3.org/2000/svg" id="icon-close">
    <path d="M12 1.20857L10.7914 0L6 4.79143L1.20857 0L0 1.20857L4.79143 6L0 10.7914L1.20857 12L6 7.20857L10.7914 12L12 10.7914L7.20857 6L12 1.20857Z" stroke="none"/>
  </symbol>

  <symbol viewBox="0 0 24 24" xmlns="http://www.w3.org/2000/svg" id="icon-dropship">
    <path fill-rule="evenodd" clip-rule="evenodd" d="M19.8827 9.80008C19.2324 6.50584 15.9506 4.00008 11.9999 4.00008C8.04925 4.00008 4.76745 6.50584 4.11708 9.80008C4.04011 10.19 4 10.5909 4 11V11.0001H4.64653L7.8559 14.4112C8.08297 14.6526 8.46269 14.6641 8.70404 14.4371C8.94538 14.21 8.95695 13.8303 8.72988 13.5889L6.29416 11.0001H11.4L11.4 12.8001C11.4 13.1315 11.6686 13.4001 12 13.4001C12.3314 13.4001 12.6 13.1315 12.6 12.8001L12.6 11.0001H17.7056L15.27 13.5888C15.0429 13.8302 15.0545 14.2099 15.2958 14.437C15.5372 14.664 15.9169 14.6525 16.144 14.4111L19.3532 11.0001H19.9998V11C19.9998 10.5909 19.9597 10.19 19.8827 9.80008ZM18.6503 9.80008C18.0117 7.26011 15.3897 5.20008 11.9999 5.20008C8.61011 5.20008 5.98815 7.26011 5.3495 9.80008H18.6503ZM12.9999 15.2H10.9999C10.5581 15.2 10.1999 15.5582 10.1999 16V18C10.1999 18.4418 10.5581 18.8 10.9999 18.8H12.9999C13.4418 18.8 13.7999 18.4418 13.7999 18V16C13.7999 15.5582 13.4418 15.2 12.9999 15.2ZM10.9999 14C9.89538 14 8.99995 14.8954 8.99995 16V18C8.99995 19.1045 9.89538 20 10.9999 20H12.9999C14.1045 20 14.9999 19.1045 14.9999 18V16C14.9999 14.8954 14.1045 14 12.9999 14H10.9999Z" stroke="none"/>
    <line x1="11.4999" y1="17.4999" x2="11.9999" y2="17.4999" fill="none"  stroke-linecap="round"/>
    <circle cx="12" cy="12" r="11.5" fill="none"/>
  </symbol>
  <symbol xmlns="http://www.w3.org/2000/svg" viewBox="0 0 24 22" id="icon-retailers">
    <path d="M23.9775 7.0685L22.4775 1.0685C22.395 0.734 22.0935 0.5 21.75 0.5H2.25C1.9065 0.5 1.605 0.734 1.5225 1.0685L0.0225 7.0685C0.0075 7.127 0 7.1885 0 7.25C0 8.507 0.5955 9.6155 1.5 10.2965V20.75C1.5 21.164 1.836 21.5 2.25 21.5H9.75C10.164 21.5 10.5 21.164 10.5 20.75V15.5H13.5V20.75C13.5 21.164 13.836 21.5 14.25 21.5H21.75C22.164 21.5 22.5 21.164 22.5 20.75V10.2965C23.4045 9.6155 24 8.507 24 7.25C24 7.1885 23.9925 7.127 23.9775 7.0685ZM21 20H15V14.75C15 14.336 14.664 14 14.25 14H9.75C9.336 14 9 14.336 9 14.75V20H3V10.94C3.1845 10.9715 3.3705 11 3.5625 11C4.7055 11 5.7225 10.4315 6.375 9.5495C7.0275 10.4315 8.0445 11 9.1875 11C10.3305 11 11.3475 10.4315 12 9.5495C12.6525 10.4315 13.6695 11 14.8125 11C15.9555 11 16.9725 10.4315 17.625 9.5495C18.2775 10.4315 19.2945 11 20.4375 11C20.6295 11 20.8155 10.9715 21 10.94V20ZM20.4375 9.5C19.3005 9.5 18.375 8.4905 18.375 7.25C18.375 6.836 18.039 6.5 17.625 6.5C17.211 6.5 16.875 6.836 16.875 7.25C16.875 8.4905 15.9495 9.5 14.8125 9.5C13.6755 9.5 12.75 8.4905 12.75 7.25C12.75 6.836 12.414 6.5 12 6.5C11.586 6.5 11.25 6.836 11.25 7.25C11.25 8.4905 10.3245 9.5 9.1875 9.5C8.0505 9.5 7.125 8.4905 7.125 7.25C7.125 6.836 6.789 6.5 6.375 6.5C5.961 6.5 5.625 6.836 5.625 7.25C5.625 8.4905 4.6995 9.5 3.5625 9.5C2.4525 9.5 1.5435 8.537 1.5015 7.337L2.8365 2H21.165L22.5 7.337C22.4565 8.537 21.5475 9.5 20.4375 9.5Z" stroke="none"></path>
  </symbol>
  <symbol viewBox="0 0 14 18" xmlns="http://www.w3.org/2000/svg" id="icon-play">
    <path d="M13.7409 9.49486L1.40438 17.9004C1.31674 17.96 1.21492 17.9942 1.10977 17.9993C1.00463 18.0045 0.900082 17.9804 0.807277 17.9296C0.714472 17.8788 0.636883 17.8032 0.582771 17.711C0.52866 17.6187 0.500054 17.5131 0.5 17.4055V0.594479C0.500054 0.486892 0.52866 0.381334 0.582771 0.289049C0.636883 0.196763 0.714472 0.121206 0.807277 0.0704242C0.900082 0.0196427 1.00463 -0.00446133 1.10977 0.000679522C1.21492 0.00582037 1.31674 0.0400138 1.40438 0.0996173L13.7409 8.50514C13.8206 8.55946 13.886 8.63304 13.9312 8.71937C13.9764 8.8057 14 8.90209 14 9C14 9.09791 13.9764 9.19431 13.9312 9.28063C13.886 9.36696 13.8206 9.44055 13.7409 9.49486V9.49486Z" stroke="none"/>
  </symbol>
  <symbol viewBox="0 0 10 8" xmlns="http://www.w3.org/2000/svg" id="icon-checked">
    <path d="M9 1L3.5 6.5L1 4" fill="none"  stroke-width="2" stroke-linecap="round" stroke-linejoin="round"/>
  </symbol>
  <svg viewBox="0 0 42 30" xmlns="http://www.w3.org/2000/svg" id="icon-checked-1">
    <path d="M16.2037 28.5609C16.006 28.5609 15.9072 28.4608 15.7095 28.3607L1.2785 16.8518C0.981967 16.5515 0.883125 16.1512 1.17965 15.7509C1.47618 15.4507 1.87155 15.3506 2.26692 15.6508L16.2037 26.7595L38.7398 1.23957C39.0363 0.93934 39.5306 0.93934 39.8271 1.1395C40.1236 1.43973 40.1236 1.94012 39.9259 2.24036L16.7968 28.2607C16.5991 28.4608 16.4014 28.5609 16.2037 28.5609Z" stroke-width="2"/>
  </svg>
  <symbol viewBox="0 0 14 12" xmlns="http://www.w3.org/2000/svg" id="icon-danger">
    <path d="M0.583984 11.25H13.4173L7.00065 0.166672L0.583984 11.25ZM7.58398 9.50001H6.41732V8.33334H7.58398V9.50001ZM7.58398 7.16667H6.41732V4.83334H7.58398V7.16667Z" stroke="none"/>
  </symbol>
  <symbol viewBox="0 0 24 24" xmlns="http://www.w3.org/2000/svg" id="icon-danger-1">
    <path fill-rule="evenodd" clip-rule="evenodd" d="M12 14C11.4477 14 11 13.5523 11 13V10C11 9.44772 11.4477 9 12 9C12.5523 9 13 9.44772 13 10V13C13 13.5523 12.5523 14 12 14Z" stroke="none"/>
    <path d="M10.5 16.5C10.5 15.6716 11.1716 15 12 15C12.8284 15 13.5 15.6716 13.5 16.5C13.5 17.3284 12.8284 18 12 18C11.1716 18 10.5 17.3284 10.5 16.5Z" stroke="none"/>
    <path fill-rule="evenodd" clip-rule="evenodd" d="M10.2301 3.2156C10.98 1.79093 13.02 1.79092 13.7698 3.2156L22.1135 19.0685C22.8144 20.4003 21.8486 22 20.3436 22H3.65635C2.15133 22 1.18556 20.4003 1.88651 19.0685L10.2301 3.2156ZM20.3436 20L12 4.1471L3.65635 20H20.3436Z" stroke="none"/>
  </symbol>
  <symbol viewBox="0 0 16 16" xmlns="http://www.w3.org/2000/svg" id="icon-list">
    <path d="M15.9141 2.51008C15.8244 2.35852 15.6764 2.25225 15.5056 2.21757L6.44253 0.0116262C6.14384 -0.0468313 5.84916 0.119756 5.74578 0.407897L2.29121 9.26846L3.4445 9.69278L6.71831 1.26781L14.593 3.29661C14.1012 4.83591 12.931 8.04872 11.8091 11.0402C10.8311 13.6502 10.2683 14.544 9.1986 14.7265C9.19734 14.7253 9.19617 14.724 9.19617 14.7221C7.00998 15.0315 7.04922 12.2177 7.04922 12.2177L0.0671423 9.37019C-0.429025 12.5453 1.98747 13.309 1.98747 13.309L7.09933 15.6522C7.10056 15.6528 7.89855 16.0366 8.76586 15.9972C11.1053 15.9415 11.9274 14.2265 12.9575 11.4789C14.4457 7.50788 15.9562 3.05844 15.9711 3.01125C16.0243 2.8429 16.0033 2.66132 15.9141 2.51008Z" stroke="none"/>
    <path d="M11.7846 6.08336C11.8378 6.09806 11.8929 6.10586 11.9474 6.10586C12.2166 6.10586 12.463 5.92461 12.5385 5.6496C12.6282 5.31927 12.4344 4.97802 12.1077 4.88802L9.44774 4.05913C9.12463 3.96883 8.78286 4.16288 8.69371 4.49289C8.60453 4.82319 8.79651 5.16447 9.1245 5.2548L11.7846 6.08336Z" stroke="none"/>
    <path d="M7.62521 6.97516C7.51859 7.30049 7.69168 7.65085 8.01301 7.75944L10.659 8.71409C10.7233 8.73568 10.7864 8.74538 10.8501 8.74574C11.1082 8.74711 11.35 8.58274 11.4361 8.32249C11.543 7.99804 11.3703 7.64716 11.0476 7.53864L8.40263 6.5846C8.07939 6.4766 7.73308 6.65132 7.62521 6.97516Z" stroke="none"/>
    <path d="M7.39535 9.17132C7.07343 9.06257 6.72583 9.24003 6.62058 9.56635C6.51474 9.89011 6.69116 10.2414 7.01307 10.3476L9.66463 11.2983C9.72852 11.3202 9.79215 11.3295 9.85665 11.3295C10.1142 11.3295 10.3544 11.164 10.4392 10.9039C10.545 10.5783 10.3692 10.2277 10.0473 10.1214L7.39535 9.17132Z" stroke="none"/>
    <path d="M7.29815 3.33635C7.67392 3.33635 7.97882 3.63572 7.97882 4.0045C7.97882 4.37356 7.67392 4.67261 7.29815 4.67261C6.92209 4.67261 6.61719 4.37353 6.61719 4.0045C6.61722 3.63572 6.92209 3.33635 7.29815 3.33635Z" stroke="none"/>
    <path d="M6.33331 5.82008C6.7094 5.82008 7.01398 6.11916 7.01398 6.4879C7.01398 6.85635 6.7094 7.1554 6.33331 7.1554C5.95724 7.1554 5.65234 6.85635 5.65234 6.4879C5.65234 6.1192 5.95724 5.82008 6.33331 5.82008Z" stroke="none"/>
    <path d="M5.30596 8.38271C5.68206 8.38271 5.98693 8.68211 5.98693 9.05151C5.98693 9.42021 5.68206 9.71897 5.30596 9.71897C4.9299 9.71897 4.625 9.42028 4.625 9.05151C4.625 8.68211 4.9299 8.38271 5.30596 8.38271Z" stroke="none"/>
  </symbol>
  <symbol viewBox="0 0 14 14" xmlns="http://www.w3.org/2000/svg" id="icon-info">
    <path d="M7 0C3.136 0 0 3.136 0 7C0 10.864 3.136 14 7 14C10.864 14 14 10.864 14 7C14 3.136 10.864 0 7 0ZM7.7 10.5H6.3V6.3H7.7V10.5ZM7.7 4.9H6.3V3.5H7.7V4.9Z" stroke="none"/>
  </symbol>
  <symbol viewBox="0 0 60 60" xmlns="http://www.w3.org/2000/svg" id="icon-info-1">
    <path d="M27 39H33V45H27V39ZM27 15H33V33H27V15ZM29.97 0C13.41 0 0 13.44 0 30C0 46.56 13.41 60 29.97 60C46.56 60 60 46.56 60 30C60 13.44 46.56 0 29.97 0ZM30 54C16.74 54 6 43.26 6 30C6 16.74 16.74 6 30 6C43.26 6 54 16.74 54 30C54 43.26 43.26 54 30 54Z" stroke="none"/>
  </symbol>
  <symbol xmlns="http://www.w3.org/2000/svg" viewBox="0 0 22 18" id="icon-mail">
    <path d="M3 1H19C20.1 1 21 1.9 21 3V15C21 16.1 20.1 17 19 17H3C1.9 17 1 16.1 1 15V3C1 1.9 1.9 1 3 1Z" fill="none" stroke-width="2" stroke-linecap="round" stroke-linejoin="round"></path>
    <path d="M21 3L11 10L1 3" fill="none" stroke-width="2" stroke-linecap="round" stroke-linejoin="round"></path>
  </symbol>
  <symbol xmlns="http://www.w3.org/2000/svg" viewBox="0 0 20 22" id="icon-notification">
    <path d="M16 7C16 5.4087 15.3679 3.88258 14.2426 2.75736C13.1174 1.63214 11.5913 1 10 1C8.4087 1 6.88258 1.63214 5.75736 2.75736C4.63214 3.88258 4 5.4087 4 7C4 14 1 16 1 16H19C19 16 16 14 16 7Z" fill="none" stroke-width="2" stroke-linecap="round" stroke-linejoin="round"></path>
    <path d="M11.73 20C11.5542 20.3031 11.3019 20.5547 10.9982 20.7295C10.6946 20.9044 10.3504 20.9965 10 20.9965C9.64964 20.9965 9.30541 20.9044 9.00179 20.7295C8.69818 20.5547 8.44583 20.3031 8.27002 20" fill="none" stroke-width="2" stroke-linecap="round" stroke-linejoin="round"></path>
  </symbol>
  <symbol xmlns="http://www.w3.org/2000/svg" viewBox="0 0 8 4" id="icon-polygon--down">
    <path d="M0 0L4 4L8 0L0 0Z" stroke="none"></path>
  </symbol>
  <symbol xmlns="http://www.w3.org/2000/svg" viewBox="0 0 4 8" id="icon-polygon--left">
    <path d="M4 0L-5.96046e-08 4L4 8L4 0Z" stroke="none"></path>
  </symbol>
  <symbol xmlns="http://www.w3.org/2000/svg" viewBox="0 0 4 8" id="icon-polygon--right">
    <path d="M0 8L4 4L0 -1.19209e-07L0 8Z" stroke="none"></path>
  </symbol>
    <symbol width="60" height="60" viewBox="0 0 60 60" fill="none" xmlns="http://www.w3.org/2000/svg" id="decline">
<path d="M0 30C0 13.4315 13.4315 0 30 0C46.5685 0 60 13.4315 60 30C60 46.5685 46.5685 60 30 60C13.4315 60 0 46.5685 0 30Z" fill="#EB5757"/>
<path d="M30 12.5C20.34 12.5 12.5 20.34 12.5 30C12.5 39.66 20.34 47.5 30 47.5C39.66 47.5 47.5 39.66 47.5 30C47.5 20.34 39.66 12.5 30 12.5ZM16 30C16 22.265 22.265 16 30 16C33.2375 16 36.2125 17.1025 38.575 18.9575L18.9575 38.575C17.1025 36.2125 16 33.2375 16 30ZM30 44C26.7625 44 23.7875 42.8975 21.425 41.0425L41.0425 21.425C42.8975 23.7875 44 26.7625 44 30C44 37.735 37.735 44 30 44Z" fill="white"/>
</symbol>
    <symbol width="20" height="20" viewBox="0 0 20 20" fill="none" xmlns="http://www.w3.org/2000/svg" id="info">
<path d="M9.99958 0C4.47746 0 0 4.47746 0 9.99958C0 15.5217 4.47746 20 9.99958 20C15.5217 20 20 15.5217 20 9.99958C20 4.47746 15.5217 0 9.99958 0ZM12.0813 15.498C11.5666 15.7012 11.1568 15.8552 10.8495 15.9619C10.5431 16.0686 10.1867 16.1219 9.78116 16.1219C9.1581 16.1219 8.67302 15.9695 8.32762 15.6656C7.98222 15.3617 7.81037 14.9765 7.81037 14.5084C7.81037 14.3263 7.82307 14.1401 7.84847 13.9505C7.87471 13.7608 7.91619 13.5475 7.97291 13.3079L8.61714 11.0324C8.67386 10.814 8.72296 10.6066 8.7619 10.4135C8.80085 10.2188 8.81947 10.0402 8.81947 9.87767C8.81947 9.58815 8.75937 9.38497 8.64 9.27069C8.51894 9.1564 8.29122 9.10053 7.95175 9.10053C7.78582 9.10053 7.61481 9.12508 7.43958 9.17672C7.26603 9.23005 7.11534 9.27831 6.99175 9.32571L7.1619 8.62476C7.58349 8.45291 7.9873 8.30561 8.37249 8.1837C8.75767 8.06011 9.12169 7.99915 9.46455 7.99915C10.0834 7.99915 10.5608 8.14984 10.8969 8.44783C11.2313 8.74667 11.3998 9.13524 11.3998 9.6127C11.3998 9.71175 11.3879 9.88614 11.3651 10.135C11.3422 10.3848 11.299 10.6125 11.2364 10.8216L10.5956 13.0904C10.5431 13.2724 10.4965 13.4806 10.4542 13.7134C10.4127 13.9462 10.3924 14.124 10.3924 14.2434C10.3924 14.5448 10.4593 14.7505 10.5947 14.8597C10.7285 14.9689 10.963 15.0239 11.2948 15.0239C11.4514 15.0239 11.6267 14.996 11.8248 14.9418C12.0212 14.8876 12.1634 14.8394 12.2531 14.7979L12.0813 15.498ZM11.9678 6.2891C11.669 6.56677 11.3092 6.70561 10.8885 6.70561C10.4686 6.70561 10.1062 6.56677 9.80487 6.2891C9.50519 6.01143 9.35365 5.67365 9.35365 5.27915C9.35365 4.8855 9.50603 4.54688 9.80487 4.26667C10.1062 3.98561 10.4686 3.84593 10.8885 3.84593C11.3092 3.84593 11.6698 3.98561 11.9678 4.26667C12.2667 4.54688 12.4165 4.8855 12.4165 5.27915C12.4165 5.6745 12.2667 6.01143 11.9678 6.2891Z" fill="#283B49"/>
</symbol>
    
<symbol width="76" height="76" viewBox="0 0 76 76" fill="none" xmlns="http://www.w3.org/2000/svg" class="tick">
<path d="M74.5293 37.9984C74.5293 58.4438 58.1629 74.9968 38 74.9968C17.8371 74.9968 1.4707 58.4438 1.4707 37.9984C1.4707 17.553 17.8371 1 38 1C58.1629 1 74.5293 17.553 74.5293 37.9984Z" fill="#FBF5F0" stroke="#E2B695" stroke-width="2"/>
<mask id="path-2-inside-1_16544_250995" fill="white">
<path d="M33.2041 51.5609C33.0064 51.5609 32.9076 51.4608 32.7099 51.3607L18.2789 39.8518C17.9823 39.5515 17.8835 39.1512 18.18 38.7509C18.4765 38.4507 18.8719 38.3506 19.2673 38.6508L33.2041 49.7595L55.7402 24.2396C56.0367 23.9393 56.5309 23.9393 56.8274 24.1395C57.124 24.4397 57.124 24.9401 56.9263 25.2404L33.7971 51.2607C33.5995 51.4608 33.4018 51.5609 33.2041 51.5609Z"/>
</mask>
<path d="M33.2041 51.5609C33.0064 51.5609 32.9076 51.4608 32.7099 51.3607L18.2789 39.8518C17.9823 39.5515 17.8835 39.1512 18.18 38.7509C18.4765 38.4507 18.8719 38.3506 19.2673 38.6508L33.2041 49.7595L55.7402 24.2396C56.0367 23.9393 56.5309 23.9393 56.8274 24.1395C57.124 24.4397 57.124 24.9401 56.9263 25.2404L33.7971 51.2607C33.5995 51.4608 33.4018 51.5609 33.2041 51.5609Z" fill="#2EB67D"/>
<path d="M32.7099 51.3607L31.4628 52.9244L31.6234 53.0524L31.8065 53.1451L32.7099 51.3607ZM18.2789 39.8518L16.8559 41.2572L16.9392 41.3415L17.0318 41.4154L18.2789 39.8518ZM18.18 38.7509L16.757 37.3455L16.6574 37.4464L16.5729 37.5604L18.18 38.7509ZM19.2673 38.6508L20.5139 37.0869L20.4955 37.0722L20.4768 37.058L19.2673 38.6508ZM33.2041 49.7595L31.9575 51.3235L33.4445 52.5087L34.7032 51.0833L33.2041 49.7595ZM55.7402 24.2396L54.3172 22.8342L54.278 22.8739L54.241 22.9157L55.7402 24.2396ZM56.8274 24.1395L58.2504 22.7341L58.1109 22.5929L57.9464 22.4818L56.8274 24.1395ZM56.9263 25.2404L58.4211 26.5691L58.5172 26.461L58.5967 26.3402L56.9263 25.2404ZM33.7971 51.2607L35.2201 52.6661L35.257 52.6287L35.292 52.5894L33.7971 51.2607ZM33.2041 49.5609C33.3307 49.5609 33.4644 49.5779 33.5973 49.6141C33.7248 49.6489 33.8171 49.6921 33.8603 49.714C33.8806 49.7242 33.8922 49.731 33.8891 49.7292C33.8834 49.726 33.8779 49.7227 33.8515 49.7073C33.8083 49.682 33.7204 49.6307 33.6132 49.5764L31.8065 53.1451C31.7981 53.1409 31.7968 53.1395 31.8339 53.1612C31.8544 53.1732 31.9508 53.2306 32.0536 53.2827C32.3248 53.42 32.71 53.5609 33.2041 53.5609V49.5609ZM33.9569 49.7971L19.5259 38.2881L17.0318 41.4154L31.4628 52.9244L33.9569 49.7971ZM19.7018 38.4464C19.7782 38.5237 19.9442 38.7305 19.9899 39.0777C20.0409 39.4647 19.9094 39.7763 19.7871 39.9414L16.5729 37.5604C16.1541 38.1259 15.9238 38.8378 16.0242 39.6C16.1193 40.3225 16.483 40.8796 16.8559 41.2572L19.7018 38.4464ZM19.603 40.1563C19.528 40.2322 19.3164 40.4088 18.9542 40.4577C18.5485 40.5125 18.2249 40.3706 18.0578 40.2436L20.4768 37.058C19.9143 36.6308 19.1953 36.3889 18.419 36.4937C17.6861 36.5926 17.1285 36.9694 16.757 37.3455L19.603 40.1563ZM18.0207 40.2148L31.9575 51.3235L34.4507 48.1955L20.5139 37.0869L18.0207 40.2148ZM34.7032 51.0833L57.2393 25.5634L54.241 22.9157L31.7049 48.4356L34.7032 51.0833ZM57.1632 25.645C56.9119 25.8993 56.6193 25.9847 56.4101 25.9979C56.2168 26.0101 55.966 25.971 55.7085 25.7972L57.9464 22.4818C56.957 21.814 55.3751 21.763 54.3172 22.8342L57.1632 25.645ZM55.4045 25.5449C55.1553 25.2926 55.078 25.0069 55.066 24.8132C55.0549 24.6337 55.0891 24.3937 55.2559 24.1405L58.5967 26.3402C59.2427 25.3591 59.2973 23.794 58.2504 22.7341L55.4045 25.5449ZM55.4315 23.9116L32.3023 49.9319L35.292 52.5894L58.4211 26.5691L55.4315 23.9116ZM32.3742 49.8553C32.3916 49.8376 32.6751 49.5609 33.2041 49.5609V53.5609C34.1285 53.5609 34.8073 53.084 35.2201 52.6661L32.3742 49.8553Z" fill="#BD6F34" mask="url(#path-2-inside-1_16544_250995)"/>
    </symbol>
 <symbol xmlns="http://www.w3.org/2000/svg" viewBox="0 0 24 24" id="icon-not-available">
    <path d="M12 1C5.93457 1 1 5.95073 1 12.036C1.55301 26.6567 22.4492 26.6527 23 12.0359C23 5.95073 18.0654 1 12 1ZM2.28906 12.036C2.19539 4.92162 10.0015 0.0732335 16.2858 3.29515L14.8707 5.75419L12.3223 4.27804C12.1228 4.16255 11.8772 4.16255 11.6777 4.27804L5.46445 7.87695C5.26504 7.99244 5.14219 8.20591 5.14219 8.43694V15.635C5.14219 15.8661 5.26504 16.0796 5.46445 16.195L8.01293 17.6712L6.59874 20.1287C4.00158 18.3782 2.28906 15.4041 2.28906 12.036ZM11.764 11.1528L7.07574 8.43698L8.89332 7.38421L12.6729 9.57343L11.764 11.1528ZM11.1195 12.2728L8.65742 16.5512L6.43121 15.2617V9.55701L11.1195 12.2728ZM11.3555 14.4493V18.1139L9.77379 17.1978L11.3555 14.4493ZM12.6445 12.4095L14.4621 11.3566V11.9621C14.4937 12.8189 15.7197 12.8187 15.7512 11.9621V10.6099L17.5688 9.55701V15.2617L12.6445 18.1139V12.4095ZM15.1068 9.4898L14.4338 9.1L15.3425 7.52086L16.9242 8.43698L15.1068 9.4898ZM13.3175 8.45336L10.1825 6.63751L12 5.58473L14.2262 6.87422L13.3175 8.45336ZM12 21.7787C10.4624 21.7787 9.00757 21.4178 7.71417 20.7768L9.12926 18.3178L11.6777 19.7939C11.8772 19.9094 12.1228 19.9094 12.3223 19.7939L18.5355 16.195C18.735 16.0796 18.8578 15.8661 18.8578 15.635V8.43694C18.8578 8.20591 18.735 7.99244 18.5355 7.87695L15.9871 6.40079L17.4013 3.9433C25.2736 9.22455 21.5964 21.7395 12 21.7787Z" fill="#828282"/>
  </symbol>
    
    <symbol width="14" height="14" viewBox="0 0 14 14" xmlns="http://www.w3.org/2000/svg" id="icon-info-blue">
<path d="M6.3 3.5H7.7V4.9H6.3V3.5ZM6.3 6.3H7.7V10.5H6.3V6.3ZM7 0C3.136 0 0 3.136 0 7C0 10.864 3.136 14 7 14C10.864 14 14 10.864 14 7C14 3.136 10.864 0 7 0ZM7 12.6C3.913 12.6 1.4 10.087 1.4 7C1.4 3.913 3.913 1.4 7 1.4C10.087 1.4 12.6 3.913 12.6 7C12.6 10.087 10.087 12.6 7 12.6Z" stroke="none"/>
</symbol>

    <symbol width="16" height="4" viewBox="0 0 16 4" fill="none" xmlns="http://www.w3.org/2000/svg" id="icon-three-dots">
      <path d="M2 0C0.9 0 0 0.9 0 2C0 3.1 0.9 4 2 4C3.1 4 4 3.1 4 2C4 0.9 3.1 0 2 0ZM14 0C12.9 0 12 0.9 12 2C12 3.1 12.9 4 14 4C15.1 4 16 3.1 16 2C16 0.9 15.1 0 14 0ZM8 0C6.9 0 6 0.9 6 2C6 3.1 6.9 4 8 4C9.1 4 10 3.1 10 2C10 0.9 9.1 0 8 0Z" fill="#283B49"/>
    </symbol>
    <symbol width="12" height="14" viewBox="0 0 12 14" xmlns="http://www.w3.org/2000/svg" id="icon-sync">
      <path d="M5.9987 1.90909V0L3.44661 2.54545L5.9987 5.09091V3.18182C8.11055 3.18182 9.82682 4.89364 9.82682 7C9.82682 7.64273 9.66732 8.25364 9.38021 8.78182L10.3117 9.71091C10.8094 8.92818 11.1029 7.99909 11.1029 7C11.1029 4.18727 8.81875 1.90909 5.9987 1.90909ZM5.9987 10.8182C3.88685 10.8182 2.17057 9.10636 2.17057 7C2.17057 6.35727 2.33008 5.74636 2.61719 5.21818L1.68568 4.28909C1.18802 5.07182 0.894531 6.00091 0.894531 7C0.894531 9.81273 3.17865 12.0909 5.9987 12.0909V14L8.55078 11.4545L5.9987 8.90909V10.8182Z" stroke="none"/>
    </symbol>
    
    <symbol width="12" height="12" viewBox="0 0 12 12" xmlns="http://www.w3.org/2000/svg" id="icon-sync-off">
    <path d="M4.93548 1.62442V0.179724C4.47926 0.297235 4.04378 0.476959 3.63594 0.698157L4.67281 1.73502C4.76267 1.70046 4.84562 1.65899 4.93548 1.62442ZM11.8479 5.52995C11.8479 4.0023 11.2189 2.62673 10.2166 1.63134L11.8479 0H7.70046V4.14747L9.24885 2.59908C9.99539 3.35253 10.4654 4.38249 10.4654 5.52995C10.4654 6.11751 10.3341 6.67051 10.1129 7.17512L11.1498 8.21198C11.5922 7.42396 11.8479 6.50461 11.8479 5.52995ZM0.974654 0L0 0.974654L1.63134 2.60599C1.09908 3.44931 0.788019 4.45161 0.788019 5.52995C0.788019 7.0576 1.41705 8.43318 2.41935 9.42857L0.788019 11.0599H4.93548V6.91244L3.3871 8.46083C2.64055 7.70737 2.17051 6.67742 2.17051 5.52995C2.17051 4.83871 2.34332 4.18894 2.64055 3.61521L8.22581 9.20046C8.053 9.29032 7.88018 9.36636 7.70046 9.43548V10.8802C8.25346 10.735 8.77189 10.5069 9.24194 10.2166L11.0253 12L12 11.0253L0.974654 0Z" stroke="none"/>
</symbol>
    
    <symbol width="21" height="16" viewBox="0 0 21 16" xmlns="http://www.w3.org/2000/svg" id="syncing">
<path d="M5.91 9.41L4.5 8L0.5 12L4.5 16L5.91 14.59L4.33 13H19.5V11H4.33L5.91 9.41Z" fill="white"/>
<path d="M15.09 6.59L16.5 8L20.5 4L16.5 0L15.09 1.41L16.67 3H1.5V5H16.67L15.09 6.59Z" fill="white"/>
</symbol>
    
     <symbol width="12" height="8" viewBox="0 0 12 8" fill="none" xmlns="http://www.w3.org/2000/svg" id="icon-least">
      <path d="M0 0H4V1.33333H0V0ZM0 8V6.66667H12V8H0ZM0 3.33333H8V4.66667H0V3.33333Z" fill="black"/>
    </symbol>
    <symbol width="12" height="8" viewBox="0 0 12 8" fill="none" xmlns="http://www.w3.org/2000/svg" id="icon-most">
      <path d="M0 8H4V6.66667H0V8ZM0 0V1.33333H12V0H0ZM0 4.66667H8V3.33333H0V4.66667Z" fill="black"/>
    </symbol>
    
    <svg width="12" height="12" viewBox="0 0 12 12" xmlns="http://www.w3.org/2000/svg" id="save">
<path d="M9.33333 0H1.33333C0.593333 0 0 0.6 0 1.33333V10.6667C0 11.4 0.593333 12 1.33333 12H10.6667C11.4 12 12 11.4 12 10.6667V2.66667L9.33333 0ZM10.6667 10.6667H1.33333V1.33333H8.78L10.6667 3.22V10.6667ZM6 6C4.89333 6 4 6.89333 4 8C4 9.10667 4.89333 10 6 10C7.10667 10 8 9.10667 8 8C8 6.89333 7.10667 6 6 6ZM2 2H8V4.66667H2V2Z" stroke="none"/>
</svg>
    
    <symbol width="24" height="18" viewBox="0 0 24 18" xmlns="http://www.w3.org/2000/svg" id="category-baby">
<path d="M13.2186 2.36597L12.3947 0.939006C12.0998 0.428256 11.4432 0.261099 10.9411 0.568881C10.0974 1.08596 9.43434 1.85143 9.04242 2.75091C7.50075 2.04586 5.77964 2.08894 4.31934 2.75218C3.92751 1.85194 3.26413 1.08582 2.41987 0.568365C1.91891 0.261381 1.26196 0.426381 0.966321 0.93849L0.142492 2.36551C-0.0271484 2.65941 -0.0462265 3.00633 0.0901329 3.31744C0.225039 3.62513 0.489555 3.84366 0.815805 3.91688C1.28845 4.0231 1.74482 4.2173 2.15362 4.48426C1.79324 4.96041 1.50627 5.49605 1.30851 6.0759C1.22952 6.30755 1.25948 6.56255 1.38102 6.77068C0.851383 9.23429 2.07609 11.6776 4.27907 12.7683C3.84187 13.3257 3.62245 13.9997 3.62245 14.6738C3.62245 14.9817 3.8107 15.2624 4.09556 15.3802C4.05838 15.812 4.36743 16.1979 4.79915 16.2533V16.4694C4.79915 17.0851 5.30001 17.5859 5.91557 17.5859C6.21135 17.5859 6.48046 17.47 6.68043 17.2816C6.8804 17.47 7.14951 17.5859 7.44529 17.5859C8.0609 17.5859 8.56171 17.085 8.56171 16.4694V16.2533C8.99334 16.1979 9.30248 15.8121 9.26531 15.3802C9.54267 15.2654 9.73842 14.9922 9.73842 14.6738C9.73842 14.2853 9.66065 13.9821 9.66065 13.9821C9.5587 13.5362 9.36117 13.1245 9.08212 12.769C9.294 12.664 9.49996 12.5455 9.69801 12.4122C9.85907 12.3038 9.90178 12.0853 9.79336 11.9243C9.68493 11.7631 9.46645 11.7204 9.30539 11.8289C8.53078 12.3503 7.62304 12.6259 6.68034 12.6259C3.74451 12.6259 1.49615 9.96076 2.04337 7.04349H3.78749C5.62931 7.04349 7.36762 6.36919 8.72034 5.1376L10.0674 6.48474C10.404 6.8213 10.8443 7.01654 11.3161 7.04077C11.5876 8.48251 11.1719 9.90212 10.2775 10.9581C10.152 11.1062 10.1704 11.3281 10.3185 11.4535C10.4668 11.5791 10.6886 11.5606 10.814 11.4125C11.8602 10.1775 12.3484 8.4893 11.9794 6.77166C12.1014 6.56344 12.1315 6.30783 12.0523 6.07566C11.8568 5.50266 11.5701 4.96543 11.2066 4.48515C11.6156 4.21791 12.0723 4.02347 12.5452 3.91726C13.2336 3.76276 13.5732 2.98037 13.2186 2.36597ZM6.32896 16.4695C6.32896 16.6974 6.14357 16.8828 5.91567 16.8828C5.68776 16.8828 5.50237 16.6974 5.50237 16.4695V16.2602H6.32896V16.4695ZM7.85868 16.4695C7.85868 16.6974 7.67325 16.8828 7.44539 16.8828C7.21753 16.8828 7.03209 16.6974 7.03209 16.4695V16.2602H7.85868V16.4695ZM4.38571 14.1389L4.38613 14.139C4.47984 13.729 4.6777 13.3565 4.96199 13.0503C5.50223 13.2309 6.0801 13.329 6.68048 13.329C7.27134 13.329 7.85025 13.2339 8.39925 13.0508C8.68382 13.3572 8.88178 13.7295 8.97534 14.1388C9.01518 14.3132 9.03539 14.4932 9.03539 14.6738C9.03539 14.7076 9.00792 14.7351 8.97417 14.7351H8.95579L8.58829 14.1839C8.48067 14.0223 8.26228 13.9786 8.10079 14.0864C7.93926 14.1941 7.89557 14.4123 8.00329 14.5739C8.31281 15.0382 8.23631 14.9234 8.54746 15.3901C8.59495 15.4613 8.54465 15.557 8.45812 15.557H4.90288C4.81715 15.557 4.76564 15.4621 4.81354 15.3901L5.35771 14.5739C5.46543 14.4123 5.42179 14.194 5.26021 14.0864C5.09878 13.9787 4.88038 14.0223 4.77267 14.1838L4.38684 14.7351C4.35309 14.7351 4.32562 14.7076 4.32562 14.6738C4.32567 14.4993 4.34699 14.3094 4.38571 14.1389ZM0.96993 3.23087C0.744414 3.18019 0.634305 2.91999 0.751399 2.71707L1.57527 1.2901C1.6724 1.12191 1.88826 1.06735 2.05246 1.16794C2.78962 1.61977 3.36473 2.2936 3.69604 3.08433C3.30009 3.3278 2.93765 3.61796 2.61567 3.94768C2.11715 3.60821 1.55432 3.36212 0.96993 3.23087ZM11.3937 6.34018C11.0804 6.33446 10.7868 6.20977 10.5646 5.98758L8.97478 4.39768C8.83762 4.26052 8.61487 4.26038 8.47762 4.39772C7.22489 5.65051 5.55923 6.34041 3.78754 6.34041H1.96724C1.96762 6.32771 1.96987 6.3151 1.97404 6.30287C2.97459 3.36943 6.38282 2.08519 9.06239 3.5461C9.21904 3.63141 9.24698 3.73505 9.25439 3.8056C9.27314 3.98457 9.42407 4.12051 9.60403 4.12051C9.79078 4.12051 9.88814 4.10794 9.98746 4.19621C10.9649 5.06527 11.3894 6.21633 11.3937 6.34018ZM10.7448 3.94852C10.4551 3.65138 10.2634 3.45783 9.87093 3.42268C9.81942 3.30816 9.74545 3.2049 9.65259 3.1148C9.98184 2.31104 10.5622 1.62587 11.3086 1.16837C11.4734 1.0673 11.6891 1.12299 11.7858 1.29052L12.6097 2.71744C12.727 2.9206 12.6164 3.18066 12.3911 3.23129C11.8065 3.36263 11.2435 3.60882 10.7448 3.94852Z" stroke="none" />
<path d="M4.33594 8.51715V8.90284C4.33594 9.09704 4.49334 9.2544 4.6875 9.2544C4.88166 9.2544 5.03906 9.09704 5.03906 8.90284V8.51715C5.03906 8.32295 4.88166 8.16559 4.6875 8.16559C4.49334 8.16559 4.33594 8.32299 4.33594 8.51715Z" stroke="none"/>
<path d="M8.3501 8.51715V8.90284C8.3501 9.09704 8.5075 9.2544 8.70166 9.2544C8.89582 9.2544 9.05322 9.09704 9.05322 8.90284V8.51715C9.05322 8.32295 8.89582 8.16559 8.70166 8.16559C8.5075 8.16559 8.3501 8.32299 8.3501 8.51715Z" stroke="none"/>
<path d="M6.95878 8.66034C6.89208 8.73694 6.7958 8.78081 6.69469 8.78081C6.59358 8.78081 6.49734 8.73689 6.43059 8.66034C6.303 8.514 6.08095 8.49876 5.93456 8.62626C5.78817 8.75386 5.77294 8.97591 5.90048 9.1223C6.10078 9.35208 6.39023 9.48394 6.69464 9.48394C6.99905 9.48394 7.2885 9.35212 7.4888 9.1223C7.61635 8.97591 7.60111 8.75386 7.45472 8.62626C7.30842 8.49876 7.08633 8.51395 6.95878 8.66034Z" stroke="none"/>
<path d="M16.0986 8.72868V9.12103C16.0986 9.31523 16.256 9.47259 16.4502 9.47259C16.6444 9.47259 16.8018 9.31523 16.8018 9.12103V8.72868C16.8018 8.53448 16.6444 8.37712 16.4502 8.37712C16.256 8.37712 16.0986 8.53448 16.0986 8.72868Z" stroke="none"/>
<path d="M20.1826 8.72868V9.12103C20.1826 9.31523 20.34 9.47259 20.5342 9.47259C20.7284 9.47259 20.8857 9.31523 20.8857 9.12103V8.72868C20.8857 8.53448 20.7284 8.37712 20.5342 8.37712C20.34 8.37712 20.1826 8.53448 20.1826 8.72868Z" stroke="none"/>
<path d="M18.7658 8.87836C18.6967 8.95753 18.5971 9.003 18.4924 9.003C18.3878 9.003 18.2882 8.95758 18.2191 8.87841C18.0916 8.73197 17.8695 8.71678 17.7232 8.84428C17.5768 8.97183 17.5615 9.19392 17.689 9.34027C17.8916 9.57277 18.1844 9.70613 18.4924 9.70613C18.8003 9.70613 19.0931 9.57282 19.2958 9.34032C19.4234 9.19397 19.4081 8.97192 19.2617 8.84433C19.1154 8.71669 18.8933 8.73197 18.7658 8.87836Z" stroke="none"/>
<path d="M23.2116 4.95006C23.4198 4.56334 23.5855 4.15689 23.705 3.73895C23.9144 3.00653 23.1053 2.42326 22.4782 2.83281C22.2182 3.00273 21.9444 3.1547 21.6619 3.28595C20.7312 2.62886 19.6398 2.28268 18.4921 2.28268C15.4552 2.28268 12.9844 4.75351 12.9844 7.79054C12.9844 10.0113 14.3056 11.9291 16.2033 12.7996C15.9716 13.0525 15.7821 13.3425 15.6446 13.6577C15.4068 14.2031 15.3871 14.6272 15.3871 15.0493C15.3871 15.6723 15.894 16.1791 16.5169 16.1791H16.5325V16.4304C16.5325 17.0676 17.0509 17.586 17.688 17.586C18.0002 17.586 18.2839 17.4615 18.492 17.2596C18.7001 17.4615 18.9838 17.586 19.296 17.586C19.9332 17.586 20.4515 17.0676 20.4515 16.4304V16.1791H20.4675C21.0904 16.1791 21.5972 15.6723 21.5972 15.0493C21.5972 14.6272 21.5775 14.2032 21.3397 13.6577C21.2024 13.3427 21.0132 13.0531 20.7819 12.8004C21.0279 12.6878 21.2664 12.5569 21.4953 12.4078C21.658 12.3018 21.7039 12.084 21.5979 11.9213C21.4918 11.7586 21.2739 11.7127 21.1114 11.8187C20.3319 12.3267 19.4262 12.5951 18.4921 12.5951C15.961 12.5951 13.8809 10.6277 13.7003 8.14192L18.0153 8.14093C18.0174 8.14093 18.0196 8.14093 18.0218 8.14089C19.1194 8.12022 20.1602 7.80568 21.0581 7.24993C21.707 7.74915 22.4848 8.05361 23.284 8.12509C23.2109 9.17359 22.7977 10.1711 22.0995 10.9638C21.9712 11.1095 21.9853 11.3317 22.131 11.46C22.2768 11.5883 22.4989 11.5742 22.6273 11.4285C23.5124 10.4234 23.9999 9.1314 23.9999 7.79054C24 6.78367 23.7281 5.80628 23.2116 4.95006ZM16.5324 15.0493V15.476H16.5168C16.2816 15.476 16.0902 15.2846 16.0902 15.0493C16.0902 14.8616 16.0905 14.6441 16.1436 14.3915C16.2695 14.4848 16.3997 14.5747 16.5324 14.6593V15.0493ZM19.7484 16.4304C19.7484 16.6799 19.5455 16.8828 19.296 16.8828C19.0466 16.8828 18.8436 16.6799 18.8436 16.4304V16.0963C18.8436 15.9021 18.6862 15.7448 18.492 15.7448C18.2978 15.7448 18.1405 15.9021 18.1405 16.0963V16.4304C18.1405 16.6799 17.9375 16.8828 17.688 16.8828C17.4386 16.8828 17.2357 16.6799 17.2357 16.4304V15.4009H19.7484V16.4304ZM20.8417 14.3907C20.8835 14.593 20.8941 14.797 20.8941 15.0493C20.8941 15.2846 20.7028 15.476 20.4675 15.476H20.4516V15.0493V14.6595C20.5847 14.5745 20.7154 14.4843 20.8417 14.3907ZM16.9308 13.0725C17.4261 13.2191 17.95 13.2983 18.4921 13.2983C19.0255 13.2983 19.5508 13.2218 20.0542 13.0731C20.2642 13.2533 20.4409 13.4684 20.5777 13.7074C20.3722 13.8706 20.1487 14.0251 19.9202 14.1611C19.8137 14.2245 19.7484 14.3393 19.7484 14.4632V14.6977H17.2356V14.463C17.2356 14.3391 17.1704 14.2243 17.0639 14.161C16.8355 14.025 16.6121 13.8706 16.4067 13.7075C16.5436 13.4682 16.7206 13.2529 16.9308 13.0725ZM18.0118 7.43786L13.7004 7.43884C13.8811 4.95311 15.9611 2.98586 18.4921 2.98586C19.555 2.98586 20.5623 3.32608 21.4052 3.96976C21.5115 4.05095 21.6502 4.0622 21.7647 4.01003C22.1464 3.84629 22.5158 3.64825 22.8628 3.42142C22.95 3.36451 23.0573 3.44589 23.029 3.54554C22.9061 3.97534 22.7278 4.39173 22.4991 4.78309C22.4972 4.78637 22.4959 4.78993 22.4941 4.79326C21.5431 6.4135 19.8687 7.40176 18.0118 7.43786ZM21.6639 6.82051C22.0839 6.48175 22.4619 6.08411 22.7857 5.63326C23.0657 6.18929 23.2342 6.79398 23.2822 7.41798C22.709 7.35592 22.1505 7.15014 21.6639 6.82051Z" stroke="none"/>
</symbol>
    
    
    <symbol width="20" height="24" viewBox="0 0 20 24" xmlns="http://www.w3.org/2000/svg" id="category-men">
<path d="M19.3399 22.7827L18.9514 19.1319C18.8902 18.5638 18.6548 18.0285 18.2775 17.5993C17.9001 17.1702 17.3994 16.8682 16.8437 16.7347L12.5421 15.7072L12.3979 14.0087C13.402 13.2343 14.1555 12.1811 14.5641 10.9807C14.6187 10.9847 14.6732 10.9888 14.7263 10.9888C14.973 10.9965 15.2182 10.9486 15.4439 10.8486C15.6695 10.7487 15.8698 10.5992 16.0298 10.4113C16.2236 10.1777 16.3547 9.89867 16.4107 9.60041C16.4667 9.30214 16.4458 8.99452 16.35 8.70656C16.2979 8.55299 16.2138 8.41223 16.1032 8.29361C15.9926 8.17498 15.8581 8.08119 15.7086 8.01843C15.6968 8.01356 15.685 8.01037 15.6732 8.00606V6.12431C15.6732 0.914618 10.7395 0.854431 10.6898 0.854431H5.1531C5.06608 0.854431 4.98261 0.889001 4.92108 0.950537C4.85954 1.01207 4.82497 1.09553 4.82497 1.18256C4.82959 1.52996 4.90793 1.87242 5.05481 2.18728C5.20169 2.50214 5.41375 2.78222 5.67697 3.00899C5.26517 3.26062 4.9248 3.6137 4.68844 4.03446C4.45208 4.45522 4.32762 4.92958 4.32697 5.41218V8.00624C4.31516 8.01056 4.30316 8.01374 4.29135 8.01862C4.14183 8.0814 4.00734 8.17521 3.89677 8.29383C3.7862 8.41245 3.70206 8.55319 3.64991 8.70674C3.55414 8.99471 3.53328 9.30232 3.58931 9.60058C3.64534 9.89884 3.77641 10.1779 3.97016 10.4115C4.13018 10.5994 4.33046 10.7489 4.55615 10.8489C4.78183 10.9489 5.02713 10.9968 5.27385 10.989C5.32691 10.989 5.38147 10.9849 5.43604 10.9809C5.84467 12.1814 6.59822 13.2347 7.60241 14.0091L7.45804 15.7074L3.15622 16.7347C2.60061 16.8682 2.09986 17.1702 1.72257 17.5993C1.34528 18.0285 1.10992 18.5638 1.04873 19.1319L0.660038 22.7827C0.650849 22.8693 0.676422 22.956 0.731134 23.0237C0.785846 23.0914 0.865216 23.1347 0.951788 23.1439C0.963601 23.145 0.975226 23.1456 0.986851 23.1456C1.06776 23.1454 1.14576 23.1154 1.2059 23.0613C1.26605 23.0072 1.30409 22.9327 1.31273 22.8523L1.70141 19.2015C1.74806 18.7681 1.92757 18.3598 2.21534 18.0325C2.50311 17.7051 2.88506 17.4748 3.30885 17.373L5.80522 16.7767L5.03647 20.4846C5.02474 20.5414 5.0283 20.6004 5.04679 20.6554C5.06528 20.7105 5.09804 20.7596 5.14173 20.7979C5.18541 20.8362 5.23847 20.8621 5.29547 20.8732C5.35248 20.8843 5.4114 20.88 5.46622 20.8609L7.43666 20.1697V22.8174C7.43666 22.9045 7.47123 22.9879 7.53277 23.0494C7.5943 23.111 7.67776 23.1456 7.76479 23.1456C7.85181 23.1456 7.93527 23.111 7.99681 23.0494C8.05834 22.9879 8.09291 22.9045 8.09291 22.8174V17.6781C8.33224 17.9475 8.62594 18.1631 8.95465 18.3108C9.28335 18.4584 9.63962 18.5348 9.99997 18.5348C10.3603 18.5348 10.7166 18.4584 11.0453 18.3108C11.374 18.1631 11.6677 17.9475 11.907 17.6781V22.8174C11.907 22.9045 11.9416 22.9879 12.0031 23.0494C12.0647 23.111 12.1481 23.1456 12.2352 23.1456C12.3222 23.1456 12.4056 23.111 12.4672 23.0494C12.5287 22.9879 12.5633 22.9045 12.5633 22.8174V20.1697L14.5337 20.8609C14.5886 20.8801 14.6475 20.8845 14.7046 20.8734C14.7617 20.8624 14.8148 20.8364 14.8585 20.7982C14.9022 20.7599 14.935 20.7107 14.9535 20.6556C14.972 20.6005 14.9755 20.5415 14.9637 20.4846L14.1949 16.7767L16.6913 17.373C17.1151 17.4748 17.497 17.7052 17.7848 18.0325C18.0726 18.3599 18.2522 18.7682 18.2989 19.2015L18.6874 22.8523C18.696 22.9328 18.734 23.0072 18.7942 23.0613C18.8543 23.1155 18.9324 23.1455 19.0133 23.1456C19.0249 23.1456 19.0365 23.1456 19.0485 23.1439C19.1351 23.1346 19.2144 23.0914 19.269 23.0236C19.3236 22.9559 19.3492 22.8693 19.3399 22.7827ZM15.7375 8.93981C15.7917 9.11855 15.801 9.30793 15.7644 9.49111C15.7278 9.67429 15.6466 9.8456 15.5278 9.98981C15.4321 10.1006 15.313 10.1888 15.1791 10.248C15.0452 10.3073 14.8998 10.3361 14.7535 10.3324C14.8841 9.77449 14.9555 9.20441 14.9667 8.63156C15.1295 8.5793 15.3045 8.57839 15.4678 8.62893C15.5324 8.65851 15.5898 8.70156 15.6363 8.75518C15.6828 8.8088 15.7173 8.87175 15.7375 8.93981ZM6.41872 3.37893C6.47845 3.35746 6.53068 3.31915 6.56911 3.26864C6.60754 3.21812 6.63052 3.15756 6.63528 3.09427C6.64004 3.03098 6.62637 2.96767 6.59593 2.91197C6.56548 2.85628 6.51957 2.81059 6.46372 2.78043C6.22727 2.64458 6.02103 2.4619 5.85763 2.24357C5.69424 2.02524 5.57713 1.77585 5.51347 1.51068H10.6903C10.867 1.51068 15.0175 1.56299 15.0175 6.12431V7.94999C14.9189 7.96436 14.8217 7.98649 14.7267 8.01618L14.1163 7.40081C13.8142 7.09484 13.6204 6.69854 13.5643 6.27224L13.4083 5.06906C13.4022 5.02293 13.3864 4.97864 13.3618 4.9391C13.3373 4.89957 13.3047 4.8657 13.266 4.83975C13.2274 4.81379 13.1837 4.79634 13.1379 4.78855C13.092 4.78076 13.045 4.78281 13 4.79456C12.0155 5.01543 11.0089 5.12207 9.99997 5.11237C8.99107 5.12123 7.98449 5.01428 6.99997 4.79362C6.95489 4.78187 6.90781 4.77985 6.86189 4.7877C6.81596 4.79554 6.77222 4.81308 6.7336 4.83913C6.69497 4.86519 6.66233 4.89916 6.63784 4.93881C6.61336 4.97845 6.5976 5.02285 6.5916 5.06906L6.43579 6.27206C6.37962 6.69846 6.18565 7.09482 5.88341 7.40081L5.27497 8.01674C5.17986 7.98714 5.08256 7.96508 4.98397 7.95074V5.41218C4.98455 4.96676 5.12269 4.53238 5.3795 4.16845C5.63631 3.80451 5.99926 3.52877 6.41872 3.37893ZM4.47266 9.98924C4.3539 9.84505 4.27264 9.67373 4.2361 9.49054C4.19956 9.30735 4.20888 9.11796 4.26322 8.93924C4.28331 8.8711 4.31776 8.80806 4.36427 8.75437C4.41079 8.70068 4.46827 8.65758 4.53285 8.62799C4.69618 8.57751 4.87109 8.5785 5.03385 8.63081C5.04513 9.2036 5.11665 9.77361 5.24722 10.3314C5.10086 10.3351 4.9555 10.3063 4.82158 10.2472C4.68765 10.188 4.5685 10.0999 4.47266 9.98924ZM5.68747 8.53256L6.35066 7.86374C6.75404 7.45538 7.01282 6.9263 7.08754 6.35718L7.19741 5.50987C8.12121 5.68526 9.05967 5.7719 9.99997 5.76862C10.9405 5.77194 11.8791 5.6853 12.8031 5.50987L12.913 6.35718C12.9877 6.9263 13.2465 7.45538 13.6498 7.86374L14.3125 8.53256C14.2602 11.9501 12.2055 13.5111 10.975 14.1399C10.673 14.2938 10.3389 14.3739 9.99997 14.3739C9.66106 14.3739 9.32696 14.2938 9.02497 14.1399C7.79385 13.5111 5.73922 11.9501 5.68747 8.53256ZM5.79735 20.0496L6.50985 16.6084L7.43647 16.3871V19.4743L5.79735 20.0496ZM9.99997 17.8785C9.49591 17.8779 9.01255 17.6779 8.65536 17.3222C8.29816 16.9666 8.09611 16.4841 8.09329 15.9801L8.22454 14.4409C8.4006 14.5498 8.56991 14.6443 8.72666 14.7244C9.12115 14.9253 9.55756 15.03 10.0003 15.03C10.4429 15.03 10.8794 14.9253 11.2738 14.7244C11.4306 14.6443 11.5999 14.5498 11.7762 14.4409L11.9074 15.9806C11.9045 16.4847 11.7024 16.9672 11.345 17.3228C10.9876 17.6784 10.5041 17.8782 9.99997 17.8785ZM14.2032 20.0496L12.5633 19.4743V16.3875L13.4897 16.6087L14.2032 20.0496Z" stroke="none"/>
<path d="M11.3723 12.0937C11.4483 12.051 11.5041 11.9799 11.5276 11.896C11.5511 11.8121 11.5403 11.7223 11.4976 11.6464C11.4549 11.5704 11.3837 11.5146 11.2998 11.4911C11.2159 11.4676 11.1261 11.4784 11.0502 11.5211C10.7212 11.6719 10.362 11.7455 10.0002 11.7362C9.63888 11.7455 9.28017 11.6723 8.95134 11.5222C8.87556 11.4794 8.78585 11.4684 8.70195 11.4916C8.61805 11.5149 8.54683 11.5706 8.50397 11.6464C8.4611 11.7221 8.4501 11.8118 8.47338 11.8957C8.49665 11.9796 8.55231 12.0509 8.62809 12.0937C9.05501 12.3016 9.52554 12.404 10.0002 12.3924C10.4749 12.404 10.9454 12.3015 11.3723 12.0937Z" stroke="none"/>
<path d="M8.69896 8.16017C8.76393 8.21807 8.84924 8.2478 8.93613 8.24281C9.02302 8.23782 9.10437 8.19851 9.16228 8.13354C9.22018 8.06857 9.24991 7.98326 9.24492 7.89637C9.23992 7.80948 9.20062 7.72814 9.13565 7.67023C8.86159 7.45292 8.519 7.3405 8.16946 7.35317C7.81993 7.3405 7.47734 7.45292 7.20328 7.67023C7.14014 7.72781 7.10219 7.80791 7.09763 7.89323C7.09307 7.97856 7.12226 8.06225 7.1789 8.12623C7.23608 8.19079 7.31618 8.23049 7.40218 8.2369C7.48818 8.24331 7.57329 8.21591 7.6394 8.16054C7.79849 8.06188 7.98198 8.0096 8.16918 8.0096C8.35639 8.0096 8.53987 8.06188 8.69896 8.16054V8.16017Z" stroke="none"/>
<path d="M8.62242 9.03882C8.62246 8.94925 8.59594 8.86168 8.5462 8.7872C8.49647 8.71271 8.42576 8.65464 8.34302 8.62034C8.26029 8.58604 8.16924 8.57704 8.08139 8.59449C7.99354 8.61194 7.91283 8.65506 7.84949 8.71837C7.78614 8.78169 7.743 8.86238 7.72551 8.95022C7.70802 9.03806 7.71698 9.12912 7.75125 9.21187C7.78551 9.29462 7.84355 9.36535 7.91802 9.41511C7.99249 9.46488 8.08004 9.49144 8.16961 9.49144C8.28967 9.49144 8.40482 9.44376 8.48973 9.35888C8.57464 9.274 8.62237 9.15888 8.62242 9.03882Z" stroke="none"/>
<path d="M11.3001 8.16055C11.4592 8.06188 11.6426 8.0096 11.8298 8.0096C12.017 8.0096 12.2004 8.06188 12.3595 8.16055C12.4245 8.21846 12.5098 8.24818 12.5967 8.24319C12.6835 8.2382 12.7649 8.19889 12.8228 8.13392C12.8807 8.06895 12.9104 7.98364 12.9054 7.89675C12.9005 7.80987 12.8611 7.72852 12.7962 7.67061C12.5161 7.46477 12.1776 7.35376 11.8301 7.35376C11.4825 7.35376 11.144 7.46477 10.864 7.67061C10.8008 7.72816 10.7628 7.80827 10.7583 7.89361C10.7537 7.97895 10.7829 8.06265 10.8396 8.12661C10.8969 8.19099 10.977 8.23053 11.063 8.23687C11.1489 8.2432 11.234 8.21583 11.3001 8.16055Z" stroke="none"/>
<path d="M11.8304 8.586C11.7409 8.58596 11.6533 8.61249 11.5788 8.66222C11.5043 8.71195 11.4463 8.78266 11.412 8.8654C11.3777 8.94813 11.3687 9.03919 11.3861 9.12704C11.4036 9.21488 11.4467 9.29559 11.51 9.35893C11.5733 9.42228 11.654 9.46542 11.7418 9.48291C11.8297 9.5004 11.9207 9.49144 12.0035 9.45717C12.0862 9.42291 12.157 9.36487 12.2067 9.2904C12.2565 9.21593 12.2831 9.12838 12.2831 9.03881C12.2831 8.91875 12.2354 8.8036 12.1505 8.71869C12.0656 8.63378 11.9505 8.58605 11.8304 8.586Z" stroke="none"/>
</symbol>
    

    
    <svg width="24" height="24" viewBox="0 0 24 24" xmlns="http://www.w3.org/2000/svg" id="category-women">
<path d="M17.5984 16.4001H14.3984V14.1506C15.8815 13.2943 16.796 11.7128 16.7984 10.0002V8.00029H17.1984V7.2003H16.0476C15.4929 7.1996 15.0107 6.81951 14.8804 6.28032L13.9836 3.09238C13.9352 2.91968 13.7778 2.80033 13.5984 2.80038C13.4197 2.80033 13.2627 2.91888 13.2137 3.09078L12.3897 5.98832C12.2117 6.70021 11.5723 7.1998 10.8385 7.2003H6.79857V8.00029H7.19857V10.0002C7.20092 11.7128 8.11545 13.2943 9.59852 14.1506V16.8001C9.59852 16.9062 9.64072 17.0079 9.71572 17.0829L11.7157 19.0829C11.8719 19.239 12.1251 19.239 12.2813 19.0829L14.164 17.2001H17.5984C18.7024 17.2014 19.597 18.0961 19.5983 19.2001V23.2H4.39862V22.8H3.59863V23.6C3.59863 23.8209 3.77773 24 3.99863 24H19.9983C20.2192 24 20.3983 23.8209 20.3983 23.6V19.2001C20.3966 17.6545 19.144 16.4019 17.5984 16.4001ZM13.5984 16.6345L11.9985 18.2345L10.3985 16.6345V14.5202C11.4325 14.8935 12.5645 14.8935 13.5984 14.5202V16.6345ZM11.9985 14.0002C9.78937 14.0002 7.99855 12.2094 7.99855 10.0002V8.00029H10.8385C11.9358 8.00289 12.8942 7.2588 13.1637 6.19512L13.5976 4.66915L14.1088 6.48552C14.3267 7.3571 15.1002 7.97554 15.9984 7.99629V10.0002C15.9984 12.2094 14.2076 14.0002 11.9985 14.0002Z" stroke="none"/>
<path d="M7.59856 16.4001H6.39858V17.2001H7.59856C8.70309 17.2001 9.59852 18.0956 9.59852 19.2001C9.59852 20.3046 8.70309 21.2001 7.59856 21.2001H5.5986C4.93586 21.2001 4.39862 20.6628 4.39862 20.0001H3.59863C3.59993 21.1041 4.49462 21.9987 5.5986 22H7.59856C9.14493 22 10.3985 20.7465 10.3985 19.2001C10.3985 17.6537 9.14493 16.4001 7.59856 16.4001Z" stroke="none"/>
<path d="M21.0599 14.7136C20.7759 14.4603 20.4433 14.2675 20.0824 14.147V14.1454C20.2866 13.8725 20.3974 13.5411 20.3984 13.2002C20.3984 12.3166 19.682 11.6003 18.7984 11.6003V6.98116C18.8531 3.30003 16.0015 0.227641 12.3265 0.00809539C8.57539 -0.173101 5.3877 2.72094 5.20655 6.47202C5.20125 6.58137 5.19865 6.69087 5.19865 6.80032V11.6002C4.31502 11.6002 3.59868 12.3166 3.59868 13.2002C3.59968 13.541 3.71048 13.8725 3.91467 14.1454C2.4485 14.6369 1.65837 16.2239 2.14986 17.6901C2.53165 18.829 3.59743 19.5975 4.79866 19.6001H7.19861V18.8001H4.79866C3.69413 18.8001 2.79869 17.9047 2.79869 16.8001C2.79869 15.6956 3.69413 14.8002 4.79866 14.8002H7.19861V14.0002H5.19865C4.75681 14.0002 4.39866 13.642 4.39866 13.2002C4.39866 12.7584 4.75681 12.4002 5.19865 12.4002H5.59864C5.81954 12.4002 5.99863 12.2211 5.99863 12.0002V6.80032C5.99848 3.48668 8.68464 0.80033 11.9983 0.80018C12.0953 0.80018 12.1924 0.80253 12.2893 0.80723C15.5369 1.00783 18.0521 3.72778 17.9984 6.98111V12.0002C17.9984 12.2211 18.1775 12.4002 18.3984 12.4002H18.7984C19.2402 12.4002 19.5984 12.7584 19.5984 13.2002C19.5984 13.642 19.2402 14.0002 18.7984 14.0002H16.7984V14.8002H19.1984C20.3029 14.8002 21.1984 15.6956 21.1983 16.8002C21.1983 17.2921 21.017 17.7667 20.6892 18.1333L21.2851 18.6669C22.3146 17.513 22.2137 15.743 21.0599 14.7136Z" stroke="none"/>
<path d="M9.99882 8.90027C9.61222 8.90027 9.29883 9.21366 9.29883 9.60026C9.29883 9.98685 9.61222 10.3002 9.99882 10.3002C10.3854 10.3002 10.6988 9.98685 10.6988 9.60026C10.6984 9.21386 10.3852 8.90072 9.99882 8.90027ZM9.89882 9.60026C9.89882 9.54501 9.94357 9.50026 9.99882 9.50026C10.0541 9.50026 10.0988 9.54501 10.0988 9.60026C10.0988 9.71025 9.89882 9.71025 9.89882 9.60026Z" stroke="none"/>
<path d="M13.9988 8.90027C13.6122 8.90027 13.2988 9.21366 13.2988 9.60026C13.2993 9.98665 13.6124 10.2998 13.9988 10.3002C14.3854 10.3002 14.6988 9.98685 14.6988 9.60026C14.6988 9.21366 14.3854 8.90027 13.9988 8.90027ZM13.8988 9.60026C13.8988 9.54501 13.9436 9.50026 13.9988 9.50026C14.0541 9.50026 14.0988 9.54501 14.0988 9.60026C14.0988 9.71025 13.8988 9.71025 13.8988 9.60026Z" stroke="none"/>
<path d="M12.8985 11.6002C12.8985 12.0973 12.4955 12.5002 11.9985 12.5002C11.5015 12.5002 11.0985 12.0973 11.0985 11.6002H10.4985C10.4985 12.4287 11.1701 13.1002 11.9985 13.1002C12.8269 13.1002 13.4985 12.4287 13.4985 11.6002H12.8985Z" stroke="none"/>
</svg>
    
    <symbol width="16" height="18" viewBox="0 0 16 18" fill="none" xmlns="http://www.w3.org/2000/svg" id="shopify">
<rect width="16" height="18" fill="white"/>
<path d="M6.66667 0C5.596 0 4.75886 0.820273 4.20182 1.80919C3.77715 2.56313 3.49803 3.43356 3.38802 4.23633L1.77865 4.61629L0 15.9231L10.2214 18L16 16.6695L14.2214 4.15385L12.888 3.80769L11.5547 2.30679L10.1602 2.63672C10.0859 2.36916 9.99333 2.10378 9.86849 1.85652C9.55646 1.23849 9.04154 0.692308 8.33333 0.692308C8.22692 0.692308 8.12757 0.712774 8.02734 0.730168C7.94815 0.616228 7.8615 0.507654 7.75911 0.413762C7.47855 0.156478 7.10029 0 6.66667 0ZM6.66667 0.692308C6.95705 0.692308 7.15002 0.777867 7.31771 0.931641C7.33251 0.945211 7.34373 0.968162 7.35807 0.983023C7.14728 1.11119 6.95298 1.26752 6.78776 1.45222C6.39683 1.88925 6.11524 2.44224 5.90365 2.98558C5.80881 3.2291 5.73232 3.46807 5.66406 3.69817L4.10156 4.06731C4.22246 3.42965 4.44906 2.74221 4.77734 2.1594C5.26881 1.28688 5.93134 0.692308 6.66667 0.692308ZM8.35677 1.39002C8.72072 1.40263 9.03216 1.69272 9.27734 2.17834C9.37175 2.36532 9.4453 2.57652 9.50651 2.79087L8.63932 2.99504C8.60545 2.4463 8.52986 1.88687 8.35677 1.39002ZM7.70313 1.56581C7.71106 1.58687 7.72158 1.60221 7.72917 1.62395C7.87889 2.05278 7.95037 2.60153 7.98047 3.15054L6.43099 3.51698C6.46271 3.42538 6.48625 3.33734 6.52214 3.24519C6.71495 2.75007 6.97028 2.2646 7.27604 1.92278C7.41067 1.77228 7.55297 1.65556 7.70313 1.56581ZM7.41927 5.9982C7.62927 5.9982 7.82388 6.00985 8.00521 6.032C8.18854 6.05416 8.35591 6.08782 8.50391 6.12936C8.65391 6.1702 8.78269 6.21806 8.88802 6.26998L8.2474 8.16436C8.16273 8.12352 8.06058 8.08009 7.94792 8.04132C7.83392 8.00047 7.71025 7.96159 7.57292 7.93044C7.43892 7.89928 7.29262 7.87265 7.14063 7.85742C6.98863 7.84219 6.82809 7.8376 6.66276 7.8466C6.51076 7.8556 6.37524 7.88214 6.25391 7.92368C6.13457 7.96452 6.02868 8.02278 5.94401 8.0927C5.85934 8.16401 5.76215 8.24728 5.71615 8.3442C5.66815 8.44112 5.59115 8.53187 5.59115 8.83233C5.59115 9.18402 5.81531 9.43306 6.11198 9.61929C6.77865 10.0381 7.9974 10.7302 7.9974 12.4859C7.9974 13.0335 7.84856 13.503 7.64323 13.8935C7.44123 14.2784 7.16282 14.5806 6.82682 14.8008C6.49816 15.0147 6.11776 15.1491 5.70443 15.2024C5.30243 15.2543 5.00196 15.2316 4.55729 15.1375C4.55396 15.1375 4.54891 15.1361 4.54557 15.1361C4.54224 15.1361 4.53846 15.1334 4.53646 15.1334C4.53312 15.1334 4.52807 15.1321 4.52474 15.1321C4.52141 15.1321 4.51635 15.1294 4.51302 15.1294C4.30502 15.0816 4.10336 15.0182 3.91536 14.9441C3.7287 14.8714 3.55317 14.7894 3.39583 14.698C3.2385 14.6087 3.09666 14.515 2.97266 14.4181C2.85132 14.3226 2.74733 14.2218 2.66667 14.1193L3.15755 12.5467C3.24022 12.6139 3.34236 12.6909 3.45703 12.7698C3.57436 12.8501 3.70508 12.9303 3.84375 13.0065C3.98575 13.0833 4.13633 13.1525 4.29167 13.2106C4.449 13.2688 4.61214 13.3156 4.77214 13.3377C4.91414 13.3578 5.04101 13.3552 5.15234 13.331C5.26368 13.3067 5.3608 13.2615 5.4388 13.1985C5.51814 13.1375 5.57973 13.0586 5.6224 12.9686C5.66506 12.8772 5.68871 12.7778 5.69271 12.6698C5.69804 12.5618 5.68682 12.4591 5.66016 12.3615C5.63149 12.2625 5.58553 12.1677 5.51953 12.0721C5.45353 11.9766 5.36775 11.8804 5.26042 11.7814C5.15308 11.6824 5.0244 11.5818 4.8724 11.4745C4.68373 11.3388 4.51008 11.2063 4.30208 11.0215C4.13608 10.8747 3.99872 10.6864 3.88672 10.5009C3.77539 10.3174 3.68691 10.1192 3.62891 9.90325C3.57091 9.68932 3.54596 9.45822 3.55729 9.20553C3.57663 8.78391 3.66326 8.39436 3.80859 8.04267C3.95726 7.6889 4.16639 7.37232 4.42839 7.09886C4.69572 6.81986 5.0205 6.58249 5.39583 6.40249C5.7825 6.21696 6.28023 6.10509 6.76823 6.04417C6.9949 6.01163 7.21394 5.9982 7.41927 5.9982Z" fill="#219653" stroke="none"/>
</symbol>
    
    <symbol width="12" height="12" viewBox="0 0 12 12" xmlns="http://www.w3.org/2000/svg" id="eye">
<path d="M10.6667 0H1.33333C0.593333 0 0 0.6 0 1.33333V10.6667C0 11.4 0.593333 12 1.33333 12H10.6667C11.4 12 12 11.4 12 10.6667V1.33333C12 0.6 11.4067 0 10.6667 0ZM10.6667 10.6667H1.33333V2.66667H10.6667V10.6667ZM6 5C7.22667 5 8.32 5.64 8.89333 6.66667C8.32 7.69333 7.22667 8.33333 6 8.33333C4.77333 8.33333 3.68 7.69333 3.10667 6.66667C3.68 5.64 4.77333 5 6 5ZM6 4C4.18 4 2.62667 5.10667 2 6.66667C2.62667 8.22667 4.18 9.33333 6 9.33333C7.82 9.33333 9.37333 8.22667 10 6.66667C9.37333 5.10667 7.82 4 6 4ZM6 7.66667C5.44667 7.66667 5 7.22 5 6.66667C5 6.11333 5.44667 5.66667 6 5.66667C6.55333 5.66667 7 6.11333 7 6.66667C7 7.22 6.55333 7.66667 6 7.66667Z" stroke="none"/>
</symbol>
    
    <svg width="16" height="16" viewBox="0 0 16 16" xmlns="http://www.w3.org/2000/svg" id="pencil">
<path d="M0 4C0 1.79086 1.79086 0 4 0H12C14.2091 0 16 1.79086 16 4V12C16 14.2091 14.2091 16 12 16H4C1.79086 16 0 14.2091 0 12V4Z" fill="white"/>
<path d="M9.22058 6.23391L9.76576 6.7791L4.39687 12.148H3.85169V11.6028L9.22058 6.23391ZM11.3539 2.6665C11.2058 2.6665 11.0517 2.72576 10.9391 2.83836L9.85465 3.9228L12.0769 6.14502L13.1613 5.06058C13.3924 4.82947 13.3924 4.45613 13.1613 4.22502L11.7747 2.83836C11.6561 2.71984 11.508 2.6665 11.3539 2.6665ZM9.22058 4.55687L2.6665 11.1109V13.3332H4.88873L11.4428 6.7791L9.22058 4.55687Z" stroke="none"/>
</svg>
    
    <symbol width="16" height="16" viewBox="0 0 16 16" fill="none" xmlns="http://www.w3.org/2000/svg" id="pencil-left-">
<path d="M1.99927 14.0017H4.49927L11.8726 6.62833L9.3726 4.12833L1.99927 11.5017V14.0017ZM3.3326 12.055L9.3726 6.015L9.98593 6.62833L3.94593 12.6683H3.3326V12.055Z" />
<path d="M12.2459 2.195C11.9859 1.935 11.5659 1.935 11.3059 2.195L10.0859 3.415L12.5859 5.915L13.8059 4.695C14.0659 4.435 14.0659 4.015 13.8059 3.755L12.2459 2.195Z"/>
</symbol>
    
    <symbol width="12" height="13" viewBox="0 0 12 13" fill="none" xmlns="http://www.w3.org/2000/svg" id="pencil-left">
<path d="M-0.000732422 12.0017H2.49927L9.8726 4.62833L7.3726 2.12833L-0.000732422 9.50167V12.0017ZM1.3326 10.055L7.3726 4.015L7.98593 4.62833L1.94593 10.6683H1.3326V10.055Z" fill="white"/>
<path d="M10.2459 0.195C9.98593 -0.065 9.56593 -0.065 9.30593 0.195L8.08593 1.415L10.5859 3.915L11.8059 2.695C12.0659 2.435 12.0659 2.015 11.8059 1.755L10.2459 0.195Z" fill="white"/>
</symbol>

    
    <symbol width="14" height="14" viewBox="0 0 14 14" xmlns="http://www.w3.org/2000/svg" id="icon-info-blue-2">
<path d="M6.3 3.5H7.7V4.9H6.3V3.5ZM6.3 6.3H7.7V10.5H6.3V6.3ZM7 0C3.136 0 0 3.136 0 7C0 10.864 3.136 14 7 14C10.864 14 14 10.864 14 7C14 3.136 10.864 0 7 0ZM7 12.6C3.913 12.6 1.4 10.087 1.4 7C1.4 3.913 3.913 1.4 7 1.4C10.087 1.4 12.6 3.913 12.6 7C12.6 10.087 10.087 12.6 7 12.6Z" stroke="none"/>
</symbol>
    
    <symbol width="16" height="16" viewBox="0 0 16 16" xmlns="http://www.w3.org/2000/svg" id="view-list">
<path d="M15.2546 2.96742C15.1723 2.82848 15.0366 2.73107 14.8801 2.69928L6.57228 0.677161C6.29848 0.623575 6.02836 0.776281 5.93359 1.04041L2.7669 9.1626L3.82409 9.55157L6.82509 1.82866L14.0436 3.6884C13.5928 5.09943 12.52 8.04451 11.4917 10.7867C10.5952 13.1792 10.0792 13.9985 9.09868 14.1658C9.09753 14.1647 9.09646 14.1635 9.09646 14.1618C7.09245 14.4454 7.12842 11.866 7.12842 11.866L0.728173 9.25586C0.273353 12.1664 2.48848 12.8664 2.48848 12.8664L7.17435 15.0144C7.17548 15.015 7.90697 15.3667 8.70201 15.3306C10.8465 15.2796 11.6001 13.7075 12.5444 11.1888C13.9086 7.54873 15.2932 3.47008 15.3068 3.42682C15.3556 3.2725 15.3363 3.10605 15.2546 2.96742Z" stroke="none"/>
<path d="M11.4673 6.24303C11.5161 6.25651 11.5666 6.26366 11.6166 6.26366C11.8634 6.26366 12.0892 6.09751 12.1584 5.84542C12.2406 5.54261 12.063 5.2298 11.7635 5.1473L9.32523 4.38748C9.02904 4.30471 8.71575 4.48259 8.63403 4.7851C8.55228 5.08788 8.72826 5.40071 9.02892 5.48352L11.4673 6.24303Z" stroke="none"/>
<path d="M7.65823 7.06063C7.5605 7.35886 7.71916 7.68002 8.01372 7.77955L10.4392 8.65466C10.4981 8.67445 10.556 8.68334 10.6144 8.68367C10.851 8.68492 11.0726 8.53425 11.1516 8.29569C11.2496 7.99827 11.0912 7.67663 10.7955 7.57715L8.37086 6.70262C8.07456 6.60362 7.75712 6.76378 7.65823 7.06063Z" stroke="none"/>
<path d="M7.44565 9.07377C7.15057 8.97408 6.83193 9.13676 6.73545 9.43588C6.63843 9.73267 6.80015 10.0547 7.09524 10.152L9.52584 11.0235C9.5844 11.0436 9.64272 11.0521 9.70185 11.0521C9.9379 11.0521 10.1581 10.9004 10.2359 10.662C10.3329 10.3635 10.1717 10.0421 9.87664 9.94468L7.44565 9.07377Z" stroke="none"/>
<path d="M7.35481 3.72461C7.69927 3.72461 7.97876 3.99904 7.97876 4.33708C7.97876 4.67539 7.69927 4.94952 7.35481 4.94952C7.01008 4.94952 6.73059 4.67536 6.73059 4.33708C6.73062 3.99904 7.01008 3.72461 7.35481 3.72461Z" stroke="none"/>
<path d="M6.47212 6.00146C6.81687 6.00146 7.09607 6.27562 7.09607 6.61363C7.09607 6.95138 6.81687 7.2255 6.47212 7.2255C6.12739 7.2255 5.8479 6.95138 5.8479 6.61363C5.8479 6.27565 6.12739 6.00146 6.47212 6.00146Z" stroke="none"/>
<path d="M5.53047 8.35059C5.87522 8.35059 6.15469 8.62504 6.15469 8.96365C6.15469 9.30164 5.87522 9.57549 5.53047 9.57549C5.18574 9.57549 4.90625 9.3017 4.90625 8.96365C4.90625 8.62504 5.18574 8.35059 5.53047 8.35059Z" stroke="none"/>
</symbol>


    <symbol width="16" height="16" viewBox="0 0 16 16" fill="none" xmlns="http://www.w3.org/2000/svg" id="icon-sync2">
<path d="M4.94065 8.93996L4.00065 7.99996L1.33398 10.6666L4.00065 13.3333L4.94065 12.3933L3.88732 11.3333H14.0007V9.99996H3.88732L4.94065 8.93996Z" fill="white"/>
<path d="M11.0607 7.05996L12.0007 7.99996L14.6673 5.33329L12.0007 2.66663L11.0607 3.60663L12.114 4.66663H2.00065V5.99996H12.114L11.0607 7.05996Z" fill="white"/>
</symbol>
    
    <symbol width="18" height="24" viewBox="0 0 18 24" fill="none" xmlns="http://www.w3.org/2000/svg" id="icon-data-sync">
      <path d="M9 3.27273V0L4.625 4.36364L9 8.72727V5.45455C12.6203 5.45455 15.5625 8.38909 15.5625 12C15.5625 13.1018 15.2891 14.1491 14.7969 15.0545L16.3938 16.6473C17.2469 15.3055 17.75 13.7127 17.75 12C17.75 7.17818 13.8344 3.27273 9 3.27273ZM9 18.5455C5.37969 18.5455 2.4375 15.6109 2.4375 12C2.4375 10.8982 2.71094 9.85091 3.20312 8.94545L1.60625 7.35273C0.753125 8.69455 0.25 10.2873 0.25 12C0.25 16.8218 4.16562 20.7273 9 20.7273V24L13.375 19.6364L9 15.2727V18.5455Z" fill="white"/>
    </symbol>
    
    <symbol width="20" height="20" viewBox="0 0 20 20" xmlns="http://www.w3.org/2000/svg">
<path d="M10 0C4.48 0 0 4.48 0 10C0 15.52 4.48 20 10 20C15.52 20 20 15.52 20 10C20 4.48 15.52 0 10 0ZM15 11H11V15H9V11H5V9H9V5H11V9H15V11Z" stroke="none"/>
</symbol>
    
    <symbol width="20" height="20" viewBox="0 0 20 20" xmlns="http://www.w3.org/2000/svg" id="plus-icon">
<path d="M10 0C4.48 0 0 4.48 0 10C0 15.52 4.48 20 10 20C15.52 20 20 15.52 20 10C20 4.48 15.52 0 10 0ZM15 11H11V15H9V11H5V9H9V5H11V9H15V11Z" stroke="none"/>
</symbol>
    
    <svg width="20" height="20" viewBox="0 0 20 20" xmlns="http://www.w3.org/2000/svg" id="minus-icon">
<path d="M10 0C4.48 0 0 4.48 0 10C0 15.52 4.48 20 10 20C15.52 20 20 15.52 20 10C20 4.48 15.52 0 10 0ZM15 11H5V9H15V11Z" stroke="none"/>
</svg>
    
  
    <symbol width="20" height="18" viewBox="0 0 20 18" xmlns="http://www.w3.org/2000/svg" id="product-editing-title">
<path d="M20.0781 5.69891L18.8283 0.699804C18.8283 0.699732 18.8283 0.69966 18.8283 0.699588C18.7484 0.375935 18.4568 0.15 18.125 0.15H1.875C1.54317 0.15 1.25162 0.375955 1.1717 0.699629C1.17169 0.699687 1.17167 0.699745 1.17166 0.699804L-0.0781164 5.69891C-0.0781419 5.69901 -0.0781674 5.69911 -0.0781928 5.69921C-0.0928103 5.75633 -0.1 5.81584 -0.1 5.875C-0.1 6.93603 0.394119 7.87488 1.15 8.46313V17.125C1.15 17.5252 1.47477 17.85 1.875 17.85H8.125C8.52523 17.85 8.85 17.5252 8.85 17.125V12.85H11.15V17.125C11.15 17.5252 11.4748 17.85 11.875 17.85H18.125C18.5252 17.85 18.85 17.5252 18.85 17.125V8.46313C19.6059 7.87488 20.1 6.93603 20.1 5.875C20.1 5.81576 20.0928 5.75617 20.0781 5.69899C20.0781 5.69896 20.0781 5.69894 20.0781 5.69891ZM17.4 16.4H12.6V12.125C12.6 11.7248 12.2752 11.4 11.875 11.4H8.125C7.72477 11.4 7.4 11.7248 7.4 12.125V16.4H2.6V9.06767C2.71866 9.08585 2.84175 9.1 2.96875 9.1C3.90968 9.1 4.75009 8.65364 5.3125 7.95488C5.87491 8.65364 6.71532 9.1 7.65625 9.1C8.59718 9.1 9.43759 8.65364 10 7.95488C10.5624 8.65364 11.4028 9.1 12.3438 9.1C13.2847 9.1 14.1251 8.65364 14.6875 7.95488C15.2499 8.65364 16.0903 9.1 17.0312 9.1C17.1582 9.1 17.2813 9.08585 17.4 9.06767V16.4ZM17.0312 7.65C16.147 7.65 15.4125 6.86189 15.4125 5.875C15.4125 5.47477 15.0877 5.15 14.6875 5.15C14.2873 5.15 13.9625 5.47477 13.9625 5.875C13.9625 6.86189 13.228 7.65 12.3438 7.65C11.4595 7.65 10.725 6.86189 10.725 5.875C10.725 5.47477 10.4002 5.15 10 5.15C9.59977 5.15 9.275 5.47477 9.275 5.875C9.275 6.86189 8.54051 7.65 7.65625 7.65C6.77199 7.65 6.0375 6.86189 6.0375 5.875C6.0375 5.47477 5.71273 5.15 5.3125 5.15C4.91227 5.15 4.5875 5.47477 4.5875 5.875C4.5875 6.86189 3.85301 7.65 2.96875 7.65C2.10962 7.65 1.39161 6.90562 1.35173 5.95792L2.44182 1.6H17.5594L18.6495 5.95786C18.6084 6.90565 17.8903 7.65 17.0312 7.65Z" stroke="none" stroke-width="0.2"/>
</symbol>
    
    <svg width="18" height="18" viewBox="0 0 18 18" fill="none" xmlns="http://www.w3.org/2000/svg" id="shopify-square-icon">
<path d="M17 0V-1H16H4C1.23858 -1 -1 1.23858 -1 4V16V17H0H12C14.7614 17 17 14.7614 17 12V0Z" fill="#27AE60"/>
<path d="M7.33333 3.42871C6.798 3.42871 6.37943 3.84536 6.10091 4.34767C5.88858 4.73062 5.74901 5.17274 5.69401 5.5805L4.88932 5.77349L4 11.5166L9.11068 12.5716L12 11.8957L11.1107 5.5386L10.444 5.36278L9.77734 4.60041L9.08008 4.768C9.04294 4.63209 8.99666 4.4973 8.93425 4.37171C8.77823 4.05779 8.52077 3.78036 8.16667 3.78036C8.11346 3.78036 8.06379 3.79075 8.01367 3.79959C7.97408 3.74172 7.93075 3.68657 7.87956 3.63888C7.73928 3.50819 7.55014 3.42871 7.33333 3.42871ZM7.33333 3.78036C7.47852 3.78036 7.57501 3.82382 7.65885 3.90193C7.66625 3.90882 7.67186 3.92048 7.67904 3.92802C7.57364 3.99313 7.47649 4.07253 7.39388 4.16635C7.19842 4.38833 7.05762 4.66921 6.95182 4.94519C6.9044 5.06889 6.86616 5.19027 6.83203 5.30714L6.05078 5.49465C6.11123 5.17076 6.22453 4.82158 6.38867 4.52555C6.63441 4.08237 6.96567 3.78036 7.33333 3.78036ZM8.17839 4.13475C8.36036 4.14116 8.51608 4.28851 8.63867 4.53517C8.68588 4.63015 8.72265 4.73742 8.75326 4.84629L8.31966 4.95C8.30272 4.67127 8.26493 4.38712 8.17839 4.13475ZM7.85156 4.22404C7.85553 4.23474 7.86079 4.24253 7.86458 4.25357C7.93944 4.47139 7.97519 4.75012 7.99023 5.02899L7.21549 5.21511C7.23136 5.16859 7.24312 5.12387 7.26107 5.07706C7.35748 4.82557 7.48514 4.57898 7.63802 4.40536C7.70533 4.32891 7.77649 4.26963 7.85156 4.22404ZM7.70964 6.47541C7.81464 6.47541 7.91194 6.48133 8.0026 6.49258C8.09427 6.50384 8.17795 6.52094 8.25195 6.54204C8.32695 6.56278 8.39134 6.58709 8.44401 6.61346L8.1237 7.57569C8.08136 7.55494 8.03029 7.53288 7.97396 7.51319C7.91696 7.49244 7.85513 7.47269 7.78646 7.45687C7.71946 7.44105 7.64631 7.42752 7.57031 7.41978C7.49431 7.41205 7.41405 7.40972 7.33138 7.41429C7.25538 7.41886 7.18762 7.43234 7.12695 7.45344C7.06729 7.47418 7.01434 7.50377 6.97201 7.53929C6.92967 7.57551 6.88107 7.6178 6.85807 7.66704C6.83407 7.71627 6.79557 7.76236 6.79557 7.91497C6.79557 8.09361 6.90766 8.22011 7.05599 8.3147C7.38932 8.52745 7.9987 8.87896 7.9987 9.77074C7.9987 10.0489 7.92428 10.2874 7.82161 10.4857C7.72061 10.6812 7.58141 10.8347 7.41341 10.9466C7.24908 11.0552 7.05888 11.1235 6.85221 11.1506C6.65121 11.1769 6.50098 11.1654 6.27865 11.1176C6.27698 11.1176 6.27445 11.1169 6.27279 11.1169C6.27112 11.1169 6.26923 11.1155 6.26823 11.1155C6.26656 11.1155 6.26404 11.1148 6.26237 11.1148C6.2607 11.1148 6.25818 11.1135 6.25651 11.1135C6.15251 11.0892 6.05168 11.057 5.95768 11.0194C5.86435 10.9824 5.77658 10.9408 5.69792 10.8944C5.61925 10.849 5.54833 10.8014 5.48633 10.7522C5.42566 10.7037 5.37367 10.6525 5.33333 10.6004L5.57878 9.80165C5.62011 9.83576 5.67118 9.87489 5.72852 9.91497C5.78718 9.95577 5.85254 9.99649 5.92188 10.0352C5.99288 10.0742 6.06817 10.1093 6.14583 10.1389C6.2245 10.1684 6.30607 10.1922 6.38607 10.2034C6.45707 10.2136 6.52051 10.2123 6.57617 10.2C6.63184 10.1877 6.6804 10.1647 6.7194 10.1327C6.75907 10.1017 6.78986 10.0617 6.8112 10.0159C6.83253 9.96952 6.84435 9.91901 6.84635 9.86415C6.84902 9.80929 6.84341 9.75714 6.83008 9.70756C6.81574 9.65727 6.79277 9.60911 6.75977 9.56058C6.72677 9.51205 6.68388 9.4632 6.63021 9.41291C6.57654 9.36263 6.5122 9.31151 6.4362 9.25701C6.34186 9.18808 6.25504 9.12082 6.15104 9.02693C6.06804 8.95238 5.99936 8.85674 5.94336 8.7625C5.88769 8.66932 5.84345 8.56865 5.81445 8.45893C5.78545 8.35027 5.77298 8.23289 5.77865 8.10454C5.78831 7.89038 5.83163 7.69251 5.9043 7.51388C5.97863 7.33418 6.08319 7.17338 6.21419 7.03448C6.34786 6.89277 6.51025 6.7722 6.69792 6.68077C6.89125 6.58653 7.14011 6.52971 7.38411 6.49877C7.49745 6.48224 7.60697 6.47541 7.70964 6.47541Z" fill="white"/>
<path d="M17 0V-1H16H4C1.23858 -1 -1 1.23858 -1 4V16V17H0H12C14.7614 17 17 14.7614 17 12V0Z" stroke="none"/>
</svg>
    
    <svg width="22" height="20" viewBox="0 0 22 20" fill="none" xmlns="http://www.w3.org/2000/svg" id="orange-alert">
<path d="M11 4.49L18.53 17.5H3.47L11 4.49ZM11 0.5L0 19.5H22L11 0.5ZM12 14.5H10V16.5H12V14.5ZM12 8.5H10V12.5H12V8.5Z" fill="#F2994A" stroke="none"/>
</svg>
    
    <svg width="20" height="20" viewBox="0 0 20 20" fill="none" xmlns="http://www.w3.org/2000/svg" id="green-alert">
<path d="M20 3.18L8.59 14.6L4.35 10.36L5.76 8.95L8.59 11.78L18.59 1.78L20 3.18ZM17.79 8.22C17.92 8.79 18 9.39 18 10C18 14.42 14.42 18 10 18C5.58 18 2 14.42 2 10C2 5.58 5.58 2 10 2C11.58 2 13.04 2.46 14.28 3.25L15.72 1.81C14.1 0.67 12.13 0 10 0C4.48 0 0 4.48 0 10C0 15.52 4.48 20 10 20C15.52 20 20 15.52 20 10C20 8.81 19.78 7.67 19.4 6.61L17.79 8.22Z" fill="#219653" stroke="none"/>
</svg>
    
    <symbol width="14" height="14" viewBox="0 0 14 14" fill="none" xmlns="http://www.w3.org/2000/svg" id="icon-check">
<path d="M10.5 4.6665L5.6875 9.479L3.5 7.2915" stroke="white" stroke-width="2" stroke-linecap="round" stroke-linejoin="round"/>
</symbol>
    
    <symbol width="12" height="12" viewBox="0 0 12 12" fill="none" xmlns="http://www.w3.org/2000/svg" id="icon-check-green">
<path d="M10 3.25L4.5 8.75L2 6.25" stroke="#219653" stroke-width="2" stroke-linecap="round" stroke-linejoin="round"/>
</symbol>
    
    <symbol width="16" height="13" viewBox="0 0 16 13" fill="none" xmlns="http://www.w3.org/2000/svg" id="exclamation-mark">
<path stroke="none" d="M0.666748 13.0002H15.3334L8.00008 0.333496L0.666748 13.0002ZM8.66675 11.0002H7.33341V9.66683H8.66675V11.0002ZM8.66675 8.3335H7.33341V5.66683H8.66675V8.3335Z" fill="#F2994A"/>
</symbol>
    
    <symbol width="12" height="10" viewBox="0 0 12 10" fill="none" xmlns="http://www.w3.org/2000/svg" id="exclamation-mark-white">
<path d="M6 2.245L9.765 8.75H2.235L6 2.245ZM6 0.25L0.5 9.75H11.5L6 0.25ZM6.5 7.25H5.5V8.25H6.5V7.25ZM6.5 4.25H5.5V6.25H6.5V4.25Z" fill="white" stroke="none"/>
</symbol>
    
    <symbol width="20" height="20" viewBox="0 0 20 20" fill="none" xmlns="http://www.w3.org/2000/svg" id="info-blue">
<path d="M9 5H11V7H9V5ZM9 9H11V15H9V9ZM10 0C4.48 0 0 4.48 0 10C0 15.52 4.48 20 10 20C15.52 20 20 15.52 20 10C20 4.48 15.52 0 10 0ZM10 18C5.59 18 2 14.41 2 10C2 5.59 5.59 2 10 2C14.41 2 18 5.59 18 10C18 14.41 14.41 18 10 18Z" fill="#2F80ED" stroke="none"/>
</symbol>
    
    <symbol width="24" height="24" viewBox="0 0 24 24" fill="none" xmlns="http://www.w3.org/2000/svg" id="edit-icon">
<path d="M0 4C0 1.79086 1.79086 0 4 0H20C22.2091 0 24 1.79086 24 4V20C24 22.2091 22.2091 24 20 24H4C1.79086 24 0 22.2091 0 20V4Z" fill="white"/>
<path d="M13.8311 9.35111L14.6489 10.1689L6.59556 18.2222H5.77778V17.4044L13.8311 9.35111ZM17.0311 4C16.8089 4 16.5778 4.08889 16.4089 4.25778L14.7822 5.88444L18.1156 9.21778L19.7422 7.59111C20.0889 7.24444 20.0889 6.68444 19.7422 6.33778L17.6622 4.25778C17.4844 4.08 17.2622 4 17.0311 4ZM13.8311 6.83556L4 16.6667V20H7.33333L17.1644 10.1689L13.8311 6.83556Z" fill="#283B49" stroke="none"/>
</symbol>
    
<svg width="24" height="24" viewBox="0 0 24 24" fill="none" xmlns="http://www.w3.org/2000/svg" id="edit-icons">
<path d="M0 4C0 1.79086 1.79086 0 4 0H20C22.2091 0 24 1.79086 24 4V20C24 22.2091 22.2091 24 20 24H4C1.79086 24 0 22.2091 0 20V4Z" fill="white"/>
<path d="M13.8311 9.35111L14.6489 10.1689L6.59556 18.2222H5.77778V17.4044L13.8311 9.35111ZM17.0311 4C16.8089 4 16.5778 4.08889 16.4089 4.25778L14.7822 5.88444L18.1156 9.21778L19.7422 7.59111C20.0889 7.24444 20.0889 6.68444 19.7422 6.33778L17.6622 4.25778C17.4844 4.08 17.2622 4 17.0311 4ZM13.8311 6.83556L4 16.6667V20H7.33333L17.1644 10.1689L13.8311 6.83556Z" fill="#283B49"/>
</svg>

    
<symbol width="10" height="12" viewBox="0 0 10 12" fill="none" xmlns="http://www.w3.org/2000/svg" id="delete-icon">
<path d="M1.00004 10.6667C1.00004 11.4 1.60004 12 2.33337 12H7.66671C8.40004 12 9.00004 11.4 9.00004 10.6667V2.66667H1.00004V10.6667ZM9.66671 0.666667H7.33337L6.66671 0H3.33337L2.66671 0.666667H0.333374V2H9.66671V0.666667Z" fill="white"/>
</symbol>
    
<symbol width="10" height="10" viewBox="0 0 10 10" fill="none" xmlns="http://www.w3.org/2000/svg" id="plus-icon-sm">
<path d="M9.66671 5.66683H5.66671V9.66683H4.33337V5.66683H0.333374V4.3335H4.33337V0.333496H5.66671V4.3335H9.66671V5.66683Z" fill="#C9632B"/>
</symbol>
    
<symbol width="60" height="60" viewBox="0 0 60 60" fill="none" xmlns="http://www.w3.org/2000/svg" id="delete-user-md">
<path d="M0 30C0 13.4315 13.4315 0 30 0V0C46.5685 0 60 13.4315 60 30V30C60 46.5685 46.5685 60 30 60V60C13.4315 60 0 46.5685 0 30V30Z" fill="#EB5757"/>
<path d="M0 0H60V60H0V0Z" fill="#EB5757"/>
<path fill-rule="evenodd" clip-rule="evenodd" d="M26.7857 17.5V19.0625H18.75V22.1875H41.25V19.0625H33.2143V17.5H26.7857ZM36.4286 42.5C38.2013 42.5 39.6429 41.0977 39.6429 39.375V23.75H20.3572V39.375C20.3572 41.0977 21.7987 42.5 23.5715 42.5H36.4286Z" fill="white"/>
</symbol>
    
<symbol width="60" height="60" viewBox="0 0 60 60" fill="none" xmlns="http://www.w3.org/2000/svg" id="user-added-check">
<path d="M59.1666 10.108L25.8875 43.4163L13.5208 31.0497L17.6333 26.9372L25.8875 35.1913L55.0541 6.02467L59.1666 10.108ZM52.7208 24.808C53.1 26.4705 53.3333 28.2205 53.3333 29.9997C53.3333 42.8913 42.8916 53.333 30 53.333C17.1083 53.333 6.66665 42.8913 6.66665 29.9997C6.66665 17.108 17.1083 6.66634 30 6.66634C34.6083 6.66634 38.8666 8.00801 42.4833 10.3122L46.6833 6.11217C41.9583 2.78717 36.2125 0.833008 30 0.833008C13.9 0.833008 0.833313 13.8997 0.833313 29.9997C0.833313 46.0997 13.9 59.1663 30 59.1663C46.1 59.1663 59.1666 46.0997 59.1666 29.9997C59.1666 26.5288 58.525 23.2038 57.4166 20.1122L52.7208 24.808Z" fill="#C9632B"/>
</symbol>

<symbol width="17" height="16" viewBox="0 0 17 16" fill="none" xmlns="http://www.w3.org/2000/svg" id="edit-email">
<path d="M9.83111 5.35111L10.6489 6.16889L2.59556 14.2222H1.77778V13.4044L9.83111 5.35111ZM13.0311 0C12.8089 0 12.5778 0.0888889 12.4089 0.257778L10.7822 1.88444L14.1156 5.21778L15.7422 3.59111C16.0889 3.24444 16.0889 2.68444 15.7422 2.33778L13.6622 0.257778C13.4844 0.08 13.2622 0 13.0311 0ZM9.83111 2.83556L0 12.6667V16H3.33333L13.1644 6.16889L9.83111 2.83556Z" fill="#283B49"/>
</symbol>
    
<symbol width="20" height="20" viewBox="0 0 20 20" fill="none" xmlns="http://www.w3.org/2000/svg" id="info_note">
<path d="M9.99958 0C4.47746 0 0 4.47746 0 9.99958C0 15.5217 4.47746 20 9.99958 20C15.5217 20 20 15.5217 20 9.99958C20 4.47746 15.5217 0 9.99958 0ZM12.0813 15.498C11.5666 15.7012 11.1568 15.8552 10.8495 15.9619C10.5431 16.0686 10.1867 16.1219 9.78116 16.1219C9.1581 16.1219 8.67302 15.9695 8.32762 15.6656C7.98222 15.3617 7.81037 14.9765 7.81037 14.5084C7.81037 14.3263 7.82307 14.1401 7.84847 13.9505C7.87471 13.7608 7.91619 13.5475 7.97291 13.3079L8.61714 11.0324C8.67386 10.814 8.72296 10.6066 8.7619 10.4135C8.80085 10.2188 8.81947 10.0402 8.81947 9.87767C8.81947 9.58815 8.75937 9.38497 8.64 9.27069C8.51894 9.1564 8.29122 9.10053 7.95175 9.10053C7.78582 9.10053 7.61481 9.12508 7.43958 9.17672C7.26603 9.23005 7.11534 9.27831 6.99175 9.32571L7.1619 8.62476C7.58349 8.45291 7.9873 8.30561 8.37249 8.1837C8.75767 8.06011 9.12169 7.99915 9.46455 7.99915C10.0834 7.99915 10.5608 8.14984 10.8969 8.44783C11.2313 8.74667 11.3998 9.13524 11.3998 9.6127C11.3998 9.71175 11.3879 9.88614 11.3651 10.135C11.3422 10.3848 11.299 10.6125 11.2364 10.8216L10.5956 13.0904C10.5431 13.2724 10.4965 13.4806 10.4542 13.7134C10.4127 13.9462 10.3924 14.124 10.3924 14.2434C10.3924 14.5448 10.4593 14.7505 10.5947 14.8597C10.7285 14.9689 10.963 15.0239 11.2948 15.0239C11.4514 15.0239 11.6267 14.996 11.8248 14.9418C12.0212 14.8876 12.1634 14.8394 12.2531 14.7979L12.0813 15.498ZM11.9678 6.2891C11.669 6.56677 11.3092 6.70561 10.8885 6.70561C10.4686 6.70561 10.1062 6.56677 9.80487 6.2891C9.50519 6.01143 9.35365 5.67365 9.35365 5.27915C9.35365 4.8855 9.50603 4.54688 9.80487 4.26667C10.1062 3.98561 10.4686 3.84593 10.8885 3.84593C11.3092 3.84593 11.6698 3.98561 11.9678 4.26667C12.2667 4.54688 12.4165 4.8855 12.4165 5.27915C12.4165 5.6745 12.2667 6.01143 11.9678 6.2891Z" fill="#283B49"/>
</symbol>
    
<symbol width="14" height="14" viewBox="0 0 14 14" fill="none" xmlns="http://www.w3.org/2000/svg" id="question-mark">
<circle cx="7" cy="7" r="7" fill="#283B49"/>
<path d="M6.375 9.72H7.625V11H6.375V9.72ZM7.625 8.76H6.375C6.375 6.68 8.25 6.84 8.25 5.56C8.25 4.856 7.6875 4.28 7 4.28C6.3125 4.28 5.75 4.856 5.75 5.56H4.5C4.5 4.1456 5.61875 3 7 3C8.38125 3 9.5 4.1456 9.5 5.56C9.5 7.16 7.625 7.32 7.625 8.76Z" fill="white"/>
</symbol>
    
<symbol width="12" height="14" viewBox="0 0 12 14" fill="none" xmlns="http://www.w3.org/2000/svg" id="calendar">
<path d="M2.66667 6.3335H4V7.66683H2.66667V6.3335ZM12 3.00016V12.3335C12 13.0668 11.4 13.6668 10.6667 13.6668H1.33333C0.593333 13.6668 0 13.0668 0 12.3335L0.00666666 3.00016C0.00666666 2.26683 0.593333 1.66683 1.33333 1.66683H2V0.333496H3.33333V1.66683H8.66667V0.333496H10V1.66683H10.6667C11.4 1.66683 12 2.26683 12 3.00016ZM1.33333 4.3335H10.6667V3.00016H1.33333V4.3335ZM10.6667 12.3335V5.66683H1.33333V12.3335H10.6667ZM8 7.66683H9.33333V6.3335H8V7.66683ZM5.33333 7.66683H6.66667V6.3335H5.33333V7.66683Z" fill="black"/>
</symbol>
    
<symbol width="12" height="12" viewBox="0 0 12 12" fill="none" xmlns="http://www.w3.org/2000/svg" id="edit-account">
<path d="M7.22058 4.23416L7.76576 4.77934L2.39687 10.1482H1.85169V9.60304L7.22058 4.23416ZM9.35391 0.666748C9.20576 0.666748 9.05169 0.726007 8.93909 0.8386L7.85465 1.92304L10.0769 4.14527L11.1613 3.06082C11.3924 2.82971 11.3924 2.45638 11.1613 2.22527L9.77465 0.8386C9.65613 0.720081 9.50798 0.666748 9.35391 0.666748ZM7.22058 2.55712L0.666504 9.11119V11.3334H2.88873L9.4428 4.77934L7.22058 2.55712Z" fill="#C9632B"/>
</symbol>
    
<symbol width="24" height="24" viewBox="0 0 24 24" fill="none" xmlns="http://www.w3.org/2000/svg" id="black-arrow">
<path d="M0 4C0 1.79086 1.79086 0 4 0H20C22.2091 0 24 1.79086 24 4V20C24 22.2091 22.2091 24 20 24H4C1.79086 24 0 22.2091 0 20V4Z" fill="white"/>
<path d="M7.41 9L12 13.6356L16.59 9L18 10.4271L12 16.5L6 10.4271L7.41 9Z" fill="black"/>
</symbol>
    
<symbol width="20" height="20" viewBox="0 0 20 20" fill="none" xmlns="http://www.w3.org/2000/svg" id="black-message">
<path d="M16.6667 3.33325H3.33341C2.41675 3.33325 1.67508 4.08325 1.67508 4.99992L1.66675 14.9999C1.66675 15.9166 2.41675 16.6666 3.33341 16.6666H16.6667C17.5834 16.6666 18.3334 15.9166 18.3334 14.9999V4.99992C18.3334 4.08325 17.5834 3.33325 16.6667 3.33325ZM16.6667 6.66659L10.0001 10.8333L3.33341 6.66659V4.99992L10.0001 9.16658L16.6667 4.99992V6.66659Z" fill="#283B49"/>
</symbol>
    
<symbol width="60" height="60" viewBox="0 0 60 60" fill="none" xmlns="http://www.w3.org/2000/svg" id="confirmtation-round">
<path d="M27.0834 38.7497H32.9167V44.583H27.0834V38.7497ZM27.0834 15.4163H32.9167V32.9163H27.0834V15.4163ZM29.9709 0.833008C13.8709 0.833008 0.833374 13.8997 0.833374 29.9997C0.833374 46.0997 13.8709 59.1663 29.9709 59.1663C46.1 59.1663 59.1667 46.0997 59.1667 29.9997C59.1667 13.8997 46.1 0.833008 29.9709 0.833008ZM30 53.333C17.1084 53.333 6.66671 42.8913 6.66671 29.9997C6.66671 17.108 17.1084 6.66634 30 6.66634C42.8917 6.66634 53.3334 17.108 53.3334 29.9997C53.3334 42.8913 42.8917 53.333 30 53.333Z" fill="#C9632B"/>
</symbol>
    
<symbol width="50" height="50" viewBox="0 0 50 50" fill="none" xmlns="http://www.w3.org/2000/svg" id="gpinfo-a">
<circle cx="25" cy="25" r="25" fill="#FBF5F0"/>
<path d="M34.1108 21.1108L28.8783 15.8783C28.4775 15.4775 27.925 15.25 27.3508 15.25H17.4167C16.225 15.25 15.25 16.225 15.25 17.4167V32.5833C15.25 33.775 16.225 34.75 17.4167 34.75H32.5833C33.775 34.75 34.75 33.775 34.75 32.5833V22.6492C34.75 22.075 34.5225 21.5225 34.1108 21.1108ZM19.5833 19.5833H27.1667V21.75H19.5833V19.5833ZM30.4167 30.4167H19.5833V28.25H30.4167V30.4167ZM30.4167 26.0833H19.5833V23.9167H30.4167V26.0833Z" fill="black"/>
</symbol>
    
<symbol width="50" height="50" viewBox="0 0 50 50" fill="none" xmlns="http://www.w3.org/2000/svg" id="gpinfo-b">
<circle cx="25" cy="25" r="25" fill="#FBF5F0"/>
<path d="M24.9892 14.1667C19.0092 14.1667 14.1667 19.02 14.1667 25C14.1667 30.98 19.0092 35.8334 24.9892 35.8334C30.98 35.8334 35.8334 30.98 35.8334 25C35.8334 19.02 30.98 14.1667 24.9892 14.1667ZM28.5642 30.1025L23.9167 25.4442V19.5834H26.0834V24.5559L30.1025 28.575L28.5642 30.1025Z" fill="black"/>
</symbol>

<symbol width="15" height="10" viewBox="0 0 15 10" fill="none" xmlns="http://www.w3.org/2000/svg" id="arrow-right">
<path d="M9.49992 0.333344L8.55992 1.27334L11.6133 4.33334H0.833252V5.66668H11.6133L8.55325 8.72668L9.49992 9.66668L14.1666 5.00001L9.49992 0.333344Z"/>
</symbol>
    
<symbol width="20" height="20" viewBox="0 0 20 20" fill="none" xmlns="http://www.w3.org/2000/svg" id="round-tick">
<path d="M20 3.18L8.59 14.6L4.35 10.36L5.76 8.95L8.59 11.78L18.59 1.78L20 3.18ZM17.79 8.22C17.92 8.79 18 9.39 18 10C18 14.42 14.42 18 10 18C5.58 18 2 14.42 2 10C2 5.58 5.58 2 10 2C11.58 2 13.04 2.46 14.28 3.25L15.72 1.81C14.1 0.67 12.13 0 10 0C4.48 0 0 4.48 0 10C0 15.52 4.48 20 10 20C15.52 20 20 15.52 20 10C20 8.81 19.78 7.67 19.4 6.61L17.79 8.22Z" fill="#BDBDBD"/>
</symbol>
    
<symbol width="20" height="20" viewBox="0 0 20 20" fill="none" xmlns="http://www.w3.org/2000/svg" id="round-tick-green">
<path d="M20 3.18L8.59 14.6L4.35 10.36L5.76 8.95L8.59 11.78L18.59 1.78L20 3.18ZM17.79 8.22C17.92 8.79 18 9.39 18 10C18 14.42 14.42 18 10 18C5.58 18 2 14.42 2 10C2 5.58 5.58 2 10 2C11.58 2 13.04 2.46 14.28 3.25L15.72 1.81C14.1 0.67 12.13 0 10 0C4.48 0 0 4.48 0 10C0 15.52 4.48 20 10 20C15.52 20 20 15.52 20 10C20 8.81 19.78 7.67 19.4 6.61L17.79 8.22Z" fill="#219653"/>
</symbol>
    
<symbol width="24" height="24" viewBox="0 0 24 24" fill="none" xmlns="http://www.w3.org/2000/svg" id="exclamation-red">
<path d="M11 15H13V17H11V15ZM11 7H13V13H11V7ZM11.99 2C6.47 2 2 6.48 2 12C2 17.52 6.47 22 11.99 22C17.52 22 22 17.52 22 12C22 6.48 17.52 2 11.99 2ZM12 20C7.58 20 4 16.42 4 12C4 7.58 7.58 4 12 4C16.42 4 20 7.58 20 12C20 16.42 16.42 20 12 20Z" fill="#D33E3E"/>
</symbol>
    
<svg width="14" height="14" viewBox="0 0 14 14" fill="none" xmlns="http://www.w3.org/2000/svg" id="sync-blue">
<rect x="6.10352e-05" width="14" height="14" rx="7" fill="#2F80ED"/>
<path d="M7.12764 3.3721V2.56043C7.12764 2.35638 6.88278 2.25662 6.74221 2.40172L5.47256 3.66684C5.38187 3.75753 5.38187 3.8981 5.47256 3.98879L6.73767 5.2539C6.88278 5.39447 7.12764 5.29471 7.12764 5.09066V4.27899C8.62855 4.27899 9.84832 5.49876 9.84832 6.99967C9.84832 7.3579 9.7803 7.70705 9.6488 8.01993C9.58079 8.18317 9.63067 8.36908 9.7531 8.49151C9.98435 8.72277 10.3743 8.64115 10.4967 8.33734C10.6645 7.92471 10.7552 7.47126 10.7552 6.99967C10.7552 4.99544 9.13187 3.3721 7.12764 3.3721ZM7.12764 9.72036C5.62673 9.72036 4.40696 8.50058 4.40696 6.99967C4.40696 6.64145 4.47497 6.2923 4.60647 5.97942C4.67449 5.81618 4.62461 5.63026 4.50218 5.50783C4.27092 5.27658 3.88096 5.3582 3.75853 5.66201C3.59075 6.07464 3.50006 6.52809 3.50006 6.99967C3.50006 9.00391 5.1234 10.6273 7.12764 10.6273V11.4389C7.12764 11.643 7.3725 11.7427 7.51307 11.5976L8.77819 10.3325C8.86888 10.2418 8.86888 10.1013 8.77819 10.0106L7.51307 8.74545C7.3725 8.60488 7.12764 8.70463 7.12764 8.90869V9.72036Z" fill="white"/>
</svg>
    
</svg>


