<svg width="24" height="24" viewBox="0 0 24 24" fill="none" xmlns="http://www.w3.org/2000/svg">
<circle cx="12" cy="12" r="12" fill="white"/>
<path d="M12 0C5.37204 0 0 5.37256 0 12C0 18.6274 5.37204 24 12 24C18.628 24 24 18.6269 24 12C24 5.37308 18.6274 0 12 0ZM14.0441 16.9212C13.3277 17.2836 12.7264 17.9317 12.7264 18.7345C12.7264 18.9512 12.5577 19.1089 12.3405 19.1089H11.4146C11.1974 19.1089 11.0224 18.9512 11.0224 18.7345C11.0224 18.0257 10.4611 17.4522 9.76632 17.3121C9.36328 17.2309 8.98545 17.1235 8.65991 16.9997C8.30741 16.866 8.11106 16.4884 8.20454 16.1229L8.35546 15.5349C8.4082 15.3286 8.54606 15.1563 8.73458 15.0597C8.9231 14.9615 9.14452 14.9516 9.34244 15.0273C9.96231 15.267 10.6945 15.4414 11.4762 15.4414C12.4716 15.4414 13.1531 15.0571 13.1531 14.3583C13.1531 13.6946 12.5943 13.2753 11.3013 12.8382C9.43227 12.2094 8.15231 11.3363 8.15231 9.64167C8.15231 8.4726 8.78173 7.49541 9.90151 6.93305C10.5594 6.60264 11.0997 6.00173 11.0997 5.2655C11.0997 5.04878 11.2851 4.85452 11.5023 4.85452H12.4282C12.6455 4.85452 12.8047 5.04878 12.8047 5.2655C12.8047 5.90522 13.3125 6.41562 13.9413 6.53335C14.2218 6.58586 14.469 6.6513 14.6957 6.7251C15.067 6.84625 15.2863 7.2353 15.1887 7.61443L15.056 8.14082C15.0043 8.34136 14.8717 8.5116 14.6899 8.60977C14.5082 8.70795 14.2936 8.72571 14.0972 8.65834C13.6512 8.50533 13.0695 8.36642 12.3321 8.36642C11.1968 8.36642 10.8297 8.85574 10.8297 9.34505C10.8297 9.92158 11.4412 10.2882 12.9259 10.8475C15.0043 11.5812 15.8393 12.5421 15.8393 14.1134C15.8389 15.2855 15.2146 16.3291 14.0441 16.9212Z" fill="#27AE60"/>
</svg>
