<svg width="0" height="0" class="hidden">
  <symbol xmlns="http://www.w3.org/2000/svg" viewBox="0 0 14 14" id="icon-cancel">
    <path d="M7 0C3.136 0 0 3.136 0 7C0 10.864 3.136 14 7 14C10.864 14 14 10.864 14 7C14 3.136 10.864 0 7 0ZM1.4 7C1.4 3.906 3.906 1.4 7 1.4C8.295 1.4 9.485 1.841 10.43 2.583L2.583 10.43C1.841 9.485 1.4 8.295 1.4 7ZM7 12.6C5.705 12.6 4.515 12.159 3.57 11.417L11.417 3.57C12.159 4.515 12.6 5.705 12.6 7C12.6 10.094 10.094 12.6 7 12.6Z" stroke="none"></path>
  </symbol>
  <symbol viewBox="0 0 10 8" xmlns="http://www.w3.org/2000/svg" id="icon-ready">
    <path d="M9.00024 1L3.50024 6.5L1.00024 4" fill="none" stroke-width="2" stroke-linecap="round" stroke-linejoin="round"/>
  </symbol>
  <symbol  viewBox="0 0 10 12" xmlns="http://www.w3.org/2000/svg" id="icon-pushed">
    <path d="M8.81408 4.70946L5.44882 1.19419C5.32979 1.06984 5.16835 1 5.00002 1C4.83165 1 4.67021 1.06989 4.55118 1.19423L1.18592 4.70973C0.938028 4.96867 0.938028 5.38847 1.18592 5.64741C1.30982 5.77693 1.47227 5.84164 1.63472 5.84164C1.79717 5.84164 1.95962 5.77688 2.08356 5.64741L4.36516 3.26396L4.36524 10.3369C4.36524 10.7032 4.64943 11 4.99998 11C5.35052 11 5.63472 10.7031 5.63472 10.3369L5.63463 3.26366L7.91644 5.64719C8.16428 5.90609 8.5662 5.90613 8.81408 5.64715C9.06197 5.3882 9.06197 4.9684 8.81408 4.70946Z"  stroke-width="0.8"/>
  </symbol>
  <symbol viewBox="0 0 16 4" xmlns="http://www.w3.org/2000/svg" id="icon-more">
    <path d="M2 0C0.9 0 0 0.9 0 2C0 3.1 0.9 4 2 4C3.1 4 4 3.1 4 2C4 0.9 3.1 0 2 0ZM14 0C12.9 0 12 0.9 12 2C12 3.1 12.9 4 14 4C15.1 4 16 3.1 16 2C16 0.9 15.1 0 14 0ZM8 0C6.9 0 6 0.9 6 2C6 3.1 6.9 4 8 4C9.1 4 10 3.1 10 2C10 0.9 9.1 0 8 0Z" stroke="none"/>
  </symbol>
  <symbol  viewBox="0 0 14 16" xmlns="http://www.w3.org/2000/svg" id="icon-download">
    <path d="M12.6241 0H4.53255C4.40821 0 4.28899 0.0494063 4.20109 0.137313L1.0439 3.29484C0.956023 3.38275 0.906616 3.50197 0.906616 3.62628V15.5312C0.906616 15.7901 1.11649 16 1.37537 16H12.6241C12.883 16 13.0929 15.7901 13.0929 15.5312V0.46875C13.0929 0.209875 12.8831 0 12.6241 0ZM4.06377 1.60053V3.15716H2.5073L4.06377 1.60053ZM12.1554 15.0625H1.84415V4.09466H4.53255C4.79143 4.09466 5.0013 3.88478 5.0013 3.62591V0.9375H12.1554V15.0625Z" stroke="none"/>
    <path d="M4.78498 8.9725C4.61079 8.9725 4.45095 9.06909 4.36995 9.22334C4.28898 9.37759 4.3002 9.564 4.3991 9.7074L6.61395 12.9186C6.70145 13.0455 6.8457 13.1212 6.99982 13.1212C7.15395 13.1212 7.2982 13.0455 7.3857 12.9186L9.60054 9.7074C9.69945 9.564 9.71067 9.37759 9.6297 9.22334C9.5487 9.06909 9.38885 8.9725 9.21467 8.9725H8.65451V6.3009C8.65451 6.04203 8.44464 5.83215 8.18576 5.83215H5.81395C5.55507 5.83215 5.3452 6.04203 5.3452 6.3009V8.9725H4.78498ZM5.81392 9.91C6.07279 9.91 6.28267 9.70012 6.28267 9.44125V6.76965H7.71698V9.44125C7.71698 9.70012 7.92685 9.91 8.18573 9.91H8.32192L6.99982 11.8268L5.67773 9.91H5.81392Z" stroke="none"/>
  </symbol>

  <symbol xmlns="http://www.w3.org/2000/svg" viewBox="0 0 14 8" id="icon-connected">
    <path d="M1.33012 4C1.33012 2.803 2.30312 1.83 3.50012 1.83H6.30012V0.5H3.50012C1.56812 0.5 0.00012207 2.068 0.00012207 4C0.00012207 5.932 1.56812 7.5 3.50012 7.5H6.30012V6.17H3.50012C2.30312 6.17 1.33012 5.197 1.33012 4ZM4.20012 4.7H9.80012V3.3H4.20012V4.7ZM10.5001 0.5H7.70012V1.83H10.5001C11.6971 1.83 12.6701 2.803 12.6701 4C12.6701 5.197 11.6971 6.17 10.5001 6.17H7.70012V7.5H10.5001C12.4321 7.5 14.0001 5.932 14.0001 4C14.0001 2.068 12.4321 0.5 10.5001 0.5Z" stroke="none"></path>
  </symbol>
  <symbol xmlns="http://www.w3.org/2000/svg" viewBox="0 0 14 14" id="icon-not-connected">
    <path d="M10.5 3.50001H7.7V4.83001H10.5C11.697 4.83001 12.67 5.80301 12.67 7.00001C12.67 8.00101 11.984 8.84101 11.053 9.08601L12.075 10.108C13.216 9.52701 14 8.36501 14 7.00001C14 5.06801 12.432 3.50001 10.5 3.50001ZM9.8 6.30001H8.267L9.667 7.70001H9.8V6.30001ZM0 1.58901L2.177 3.76601C0.903 4.28401 0 5.53701 0 7.00001C0 8.93201 1.568 10.5 3.5 10.5H6.3V9.17001H3.5C2.303 9.17001 1.33 8.19701 1.33 7.00001C1.33 5.88701 2.177 4.97001 3.262 4.85101L4.711 6.30001H4.2V7.70001H6.111L7.7 9.28901V10.5H8.911L11.718 13.3L12.6 12.418L0.889 0.700012L0 1.58901Z" stroke="none"></path>
  </symbol>
  <symbol viewBox="0 0 17 20" xmlns="http://www.w3.org/2000/svg" id="icon-question">
    <path d="M8.5 0C3.81 0 0 3.81 0 8.5C0 13.19 3.81 17 8.5 17H9V20C13.86 17.66 17 13 17 8.5C17 3.81 13.19 0 8.5 0ZM9.5 14.5H7.5V12.5H9.5V14.5ZM9.5 11H7.5C7.5 7.75 10.5 8 10.5 6C10.5 4.9 9.6 4 8.5 4C7.4 4 6.5 4.9 6.5 6H4.5C4.5 3.79 6.29 2 8.5 2C10.71 2 12.5 3.79 12.5 6C12.5 8.5 9.5 8.75 9.5 11Z" stroke="none"/>
  </symbol>
  <symbol xmlns="http://www.w3.org/2000/svg" viewBox="0 0 7 12" id="icon-pending">
    <path d="M0 0V3.6H0.00583347L0 3.606L2.33333 6L0 8.4L0.00583347 8.406H0V12H7V8.406H6.99417L7 8.4L4.66667 6L7 3.606L6.99417 3.6H7V0H0ZM5.83333 8.7V10.8H1.16667V8.7L3.5 6.3L5.83333 8.7ZM3.5 5.7L1.16667 3.3V1.2H5.83333V3.3L3.5 5.7Z" stroke="none"></path>
  </symbol>
  <symbol xmlns="http://www.w3.org/2000/svg" viewBox="0 0 8 4" id="icon-polygon--up">
    <path d="M8 4L4 -5.96046e-08L-1.19209e-07 4H8Z" stroke="none"></path>
  </symbol>
  <symbol viewBox="0 0 18 18" xmlns="http://www.w3.org/2000/svg" id="icon-zoom">
    <path d="M12.8645 11.3208H12.0515L11.7633 11.0429C12.7719 9.86964 13.3791 8.34648 13.3791 6.68954C13.3791 2.99485 10.3842 0 6.68954 0C2.99485 0 0 2.99485 0 6.68954C0 10.3842 2.99485 13.3791 6.68954 13.3791C8.34648 13.3791 9.86964 12.7719 11.0429 11.7633L11.3208 12.0515V12.8645L16.4666 18L18 16.4666L12.8645 11.3208V11.3208ZM6.68954 11.3208C4.12693 11.3208 2.05832 9.25214 2.05832 6.68954C2.05832 4.12693 4.12693 2.05832 6.68954 2.05832C9.25214 2.05832 11.3208 4.12693 11.3208 6.68954C11.3208 9.25214 9.25214 11.3208 6.68954 11.3208Z" stroke="none"/>
    <path d="M9.26244 7.20412H7.20412V9.26244H6.17496V7.20412H4.11664V6.17496H6.17496V4.11664H7.20412V6.17496H9.26244V7.20412Z" stroke="none"/>
  </symbol>
  <symbol viewBox="0 0 16 16" xmlns="http://www.w3.org/2000/svg" id="icon-link">
    <path d="M14.2222 14.2222H1.77778V1.77778H8V0H1.77778C0.791111 0 0 0.8 0 1.77778V14.2222C0 15.2 0.791111 16 1.77778 16H14.2222C15.2 16 16 15.2 16 14.2222V8H14.2222V14.2222ZM9.77778 0V1.77778H12.9689L4.23111 10.5156L5.48444 11.7689L14.2222 3.03111V6.22222H16V0H9.77778Z" stroke="none"/>
  </symbol>
  <symbol xmlns="http://www.w3.org/2000/svg" viewBox="0 0 16 16" id="icon-search">
    <path d="M7.33333 12.6667C10.2789 12.6667 12.6667 10.2789 12.6667 7.33333C12.6667 4.38781 10.2789 2 7.33333 2C4.38781 2 2 4.38781 2 7.33333C2 10.2789 4.38781 12.6667 7.33333 12.6667Z" fill="none" stroke-width="2" stroke-linecap="round" stroke-linejoin="round"></path>
    <path d="M14 14L11.1 11.1" fill="none" stroke-width="2" stroke-linecap="round" stroke-linejoin="round"></path>
  </symbol>
  <symbol xmlns="http://www.w3.org/2000/svg" viewBox="0 0 12 12" id="icon-arrow--down">
    <path d="M5.25 0L5.25 9.1275L1.0575 4.935L0 6L6 12L12 6L10.9425 4.9425L6.75 9.1275L6.75 0H5.25Z" stroke="none"></path>
  </symbol>
  <symbol xmlns="http://www.w3.org/2000/svg" viewBox="0 0 12 12" id="icon-arrow--left">
    <path d="M12 5.25H2.8725L7.065 1.0575L6 0L0 6L6 12L7.0575 10.9425L2.8725 6.75H12V5.25Z" stroke="none"></path>
  </symbol>
  <symbol xmlns="http://www.w3.org/2000/svg" viewBox="0 0 12 12" id="icon-arrow--right">
    <path d="M0 6.75L9.1275 6.75L4.935 10.9425L6 12L12 6L6 0L4.9425 1.0575L9.1275 5.25L0 5.25V6.75Z" stroke="none"></path>
  </symbol>
  <symbol xmlns="http://www.w3.org/2000/svg" viewBox="0 0 12 12" id="icon-arrow--up">
    <path d="M6.75 12L6.75 2.8725L10.9425 7.065L12 6L6 0L0 6L1.0575 7.0575L5.25 2.8725L5.25 12H6.75Z" stroke="none"></path>
  </symbol>
  <symbol xmlns="http://www.w3.org/2000/svg" viewBox="0 0 20 20" id="icon-brands">
    <path d="M19.9888 4.32C19.985 4.2775 19.9762 4.2375 19.9637 4.19625C19.9513 4.155 19.9362 4.1175 19.9163 4.08C19.9075 4.06375 19.9062 4.04375 19.895 4.0275L17.395 0.2775C17.2788 0.105 17.0837 0 16.875 0H3.125C2.91625 0 2.72125 0.105 2.605 0.27875L0.105 4.02875C0.09375 4.045 0.0925 4.06375 0.08375 4.08125C0.06375 4.11875 0.04875 4.15625 0.03625 4.1975C0.02375 4.23875 0.015 4.27875 0.01125 4.32125C0.00875 4.33875 0 4.355 0 4.375V18.75C0 19.44 0.56125 20 1.25 20H18.75C19.4387 20 20 19.44 20 18.75V4.375C20 4.355 19.9913 4.33875 19.9888 4.32ZM16.54 1.25L18.2075 3.75H12.405L11.9875 1.25H16.54ZM9.27875 1.25H10.72L11.1375 3.75H8.8625L9.27875 1.25ZM8.75 5H11.25V7.25875L10.1975 6.90625C10.0688 6.865 9.93 6.865 9.8025 6.90625L8.75 7.25875V5ZM3.46 1.25H8.0125L7.595 3.75H1.7925L3.46 1.25ZM18.75 19.375V18.75H1.25V5H7.5V8.125C7.5 8.32625 7.59625 8.515 7.76 8.63125C7.9225 8.75 8.13125 8.7775 8.3225 8.71875L10 8.15875L11.6775 8.7175C11.7425 8.73875 11.8088 8.75 11.875 8.75C12.005 8.75 12.1325 8.71 12.24 8.63125C12.4037 8.515 12.5 8.32625 12.5 8.125V5H18.75V18.75C18.75 18.75 18.75 18.75 18.7513 18.75L18.75 19.375Z" stroke="none"></path>
  </symbol>
  <symbol xmlns="http://www.w3.org/2000/svg" viewBox="0 0 8 5" id="icon-chevron--down">
    <path d="M7.06 -8.7178e-08L4 3.09042L0.94 -8.7178e-08L-2.38419e-07 0.951417L4 5L8 0.951417L7.06 -8.7178e-08Z" stroke="none"></path>
  </symbol>
  <symbol viewBox="0 0 20 40" xmlns="http://www.w3.org/2000/svg" id="icon-chevron--left">
    <path d="M20 3.57576L16.9666 0L0 20L16.9666 40L20 36.4242L6.06684 20L20 3.57576Z" stroke="none"/>
  </symbol>
  <symbol viewBox="0 0 20 40" xmlns="http://www.w3.org/2000/svg" id="icon-chevron--right">
    <path d="M0 4.24L13.0033 20L0 35.76L3.49835 40L20 20L3.49835 0L0 4.24Z" stroke="none" />
  </symbol>
  <symbol xmlns="http://www.w3.org/2000/svg" viewBox="0 0 8 5" id="icon-chevron--up">
    <path d="M0.94 5L4 1.90958L7.06 5L8 4.04858L4 0L0 4.04858L0.94 5Z" stroke="none"></path>
  </symbol>
  <symbol viewBox="0 0 12 12" xmlns="http://www.w3.org/2000/svg" id="icon-clear">
    <path d="M6 0C2.682 0 0 2.682 0 6C0 9.318 2.682 12 6 12C9.318 12 12 9.318 12 6C12 2.682 9.318 0 6 0ZM9 8.154L8.154 9L6 6.846L3.846 9L3 8.154L5.154 6L3 3.846L3.846 3L6 5.154L8.154 3L9 3.846L6.846 6L9 8.154Z" stroke="none"/>
  </symbol>
  <symbol viewBox="0 0 12 12" xmlns="http://www.w3.org/2000/svg" id="icon-close">
    <path d="M12 1.20857L10.7914 0L6 4.79143L1.20857 0L0 1.20857L4.79143 6L0 10.7914L1.20857 12L6 7.20857L10.7914 12L12 10.7914L7.20857 6L12 1.20857Z" stroke="none"/>
  </symbol>

  <symbol viewBox="0 0 24 24" xmlns="http://www.w3.org/2000/svg" id="icon-dropship">
    <path fill-rule="evenodd" clip-rule="evenodd" d="M19.8827 9.80008C19.2324 6.50584 15.9506 4.00008 11.9999 4.00008C8.04925 4.00008 4.76745 6.50584 4.11708 9.80008C4.04011 10.19 4 10.5909 4 11V11.0001H4.64653L7.8559 14.4112C8.08297 14.6526 8.46269 14.6641 8.70404 14.4371C8.94538 14.21 8.95695 13.8303 8.72988 13.5889L6.29416 11.0001H11.4L11.4 12.8001C11.4 13.1315 11.6686 13.4001 12 13.4001C12.3314 13.4001 12.6 13.1315 12.6 12.8001L12.6 11.0001H17.7056L15.27 13.5888C15.0429 13.8302 15.0545 14.2099 15.2958 14.437C15.5372 14.664 15.9169 14.6525 16.144 14.4111L19.3532 11.0001H19.9998V11C19.9998 10.5909 19.9597 10.19 19.8827 9.80008ZM18.6503 9.80008C18.0117 7.26011 15.3897 5.20008 11.9999 5.20008C8.61011 5.20008 5.98815 7.26011 5.3495 9.80008H18.6503ZM12.9999 15.2H10.9999C10.5581 15.2 10.1999 15.5582 10.1999 16V18C10.1999 18.4418 10.5581 18.8 10.9999 18.8H12.9999C13.4418 18.8 13.7999 18.4418 13.7999 18V16C13.7999 15.5582 13.4418 15.2 12.9999 15.2ZM10.9999 14C9.89538 14 8.99995 14.8954 8.99995 16V18C8.99995 19.1045 9.89538 20 10.9999 20H12.9999C14.1045 20 14.9999 19.1045 14.9999 18V16C14.9999 14.8954 14.1045 14 12.9999 14H10.9999Z" stroke="none"/>
    <line x1="11.4999" y1="17.4999" x2="11.9999" y2="17.4999" fill="none"  stroke-linecap="round"/>
    <circle cx="12" cy="12" r="11.5" fill="none"/>
  </symbol>
  <symbol xmlns="http://www.w3.org/2000/svg" viewBox="0 0 24 22" id="icon-retailers">
    <path d="M23.9775 7.0685L22.4775 1.0685C22.395 0.734 22.0935 0.5 21.75 0.5H2.25C1.9065 0.5 1.605 0.734 1.5225 1.0685L0.0225 7.0685C0.0075 7.127 0 7.1885 0 7.25C0 8.507 0.5955 9.6155 1.5 10.2965V20.75C1.5 21.164 1.836 21.5 2.25 21.5H9.75C10.164 21.5 10.5 21.164 10.5 20.75V15.5H13.5V20.75C13.5 21.164 13.836 21.5 14.25 21.5H21.75C22.164 21.5 22.5 21.164 22.5 20.75V10.2965C23.4045 9.6155 24 8.507 24 7.25C24 7.1885 23.9925 7.127 23.9775 7.0685ZM21 20H15V14.75C15 14.336 14.664 14 14.25 14H9.75C9.336 14 9 14.336 9 14.75V20H3V10.94C3.1845 10.9715 3.3705 11 3.5625 11C4.7055 11 5.7225 10.4315 6.375 9.5495C7.0275 10.4315 8.0445 11 9.1875 11C10.3305 11 11.3475 10.4315 12 9.5495C12.6525 10.4315 13.6695 11 14.8125 11C15.9555 11 16.9725 10.4315 17.625 9.5495C18.2775 10.4315 19.2945 11 20.4375 11C20.6295 11 20.8155 10.9715 21 10.94V20ZM20.4375 9.5C19.3005 9.5 18.375 8.4905 18.375 7.25C18.375 6.836 18.039 6.5 17.625 6.5C17.211 6.5 16.875 6.836 16.875 7.25C16.875 8.4905 15.9495 9.5 14.8125 9.5C13.6755 9.5 12.75 8.4905 12.75 7.25C12.75 6.836 12.414 6.5 12 6.5C11.586 6.5 11.25 6.836 11.25 7.25C11.25 8.4905 10.3245 9.5 9.1875 9.5C8.0505 9.5 7.125 8.4905 7.125 7.25C7.125 6.836 6.789 6.5 6.375 6.5C5.961 6.5 5.625 6.836 5.625 7.25C5.625 8.4905 4.6995 9.5 3.5625 9.5C2.4525 9.5 1.5435 8.537 1.5015 7.337L2.8365 2H21.165L22.5 7.337C22.4565 8.537 21.5475 9.5 20.4375 9.5Z" stroke="none"></path>
  </symbol>
  <symbol viewBox="0 0 14 18" xmlns="http://www.w3.org/2000/svg" id="icon-play">
    <path d="M13.7409 9.49486L1.40438 17.9004C1.31674 17.96 1.21492 17.9942 1.10977 17.9993C1.00463 18.0045 0.900082 17.9804 0.807277 17.9296C0.714472 17.8788 0.636883 17.8032 0.582771 17.711C0.52866 17.6187 0.500054 17.5131 0.5 17.4055V0.594479C0.500054 0.486892 0.52866 0.381334 0.582771 0.289049C0.636883 0.196763 0.714472 0.121206 0.807277 0.0704242C0.900082 0.0196427 1.00463 -0.00446133 1.10977 0.000679522C1.21492 0.00582037 1.31674 0.0400138 1.40438 0.0996173L13.7409 8.50514C13.8206 8.55946 13.886 8.63304 13.9312 8.71937C13.9764 8.8057 14 8.90209 14 9C14 9.09791 13.9764 9.19431 13.9312 9.28063C13.886 9.36696 13.8206 9.44055 13.7409 9.49486V9.49486Z" stroke="none"/>
  </symbol>
  <symbol viewBox="0 0 10 8" xmlns="http://www.w3.org/2000/svg" id="icon-checked">
    <path d="M9 1L3.5 6.5L1 4" fill="none"  stroke-width="2" stroke-linecap="round" stroke-linejoin="round"/>
  </symbol>
  <svg viewBox="0 0 42 30" xmlns="http://www.w3.org/2000/svg" id="icon-checked-1">
    <path d="M16.2037 28.5609C16.006 28.5609 15.9072 28.4608 15.7095 28.3607L1.2785 16.8518C0.981967 16.5515 0.883125 16.1512 1.17965 15.7509C1.47618 15.4507 1.87155 15.3506 2.26692 15.6508L16.2037 26.7595L38.7398 1.23957C39.0363 0.93934 39.5306 0.93934 39.8271 1.1395C40.1236 1.43973 40.1236 1.94012 39.9259 2.24036L16.7968 28.2607C16.5991 28.4608 16.4014 28.5609 16.2037 28.5609Z" stroke-width="2"/>
  </svg>
  <symbol viewBox="0 0 14 12" xmlns="http://www.w3.org/2000/svg" id="icon-danger">
    <path d="M0.583984 11.25H13.4173L7.00065 0.166672L0.583984 11.25ZM7.58398 9.50001H6.41732V8.33334H7.58398V9.50001ZM7.58398 7.16667H6.41732V4.83334H7.58398V7.16667Z" stroke="none"/>
  </symbol>
  <symbol viewBox="0 0 24 24" xmlns="http://www.w3.org/2000/svg" id="icon-danger-1">
    <path fill-rule="evenodd" clip-rule="evenodd" d="M12 14C11.4477 14 11 13.5523 11 13V10C11 9.44772 11.4477 9 12 9C12.5523 9 13 9.44772 13 10V13C13 13.5523 12.5523 14 12 14Z" stroke="none"/>
    <path d="M10.5 16.5C10.5 15.6716 11.1716 15 12 15C12.8284 15 13.5 15.6716 13.5 16.5C13.5 17.3284 12.8284 18 12 18C11.1716 18 10.5 17.3284 10.5 16.5Z" stroke="none"/>
    <path fill-rule="evenodd" clip-rule="evenodd" d="M10.2301 3.2156C10.98 1.79093 13.02 1.79092 13.7698 3.2156L22.1135 19.0685C22.8144 20.4003 21.8486 22 20.3436 22H3.65635C2.15133 22 1.18556 20.4003 1.88651 19.0685L10.2301 3.2156ZM20.3436 20L12 4.1471L3.65635 20H20.3436Z" stroke="none"/>
  </symbol>
  <symbol viewBox="0 0 16 16" xmlns="http://www.w3.org/2000/svg" id="icon-list">
    <path d="M15.9141 2.51008C15.8244 2.35852 15.6764 2.25225 15.5056 2.21757L6.44253 0.0116262C6.14384 -0.0468313 5.84916 0.119756 5.74578 0.407897L2.29121 9.26846L3.4445 9.69278L6.71831 1.26781L14.593 3.29661C14.1012 4.83591 12.931 8.04872 11.8091 11.0402C10.8311 13.6502 10.2683 14.544 9.1986 14.7265C9.19734 14.7253 9.19617 14.724 9.19617 14.7221C7.00998 15.0315 7.04922 12.2177 7.04922 12.2177L0.0671423 9.37019C-0.429025 12.5453 1.98747 13.309 1.98747 13.309L7.09933 15.6522C7.10056 15.6528 7.89855 16.0366 8.76586 15.9972C11.1053 15.9415 11.9274 14.2265 12.9575 11.4789C14.4457 7.50788 15.9562 3.05844 15.9711 3.01125C16.0243 2.8429 16.0033 2.66132 15.9141 2.51008Z" stroke="none"/>
    <path d="M11.7846 6.08336C11.8378 6.09806 11.8929 6.10586 11.9474 6.10586C12.2166 6.10586 12.463 5.92461 12.5385 5.6496C12.6282 5.31927 12.4344 4.97802 12.1077 4.88802L9.44774 4.05913C9.12463 3.96883 8.78286 4.16288 8.69371 4.49289C8.60453 4.82319 8.79651 5.16447 9.1245 5.2548L11.7846 6.08336Z" stroke="none"/>
    <path d="M7.62521 6.97516C7.51859 7.30049 7.69168 7.65085 8.01301 7.75944L10.659 8.71409C10.7233 8.73568 10.7864 8.74538 10.8501 8.74574C11.1082 8.74711 11.35 8.58274 11.4361 8.32249C11.543 7.99804 11.3703 7.64716 11.0476 7.53864L8.40263 6.5846C8.07939 6.4766 7.73308 6.65132 7.62521 6.97516Z" stroke="none"/>
    <path d="M7.39535 9.17132C7.07343 9.06257 6.72583 9.24003 6.62058 9.56635C6.51474 9.89011 6.69116 10.2414 7.01307 10.3476L9.66463 11.2983C9.72852 11.3202 9.79215 11.3295 9.85665 11.3295C10.1142 11.3295 10.3544 11.164 10.4392 10.9039C10.545 10.5783 10.3692 10.2277 10.0473 10.1214L7.39535 9.17132Z" stroke="none"/>
    <path d="M7.29815 3.33635C7.67392 3.33635 7.97882 3.63572 7.97882 4.0045C7.97882 4.37356 7.67392 4.67261 7.29815 4.67261C6.92209 4.67261 6.61719 4.37353 6.61719 4.0045C6.61722 3.63572 6.92209 3.33635 7.29815 3.33635Z" stroke="none"/>
    <path d="M6.33331 5.82008C6.7094 5.82008 7.01398 6.11916 7.01398 6.4879C7.01398 6.85635 6.7094 7.1554 6.33331 7.1554C5.95724 7.1554 5.65234 6.85635 5.65234 6.4879C5.65234 6.1192 5.95724 5.82008 6.33331 5.82008Z" stroke="none"/>
    <path d="M5.30596 8.38271C5.68206 8.38271 5.98693 8.68211 5.98693 9.05151C5.98693 9.42021 5.68206 9.71897 5.30596 9.71897C4.9299 9.71897 4.625 9.42028 4.625 9.05151C4.625 8.68211 4.9299 8.38271 5.30596 8.38271Z" stroke="none"/>
  </symbol>
  <symbol viewBox="0 0 14 14" xmlns="http://www.w3.org/2000/svg" id="icon-info">
    <path d="M7 0C3.136 0 0 3.136 0 7C0 10.864 3.136 14 7 14C10.864 14 14 10.864 14 7C14 3.136 10.864 0 7 0ZM7.7 10.5H6.3V6.3H7.7V10.5ZM7.7 4.9H6.3V3.5H7.7V4.9Z" stroke="none"/>
  </symbol>
  <symbol viewBox="0 0 60 60" xmlns="http://www.w3.org/2000/svg" id="icon-info-1">
    <path d="M27 39H33V45H27V39ZM27 15H33V33H27V15ZM29.97 0C13.41 0 0 13.44 0 30C0 46.56 13.41 60 29.97 60C46.56 60 60 46.56 60 30C60 13.44 46.56 0 29.97 0ZM30 54C16.74 54 6 43.26 6 30C6 16.74 16.74 6 30 6C43.26 6 54 16.74 54 30C54 43.26 43.26 54 30 54Z" stroke="none"/>
  </symbol>
  <symbol xmlns="http://www.w3.org/2000/svg" viewBox="0 0 22 18" id="icon-mail">
    <path d="M3 1H19C20.1 1 21 1.9 21 3V15C21 16.1 20.1 17 19 17H3C1.9 17 1 16.1 1 15V3C1 1.9 1.9 1 3 1Z" fill="none" stroke-width="2" stroke-linecap="round" stroke-linejoin="round"></path>
    <path d="M21 3L11 10L1 3" fill="none" stroke-width="2" stroke-linecap="round" stroke-linejoin="round"></path>
  </symbol>
  <symbol xmlns="http://www.w3.org/2000/svg" viewBox="0 0 20 22" id="icon-notification">
    <path d="M16 7C16 5.4087 15.3679 3.88258 14.2426 2.75736C13.1174 1.63214 11.5913 1 10 1C8.4087 1 6.88258 1.63214 5.75736 2.75736C4.63214 3.88258 4 5.4087 4 7C4 14 1 16 1 16H19C19 16 16 14 16 7Z" fill="none" stroke-width="2" stroke-linecap="round" stroke-linejoin="round"></path>
    <path d="M11.73 20C11.5542 20.3031 11.3019 20.5547 10.9982 20.7295C10.6946 20.9044 10.3504 20.9965 10 20.9965C9.64964 20.9965 9.30541 20.9044 9.00179 20.7295C8.69818 20.5547 8.44583 20.3031 8.27002 20" fill="none" stroke-width="2" stroke-linecap="round" stroke-linejoin="round"></path>
  </symbol>
  <symbol xmlns="http://www.w3.org/2000/svg" viewBox="0 0 8 4" id="icon-polygon--down">
    <path d="M0 0L4 4L8 0L0 0Z" stroke="none"></path>
  </symbol>
  <symbol xmlns="http://www.w3.org/2000/svg" viewBox="0 0 4 8" id="icon-polygon--left">
    <path d="M4 0L-5.96046e-08 4L4 8L4 0Z" stroke="none"></path>
  </symbol>
  <symbol xmlns="http://www.w3.org/2000/svg" viewBox="0 0 4 8" id="icon-polygon--right">
    <path d="M0 8L4 4L0 -1.19209e-07L0 8Z" stroke="none"></path>
  </symbol>
    
    <symbol width="16" height="20" viewBox="0 0 16 20" xmlns="http://www.w3.org/2000/svg" id="doc">
<path d="M4 14H12V16H4V14ZM4 10H12V12H4V10ZM10 0H2C0.9 0 0 0.9 0 2V18C0 19.1 0.89 20 1.99 20H14C15.1 20 16 19.1 16 18V6L10 0ZM14 18H2V2H9V7H14V18Z" fill="red" stroke="none" />
</symbol>

    
      <symbol xmlns="http://www.w3.org/2000/svg" viewBox="0 0 24 24" id="icon-not-available">
    <path d="M12 1C5.93457 1 1 5.95073 1 12.036C1.55301 26.6567 22.4492 26.6527 23 12.0359C23 5.95073 18.0654 1 12 1ZM2.28906 12.036C2.19539 4.92162 10.0015 0.0732335 16.2858 3.29515L14.8707 5.75419L12.3223 4.27804C12.1228 4.16255 11.8772 4.16255 11.6777 4.27804L5.46445 7.87695C5.26504 7.99244 5.14219 8.20591 5.14219 8.43694V15.635C5.14219 15.8661 5.26504 16.0796 5.46445 16.195L8.01293 17.6712L6.59874 20.1287C4.00158 18.3782 2.28906 15.4041 2.28906 12.036ZM11.764 11.1528L7.07574 8.43698L8.89332 7.38421L12.6729 9.57343L11.764 11.1528ZM11.1195 12.2728L8.65742 16.5512L6.43121 15.2617V9.55701L11.1195 12.2728ZM11.3555 14.4493V18.1139L9.77379 17.1978L11.3555 14.4493ZM12.6445 12.4095L14.4621 11.3566V11.9621C14.4937 12.8189 15.7197 12.8187 15.7512 11.9621V10.6099L17.5688 9.55701V15.2617L12.6445 18.1139V12.4095ZM15.1068 9.4898L14.4338 9.1L15.3425 7.52086L16.9242 8.43698L15.1068 9.4898ZM13.3175 8.45336L10.1825 6.63751L12 5.58473L14.2262 6.87422L13.3175 8.45336ZM12 21.7787C10.4624 21.7787 9.00757 21.4178 7.71417 20.7768L9.12926 18.3178L11.6777 19.7939C11.8772 19.9094 12.1228 19.9094 12.3223 19.7939L18.5355 16.195C18.735 16.0796 18.8578 15.8661 18.8578 15.635V8.43694C18.8578 8.20591 18.735 7.99244 18.5355 7.87695L15.9871 6.40079L17.4013 3.9433C25.2736 9.22455 21.5964 21.7395 12 21.7787Z" fill="#828282"/>
  </symbol>
    
    <symbol width="24" height="24" viewBox="0 0 24 24" fill="none" xmlns="http://www.w3.org/2000/svg" id="edit-icon">
<path d="M0 4C0 1.79086 1.79086 0 4 0H20C22.2091 0 24 1.79086 24 4V20C24 22.2091 22.2091 24 20 24H4C1.79086 24 0 22.2091 0 20V4Z" fill="white"/>
<path d="M13.8311 9.35111L14.6489 10.1689L6.59556 18.2222H5.77778V17.4044L13.8311 9.35111ZM17.0311 4C16.8089 4 16.5778 4.08889 16.4089 4.25778L14.7822 5.88444L18.1156 9.21778L19.7422 7.59111C20.0889 7.24444 20.0889 6.68444 19.7422 6.33778L17.6622 4.25778C17.4844 4.08 17.2622 4 17.0311 4ZM13.8311 6.83556L4 16.6667V20H7.33333L17.1644 10.1689L13.8311 6.83556Z" fill="#283B49" stroke="none"/>
</symbol>
    
<svg width="24" height="24" viewBox="0 0 24 24" fill="none" xmlns="http://www.w3.org/2000/svg" id="edit-icons">
<path d="M0 4C0 1.79086 1.79086 0 4 0H20C22.2091 0 24 1.79086 24 4V20C24 22.2091 22.2091 24 20 24H4C1.79086 24 0 22.2091 0 20V4Z" fill="white"/>
<path d="M13.8311 9.35111L14.6489 10.1689L6.59556 18.2222H5.77778V17.4044L13.8311 9.35111ZM17.0311 4C16.8089 4 16.5778 4.08889 16.4089 4.25778L14.7822 5.88444L18.1156 9.21778L19.7422 7.59111C20.0889 7.24444 20.0889 6.68444 19.7422 6.33778L17.6622 4.25778C17.4844 4.08 17.2622 4 17.0311 4ZM13.8311 6.83556L4 16.6667V20H7.33333L17.1644 10.1689L13.8311 6.83556Z" fill="#283B49"/>
</svg>

    
<symbol width="10" height="12" viewBox="0 0 10 12" fill="none" xmlns="http://www.w3.org/2000/svg" id="delete-icon">
<path d="M1.00004 10.6667C1.00004 11.4 1.60004 12 2.33337 12H7.66671C8.40004 12 9.00004 11.4 9.00004 10.6667V2.66667H1.00004V10.6667ZM9.66671 0.666667H7.33337L6.66671 0H3.33337L2.66671 0.666667H0.333374V2H9.66671V0.666667Z" fill="white"/>
</symbol>
    
<symbol width="10" height="10" viewBox="0 0 10 10" fill="none" xmlns="http://www.w3.org/2000/svg" id="plus-icon-sm">
<path d="M9.66671 5.66683H5.66671V9.66683H4.33337V5.66683H0.333374V4.3335H4.33337V0.333496H5.66671V4.3335H9.66671V5.66683Z" fill="#C9632B"/>
</symbol>
    
<symbol width="60" height="60" viewBox="0 0 60 60" fill="none" xmlns="http://www.w3.org/2000/svg" id="delete-user-md">
<path d="M0 30C0 13.4315 13.4315 0 30 0V0C46.5685 0 60 13.4315 60 30V30C60 46.5685 46.5685 60 30 60V60C13.4315 60 0 46.5685 0 30V30Z" fill="#EB5757"/>
<path d="M0 0H60V60H0V0Z" fill="#EB5757"/>
<path fill-rule="evenodd" clip-rule="evenodd" d="M26.7857 17.5V19.0625H18.75V22.1875H41.25V19.0625H33.2143V17.5H26.7857ZM36.4286 42.5C38.2013 42.5 39.6429 41.0977 39.6429 39.375V23.75H20.3572V39.375C20.3572 41.0977 21.7987 42.5 23.5715 42.5H36.4286Z" fill="white"/>
</symbol>
    
<symbol width="60" height="60" viewBox="0 0 60 60" fill="none" xmlns="http://www.w3.org/2000/svg" id="user-added-check">
<path d="M59.1666 10.108L25.8875 43.4163L13.5208 31.0497L17.6333 26.9372L25.8875 35.1913L55.0541 6.02467L59.1666 10.108ZM52.7208 24.808C53.1 26.4705 53.3333 28.2205 53.3333 29.9997C53.3333 42.8913 42.8916 53.333 30 53.333C17.1083 53.333 6.66665 42.8913 6.66665 29.9997C6.66665 17.108 17.1083 6.66634 30 6.66634C34.6083 6.66634 38.8666 8.00801 42.4833 10.3122L46.6833 6.11217C41.9583 2.78717 36.2125 0.833008 30 0.833008C13.9 0.833008 0.833313 13.8997 0.833313 29.9997C0.833313 46.0997 13.9 59.1663 30 59.1663C46.1 59.1663 59.1666 46.0997 59.1666 29.9997C59.1666 26.5288 58.525 23.2038 57.4166 20.1122L52.7208 24.808Z" fill="#C9632B"/>
</symbol>

<symbol width="17" height="16" viewBox="0 0 17 16" fill="none" xmlns="http://www.w3.org/2000/svg" id="edit-email">
<path d="M9.83111 5.35111L10.6489 6.16889L2.59556 14.2222H1.77778V13.4044L9.83111 5.35111ZM13.0311 0C12.8089 0 12.5778 0.0888889 12.4089 0.257778L10.7822 1.88444L14.1156 5.21778L15.7422 3.59111C16.0889 3.24444 16.0889 2.68444 15.7422 2.33778L13.6622 0.257778C13.4844 0.08 13.2622 0 13.0311 0ZM9.83111 2.83556L0 12.6667V16H3.33333L13.1644 6.16889L9.83111 2.83556Z" fill="#283B49"/>
</symbol>
    
<symbol width="20" height="20" viewBox="0 0 20 20" fill="none" xmlns="http://www.w3.org/2000/svg" id="info_note">
<path d="M9.99958 0C4.47746 0 0 4.47746 0 9.99958C0 15.5217 4.47746 20 9.99958 20C15.5217 20 20 15.5217 20 9.99958C20 4.47746 15.5217 0 9.99958 0ZM12.0813 15.498C11.5666 15.7012 11.1568 15.8552 10.8495 15.9619C10.5431 16.0686 10.1867 16.1219 9.78116 16.1219C9.1581 16.1219 8.67302 15.9695 8.32762 15.6656C7.98222 15.3617 7.81037 14.9765 7.81037 14.5084C7.81037 14.3263 7.82307 14.1401 7.84847 13.9505C7.87471 13.7608 7.91619 13.5475 7.97291 13.3079L8.61714 11.0324C8.67386 10.814 8.72296 10.6066 8.7619 10.4135C8.80085 10.2188 8.81947 10.0402 8.81947 9.87767C8.81947 9.58815 8.75937 9.38497 8.64 9.27069C8.51894 9.1564 8.29122 9.10053 7.95175 9.10053C7.78582 9.10053 7.61481 9.12508 7.43958 9.17672C7.26603 9.23005 7.11534 9.27831 6.99175 9.32571L7.1619 8.62476C7.58349 8.45291 7.9873 8.30561 8.37249 8.1837C8.75767 8.06011 9.12169 7.99915 9.46455 7.99915C10.0834 7.99915 10.5608 8.14984 10.8969 8.44783C11.2313 8.74667 11.3998 9.13524 11.3998 9.6127C11.3998 9.71175 11.3879 9.88614 11.3651 10.135C11.3422 10.3848 11.299 10.6125 11.2364 10.8216L10.5956 13.0904C10.5431 13.2724 10.4965 13.4806 10.4542 13.7134C10.4127 13.9462 10.3924 14.124 10.3924 14.2434C10.3924 14.5448 10.4593 14.7505 10.5947 14.8597C10.7285 14.9689 10.963 15.0239 11.2948 15.0239C11.4514 15.0239 11.6267 14.996 11.8248 14.9418C12.0212 14.8876 12.1634 14.8394 12.2531 14.7979L12.0813 15.498ZM11.9678 6.2891C11.669 6.56677 11.3092 6.70561 10.8885 6.70561C10.4686 6.70561 10.1062 6.56677 9.80487 6.2891C9.50519 6.01143 9.35365 5.67365 9.35365 5.27915C9.35365 4.8855 9.50603 4.54688 9.80487 4.26667C10.1062 3.98561 10.4686 3.84593 10.8885 3.84593C11.3092 3.84593 11.6698 3.98561 11.9678 4.26667C12.2667 4.54688 12.4165 4.8855 12.4165 5.27915C12.4165 5.6745 12.2667 6.01143 11.9678 6.2891Z" fill="#283B49"/>
</symbol>
    
<symbol width="14" height="14" viewBox="0 0 14 14" fill="none" xmlns="http://www.w3.org/2000/svg" id="question-mark">
<circle cx="7" cy="7" r="7" fill="#283B49"/>
<path d="M6.375 9.72H7.625V11H6.375V9.72ZM7.625 8.76H6.375C6.375 6.68 8.25 6.84 8.25 5.56C8.25 4.856 7.6875 4.28 7 4.28C6.3125 4.28 5.75 4.856 5.75 5.56H4.5C4.5 4.1456 5.61875 3 7 3C8.38125 3 9.5 4.1456 9.5 5.56C9.5 7.16 7.625 7.32 7.625 8.76Z" fill="white"/>
</symbol>
    
<svg width="60" height="60" viewBox="0 0 60 60" fill="none" xmlns="http://www.w3.org/2000/svg" id="confirmtation-round">
<path d="M27.0833 38.7497H32.9166V44.583H27.0833V38.7497ZM27.0833 15.4163H32.9166V32.9163H27.0833V15.4163ZM29.9707 0.833008C13.8708 0.833008 0.833252 13.8997 0.833252 29.9997C0.833252 46.0997 13.8708 59.1663 29.9707 59.1663C46.0999 59.1663 59.1666 46.0997 59.1666 29.9997C59.1666 13.8997 46.0999 0.833008 29.9707 0.833008ZM29.9999 53.333C17.1083 53.333 6.66658 42.8913 6.66658 29.9997C6.66658 17.108 17.1083 6.66634 29.9999 6.66634C42.8916 6.66634 53.3332 17.108 53.3332 29.9997C53.3332 42.8913 42.8916 53.333 29.9999 53.333Z" fill="#C9632B"/>
</svg>
    

<symbol width="24" height="24" viewBox="0 0 24 24" fill="none" xmlns="http://www.w3.org/2000/svg" id="question-mark-dark">
<path d="M12 2C7.31 2 3.5 5.81 3.5 10.5C3.5 15.19 7.31 19 12 19H12.5V22C17.36 19.66 20.5 15 20.5 10.5C20.5 5.81 16.69 2 12 2ZM13 16.5H11V14.5H13V16.5ZM13 13H11C11 9.75 14 10 14 8C14 6.9 13.1 6 12 6C10.9 6 10 6.9 10 8H8C8 5.79 9.79 4 12 4C14.21 4 16 5.79 16 8C16 10.5 13 10.75 13 13Z" fill="#283B49"/>
</symbol>
    
<symbol width="24" height="24" viewBox="0 0 24 24" fill="none" xmlns="http://www.w3.org/2000/svg" class="delete-square">
<path d="M0 4C0 1.79086 1.79086 0 4 0H20C22.2091 0 24 1.79086 24 4V20C24 22.2091 22.2091 24 20 24H4C1.79086 24 0 22.2091 0 20V4Z" fill="#EB5757"/>
<path d="M7.99998 16.6667C7.99998 17.4 8.59998 18 9.33331 18H14.6666C15.4 18 16 17.4 16 16.6667V8.66667H7.99998V16.6667ZM16.6666 6.66667H14.3333L13.6666 6H10.3333L9.66665 6.66667H7.33331V8H16.6666V6.66667Z" fill="white"/>
</symbol>
    
<symbol width="24" height="24" viewBox="0 0 24 24" fill="none" xmlns="http://www.w3.org/2000/svg" id="black-arrow">
<path d="M0 4C0 1.79086 1.79086 0 4 0H20C22.2091 0 24 1.79086 24 4V20C24 22.2091 22.2091 24 20 24H4C1.79086 24 0 22.2091 0 20V4Z" fill="white"/>
<path d="M7.41 9L12 13.6356L16.59 9L18 10.4271L12 16.5L6 10.4271L7.41 9Z" fill="black"/>
</symbol>
    
<symbol width="20" height="20" viewBox="0 0 20 20" fill="none" xmlns="http://www.w3.org/2000/svg" id="black-message">
<path d="M16.6667 3.33325H3.33341C2.41675 3.33325 1.67508 4.08325 1.67508 4.99992L1.66675 14.9999C1.66675 15.9166 2.41675 16.6666 3.33341 16.6666H16.6667C17.5834 16.6666 18.3334 15.9166 18.3334 14.9999V4.99992C18.3334 4.08325 17.5834 3.33325 16.6667 3.33325ZM16.6667 6.66659L10.0001 10.8333L3.33341 6.66659V4.99992L10.0001 9.16658L16.6667 4.99992V6.66659Z" fill="#283B49"/>
</symbol>

</svg>