<svg width="24" height="24" viewBox="0 0 24 24" fill="none" xmlns="http://www.w3.org/2000/svg">
<path d="M10.5085 23.3822C10.9069 23.7806 11.4366 24 12 24C12.5634 24 13.0931 23.7806 13.4915 23.3822L23.3821 13.4916C23.7806 13.0931 24 12.5634 24 12C24 11.4366 23.7806 10.9069 23.3821 10.5084L13.4915 0.617766C13.0931 0.219422 12.5634 0 12 0C11.4366 0 10.9069 0.219422 10.5085 0.617813L0.617859 10.5084C0.219422 10.9068 0 11.4366 0 12C0 12.5634 0.219422 13.0932 0.617859 13.4916C1.09322 13.9669 10.0365 22.9102 10.5085 23.3822V23.3822ZM1.61222 11.5028L11.5028 1.61222C11.6356 1.47938 11.8122 1.40625 12 1.40625C12.1878 1.40625 12.3644 1.47938 12.4972 1.61217C12.505 1.62005 22.3935 11.5086 22.3888 11.5038C22.521 11.6365 22.5938 11.8127 22.5938 12C22.5938 12.1878 22.5206 12.3644 22.3878 12.4972C21.8542 13.0307 12.9367 21.9482 12.4972 22.3878C12.3644 22.5206 12.1878 22.5938 12 22.5938C11.8127 22.5938 11.6366 22.521 11.5038 22.3888C11.5035 22.3885 11.5032 22.3882 11.5028 22.3878L1.61222 12.4972C1.47938 12.3644 1.40625 12.1878 1.40625 12C1.40625 11.8122 1.47938 11.6356 1.61222 11.5028V11.5028Z" fill="black"/>
<path d="M12 18.3281C13.5508 18.3281 14.8125 17.0664 14.8125 15.5156V13.4062C14.8125 13.0179 14.4977 12.7031 14.1094 12.7031H12.7031V7.03125H13.4062C13.7946 7.03125 14.1094 6.71644 14.1094 6.32812C14.1094 5.93981 13.7946 5.625 13.4062 5.625H10.5938C10.2054 5.625 9.89062 5.93981 9.89062 6.32812C9.89062 6.71644 10.2054 7.03125 10.5938 7.03125H11.2969V12.7031H9.89062C9.50231 12.7031 9.1875 13.0179 9.1875 13.4062V15.5156C9.1875 17.0664 10.4492 18.3281 12 18.3281ZM10.5938 14.1094H13.4062V15.5156C13.4062 16.291 12.7754 16.9219 12 16.9219C11.2246 16.9219 10.5938 16.291 10.5938 15.5156V14.1094Z" fill="black"/>
<path d="M12 4.21875C12.3883 4.21875 12.7031 3.90395 12.7031 3.51562C12.7031 3.1273 12.3883 2.8125 12 2.8125C11.6117 2.8125 11.2969 3.1273 11.2969 3.51562C11.2969 3.90395 11.6117 4.21875 12 4.21875Z" fill="black"/>
<path d="M3.5625 12.7031C3.95083 12.7031 4.26562 12.3883 4.26562 12C4.26562 11.6117 3.95083 11.2969 3.5625 11.2969C3.17417 11.2969 2.85938 11.6117 2.85938 12C2.85938 12.3883 3.17417 12.7031 3.5625 12.7031Z" fill="black"/>
<path d="M20.4375 12.7031C20.8258 12.7031 21.1406 12.3883 21.1406 12C21.1406 11.6117 20.8258 11.2969 20.4375 11.2969C20.0492 11.2969 19.7344 11.6117 19.7344 12C19.7344 12.3883 20.0492 12.7031 20.4375 12.7031Z" fill="black"/>
<path d="M12 21.1875C12.3883 21.1875 12.7031 20.8727 12.7031 20.4844C12.7031 20.096 12.3883 19.7812 12 19.7812C11.6117 19.7812 11.2969 20.096 11.2969 20.4844C11.2969 20.8727 11.6117 21.1875 12 21.1875Z" fill="black"/>
</svg>
