<svg width="24" height="24" viewBox="0 0 24 24" fill="none" xmlns="http://www.w3.org/2000/svg">
<path d="M20.3077 7.92308H17.5385V2.38462C17.5385 2.01739 17.3926 1.66521 17.1329 1.40554C16.8733 1.14588 16.5211 1 16.1538 1H7.84615C7.47893 1 7.12675 1.14588 6.86708 1.40554C6.60742 1.66521 6.46154 2.01739 6.46154 2.38462V7.92308H3.69231C3.5087 7.92308 3.33261 7.99602 3.20277 8.12585C3.07294 8.25568 3 8.43177 3 8.61538V22.4615C3 22.6452 3.07294 22.8212 3.20277 22.9511C3.33261 23.0809 3.5087 23.1538 3.69231 23.1538H20.3077C20.4913 23.1538 20.6674 23.0809 20.7972 22.9511C20.9271 22.8212 21 22.6452 21 22.4615V8.61538C21 8.43177 20.9271 8.25568 20.7972 8.12585C20.6674 7.99602 20.4913 7.92308 20.3077 7.92308ZM7.84615 2.38462H16.1538V7.92308H7.84615V2.38462ZM19.6154 21.7692H4.38462V9.30769H19.6154V21.7692Z" fill="black"/>
<path d="M11.3077 16.8261V19.6923H12.6923V16.8261C13.3449 16.6576 13.9137 16.2569 14.292 15.6991C14.6703 15.1412 14.8321 14.4645 14.7472 13.7959C14.6622 13.1273 14.3364 12.5126 13.8306 12.067C13.3249 11.6214 12.674 11.3756 12 11.3756C11.326 11.3756 10.6751 11.6214 10.1694 12.067C9.66365 12.5126 9.33778 13.1273 9.25285 13.7959C9.16792 14.4645 9.32977 15.1412 9.70806 15.6991C10.0863 16.2569 10.6551 16.6576 11.3077 16.8261V16.8261ZM12 12.7692C12.2739 12.7692 12.5416 12.8504 12.7693 13.0026C12.997 13.1547 13.1744 13.371 13.2792 13.624C13.384 13.877 13.4114 14.1554 13.358 14.424C13.3046 14.6925 13.1727 14.9393 12.9791 15.1329C12.7854 15.3265 12.5387 15.4584 12.2701 15.5118C12.0015 15.5653 11.7231 15.5378 11.4701 15.433C11.2171 15.3282 11.0009 15.1508 10.8487 14.9231C10.6966 14.6954 10.6154 14.4277 10.6154 14.1538C10.6154 13.7866 10.7613 13.4344 11.0209 13.1748C11.2806 12.9151 11.6328 12.7692 12 12.7692Z" fill="black"/>
</svg>
