<svg width="24" height="24" viewBox="0 0 24 24" fill="none" xmlns="http://www.w3.org/2000/svg">
<path d="M21.9338 14.7926L21.874 14.8594L21.9338 14.9261C22.2528 15.2821 22.4469 15.7518 22.4469 16.2656C22.4469 16.7795 22.2528 17.2491 21.9338 17.6051L21.874 17.6719L21.9338 17.7386C22.2528 18.0946 22.4469 18.5643 22.4469 19.0781C22.4469 20.003 21.8183 20.7843 20.9662 21.017L20.8582 21.0464L20.8996 21.1504C20.9906 21.3793 21.0406 21.6292 21.0406 21.8906C21.0406 22.9984 20.139 23.9 19.0312 23.9H13.1409C12.3187 23.9 11.5063 23.7681 10.7266 23.5081L10.7266 23.5081L8.31069 22.7028L8.22693 22.6749L8.18885 22.7545C7.86494 23.4318 7.17353 23.9 6.375 23.9H2.15625C1.82335 23.9 1.55313 23.6298 1.55313 23.2969V10.6406C1.55313 10.3077 1.82335 10.0375 2.15625 10.0375H6.375C7.22304 10.0375 7.94978 10.566 8.24418 11.3111L8.27621 11.3922L8.36089 11.3715C9.27373 11.1488 10.158 10.4296 10.8781 9.50732C11.5997 8.58301 12.1663 7.44204 12.4383 6.35473L12.4383 6.35472L12.8212 4.82238C12.8212 4.82238 12.8212 4.82237 12.8212 4.82237C12.8884 4.55379 13.1296 4.36563 13.4062 4.36563H14.1094C15.6048 4.36563 16.8219 5.58273 16.8219 7.07812V7.78078C16.8219 8.47219 16.65 10.094 16.2485 11.3125L16.2052 11.4437H16.3434H20.4375C21.5452 11.4437 22.4469 12.3454 22.4469 13.4531C22.4469 13.967 22.2528 14.4366 21.9338 14.7926ZM2.75937 22.5938V22.6938H2.85938H6.375C6.81788 22.6938 7.17812 22.3335 7.17812 21.8906V12.0469C7.17812 11.604 6.81788 11.2438 6.375 11.2438H2.85938H2.75937V11.3438V22.5938ZM8.38438 21.3839V21.456L8.45275 21.4788L11.1077 22.3638C11.7644 22.5828 12.4486 22.6938 13.1409 22.6938H19.0312C19.4741 22.6938 19.8344 22.3335 19.8344 21.8906C19.8344 21.4477 19.4741 21.0875 19.0312 21.0875C18.6984 21.0875 18.4281 20.8173 18.4281 20.4844C18.4281 20.1515 18.6984 19.8813 19.0312 19.8813H20.4375C20.8804 19.8813 21.2406 19.521 21.2406 19.0781C21.2406 18.6352 20.8804 18.275 20.4375 18.275H19.0312C18.6984 18.275 18.4281 18.0048 18.4281 17.6719C18.4281 17.339 18.6984 17.0688 19.0312 17.0688H20.4375C20.8804 17.0688 21.2406 16.7085 21.2406 16.2656C21.2406 15.8227 20.8804 15.4625 20.4375 15.4625H19.0312C18.6984 15.4625 18.4281 15.1923 18.4281 14.8594C18.4281 14.5265 18.6984 14.2563 19.0312 14.2563H20.4375C20.8804 14.2563 21.2406 13.896 21.2406 13.4531C21.2406 13.0102 20.8804 12.65 20.4375 12.65H13.4062C13.0734 12.65 12.8031 12.3798 12.8031 12.0469C12.8031 11.714 13.0734 11.4437 13.4062 11.4437H14.8425H14.9061L14.9331 11.3861C15.1277 10.9698 15.2978 10.3046 15.4192 9.63098C15.5408 8.95586 15.6156 8.26082 15.6156 7.78078V7.07812C15.6156 6.24758 14.9399 5.57187 14.1094 5.57187H13.9552H13.8771L13.8581 5.64763L13.6083 6.64747C13.2714 7.99543 12.5073 9.46196 11.5653 10.5673C10.6007 11.6989 9.53992 12.3811 8.46571 12.5852L8.38438 12.6006V12.6834V21.3839Z" fill="black" stroke="white" stroke-width="0.2"/>
<path d="M4.96875 21.1875C5.35708 21.1875 5.67188 20.8727 5.67188 20.4844C5.67188 20.096 5.35708 19.7812 4.96875 19.7812C4.58042 19.7812 4.26562 20.096 4.26562 20.4844C4.26562 20.8727 4.58042 21.1875 4.96875 21.1875Z" fill="black"/>
<path d="M14.8125 0C14.4242 0 14.1094 0.314812 14.1094 0.703125V2.15625C14.1094 2.54456 14.4242 2.85938 14.8125 2.85938C15.2008 2.85938 15.5156 2.54456 15.5156 2.15625V0.703125C15.5156 0.314812 15.2008 0 14.8125 0Z" fill="black"/>
<path d="M11.8294 3.1007L10.8351 2.10634C10.5605 1.83174 10.1153 1.83174 9.84071 2.10634C9.56612 2.38093 9.56612 2.8261 9.84071 3.1007L10.8351 4.09505C11.1096 4.3696 11.5549 4.36965 11.8294 4.09505C12.104 3.82046 12.104 3.37529 11.8294 3.1007Z" fill="black"/>
<path d="M19.7845 2.10634C19.51 1.83174 19.0647 1.83174 18.7902 2.10634L17.7958 3.10065C17.5212 3.37524 17.5212 3.82042 17.7958 4.09501C18.0703 4.3696 18.5156 4.36965 18.7902 4.09506L19.7845 3.1007C20.0591 2.8261 20.0591 2.38093 19.7845 2.10634Z" fill="black"/>
</svg>
