<svg width="56" height="56" viewBox="0 0 56 56" fill="none" xmlns="http://www.w3.org/2000/svg">
<g clip-path="url(#clip0)">
<path d="M37.8059 26.3372C37.802 26.3372 37.7983 26.3372 37.7944 26.3372H33.1047V21.636C33.111 20.6878 32.3475 19.9139 31.3994 19.9076C31.3955 19.9076 31.3916 19.9076 31.3878 19.9076H24.6125C23.6644 19.9076 22.8956 20.6763 22.8956 21.6245V26.3257H18.2059C17.2578 26.3194 16.4839 27.0827 16.4775 28.0309C16.4775 28.0387 16.4775 28.0463 16.4775 28.0541V34.8179C16.4775 35.7661 17.2462 36.5348 18.1944 36.5348H22.8956V41.2245C22.8893 42.1726 23.6528 42.9465 24.601 42.9529C24.6049 42.9529 24.6088 42.9529 24.6125 42.9529H31.3763C32.3245 42.9529 33.0932 42.1842 33.0932 41.236V36.5348H37.7944C38.7426 36.5411 39.5165 35.7776 39.5228 34.8294C39.5228 34.8255 39.5228 34.8216 39.5228 34.8179V28.0541C39.5228 27.1059 38.7542 26.3372 37.8059 26.3372ZM37.2183 34.2302H31.9524C31.3161 34.2302 30.8002 34.7462 30.8002 35.3825V40.6483H25.2002V35.3825C25.2002 34.7462 24.6842 34.2302 24.0479 34.2302H18.7821V28.6418H24.0479C24.6842 28.6418 25.2002 28.1258 25.2002 27.4895V22.2121H30.7886V27.478C30.7886 28.1143 31.3046 28.6302 31.9409 28.6302H37.2183V34.2302Z" fill="black"/>
<path d="M48.0494 11.2887H38.5547V7.23278C38.6145 5.38195 37.1625 3.83302 35.3117 3.77325C35.2173 3.77023 35.123 3.77109 35.0288 3.77599H20.9712C19.1218 3.67963 17.5445 5.10066 17.448 6.9499C17.4431 7.04409 17.4421 7.13844 17.4453 7.23278V11.2657H7.95062C4.28642 11.2657 0 13.3513 0 19.2163V44.278C0 50.1431 4.28642 52.2287 7.95062 52.2287H48.0494C51.7136 52.2287 56 50.1431 56 44.278V19.2394C56 13.3743 51.7251 11.2887 48.0494 11.2887ZM19.7498 7.23278C19.7498 6.89862 19.7498 5.99986 20.9827 5.99986H35.0288C36.2617 5.99986 36.2617 6.8871 36.2617 7.23278V11.2657H19.7498V7.23278ZM53.6955 44.278C53.6955 49.371 49.7547 49.9241 48.0494 49.9241H7.95062C6.25679 49.9241 2.30453 49.371 2.30453 44.278V19.2394C2.30453 14.1464 6.24527 13.5933 7.95062 13.5933H48.0494C49.7432 13.5933 53.6955 14.1464 53.6955 19.2394V44.278Z" fill="black"/>
</g>
<defs>
<clipPath id="clip0">
<rect width="56" height="56" fill="white"/>
</clipPath>
</defs>
</svg>
