<svg width="57" height="56" viewBox="0 0 57 56" fill="none" xmlns="http://www.w3.org/2000/svg">
<g clip-path="url(#clip0)">
<path d="M28.3001 11.8806C28.297 11.8806 28.2937 11.8806 28.2906 11.8806H28.262C28.2589 11.8806 28.2558 11.8806 28.2525 11.8806C23.8709 11.8903 19.7637 13.5609 16.6834 16.5875C13.577 19.6397 11.8662 23.7323 11.8662 28.1112C11.8662 33.0196 13.9794 37.5489 17.6636 40.5374C18.2322 40.9988 19.1861 42.4689 19.1861 47.1312V54.6334C19.1861 55.2042 19.6491 55.6672 20.22 55.6672H36.3318C36.9026 55.6672 37.3656 55.2042 37.3656 54.6334V47.1312C37.3656 47.1229 37.3646 47.1151 37.3644 47.107C37.3646 47.0988 37.3656 47.0908 37.3656 47.0827C37.3656 42.3778 38.3197 40.9018 38.889 40.4403C42.6272 37.4067 44.686 33.0281 44.686 28.111C44.686 23.732 42.9754 19.6396 39.8692 16.5873C36.7891 13.5609 32.6818 11.8903 28.3001 11.8806ZM35.2983 53.5995H21.2541V48.165H31.037C31.0826 48.1712 31.1287 48.1755 31.176 48.1755C31.2234 48.1755 31.2694 48.1714 31.3151 48.165H35.2983V53.5995ZM26.2551 31.6658H30.318C30.2209 35.5742 30.1548 42.2273 30.1438 46.0973H26.428C26.4169 42.514 26.3537 35.6811 26.2551 31.6658ZM37.5867 38.8348C36.1684 39.9846 35.423 42.3678 35.3141 46.0973H32.2114C32.2228 41.8552 32.2981 35.3411 32.386 31.6658H34.5967C36.4495 31.6658 38.0147 30.025 38.0147 28.0826C38.0147 26.1846 36.4495 24.5813 34.5967 24.5813C32.8969 24.5813 30.915 25.6455 30.4503 28.6329C30.4274 28.7807 30.4053 29.1162 30.3841 29.5982H26.19C26.1681 29.0962 26.1452 28.7463 26.1213 28.5915C25.8153 26.6131 24.5655 24.4989 21.9758 24.4989C20.1233 24.4989 18.5584 26.14 18.5584 28.0826C18.5584 30.025 20.1233 31.6658 21.9758 31.6658H24.1868C24.2747 35.359 24.3496 41.8655 24.3608 46.0973H21.2366C21.1215 42.4282 20.3773 40.0763 18.9666 38.9316C15.7684 36.3376 13.9341 32.3937 13.9341 28.1112C13.9341 24.2915 15.425 20.7227 18.1326 18.0624C20.8294 15.4127 24.4315 13.9519 28.2763 13.9483C32.1215 13.9519 35.7234 15.4127 38.42 18.0624C41.1274 20.7227 42.6184 24.2913 42.6184 28.1112C42.6185 32.3931 40.8314 36.2014 37.5867 38.8348ZM32.4497 29.5982C32.4642 29.2704 32.4788 29.0475 32.4933 28.9498C32.8048 26.9477 33.9447 26.6488 34.5965 26.6488C35.3159 26.6488 35.9469 27.3187 35.9469 28.0824C35.9469 28.8757 35.3033 29.598 34.5965 29.598H32.4497V29.5982ZM24.1234 29.5982H21.9756C21.2691 29.5982 20.6259 28.8759 20.6259 28.0826C20.6259 27.2893 21.2691 26.5666 21.9756 26.5666C23.4895 26.5666 23.9425 28.0333 24.0775 28.9079C24.0927 29.0097 24.108 29.2477 24.1234 29.5982Z" fill="black"/>
<path d="M35.5976 10.6821C35.7302 10.739 35.8684 10.7661 36.0042 10.7661C36.4053 10.7661 36.787 10.5312 36.955 10.139L40.5141 1.83439C40.7392 1.30954 40.496 0.701821 39.9712 0.476961C39.4462 0.251412 38.8385 0.495053 38.6138 1.0199L35.0546 9.32454C34.8296 9.84956 35.0727 10.4573 35.5976 10.6821Z" fill="black"/>
<path d="M19.6468 10.1403C19.8084 10.5445 20.1966 10.7904 20.607 10.7904C20.7347 10.7904 20.8648 10.7664 20.9908 10.7161C21.5208 10.504 21.7787 9.90232 21.5668 9.37214L18.2109 0.983241C17.999 0.453227 17.3975 0.195113 16.867 0.407222C16.3369 0.61933 16.079 1.22102 16.2909 1.75121L19.6468 10.1403Z" fill="black"/>
<path d="M1.02212 18.0509L9.3259 21.6121C9.45892 21.669 9.59693 21.696 9.73288 21.696C10.1338 21.696 10.5155 21.4612 10.6837 21.0693C10.9087 20.5445 10.6657 19.9368 10.1411 19.7116L1.83713 16.1505C1.31194 15.9257 0.704389 16.1684 0.479357 16.6931C0.254498 17.218 0.49745 17.8259 1.02212 18.0509Z" fill="black"/>
<path d="M9.37316 35.0987L0.983922 38.4564C0.453908 38.6685 0.196138 39.2704 0.408247 39.8004C0.570043 40.2046 0.958076 40.4503 1.36834 40.4503C1.49619 40.4503 1.62628 40.4264 1.75206 40.3759L10.1413 37.0182C10.6713 36.8061 10.9291 36.2042 10.717 35.6742C10.505 35.1443 9.90283 34.8866 9.37316 35.0987Z" fill="black"/>
<path d="M55.6456 38.6109L47.3389 35.0521C46.8128 34.8269 46.2063 35.0702 45.9813 35.5952C45.7564 36.1201 45.9997 36.7278 46.5244 36.9528L54.8311 40.5117C54.9641 40.5685 55.1019 40.5954 55.2377 40.5954C55.6388 40.5954 56.0205 40.3605 56.1887 39.9684C56.4135 39.4437 56.1704 38.8358 55.6456 38.6109Z" fill="black"/>
<path d="M46.9084 21.6396C47.0362 21.6396 47.1662 21.6156 47.2923 21.5651L55.6836 18.2067C56.2136 17.9946 56.4714 17.3927 56.2593 16.8627C56.0473 16.3325 55.4456 16.0749 54.9153 16.2871L46.524 19.6455C45.9939 19.8576 45.7362 20.4594 45.9483 20.9895C46.1101 21.3937 46.4981 21.6396 46.9084 21.6396Z" fill="black"/>
</g>
<defs>
<clipPath id="clip0">
<rect width="56" height="56" fill="white" transform="translate(0.333984)"/>
</clipPath>
</defs>
</svg>
