<svg width="57" height="42" viewBox="0 0 57 42" fill="none" xmlns="http://www.w3.org/2000/svg">
<path d="M56.4463 34.6363C55.7859 32.5646 53.8457 31.3062 52.3346 30.6153C49.2301 29.196 45.8255 26.1775 42.78 22.7304L43.2344 22.4514C43.6254 22.2113 43.7478 21.6996 43.5077 21.3086C43.2675 20.9173 42.756 20.7954 42.3647 21.0352L41.6839 21.4533C41.2859 20.9763 40.8962 20.4942 40.516 20.0095L41.192 19.5702C41.5768 19.3201 41.6859 18.8054 41.4358 18.4206C41.1858 18.0357 40.6708 17.9266 40.2863 18.1767L39.5042 18.6851C39.0663 18.0956 38.6448 17.5066 38.2424 16.9229L38.8228 16.5624C39.2127 16.3203 39.3324 15.808 39.0901 15.4182C38.8478 15.0281 38.3356 14.9085 37.9457 15.1508L37.3183 15.5408C36.223 13.8488 35.3156 12.2409 34.6716 10.8497C34.5785 10.6001 33.7858 8.31107 35.3661 6.73081C35.6906 6.4063 35.6906 5.88009 35.366 5.55569C35.0416 5.23117 34.5154 5.23117 34.1909 5.55569C32.4874 7.25931 32.6309 9.4303 32.885 10.6166C31.8916 10.8986 30.0234 11.3664 27.9247 11.5764C22.9461 12.0749 20.4994 10.7784 19.3242 9.60301C15.0539 5.33278 14.7769 1.07732 14.7747 1.03772C14.7584 0.689254 14.5262 0.388254 14.1935 0.2838C13.8606 0.179347 13.4982 0.293754 13.2857 0.570473L0.838907 16.7743C0.697595 16.9585 0.639626 17.1932 0.67911 17.4219C0.718595 17.6506 0.851923 17.8523 1.04683 17.9783C1.27936 18.1287 24.3814 33.0604 30.8916 37.0131C36.1901 40.23 43.3913 41.7546 48.9049 41.7545C50.5698 41.7545 52.0816 41.6154 53.3396 41.3418C53.5464 41.297 53.7281 41.1749 53.848 41.0006L56.4311 37.2431C56.4329 37.2406 56.4341 37.2375 56.4359 37.2349C56.456 37.205 56.4741 37.1739 56.4902 37.1416C56.4933 37.1357 56.4958 37.1297 56.4986 37.1236C56.5128 37.0932 56.5252 37.062 56.5357 37.0298C56.5368 37.0267 56.5384 37.0236 56.5394 37.0204C56.5401 37.0181 56.5415 37.0132 56.5425 37.0101C56.5435 37.0066 56.5446 37.0031 56.5455 36.9996C56.5969 36.8251 56.8403 35.8717 56.4463 34.6363ZM20.5412 25.0927C26.8997 29.1577 31.2512 31.9041 33.475 33.2556C38.7735 36.4727 45.9748 37.997 51.4882 37.997C52.3655 37.997 53.1987 37.9573 53.9762 37.8808L52.6684 39.783C50.0795 40.2793 46.5197 40.1919 42.8288 39.5357C38.6525 38.7933 34.7194 37.3928 31.7541 35.5925C25.9329 32.0583 6.76409 19.6922 2.70594 17.0718L4.47563 14.7679C10.3995 18.591 14.977 21.5297 17.8021 23.34C17.9409 23.4289 18.096 23.4713 18.2496 23.4713C18.5233 23.4713 18.7913 23.3362 18.9499 23.0885C19.1975 22.7021 19.0851 22.1883 18.6986 21.9406C17.4472 21.1388 15.8513 20.1151 13.9475 18.8916C14.8173 17.29 15.2741 15.4957 15.2741 13.6542C15.2741 11.0995 14.378 8.61097 12.7511 6.64703C12.4582 6.29353 11.9343 6.24453 11.581 6.53722C11.2277 6.83002 11.1785 7.35392 11.4713 7.70721C12.8519 9.37365 13.6123 11.4857 13.6123 13.654C13.6123 15.1758 13.2442 16.6585 12.5445 17.9895C10.4851 16.665 8.12198 15.1432 5.49129 13.4455L13.4717 3.05581C13.9799 4.90545 15.2047 7.83375 18.1487 10.7778C22.3755 15.0046 30.9346 12.9219 33.467 12.1812C34.1123 13.484 34.9481 14.9262 35.912 16.414L33.0888 18.1677C32.6989 18.4099 32.5793 18.9222 32.8215 19.312C32.9789 19.5654 33.2504 19.7046 33.5282 19.7046C33.678 19.7046 33.8294 19.6641 33.9659 19.5793L36.8357 17.7966C37.2462 18.3933 37.6737 18.9924 38.1145 19.5884L35.8709 21.0467C35.4861 21.2969 35.377 21.8116 35.6271 22.1964C35.7864 22.4414 36.0527 22.5746 36.3246 22.5746C36.4798 22.5746 36.6368 22.5312 36.7766 22.4402L39.122 20.9157C39.4941 21.3932 39.873 21.8654 40.2565 22.3298L38.1702 23.6109C37.7792 23.851 37.6568 24.3628 37.8969 24.7538C38.0537 25.0093 38.3265 25.15 38.6057 25.15C38.754 25.15 38.9041 25.1103 39.0398 25.0271L41.3455 23.6113C45.8909 28.8209 49.4358 31.1175 51.6437 32.1268C54.6531 33.5026 55.0198 35.2535 55.0076 36.0696C52.4412 36.5153 48.9886 36.4139 45.4122 35.7781C41.236 35.0357 37.3028 33.6353 34.3379 31.8352C32.1249 30.4904 27.7842 27.7508 21.4363 23.6926C21.0496 23.4454 20.536 23.5584 20.2887 23.9452C20.0416 24.3318 20.1546 24.8455 20.5412 25.0927Z" fill="black"/>
</svg>
