<svg width="57" height="56" viewBox="0 0 57 56" fill="none" xmlns="http://www.w3.org/2000/svg">
<g clip-path="url(#clip0)">
<path d="M23.5683 32.6427L23.3223 32.741L24.0148 34.4741L24.2608 34.3752C26.7719 33.3711 29.8954 33.3707 32.4065 34.3752L32.6524 34.4736L33.3449 32.7405L33.0989 32.6426C30.1523 31.4631 26.5149 31.4636 23.5683 32.6427Z" fill="black"/>
<path d="M27.4014 18.6794H29.2674V28.9426H27.4014V18.6794Z" fill="black"/>
<path d="M54.4586 0.0187994V17.1407C54.4586 17.4413 54.4103 17.74 54.3155 18.0254L49.8783 31.3363L42.9553 42.1722C42.7409 42.511 42.3938 42.7438 41.999 42.8136C41.1662 42.9435 40.3856 42.3737 40.2557 41.5409C40.2057 41.2207 40.2589 40.8929 40.4077 40.6049C42.0306 37.6582 45.0145 32.1882 45.0145 32.1882C45.0494 32.1244 45.0768 32.0569 45.0961 31.9868L45.8508 29.2202L48.8172 19.895L47.0387 19.3292L44.0656 28.6753L44.0724 28.6774C44.0683 28.6903 44.0583 28.6994 44.0547 28.7124C43.8167 29.5857 42.916 30.1007 42.0427 29.8629C41.9822 29.8465 41.9226 29.8264 41.8643 29.8031C41.1309 29.5095 40.7112 28.735 40.8656 27.9604L42.3118 20.7286C42.3236 20.6682 42.3294 20.6067 42.3294 20.5451V17.8121C42.3188 13.8332 43.9001 10.0155 46.7211 7.20954C46.896 7.0346 46.9945 6.79738 46.9945 6.5499V0.0187994H45.1284V6.16946C44.4821 6.85208 43.8936 7.58718 43.369 8.36718C38.2161 0.0632352 27.3073 -2.49124 19.0033 2.66168C16.6879 4.09852 14.7356 6.05062 13.2985 8.36601C12.7742 7.58648 12.1859 6.85173 11.5399 6.16946V0.0187994H9.6739V6.5499C9.6739 6.79738 9.77233 7.0346 9.94727 7.20954C12.7684 10.0156 14.3497 13.8336 14.339 17.8126V20.5451C14.3391 20.6066 14.3453 20.6679 14.3572 20.7282L15.8033 27.96C15.9582 28.735 15.5384 29.5101 14.8047 29.8038C13.9639 30.1399 13.0099 29.7309 12.6738 28.8901C12.6506 28.8322 12.6307 28.7728 12.6143 28.7126C12.6107 28.6994 12.6006 28.6903 12.5966 28.6776L12.6033 28.6755L9.63016 19.3292L7.8516 19.895L10.818 29.2202L11.5727 31.9868C11.5921 32.0569 11.6195 32.1244 11.6543 32.1882C11.6543 32.1882 14.6382 37.658 16.2611 40.6049C16.6209 41.2573 16.4423 42.0601 15.7909 42.5493C15.4702 42.7894 15.0643 42.8852 14.6702 42.814C14.2753 42.7443 13.9281 42.5114 13.7138 42.1725L6.79088 31.3366L2.3537 18.026C2.2583 17.7406 2.20966 17.4416 2.20978 17.1407V0.0187994H0.343751V17.1407C0.343517 17.642 0.424456 18.1403 0.583419 18.6158L5.05711 32.0365C5.08125 32.1094 5.11425 32.1791 5.15554 32.2438L12.1403 43.1771C12.6368 43.9513 13.4323 44.4848 14.3371 44.65C14.5286 44.6849 14.7229 44.7024 14.9176 44.7024C15.6549 44.6983 16.3707 44.4539 16.9567 44.0062C16.9937 43.9785 17.0223 43.9442 17.058 43.9152C17.1252 43.9913 17.1872 44.0739 17.2556 44.1484C17.7933 44.7384 18.3781 45.2838 19.004 45.7792V49.3192C19.003 51.1727 18.704 53.0141 18.1184 54.7728C17.956 55.2618 18.2209 55.7899 18.71 55.9522C18.8048 55.9837 18.9041 55.9997 19.004 55.9997H37.6643C38.1796 55.9998 38.5975 55.5821 38.5975 55.0668C38.5975 54.9668 38.5815 54.8676 38.55 54.7728C37.9644 53.0141 37.6654 51.1727 37.6643 49.3192V45.7799C38.2879 45.2865 38.8706 44.7432 39.4065 44.1556C39.4788 44.0767 39.5426 43.9924 39.6132 43.9118C39.6634 43.9536 39.7051 44.0015 39.7581 44.0413C41.2187 45.1372 43.291 44.8415 44.3868 43.381C44.4365 43.3149 44.4836 43.2469 44.5282 43.1771L51.513 32.2438C51.5542 32.1791 51.5872 32.1094 51.6114 32.0365L56.086 18.6153C56.2443 18.1398 56.3249 17.6418 56.3246 17.1407V0.0187994H54.4586ZM42.0672 10.657C41.8256 10.3599 41.5737 10.0832 41.3199 9.81137L41.7823 9.34895C41.955 9.62652 42.1187 9.9112 42.2756 10.2016C42.2001 10.3507 42.1383 10.5059 42.0672 10.657ZM40.6944 7.79781L39.9836 8.50923C39.2868 7.89554 38.542 7.33888 37.756 6.8445L38.787 5.81364C39.4794 6.41811 40.1177 7.08207 40.6944 7.79781ZM20.6176 5.91079L19.3722 4.66556C20.2854 4.03449 21.2628 3.50163 22.2879 3.07594L23.1976 4.89415C22.3112 5.16204 21.4484 5.50201 20.6176 5.91079ZM25.0611 4.44712L24.0749 2.47613C25.1611 2.1764 26.2762 1.99352 27.4012 1.93031V4.16255C26.6155 4.20419 25.8336 4.29924 25.0608 4.44712H25.0611ZM29.2672 1.91713C30.3953 1.98105 31.5134 2.16485 32.6027 2.46528L31.6086 4.44794C30.8355 4.30017 30.0533 4.20477 29.2672 4.16267V1.91713ZM34.3815 3.07944C35.4088 3.50069 36.3885 4.0296 37.3043 4.6574L36.0506 5.9109C35.2201 5.50213 34.3576 5.16193 33.4716 4.8938L34.3815 3.07944ZM17.8936 5.82577L18.9123 6.84415C18.1258 7.33783 17.3809 7.89461 16.6847 8.509L15.9836 7.80807C16.3374 7.36186 16.715 6.93512 17.1149 6.52984C17.3649 6.28108 17.631 6.05575 17.8936 5.82577ZM14.8847 9.3479L15.3486 9.81172C15.0941 10.0849 14.8415 10.3616 14.6013 10.657C14.5306 10.5066 14.469 10.3521 14.3938 10.2036C14.5503 9.91389 14.7108 9.62675 14.8845 9.34813L14.8847 9.3479ZM36.4164 54.1336H20.2519C20.6618 52.5616 20.8695 50.9438 20.8701 49.3192V47.0817C21.3282 47.3463 21.7999 47.5868 22.2832 47.8021C26.1361 49.5142 30.534 49.5142 34.3869 47.8021C34.8695 47.5869 35.3405 47.3468 35.7981 47.0825V49.3196C35.7988 50.944 36.0065 52.5617 36.4164 54.1336ZM38.0246 42.9025C36.8019 44.2661 35.3037 45.3548 33.629 46.0964C30.2571 47.5866 26.4135 47.5866 23.0415 46.0964C21.3634 45.3532 19.8623 44.2615 18.6379 42.8942C18.4658 42.7068 18.31 42.5101 18.1489 42.3169C18.4281 41.4484 18.3365 40.5031 17.8954 39.7045C16.5479 37.2567 14.259 33.065 13.5255 31.7215C15.4251 32.0921 17.2656 30.8527 17.6364 28.953C17.7239 28.504 17.7229 28.0421 17.633 27.5936L17.0011 24.433C17.826 24.5137 18.6563 24.5692 19.4899 24.5692C20.9445 24.5704 22.3965 24.4462 23.8297 24.1979L23.509 22.3601C21.2311 22.7469 18.909 22.798 16.6163 22.5117L16.205 20.4526V18.8432C18.3113 17.7186 20.8554 17.4459 23.4395 18.0998L23.8988 16.2912C21.1867 15.6031 18.4952 15.7968 16.1571 16.7985C16.0774 15.4062 15.825 14.0293 15.4058 12.6993C15.8713 12.0314 16.3883 11.4008 16.9521 10.8134C17.0023 10.7573 17.0587 10.7014 17.1161 10.643C17.1645 10.5952 17.2109 10.5468 17.3048 10.4644C18.3645 9.43187 19.5666 8.55647 20.8746 7.86487C22.0977 7.205 23.4055 6.71633 24.7616 6.41251C27.1153 5.8625 29.5644 5.86332 31.9178 6.41485C33.272 6.71924 34.578 7.20826 35.7992 7.86813C37.1112 8.56288 38.3166 9.44213 39.3787 10.4792C39.5035 10.5958 39.6184 10.7111 39.7478 10.8491C40.3002 11.4253 40.8066 12.0438 41.2623 12.6992C40.8429 14.0293 40.5905 15.4063 40.511 16.7987C38.1733 15.7974 35.4828 15.6043 32.7693 16.2914L33.2285 18.1C35.8126 17.4453 38.3574 17.7179 40.463 18.8432V20.4526L40.0337 22.5999C38.0511 22.7727 36.0545 22.692 34.0923 22.3597L33.7716 24.1983C35.1881 24.4423 36.6229 24.5644 38.0603 24.5633C38.5926 24.5633 39.1234 24.5427 39.6519 24.5096L39.0353 27.5938C38.6557 29.4921 39.8868 31.3387 41.7851 31.7183C42.2331 31.8079 42.6943 31.8091 43.1428 31.7217C42.4093 33.0652 40.1213 37.2569 38.7729 39.7047C38.3323 40.5016 38.2421 41.4457 38.5241 42.3116C38.3605 42.5086 38.2028 42.7074 38.0242 42.9025H38.0246Z" fill="black"/>
</g>
<defs>
<clipPath id="clip0">
<rect width="56" height="56" fill="white" transform="translate(0.333984)"/>
</clipPath>
</defs>
</svg>
