<svg width="54" height="54" viewBox="0 0 54 54" fill="none" xmlns="http://www.w3.org/2000/svg">
<path d="M30.4477 8.97619C30.4433 8.95651 30.4401 8.93789 30.4346 8.91931L30.4466 8.92478L30.4477 8.97619Z" fill="black"/>
<path d="M20 10.375C20.4832 10.375 20.875 9.98325 20.875 9.5C20.875 9.01675 20.4832 8.625 20 8.625C19.5168 8.625 19.125 9.01675 19.125 9.5C19.125 9.98325 19.5168 10.375 20 10.375Z" fill="black"/>
<path d="M22.625 10.375C23.1082 10.375 23.5 9.98325 23.5 9.5C23.5 9.01675 23.1082 8.625 22.625 8.625C22.1418 8.625 21.75 9.01675 21.75 9.5C21.75 9.98325 22.1418 10.375 22.625 10.375Z" fill="black"/>
<path d="M52.0393 42.4667L45.0906 32.3583C45.4577 32.0312 45.751 31.6297 45.9509 31.1805C46.1508 30.7313 46.2528 30.2446 46.25 29.753C46.2509 27.2203 45.5628 24.7352 44.2594 22.5637L40.942 17.0359L40.0987 13.6628C40.0681 13.5403 40.0115 13.4259 39.9326 13.3274C39.8537 13.2288 39.7544 13.1485 39.6416 13.0919L37.8916 12.2169C37.7699 12.1566 37.6359 12.1251 37.5 12.125H36.625V10.375C36.6251 10.207 36.5768 10.0426 36.4858 9.90134C36.3948 9.76012 36.2651 9.64812 36.1121 9.57875L31.3674 7.42188C31.3077 6.13431 30.8935 4.88825 30.1704 3.82122C29.4473 2.75419 28.4435 1.90767 27.2697 1.3751C26.0959 0.842516 24.7978 0.64458 23.5187 0.80313C22.2395 0.961681 21.029 1.47055 20.0208 2.27359C19.482 2.06819 18.908 1.9713 18.3316 1.98848C17.7553 2.00567 17.188 2.13658 16.6624 2.37371C16.1369 2.61084 15.6633 2.9495 15.2691 3.37023C14.8748 3.79096 14.5676 4.28546 14.365 4.82532C13.4648 7.22519 12.9498 9.75235 12.8392 12.3131L12.2169 26.6238V26.6281C12.1556 27.1527 12.1249 27.6804 12.125 28.2086C12.1241 29.8265 12.4069 31.432 12.9607 32.9522L15.5692 40.125H6.70986C5.29465 40.1251 3.92564 40.6287 2.8478 41.5459C1.76996 42.463 1.05362 43.7337 0.826955 45.1306C0.600292 46.5276 0.878097 47.9596 1.61066 49.1704C2.34323 50.3813 3.48275 51.292 4.82533 51.7395C7.82754 52.7407 10.9717 53.2508 14.1364 53.25H46.366C47.6202 53.25 48.8507 52.9073 49.9244 52.259C50.9981 51.6106 51.8743 50.6813 52.4583 49.5712C53.0423 48.4612 53.3119 47.2127 53.2381 45.9606C53.1642 44.7085 52.7497 43.5004 52.0393 42.4667ZM36.2903 13.875H37.2933L38.4986 14.4777L39.2763 17.5872C39.2969 17.6712 39.3301 17.7516 39.3747 17.8256L42.7588 23.4639C43.8989 25.3635 44.5009 27.5375 44.5 29.753C44.5018 30.1705 44.3531 30.5747 44.0811 30.8916L43.5266 30.0844L40.4346 22.3559C40.2434 21.8737 39.8976 21.4686 39.4513 21.2042L38.3444 17.1453C38.3037 16.9952 38.2236 16.8586 38.1125 16.7498C38.0014 16.6409 37.8632 16.5638 37.7122 16.5263L35.271 15.9159L36.2903 13.875ZM27 15.917L28.4 14.05C29.1382 14.6034 30.0651 14.8432 30.9791 14.7172L33.3809 17.1191H33.3821C33.4943 17.2305 33.6345 17.3099 33.7878 17.3488L36.7902 18.0991L37.5744 20.9745C37.1709 21.0939 36.807 21.3199 36.5211 21.6286L33.7791 18.5442C33.653 18.4016 33.4835 18.3043 33.2967 18.2675L28.9524 17.3991L28.9217 17.3925C28.8653 17.3806 28.8077 17.3748 28.75 17.375H27V15.917ZM36.3614 28.5137L31.7666 26.2169C31.5587 26.1138 31.3185 26.0969 31.0983 26.1698L29.2236 26.7944C28.4624 24.9035 28.3543 22.8125 28.9163 20.8531L29.3702 19.2661L32.6656 19.9256L35.913 23.5777V23.5788L36.3614 28.5137ZM29.2313 28.6373L31.3083 27.945L37.0592 30.8194V30.8205C37.6019 31.7453 38.422 32.4758 39.4031 32.9084L42.1955 42.68L29.2783 35.9141C28.3457 34.935 27.8215 33.6371 27.8128 32.285C27.8041 30.9329 28.3114 29.6283 29.2313 28.6373ZM40.9661 32.0094C40.9272 31.8726 40.8554 31.7473 40.7571 31.6446C40.6587 31.5419 40.5367 31.4647 40.4018 31.4199C39.7827 31.2138 39.2372 30.8315 38.8321 30.32C38.427 29.8084 38.18 29.1899 38.1213 28.54L37.6433 23.2867C37.6301 23.1417 37.6694 22.9967 37.7543 22.8783C37.8391 22.7599 37.9637 22.6759 38.1053 22.6418C38.2469 22.6077 38.3961 22.6257 38.5255 22.6925C38.655 22.7593 38.7561 22.8704 38.8103 23.0056L41.9373 30.8248C41.9614 30.885 41.9922 30.9422 42.0293 30.9955L43.6983 33.4225L41.6606 34.4408L40.9661 32.0094ZM34 11.25C34.0002 10.9992 33.9735 10.7491 33.9202 10.5041L34.875 10.9383V12.7922L33.7605 15.0223L32.705 13.9669C33.1095 13.639 33.4357 13.2249 33.6597 12.7549C33.8837 12.2848 34 11.7707 34 11.25ZM30.4464 8.92469L30.4475 8.9761C30.4431 8.95642 30.4399 8.93781 30.4344 8.91922L30.4464 8.92469ZM30.5 11.25V11.1406C30.7675 10.6586 30.9764 10.1464 31.1224 9.61485C31.5048 9.76034 31.8242 10.0353 32.025 10.3919C32.2258 10.7485 32.2952 11.1642 32.2212 11.5666C32.1472 11.9691 31.9345 12.3329 31.62 12.5948C31.3055 12.8567 30.9092 13.0001 30.5 13C30.3006 13.0005 30.1026 12.9664 29.9149 12.8994C30.2943 12.4335 30.501 11.8508 30.5 11.25ZM24.375 2.5C25.7308 2.50135 27.0336 3.02664 28.0112 3.96608C28.9887 4.90552 29.5654 6.18642 29.6206 7.54108C29.1687 7.13741 28.5908 6.90285 27.9854 6.87733C27.3799 6.85181 26.7844 7.0369 26.3 7.4011C25.9741 6.96626 25.5514 6.61328 25.0654 6.37009C24.5794 6.1269 24.0435 6.0002 23.5 6H19.4247C19.7877 4.97701 20.4583 4.09141 21.3447 3.46475C22.231 2.83809 23.2895 2.5011 24.375 2.5ZM19.125 7.75H23.5C23.964 7.75062 24.4087 7.93519 24.7368 8.26324C25.0648 8.5913 25.2494 9.03606 25.25 9.5C25.25 9.73207 25.3422 9.95463 25.5063 10.1187C25.6704 10.2828 25.893 10.375 26.125 10.375C26.3571 10.375 26.5796 10.2828 26.7437 10.1187C26.9078 9.95463 27 9.73207 27 9.5C27 9.26794 27.0922 9.04538 27.2563 8.88129C27.4204 8.71719 27.643 8.625 27.875 8.625C28.1071 8.625 28.3296 8.71719 28.4937 8.88129C28.6578 9.04538 28.75 9.26794 28.75 9.5V11.25C28.7497 11.482 28.6574 11.7044 28.4934 11.8684C28.3294 12.0324 28.107 12.1247 27.875 12.125H27V11.25H25.25V17.958L24.375 19.125C23.9664 19.6672 23.4377 20.1074 22.8305 20.411C22.2233 20.7146 21.5539 20.8734 20.875 20.875C20.643 20.8747 20.4207 20.7824 20.2566 20.6184C20.0926 20.4544 20.0003 20.232 20 20V18.7006C20.4156 18.4702 20.7782 18.1551 21.0645 17.7759C21.3509 17.3967 21.5546 16.9617 21.6625 16.4989C21.692 16.5 21.7205 16.5 21.75 16.5H23.5V14.75H21.75C21.0541 14.7491 20.387 14.4722 19.8949 13.9801C19.4028 13.4881 19.1259 12.8209 19.125 12.125V7.75ZM19.125 15.6228C19.3827 15.817 19.6611 15.9821 19.9552 16.115C19.9008 16.3421 19.7986 16.5549 19.6554 16.7394C19.5123 16.9238 19.3315 17.0756 19.125 17.1847V15.6228ZM14.587 12.3897C14.6903 10.013 15.1683 7.66753 16.0035 5.44C16.2025 4.91103 16.5664 4.46015 17.0416 4.15405C17.5167 3.84795 18.0777 3.70289 18.6416 3.74031C17.8157 4.91411 17.3732 6.31475 17.375 7.75V17.375C17.2467 17.3749 17.1198 17.4031 17.0036 17.4576C16.8873 17.512 16.7845 17.5913 16.7024 17.69L15.3428 19.323C14.9319 19.8165 14.5558 20.338 14.2173 20.8838L14.587 12.3897ZM14.6056 32.3539C13.8803 30.36 13.6908 28.2107 14.056 26.1206C14.4213 24.0305 15.3285 22.0728 16.687 20.443L17.7852 19.125H18.25V20C18.2509 20.6959 18.5278 21.3631 19.0199 21.8551C19.512 22.3472 20.1791 22.6241 20.875 22.625C21.8255 22.6228 22.7626 22.4004 23.6127 21.9754C24.4628 21.5503 25.203 20.9341 25.775 20.175L26.5625 19.125H27.5896L27.2341 20.3719C26.5374 22.801 26.7059 25.3967 27.711 27.7153C26.7736 28.8355 26.2061 30.2184 26.0864 31.6742C25.9668 33.1299 26.3008 34.587 27.0427 35.8452C25.9695 36.9241 24.6937 37.7803 23.2885 38.3646C21.8834 38.949 20.3766 39.2498 18.8549 39.25H17.1125L14.6056 32.3539ZM35.5433 51.5H23.5V47.7933L24.1453 47.9693C24.2941 48.0098 24.4509 48.0102 24.5999 47.9706C24.7489 47.9311 24.8849 47.853 24.9941 47.7441C25.3734 47.3638 25.8629 47.1128 26.393 47.0266C26.9232 46.9404 27.467 47.0234 27.9472 47.2639L35.6363 51.1084C35.6778 51.1294 35.7111 51.1637 35.7307 51.2059C35.7503 51.2481 35.7552 51.2957 35.7444 51.3409C35.7337 51.3862 35.708 51.4265 35.6715 51.4554C35.635 51.4843 35.5898 51.5 35.5433 51.5ZM46.366 51.5H37.4891C37.4966 51.4314 37.5002 51.3623 37.5 51.2933C37.5012 50.9296 37.4005 50.5729 37.2093 50.2636C37.0181 49.9543 36.7441 49.7048 36.4183 49.5433L28.7303 45.6987C28.0019 45.3339 27.1848 45.1833 26.3742 45.2644C25.5635 45.3456 24.7925 45.6551 24.1508 46.157L18.4502 44.6017C16.0492 43.9448 13.5425 43.7668 11.0728 44.0778L7.64173 44.5066L7.8583 46.2434L11.2905 45.8147C13.5332 45.5321 15.8095 45.6938 17.9897 46.2905L21.75 47.3164V51.5H14.1364C11.1598 51.501 8.20246 51.0212 5.37877 50.0792C4.4304 49.7631 3.62546 49.1198 3.10798 48.2645C2.59051 47.4092 2.39426 46.3976 2.55436 45.4109C2.71445 44.4241 3.22045 43.5265 3.9818 42.8787C4.74316 42.2308 5.71019 41.8751 6.70986 41.875H16.5C16.6149 41.875 16.7287 41.8524 16.8349 41.8085C16.9411 41.7645 17.0375 41.7 17.1188 41.6188C17.2001 41.5375 17.2645 41.4411 17.3085 41.3349C17.3524 41.2287 17.375 41.1149 17.375 41H18.8549C22.3163 40.9989 25.641 39.6488 28.1233 37.2364L28.1309 37.2441C28.194 37.3063 28.2659 37.359 28.3442 37.4005L46.7192 47.0255L47.5308 45.4746L44.3349 43.8011L42.1495 36.1536L44.6991 34.8794L50.5966 43.4576C51.1266 44.2285 51.4359 45.1295 51.4911 46.0634C51.5463 46.9972 51.3452 47.9284 50.9097 48.7563C50.4742 49.5842 49.8207 50.2774 49.0199 50.7609C48.2191 51.2445 47.3014 51.5 46.366 51.5Z" fill="black"/>
</svg>
