<svg width="57" height="56" viewBox="0 0 57 56" fill="none" xmlns="http://www.w3.org/2000/svg">
<g clip-path="url(#clip0)">
<path d="M54.2136 55.7052C54.3914 55.5175 54.483 55.2641 54.4666 55.0061L51.6666 12.0729C51.6347 11.5812 51.2259 11.1993 50.7332 11.2002H43.2666V8.4002C43.2743 5.67084 41.9518 3.1092 39.7224 1.53466C37.493 -0.0398819 34.6365 -0.429529 32.0666 0.490585C29.4972 -0.429529 26.6403 -0.0398819 24.4108 1.53466C22.1814 3.1092 20.8589 5.67084 20.8666 8.4002V11.2002H13.4C12.9074 11.1993 12.4986 11.5812 12.4667 12.0729L11.4326 27.9395L13.2993 28.0608L14.2745 13.0669H20.8666V15.8668H22.7333V13.0669H35.7999V15.8668H37.6666V13.0669H44.2587L46.9375 54.1334H43.2666V56.0001H53.5332C53.7912 56.0001 54.0373 55.8934 54.2136 55.7052ZM22.7333 8.4002C22.7379 4.79402 25.6604 1.87144 29.2666 1.86688C29.3714 1.86688 29.474 1.87828 29.5774 1.88283C27.61 3.47469 26.4671 5.86954 26.4666 8.4002V11.2002H22.7333V8.4002ZM28.3333 11.2002V8.4002C28.3369 5.88002 29.7898 3.58635 32.0666 2.50627C34.3439 3.58635 35.7967 5.88002 35.7999 8.4002V11.2002H28.3333ZM34.5558 1.88283C34.6597 1.87828 34.7622 1.86688 34.8666 1.86688C38.4732 1.87144 41.3954 4.79402 41.3999 8.4002V11.2002H37.6666V8.4002C37.6666 5.86954 36.5232 3.47469 34.5558 1.88283ZM48.8078 54.1334L46.1299 13.0669H49.8632L52.542 54.1334H48.8078Z" fill="black"/>
<path d="M3.13383 55.9999H40.4672C40.7333 55.9999 40.9867 55.8864 41.1635 55.6877C41.3403 55.489 41.4242 55.2247 41.3941 54.9604L38.5941 30.6937C38.5399 30.2225 38.1416 29.867 37.6672 29.8666H5.93383C5.45988 29.867 5.06111 30.2225 5.00734 30.6937L2.20734 54.9604C2.1768 55.2247 2.26066 55.489 2.43748 55.6877C2.61476 55.8864 2.86814 55.9999 3.13383 55.9999ZM39.4199 54.1332H35.6989L33.1144 31.7332H36.8345L39.4199 54.1332ZM6.76645 31.7332H31.2345L33.8199 54.1332H4.1811L6.76645 31.7332Z" fill="black"/>
<path d="M25.5339 41.9999C25.5339 45.6083 22.609 48.5332 19.0006 48.5332C15.3926 48.5332 12.4673 45.6083 12.4673 41.9999V34.5332H10.6006V41.9999C10.6006 46.6392 14.3613 50.3999 19.0006 50.3999C23.6399 50.3999 27.4006 46.6392 27.4006 41.9999V34.5332H25.5339V41.9999Z" fill="black"/>
<path d="M35.8002 20.5333C35.807 18.9765 34.8431 17.5806 33.3852 17.0351C31.9269 16.4896 30.2831 16.9107 29.2668 18.0901C28.1366 16.7959 26.2677 16.4422 24.7428 17.2347C23.2179 18.0268 22.4327 19.759 22.8419 21.4279C23.2512 23.0972 24.7487 24.2698 26.4668 24.2666H27.0137L24.8736 26.4067L26.1934 27.7265L29.2668 24.6531L32.3403 27.7265L33.66 26.4067L31.5199 24.2666H32.0668C34.1285 24.2666 35.8002 22.5955 35.8002 20.5333ZM32.0668 18.6666C33.0977 18.6666 33.9335 19.5024 33.9335 20.5333C33.9335 21.5642 33.0977 22.4 32.0668 22.4H30.2002V20.5333C30.2002 19.5024 31.036 18.6666 32.0668 18.6666ZM24.6001 20.5333C24.6001 19.5024 25.436 18.6666 26.4668 18.6666C27.4977 18.6666 28.3335 19.5024 28.3335 20.5333V22.4H26.4668C25.436 22.4 24.6001 21.5642 24.6001 20.5333Z" fill="black"/>
<path d="M17.1331 41.0667L15.4533 43.307L16.9467 44.4268L18.9997 41.6892L21.0533 44.4268L22.5467 43.307L20.8664 41.0667C22.1192 41.0744 23.2244 40.2486 23.5725 39.045C23.9212 37.8415 23.4272 36.5531 22.3639 35.8905C21.3012 35.2279 19.9272 35.3523 18.9997 36.1949C18.0728 35.3523 16.6988 35.2279 15.6356 35.8905C14.5723 36.5531 14.0788 37.8415 14.427 39.045C14.7751 40.2486 15.8803 41.0744 17.1331 41.0667ZM20.8664 37.3333C21.3818 37.3333 21.7998 37.7512 21.7998 38.2667C21.7998 38.7821 21.3818 39.2 20.8664 39.2H19.9331V38.2667C19.9331 37.7512 20.351 37.3333 20.8664 37.3333ZM17.1331 37.3333C17.6485 37.3333 18.0664 37.7512 18.0664 38.2667V39.2H17.1331C16.6177 39.2 16.1997 38.7821 16.1997 38.2667C16.1997 37.7512 16.6177 37.3333 17.1331 37.3333Z" fill="black"/>
</g>
<defs>
<clipPath id="clip0">
<rect width="56" height="56" fill="white" transform="translate(0.333984)"/>
</clipPath>
</defs>
</svg>
