<svg width="57" height="56" viewBox="0 0 57 56" fill="none" xmlns="http://www.w3.org/2000/svg">
<g clip-path="url(#clip0)">
<path d="M27.5873 50.4697C27.1272 50.38 26.7017 50.6914 26.6226 51.1144C26.5162 51.625 26.9195 52.0954 27.4267 52.0954C27.8668 52.0954 28.247 51.7382 28.247 51.2751C28.247 50.9038 27.9954 50.5556 27.5873 50.4697Z" fill="black"/>
<path d="M30.3623 48.8642C30.3623 48.4925 30.1085 48.1447 29.7018 48.0601C29.1989 47.9606 28.7217 48.343 28.7217 48.8642C28.7217 49.3295 29.1024 49.6845 29.542 49.6845C30.0009 49.6845 30.3623 49.3081 30.3623 48.8642Z" fill="black"/>
<path d="M30.4053 52.5756C30.85 52.5756 31.226 52.2133 31.226 51.7553C31.226 51.3648 30.9547 51.0311 30.5651 50.9504C30.0609 50.8504 29.585 51.2367 29.585 51.7553C29.585 52.2125 29.9597 52.5756 30.4053 52.5756Z" fill="black"/>
<path d="M32.5208 50.1646C32.9797 50.1646 33.3411 49.7891 33.3411 49.3456C33.3411 48.8308 32.8699 48.4403 32.3602 48.5402C31.9521 48.6248 31.6992 48.9764 31.6992 49.3456C31.6992 49.7908 32.0624 50.1646 32.5208 50.1646Z" fill="black"/>
<path d="M32.477 46.4539C32.477 46.0809 32.2228 45.7332 31.8173 45.649C31.3213 45.5494 30.8359 45.928 30.8359 46.4539C30.8359 46.9008 31.2004 47.2747 31.6562 47.2747C32.1023 47.2747 32.477 46.9141 32.477 46.4539Z" fill="black"/>
<path d="M47.2342 41.6733L46.0349 41.9625C45.5944 42.0689 45.3235 42.5124 45.4299 42.9529C45.5363 43.3929 45.9798 43.6642 46.4198 43.5579L47.6191 43.2682C48.7321 42.9994 49.869 43.607 50.2651 44.6807C50.7141 45.8979 50.0194 47.2313 48.7671 47.5629L44.4575 48.7028C43.0352 49.0796 41.5253 48.4532 40.787 47.18L39.0699 44.2184C40.1778 44.4811 41.2694 44.5777 42.4943 44.4341C42.9442 44.3816 43.2663 43.9736 43.2134 43.5237C43.1608 43.0738 42.7532 42.7525 42.3029 42.8046C41.3779 42.9131 40.4495 42.8593 39.5433 42.6444L37.936 42.2637L29.6547 27.9817L31.6085 24.6121C32.0016 24.6855 32.3912 24.6629 32.7565 24.5561C32.7565 24.5557 32.7565 24.5557 32.7565 24.5557C33.3406 24.3839 33.8674 23.9887 34.1916 23.429C34.6907 22.5685 44.8403 5.06512 45.6337 3.69665C46.3165 2.52002 45.9161 1.01483 44.7391 0.332088C43.5646 -0.348515 42.0555 0.0526694 41.3745 1.22717L29.9328 20.9591C29.4001 21.8773 29.5206 23.0043 30.1892 23.7888L28.7062 26.3458L27.2241 23.79C27.8804 23.0176 28.0166 21.8845 27.48 20.9591L16.0379 1.22674C15.3573 0.0526695 13.8479 -0.348515 12.6734 0.332088C11.4993 1.01312 11.0981 2.52215 11.7787 3.69665C12.5768 5.07281 22.7265 22.5767 23.2208 23.429C23.7348 24.3147 24.7555 24.8082 25.8039 24.6121L27.7577 27.9817L19.4764 42.2637L17.8696 42.6444C15.5966 43.1827 14.3371 42.6773 10.1787 41.6733C8.25694 41.2089 6.29204 42.2582 5.60802 44.1129C4.82616 46.2337 6.04167 48.5707 8.22618 49.1492C12.9344 50.3951 12.9639 50.4519 13.7864 50.4519C15.5082 50.4519 17.1526 49.5427 18.0452 48.0029C18.3652 47.4509 28.7067 29.6172 28.7067 29.6172C28.7067 29.6172 39.0447 47.4458 39.3677 48.0029C40.2607 49.5427 41.9043 50.4519 43.6265 50.4519C44.4494 50.4519 44.4793 50.3946 49.1867 49.1488C51.3669 48.572 52.5884 46.2371 51.8049 44.1129C51.1208 42.2582 49.1555 41.2093 47.2342 41.6733ZM42.7942 2.05005C43.0211 1.65826 43.5248 1.52453 43.9162 1.7514C44.3084 1.97912 44.4421 2.48071 44.2144 2.87335L34.8419 19.0373L33.4111 18.2316L42.7942 2.05005ZM31.3522 21.782L32.5878 19.6513L34.0186 20.4567L32.7723 22.6057C32.5484 22.9919 32.0494 23.1355 31.6504 22.9044C31.2582 22.6762 31.1244 22.1746 31.3522 21.782ZM22.571 19.0373L13.198 2.87335C12.9712 2.48199 13.1049 1.9787 13.4967 1.7514C13.888 1.52453 14.3918 1.65826 14.6186 2.05005L24.0018 18.2316L22.571 19.0373ZM25.7621 22.9039C25.3626 23.1355 24.864 22.9915 24.6401 22.6057L23.3943 20.4567L24.8247 19.6513L26.0603 21.782C26.2876 22.1738 26.1534 22.6771 25.7621 22.9039ZM16.6254 47.18C15.8871 48.4532 14.3785 49.0792 12.9549 48.7028L8.64574 47.5629C7.39134 47.2305 6.6992 45.8962 7.14739 44.6807C7.54387 43.6049 8.68248 43.0003 9.79332 43.2682C14.0038 44.285 15.5116 44.8904 18.3425 44.2184L16.6254 47.18Z" fill="black"/>
<path d="M35.7377 46.9881C36.174 46.8659 36.4286 46.4131 36.306 45.9768C34.6786 40.1693 27.3761 38.286 23.1297 42.5324C20.0531 45.6094 20.0531 50.6159 23.1297 53.6925C24.6682 55.231 26.6887 56.0005 28.71 56C32.2916 55.9996 35.3635 53.6117 36.306 50.2484C36.4286 49.8118 36.174 49.3593 35.7377 49.2367C35.3007 49.1145 34.8482 49.3692 34.726 49.8054C33.44 54.3949 27.659 55.9009 24.2901 52.5321C21.8531 50.0955 21.8531 46.1298 24.2901 43.6928C27.6594 40.3235 33.4404 41.8308 34.726 46.4195C34.8486 46.8561 35.302 47.1103 35.7377 46.9881Z" fill="black"/>
</g>
<defs>
<clipPath id="clip0">
<rect width="56" height="56" fill="white" transform="translate(0.666992)"/>
</clipPath>
</defs>
</svg>
