<svg width="56" height="56" viewBox="0 0 56 56" fill="none" xmlns="http://www.w3.org/2000/svg">
<path d="M34.5341 37.3336H31.7341V28.9336C31.7311 26.3576 29.6435 24.27 27.0675 24.267H8.40092C5.82494 24.27 3.73732 26.3576 3.73429 28.9336V37.3336H0.934304C0.418874 37.3336 0.000976562 37.7514 0.000976562 38.2669V51.3335C0.000976562 51.8489 0.418874 52.2668 0.934304 52.2668H1.86763V55.0668C1.86763 55.5822 2.28553 56.0001 2.80096 56.0001H6.53427C7.0497 56.0001 7.4676 55.5822 7.4676 55.0668V52.2668H28.0008V55.0668C28.0008 55.5822 28.4187 56.0001 28.9341 56.0001H32.6674C33.1829 56.0001 33.6008 55.5822 33.6008 55.0668V52.2668H34.5341C35.0495 52.2668 35.4674 51.8489 35.4674 51.3335V38.2669C35.4674 37.7514 35.0496 37.3336 34.5341 37.3336ZM5.60094 54.1334H3.73429V52.2668H5.60094V54.1334ZM7.4676 50.4001H1.86763V39.2002H7.4676V50.4001ZM26.1341 50.4001H9.33425V44.8002H26.1341V50.4001ZM27.0675 37.3336C26.552 37.3336 26.1341 37.7514 26.1341 38.2669V42.9335H9.33425V38.2669C9.33425 37.7514 8.91635 37.3336 8.40092 37.3336H5.60094V28.9336C5.60094 27.3872 6.85452 26.1336 8.40092 26.1336H27.0675C28.6139 26.1336 29.8675 27.3872 29.8675 28.9336V37.3336H27.0675ZM31.7341 54.1334H29.8675V52.2668H31.7341V54.1334ZM33.6008 50.4001H28.0008V39.2002H33.6008V50.4001Z" fill="black"/>
<path d="M55.957 15.5869L51.2903 0.653696C51.1681 0.264848 50.8076 0.000366211 50.3999 0.000366211H42.9333C42.5257 0.000366211 42.1652 0.264848 42.0429 0.653696L37.3763 15.5869C37.2216 16.0787 37.4949 16.6026 37.9867 16.7573C38.0773 16.7858 38.1717 16.8004 38.2667 16.8003H45.7333V50.4001H39.2C38.6846 50.4001 38.2667 50.8179 38.2667 51.3334V55.0667C38.2667 55.5821 38.6846 56 39.2 56H54.1332C54.6487 56 55.0666 55.5821 55.0666 55.0667V51.3334C55.0666 50.8179 54.6487 50.4001 54.1332 50.4001H47.5999V16.8003H55.0666C55.582 16.8003 55.9999 16.3825 55.9999 15.8669C56 15.772 55.9856 15.6776 55.957 15.5869ZM53.1999 52.2667V54.1334H40.1333V52.2667H53.1999ZM39.536 14.9336L43.6193 1.86702H49.7139L53.7972 14.9336H39.536Z" fill="black"/>
<path d="M30.8002 3.73366H22.7287L18.3169 0.204749C17.9759 -0.0682496 17.4913 -0.0682496 17.1502 0.204749L12.7384 3.73366H4.66699V20.5336H30.8002V3.73366ZM17.7336 2.12834L19.7393 3.73366H15.726L17.7336 2.12834ZM28.9335 18.6669H6.53365V5.60031H28.9335V18.6669Z" fill="black"/>
<path d="M28 6.53369H7.4668V17.7336H28V6.53369ZM26.1333 15.867H9.33345V8.40035H26.1333V15.867Z" fill="black"/>
</svg>
