<svg width="57" height="56" viewBox="0 0 57 56" fill="none" xmlns="http://www.w3.org/2000/svg">
<path d="M1.4873 41.8787C1.03427 41.8787 0.666992 42.2459 0.666992 42.699V55.1797C0.666992 55.6328 1.03427 56 1.4873 56C1.94034 56 2.30762 55.6328 2.30762 55.1797V42.699C2.30762 42.2459 1.94034 41.8787 1.4873 41.8787ZM35.2842 6.61719C26.9047 6.61719 19.637 11.4629 16.1323 18.4986H6.13574V2.73438C6.13574 1.22664 4.9091 0 3.40137 0C1.89363 0 0.666992 1.22664 0.666992 2.73438V39.4178C0.666992 39.8709 1.03427 40.2381 1.4873 40.2381C1.94034 40.2381 2.30762 39.8709 2.30762 39.4178V2.73438C2.30762 2.13128 2.79827 1.64062 3.40137 1.64062C4.00446 1.64062 4.49512 2.13128 4.49512 2.73438V55.1797C4.49512 55.6328 4.8624 56 5.31543 56C5.76846 56 6.13574 55.6328 6.13574 55.1797V37.5014H16.1323C19.637 44.5371 26.9047 49.3828 35.2842 49.3828C47.0747 49.3828 56.667 39.7905 56.667 28C56.667 16.2095 47.0747 6.61719 35.2842 6.61719ZM15.3984 35.8608H6.13574V20.1392H15.3984C14.4327 22.5737 13.9014 25.2259 13.9014 28C13.9014 30.7741 14.4327 33.4263 15.3984 35.8608ZM35.2842 47.7422C24.3983 47.7422 15.542 38.8859 15.542 28C15.542 17.1141 24.3983 8.25781 35.2842 8.25781C46.1701 8.25781 55.0264 17.1141 55.0264 28C55.0264 38.8859 46.1701 47.7422 35.2842 47.7422ZM52.5654 28.8203C53.0185 28.8203 53.3857 28.4531 53.3857 28C53.3857 18.0188 45.2654 9.89844 35.2842 9.89844C25.3029 9.89844 17.1826 18.0188 17.1826 28C17.1826 37.9812 25.3029 46.1016 35.2842 46.1016C43.8882 46.1016 51.3541 39.9807 53.0366 31.5476C53.1253 31.1032 52.8369 30.6712 52.3926 30.5826C51.9483 30.4945 51.5163 30.7824 51.4277 31.2266C49.8978 38.8951 43.1084 44.4609 35.2842 44.4609C26.2076 44.4609 18.8232 37.0766 18.8232 28C18.8232 18.9234 26.2076 11.5391 35.2842 11.5391C44.3608 11.5391 51.7451 18.9234 51.7451 28C51.7451 28.4531 52.1124 28.8203 52.5654 28.8203ZM29.2773 40.5637H41.2911C42.0499 40.5637 42.6672 39.9453 42.6672 39.1851V26.343L43.8388 27.227C44.1363 27.4516 44.5196 27.5461 44.8858 27.487C45.2539 27.4276 45.5866 27.2173 45.7987 26.9103L48.0541 23.6448C48.406 23.1351 48.3739 22.4479 47.9759 21.9737L44.1431 17.4044C44.0724 17.3243 43.9713 17.2301 43.8149 17.1682L39.7661 15.4983C39.6821 15.4708 39.6112 15.4374 39.4534 15.4364H31.1148C31.049 15.4392 30.9277 15.4447 30.8021 15.4983L26.7524 17.1685C26.6463 17.2149 26.5417 17.2697 26.4251 17.4044L22.5924 21.9737C22.1944 22.4479 22.1622 23.1351 22.5142 23.6448L24.7695 26.9103C25.0225 27.2773 25.4526 27.5044 25.8991 27.5044C26.1963 27.5044 26.4901 27.4077 26.7294 27.2272L27.901 26.343V39.1851C27.901 39.9453 28.5185 40.5637 29.2773 40.5637ZM43.9245 19.6965L46.5914 22.8758L44.606 25.7505L42.773 24.3674L43.9245 19.6965ZM25.9625 25.7506L23.977 22.8758L26.6439 19.6965L27.7954 24.3674L25.9625 25.7506ZM38.2648 17.0769C37.6541 17.712 36.4177 18.1108 35.2842 18.1108C34.1506 18.1108 32.9142 17.712 32.3036 17.0769H38.2648ZM30.5463 17.3784C31.2163 18.7704 33.0686 19.7514 35.2842 19.7514C37.4998 19.7514 39.3521 18.7704 40.0221 17.3784L42.5493 18.4207C42.5106 18.593 41.1346 24.2586 41.0781 24.411C41.0108 24.5922 41.0289 24.7822 41.0267 24.9687V38.9231H29.5417V24.9687C29.5375 24.8104 29.5535 24.5962 29.4526 24.2356L28.0191 18.4207L30.5463 17.3784Z" fill="black"/>
</svg>
