<svg width="57" height="56" viewBox="0 0 57 56" fill="none" xmlns="http://www.w3.org/2000/svg">
<g clip-path="url(#clip0)">
<path d="M47.7888 28.8209H52.5197C52.8434 29.6034 53.6141 30.1557 54.5121 30.1557C55.7008 30.1557 56.6678 29.1886 56.6678 27.9999C56.6678 26.8114 55.7007 25.8443 54.5121 25.8443C53.6136 25.8443 52.8426 26.3972 52.5193 27.1803H47.7888V20.0052H52.5197C52.8434 20.7877 53.6141 21.34 54.5121 21.34C55.7008 21.34 56.6678 20.3729 56.6678 19.1842C56.6678 17.9957 55.7007 17.0286 54.5121 17.0286C53.6136 17.0286 52.8426 17.5815 52.5193 18.3646H47.7888V9.69936C47.7888 9.24622 47.4215 8.87905 46.9685 8.87905H43.4452C42.9922 8.87905 42.6249 9.24622 42.6249 9.69936C42.6249 10.1525 42.9922 10.5197 43.4452 10.5197H46.1482V19.1839V19.185V19.1861V27.9996V28.0007V28.0018V36.8152V36.8163V36.8174V45.4804H11.1876V36.8163V36.8152V36.8141V28.0006V27.9995V27.9984V19.185V19.1839V19.1828V10.5197H40.2135C40.6665 10.5197 41.0338 10.1525 41.0338 9.69936C41.0338 9.24622 40.6665 8.87905 40.2135 8.87905H38.3049V4.14815C39.0872 3.8244 39.6393 3.05374 39.6393 2.15578C39.6393 0.967092 38.6722 0 37.4836 0C36.2951 0 35.328 0.967092 35.328 2.15578C35.328 3.0544 35.8811 3.8256 36.6644 4.1488V8.87905H29.4894V4.14804C30.2717 3.82429 30.8238 3.05363 30.8238 2.15578C30.8236 0.967092 29.8566 0 28.6679 0C27.4792 0 26.5122 0.967092 26.5122 2.15578C26.5122 3.05451 27.0654 3.8256 27.8487 4.14891V8.87905H20.6737V4.14804C21.4559 3.82429 22.008 3.05363 22.008 2.15578C22.008 0.967092 21.0409 0 19.8523 0C18.6637 0 17.6965 0.967092 17.6965 2.15578C17.6965 3.05451 18.2497 3.82571 19.0331 4.14891V8.87905H10.3673C9.9143 8.87905 9.54701 9.24622 9.54701 9.69936V18.3636H4.81612C4.49259 17.581 3.72171 17.0287 2.82364 17.0287C1.63506 17.0286 0.667969 17.9957 0.667969 19.1842C0.667969 20.3729 1.63506 21.34 2.82364 21.34C3.72204 21.34 4.49302 20.7871 4.81645 20.0041H9.5469V27.1791H4.81612C4.49248 26.3966 3.72171 25.8443 2.82364 25.8443C1.63506 25.8443 0.667969 26.8114 0.667969 27.9999C0.667969 29.1886 1.63506 30.1557 2.82364 30.1557C3.72204 30.1557 4.49313 29.6028 4.81645 28.8197H9.5469V35.9948H4.81612C4.49248 35.2123 3.72171 34.66 2.82375 34.66C1.63506 34.66 0.667969 35.627 0.667969 36.8158C0.667969 38.0043 1.63506 38.9714 2.82364 38.9714C3.72215 38.9714 4.49313 38.4186 4.81645 37.6354H9.5469V46.3006C9.5469 46.7538 9.91419 47.121 10.3672 47.121H19.0308V51.852C18.2485 52.1757 17.6964 52.9464 17.6964 53.8443C17.6964 55.0329 18.6635 56 19.8521 56C21.0407 56 22.0078 55.0329 22.0078 53.8443C22.0078 52.9457 21.4546 52.1745 20.6713 51.8513V47.1208H27.8463V51.8519C27.064 52.1756 26.5119 52.9463 26.5119 53.8441C26.5119 55.0327 27.479 55.9998 28.6676 55.9998C29.8562 55.9998 30.8233 55.0327 30.8233 53.8441C30.8233 52.9454 30.2701 52.1743 29.4868 51.851V47.1208H36.6618V51.852C35.8797 52.1757 35.3275 52.9464 35.3275 53.8442C35.3275 55.0328 36.2946 55.9999 37.4832 55.9999C38.6718 55.9999 39.6389 55.0328 39.6389 53.8442C39.6389 52.9455 39.0856 52.1743 38.3023 51.8511V47.1208H46.9681C47.4211 47.1208 47.7884 46.7537 47.7884 46.3005V37.6364H52.5192C52.8427 38.419 53.6136 38.9713 54.5116 38.9713C55.7003 38.9713 56.6673 38.0042 56.6673 36.8157C56.6673 35.627 55.7002 34.6599 54.5116 34.6599C53.6132 34.6599 52.8423 35.2128 52.5188 35.9958H47.7884V28.8209H47.7888ZM54.5122 27.4849C54.7962 27.4849 55.0272 27.7159 55.0272 27.9999C55.0272 28.284 54.7961 28.5151 54.5122 28.5151C54.2283 28.5151 53.9971 28.284 53.9971 27.9999C53.9971 27.7159 54.2281 27.4849 54.5122 27.4849ZM54.5122 18.6692C54.7962 18.6692 55.0272 18.9002 55.0272 19.1842C55.0272 19.4683 54.7961 19.6994 54.5122 19.6994C54.2283 19.6994 53.9971 19.4683 53.9971 19.1842C53.9971 18.9002 54.2281 18.6692 54.5122 18.6692ZM37.4836 1.64062C37.7677 1.64062 37.9987 1.87173 37.9987 2.15578C37.9987 2.4384 37.7696 2.66842 37.4875 2.6706C37.4865 2.6706 37.4856 2.6705 37.4846 2.6705C37.4832 2.6705 37.4819 2.67071 37.4805 2.67071C37.1979 2.66896 36.9686 2.43884 36.9686 2.15589C36.9685 1.87173 37.1996 1.64062 37.4836 1.64062ZM28.6679 1.64062C28.952 1.64062 29.183 1.87173 29.183 2.15578C29.183 2.4384 28.9539 2.66842 28.6717 2.6705C28.6708 2.6705 28.6699 2.67039 28.6689 2.67039C28.6675 2.67039 28.6661 2.6706 28.6646 2.6706C28.3821 2.66885 28.1526 2.43873 28.1526 2.15578C28.1529 1.87173 28.3839 1.64062 28.6679 1.64062ZM19.8522 1.64062C20.1362 1.64062 20.3672 1.87173 20.3672 2.15578C20.3672 2.4384 20.1382 2.66842 19.856 2.6705C19.8552 2.6705 19.8542 2.67039 19.8533 2.67039C19.8519 2.67039 19.8504 2.6706 19.849 2.6706C19.5665 2.66885 19.337 2.43873 19.337 2.15578C19.3372 1.87173 19.5683 1.64062 19.8522 1.64062ZM2.82364 19.6994C2.53959 19.6994 2.30859 19.4683 2.30859 19.1842C2.30859 18.9002 2.5397 18.6692 2.82364 18.6692C3.10757 18.6692 3.33868 18.9002 3.33868 19.1842C3.33868 19.4683 3.10768 19.6994 2.82364 19.6994ZM2.82364 28.5151C2.53959 28.5151 2.30859 28.284 2.30859 27.9999C2.30859 27.7159 2.5397 27.4849 2.82364 27.4849C3.10757 27.4849 3.33868 27.7159 3.33868 27.9999C3.33868 28.284 3.10768 28.5151 2.82364 28.5151ZM2.82364 37.3308C2.53959 37.3308 2.30859 37.0998 2.30859 36.8158C2.30859 36.5317 2.5397 36.3006 2.82364 36.3006C3.10757 36.3006 3.33868 36.5317 3.33868 36.8158C3.33868 37.0998 3.10768 37.3308 2.82364 37.3308ZM19.8522 54.3593C19.5681 54.3593 19.3372 54.1283 19.3372 53.8442C19.3372 53.5613 19.5666 53.3312 19.8491 53.3294C19.8499 53.3294 19.8506 53.3295 19.8513 53.3295C19.8525 53.3295 19.8536 53.3294 19.8548 53.3294C20.1377 53.3307 20.3675 53.5612 20.3675 53.8443C20.3674 54.1283 20.1362 54.3593 19.8522 54.3593ZM28.6679 54.3593C28.3839 54.3593 28.1529 54.1283 28.1529 53.8442C28.1529 53.5613 28.3823 53.3312 28.6647 53.3294C28.6654 53.3294 28.6662 53.3295 28.6668 53.3295C28.668 53.3295 28.6691 53.3294 28.6703 53.3293C28.9532 53.3306 29.183 53.5611 29.183 53.8442C29.183 54.1283 28.952 54.3593 28.6679 54.3593ZM37.4836 54.3593C37.1996 54.3593 36.9686 54.1283 36.9686 53.8442C36.9686 53.5613 37.1979 53.3312 37.4805 53.3294C37.4811 53.3294 37.4818 53.3295 37.4825 53.3295C37.4837 53.3295 37.4849 53.3294 37.4861 53.3293C37.769 53.3306 37.9988 53.5611 37.9988 53.8442C37.9987 54.1283 37.7676 54.3593 37.4836 54.3593ZM54.5122 36.3006C54.7962 36.3006 55.0272 36.5317 55.0272 36.8158C55.0272 37.0998 54.7961 37.3308 54.5122 37.3308C54.2283 37.3308 53.9971 37.0998 53.9971 36.8158C53.9971 36.5317 54.2281 36.3006 54.5122 36.3006Z" fill="black"/>
<path d="M44.2598 11.5869H13.0742C12.6212 11.5869 12.2539 11.9541 12.2539 12.4072V35.1915C12.2539 35.6447 12.6212 36.0118 13.0742 36.0118C13.5272 36.0118 13.8945 35.6447 13.8945 35.1915V13.2275H43.4395V42.7725H13.8945V38.4232C13.8945 37.9701 13.5272 37.6029 13.0742 37.6029C12.6212 37.6029 12.2539 37.9701 12.2539 38.4232V43.5928C12.2539 44.046 12.6212 44.4131 13.0742 44.4131H44.2598C44.7128 44.4131 45.0801 44.046 45.0801 43.5928V12.4072C45.0801 11.9541 44.7128 11.5869 44.2598 11.5869Z" fill="black"/>
<path d="M34.2794 21.567H23.0537C22.6007 21.567 22.2334 21.9342 22.2334 22.3873V33.6129C22.2334 34.066 22.6007 34.4332 23.0537 34.4332H27.3787C27.8317 34.4332 28.199 34.066 28.199 33.6129C28.199 33.1597 27.8317 32.7926 27.3787 32.7926H23.874V23.2076H33.4591V32.7926H30.6106C30.1576 32.7926 29.7903 33.1597 29.7903 33.6129C29.7903 34.066 30.1576 34.4332 30.6106 34.4332H34.2794C34.7324 34.4332 35.0997 34.066 35.0997 33.6129V22.3873C35.0997 21.9342 34.7324 21.567 34.2794 21.567Z" fill="black"/>
<path d="M18.5159 15.7081H17.1953C16.7423 15.7081 16.375 16.0753 16.375 16.5284V17.8489C16.375 18.3021 16.7423 18.6692 17.1953 18.6692H18.5159C18.9689 18.6692 19.3362 18.3021 19.3362 17.8489V16.5284C19.3362 16.0753 18.9689 15.7081 18.5159 15.7081Z" fill="black"/>
<path d="M22.841 15.7081H21.5205C21.0675 15.7081 20.7002 16.0753 20.7002 16.5284V17.8489C20.7002 18.3021 21.0675 18.6692 21.5205 18.6692H22.841C23.294 18.6692 23.6613 18.3021 23.6613 17.8489V16.5284C23.6613 16.0754 23.294 15.7081 22.841 15.7081Z" fill="black"/>
<path d="M27.1652 15.7081H25.8447C25.3917 15.7081 25.0244 16.0753 25.0244 16.5284V17.8489C25.0244 18.3021 25.3917 18.6692 25.8447 18.6692H27.1652C27.6182 18.6692 27.9855 18.3021 27.9855 17.8489V16.5284C27.9855 16.0753 27.6182 15.7081 27.1652 15.7081Z" fill="black"/>
<path d="M31.4894 15.7081H30.1689C29.7159 15.7081 29.3486 16.0753 29.3486 16.5284V17.8489C29.3486 18.3021 29.7159 18.6692 30.1689 18.6692H31.4894C31.9425 18.6692 32.3097 18.3021 32.3097 17.8489V16.5284C32.3097 16.0753 31.9425 15.7081 31.4894 15.7081Z" fill="black"/>
<path d="M35.8146 15.7081H34.4941C34.0411 15.7081 33.6738 16.0753 33.6738 16.5284V17.8489C33.6738 18.3021 34.0411 18.6692 34.4941 18.6692H35.8146C36.2677 18.6692 36.6349 18.3021 36.6349 17.8489V16.5284C36.6349 16.0753 36.2677 15.7081 35.8146 15.7081Z" fill="black"/>
<path d="M40.1389 15.7081H38.8184C38.3653 15.7081 37.998 16.0753 37.998 16.5284V17.8489C37.998 18.3021 38.3653 18.6692 38.8184 18.6692H40.1389C40.592 18.6692 40.9593 18.3021 40.9593 17.8489V16.5284C40.9593 16.0753 40.592 15.7081 40.1389 15.7081Z" fill="black"/>
<path d="M18.5159 37.3308H17.1953C16.7423 37.3308 16.375 37.698 16.375 38.1511V39.4716C16.375 39.9247 16.7423 40.2919 17.1953 40.2919H18.5159C18.9689 40.2919 19.3362 39.9247 19.3362 39.4716V38.1511C19.3362 37.698 18.9689 37.3308 18.5159 37.3308Z" fill="black"/>
<path d="M22.84 37.3308H21.5195C21.0665 37.3308 20.6992 37.698 20.6992 38.1511V39.4716C20.6992 39.9247 21.0665 40.2919 21.5195 40.2919H22.84C23.293 40.2919 23.6603 39.9247 23.6603 39.4716V38.1511C23.6603 37.698 23.293 37.3308 22.84 37.3308Z" fill="black"/>
<path d="M27.1652 37.3308H25.8447C25.3917 37.3308 25.0244 37.698 25.0244 38.1511V39.4716C25.0244 39.9247 25.3917 40.2919 25.8447 40.2919H27.1652C27.6182 40.2919 27.9855 39.9247 27.9855 39.4716V38.1511C27.9855 37.698 27.6182 37.3308 27.1652 37.3308Z" fill="black"/>
<path d="M31.4894 37.3308H30.1689C29.7159 37.3308 29.3486 37.698 29.3486 38.1511V39.4716C29.3486 39.9247 29.7159 40.2919 30.1689 40.2919H31.4894C31.9425 40.2919 32.3097 39.9247 32.3097 39.4716V38.1511C32.3097 37.698 31.9425 37.3308 31.4894 37.3308Z" fill="black"/>
<path d="M35.8146 37.3308H34.4941C34.0411 37.3308 33.6738 37.698 33.6738 38.1511V39.4716C33.6738 39.9247 34.0411 40.2919 34.4941 40.2919H35.8146C36.2677 40.2919 36.6349 39.9247 36.6349 39.4716V38.1511C36.6349 37.698 36.2677 37.3308 35.8146 37.3308Z" fill="black"/>
<path d="M40.1389 37.3308H38.8184C38.3653 37.3308 37.998 37.698 37.998 38.1511V39.4716C37.998 39.9247 38.3653 40.2919 38.8184 40.2919H40.1389C40.592 40.2919 40.9593 39.9247 40.9593 39.4716V38.1511C40.9593 37.698 40.592 37.3308 40.1389 37.3308Z" fill="black"/>
<path d="M18.5159 20.0326H17.1953C16.7423 20.0326 16.375 20.3998 16.375 20.8529V22.1734C16.375 22.6265 16.7423 22.9937 17.1953 22.9937H18.5159C18.9689 22.9937 19.3362 22.6265 19.3362 22.1734V20.8529C19.3362 20.3998 18.9689 20.0326 18.5159 20.0326Z" fill="black"/>
<path d="M18.5159 24.3572H17.1953C16.7423 24.3572 16.375 24.7243 16.375 25.1775V26.498C16.375 26.9511 16.7423 27.3183 17.1953 27.3183H18.5159C18.9689 27.3183 19.3362 26.9511 19.3362 26.498V25.1775C19.3362 24.7243 18.9689 24.3572 18.5159 24.3572Z" fill="black"/>
<path d="M18.5159 28.6818H17.1953C16.7423 28.6818 16.375 29.0489 16.375 29.5021V30.8226C16.375 31.2757 16.7423 31.6429 17.1953 31.6429H18.5159C18.9689 31.6429 19.3362 31.2757 19.3362 30.8226V29.5021C19.3362 29.0489 18.9689 28.6818 18.5159 28.6818Z" fill="black"/>
<path d="M18.5159 33.0062H17.1953C16.7423 33.0062 16.375 33.3734 16.375 33.8265V35.1471C16.375 35.6003 16.7423 35.9674 17.1953 35.9674H18.5159C18.9689 35.9674 19.3362 35.6003 19.3362 35.1471V33.8265C19.3362 33.3734 18.9689 33.0062 18.5159 33.0062Z" fill="black"/>
<path d="M40.1389 20.0326H38.8184C38.3653 20.0326 37.998 20.3998 37.998 20.8529V22.1734C37.998 22.6265 38.3653 22.9937 38.8184 22.9937H40.1389C40.592 22.9937 40.9593 22.6265 40.9593 22.1734V20.8529C40.9593 20.3998 40.592 20.0326 40.1389 20.0326Z" fill="black"/>
<path d="M40.1389 24.3572H38.8184C38.3653 24.3572 37.998 24.7243 37.998 25.1775V26.498C37.998 26.9511 38.3653 27.3183 38.8184 27.3183H40.1389C40.592 27.3183 40.9593 26.9511 40.9593 26.498V25.1775C40.9593 24.7243 40.592 24.3572 40.1389 24.3572Z" fill="black"/>
<path d="M40.1389 28.6818H38.8184C38.3653 28.6818 37.998 29.0489 37.998 29.5021V30.8226C37.998 31.2757 38.3653 31.6429 38.8184 31.6429H40.1389C40.592 31.6429 40.9593 31.2757 40.9593 30.8226V29.5021C40.9593 29.0489 40.592 28.6818 40.1389 28.6818Z" fill="black"/>
<path d="M40.1389 33.0062H38.8184C38.3653 33.0062 37.998 33.3734 37.998 33.8265V35.1471C37.998 35.6003 38.3653 35.9674 38.8184 35.9674H40.1389C40.592 35.9674 40.9593 35.6003 40.9593 35.1471V33.8265C40.9593 33.3734 40.592 33.0062 40.1389 33.0062Z" fill="black"/>
</g>
<defs>
<clipPath id="clip0">
<rect width="56" height="56" fill="white" transform="translate(0.666992)"/>
</clipPath>
</defs>
</svg>
