<svg width="56" height="56" viewBox="0 0 56 56" fill="none" xmlns="http://www.w3.org/2000/svg">
<g clip-path="url(#clip0)">
<path d="M13.748 13.7805C13.1443 13.7805 12.6543 14.2705 12.6543 14.8743C12.6543 15.478 13.1443 15.968 13.748 15.968C14.3518 15.968 14.8418 15.478 14.8418 14.8743C14.8418 14.2705 14.3518 13.7805 13.748 13.7805Z" fill="black"/>
<path d="M23.5912 34.2328H20.3102V30.9518C20.3102 30.3478 19.8204 29.858 19.2165 29.858C18.6125 29.858 18.1228 30.3478 18.1228 30.9518V34.2328H14.8418C14.2378 34.2328 13.748 34.7226 13.748 35.3265C13.748 35.9303 14.2378 36.4202 14.8418 36.4202H18.1228V39.7012C18.1228 40.3052 18.6126 40.795 19.2165 40.795C19.8203 40.795 20.3102 40.3052 20.3102 39.7012V36.4202H23.5912C24.1952 36.4202 24.685 35.9304 24.685 35.3265C24.685 34.7225 24.1953 34.2328 23.5912 34.2328Z" fill="black"/>
<path d="M53.1106 35.217C50.6928 31.0295 45.347 29.5963 41.1587 32.0146L36.7161 34.5795V25.0818C36.7161 23.9076 36.3279 22.7425 35.6225 21.8007L30.1541 14.5097V11.405C31.427 10.9535 32.3415 9.73787 32.3415 8.31195V3.28103C32.3412 1.47186 30.8694 0 29.0602 0H9.37369C7.56452 0 6.09256 1.47186 6.09256 3.28103V8.31206C6.09256 9.73777 7.00704 10.9536 8.27994 11.4051V14.5098L2.81109 21.8013C2.10605 22.7426 1.71777 23.9076 1.71777 25.0818V46.2633C1.71777 49.2787 4.17094 51.7318 7.18619 51.7318H24.763C27.2153 55.8424 32.5031 57.2181 36.6481 54.8248L49.9083 47.1688C54.0596 44.7716 55.5404 39.4274 53.1106 35.217ZM8.27994 3.28103C8.27994 2.67794 8.7706 2.18728 9.37359 2.18728H29.0601C29.6632 2.18728 30.1539 2.67794 30.1539 3.28103V8.31206C30.1539 8.91516 29.6632 9.4057 29.0601 9.4057H9.37369C8.7706 9.4057 8.28005 8.91505 8.28005 8.31206V3.28103H8.27994ZM4.56152 23.113L10.2486 15.5305C10.3906 15.3413 10.4673 15.1109 10.4673 14.8742V11.5932H27.9665V13.7806H18.1233C17.5193 13.7806 17.0295 14.2704 17.0295 14.8743C17.0295 15.4783 17.5193 15.9681 18.1233 15.9681H28.5133L33.8719 23.1127C34.2222 23.5803 34.4397 24.1397 34.5054 24.7177H3.92846C3.99409 24.1396 4.21163 23.5802 4.56152 23.113ZM7.1863 49.5444C5.37713 49.5444 3.90527 48.0725 3.90527 46.2633V45.1588H23.776C23.4291 46.5768 23.4314 48.0914 23.8286 49.5445H7.1863V49.5444ZM24.6338 42.9822H3.90516V26.9048H34.5286V35.8422L27.8984 39.6705C26.516 40.4691 25.3987 41.6058 24.6338 42.9822ZM35.5546 52.9304C32.4158 54.7428 28.4051 53.671 26.5914 50.53C24.7691 47.3588 25.8735 43.3662 28.9924 41.5647L34.9289 38.1371L41.4911 49.5028L35.5546 52.9304ZM48.8145 45.2746L43.3855 48.4092L36.8232 37.0432L42.2524 33.909C45.3932 32.0958 49.4025 33.1695 51.2162 36.3105C53.0378 39.4673 51.9301 43.4755 48.8145 45.2746Z" fill="black"/>
</g>
<defs>
<clipPath id="clip0">
<rect width="56" height="56" fill="white"/>
</clipPath>
</defs>
</svg>
