<svg width="57" height="56" viewBox="0 0 57 56" fill="none" xmlns="http://www.w3.org/2000/svg">
<path d="M16.084 21.2188C15.2396 21.2188 14.5527 21.9056 14.5527 22.75C14.5527 23.5944 15.2396 24.2812 16.084 24.2812C16.9284 24.2812 17.6152 23.5944 17.6152 22.75C17.6152 21.9056 16.9284 21.2188 16.084 21.2188ZM15.8652 22.75C15.8652 22.6293 15.9632 22.5312 16.084 22.5312C16.2047 22.5312 16.3027 22.6293 16.3027 22.75C16.3027 22.9906 15.8652 22.9906 15.8652 22.75Z" fill="black"/>
<path d="M24.834 24.2812C25.6784 24.2812 26.3652 23.5944 26.3652 22.75C26.3652 21.9056 25.6784 21.2188 24.834 21.2188C23.9896 21.2188 23.3027 21.9056 23.3027 22.75C23.3027 23.5944 23.9896 24.2812 24.834 24.2812ZM24.834 22.5312C24.9547 22.5312 25.0527 22.6293 25.0527 22.75C25.0527 22.9906 24.6152 22.9906 24.6152 22.75C24.6152 22.6293 24.7132 22.5312 24.834 22.5312Z" fill="black"/>
<path d="M23.7402 27.125H22.4277C22.4277 28.21 21.544 29.0938 20.459 29.0938C19.374 29.0938 18.4902 28.21 18.4902 27.125H17.1777C17.1777 28.9336 18.6504 30.4062 20.459 30.4062C22.2676 30.4062 23.7402 28.9336 23.7402 27.125Z" fill="black"/>
<path d="M51.0131 21.1195C51.8286 20.8562 52.4717 20.2069 52.7211 19.3862C53.7982 19.0589 54.584 18.057 54.584 16.874C54.584 15.691 53.7982 14.6892 52.7211 14.3619C52.3939 13.2848 51.392 12.499 50.209 12.499C49.5212 12.499 48.9 12.7703 48.431 13.2043C48.424 13.1684 48.4249 13.1317 48.4135 13.0975L46.6635 7.84754C46.5454 7.48967 46.2111 7.24904 45.834 7.24904C45.4569 7.24904 45.1226 7.48967 45.0045 7.84754L43.2545 13.0975C43.2247 13.1868 43.209 13.2804 43.209 13.374C43.209 14.8213 44.3867 15.999 45.834 15.999C45.8882 15.999 45.9399 15.9859 45.9932 15.9833C45.8926 16.2615 45.834 16.5608 45.834 16.874C45.834 18.057 46.6197 19.0589 47.6969 19.3862C47.9296 20.1527 48.508 20.766 49.2474 21.0592C49.0837 21.872 48.6034 23.2467 47.2095 24.2888C46.751 23.5197 45.9171 22.999 44.959 22.999C43.8941 22.999 42.9797 23.6395 42.5685 24.5522C42.0925 23.8775 42.0767 23.2782 42.1389 22.901C43.0121 22.6657 43.7095 21.998 43.9711 21.1362C45.0482 20.8089 45.834 19.807 45.834 18.624C45.834 17.441 45.0482 16.4392 43.9711 16.1119C43.6439 15.0348 42.642 14.249 41.459 14.249C40.276 14.249 39.2741 15.0348 38.9469 16.1119C37.8697 16.4392 37.084 17.441 37.084 18.624C37.084 19.807 37.8697 20.8089 38.9469 21.1362C39.1691 21.8668 39.7064 22.4565 40.395 22.7645C40.3022 23.51 40.3967 24.5732 41.2236 25.6704C41.0714 25.8472 40.9427 26.0432 40.8421 26.2558L40.5394 25.3467C40.4204 24.9897 40.0861 24.749 39.709 24.749C39.3319 24.749 38.9976 24.9897 38.8795 25.3475L37.1295 30.5975C37.0997 30.6868 37.084 30.7804 37.084 30.874C37.084 31.182 37.147 31.4743 37.245 31.749H37.084C36.8197 31.749 36.5695 31.8689 36.4041 32.0737C36.2379 32.2793 36.1731 32.5488 36.2291 32.8078L38.2609 42.291C38.582 43.7864 39.6661 44.9747 41.0469 45.4822C40.2821 45.7053 39.5034 45.8672 38.7159 45.9512C37.9564 40.4107 33.2042 36.124 27.459 36.124H25.709V33.499H30.084C32.7072 33.499 34.8869 31.5653 35.2736 29.0479C37.2975 28.6655 38.834 26.8832 38.834 24.749C38.834 22.6359 37.3281 20.8684 35.334 20.4624V17.2704C35.334 9.09091 29.1162 2.39104 21.1765 2.01654C17.0719 1.82666 13.1632 3.27654 10.1917 6.11066C7.22023 8.94479 5.58398 12.7685 5.58398 16.874V20.4624C3.58986 20.8684 2.08398 22.6359 2.08398 24.749C2.08398 26.8832 3.62048 28.6655 5.64436 29.0479C6.03111 31.5653 8.21073 33.499 10.834 33.499H15.209V36.124H13.459C7.18698 36.124 2.08398 41.227 2.08398 47.499V53.624C2.08398 54.1079 2.47511 54.499 2.95898 54.499H37.959C38.4429 54.499 38.834 54.1079 38.834 53.624V47.7003C39.6749 47.6137 40.507 47.4509 41.3269 47.2243L38.897 53.2994C38.7894 53.5689 38.8226 53.8743 38.9854 54.1149C39.1472 54.3547 39.4185 54.499 39.709 54.499H50.209C50.4995 54.499 50.7707 54.3547 50.9335 54.1149C51.0962 53.8752 51.1295 53.5689 51.0219 53.2994L48.5666 47.1622L48.6987 47.2112C50.4566 47.87 51.938 49.0452 52.9819 50.6097L54.4379 49.6393C53.1892 47.7668 51.4174 46.3607 49.3139 45.5732L48.9621 45.441C50.2982 44.9152 51.3447 43.7532 51.658 42.2919L53.6897 32.8087C53.7449 32.5497 53.681 32.2802 53.5147 32.0745C53.3485 31.8689 53.0982 31.749 52.834 31.749V29.838C53.8499 29.4758 54.584 28.5133 54.584 27.374C54.584 27.2804 54.5682 27.1868 54.5385 27.0975L52.7885 21.8475C52.6704 21.4897 52.3361 21.249 51.959 21.249C51.5819 21.249 51.2476 21.4897 51.1295 21.8475L49.3795 27.0975C49.3497 27.1868 49.334 27.2804 49.334 27.374C49.334 28.5133 50.0681 29.4758 51.084 29.838V31.749H50.1189C49.8914 30.5757 49.2351 29.7558 48.5754 29.2115C49.0426 28.7382 49.334 28.0907 49.334 27.374C49.334 26.6312 49.0234 25.96 48.5255 25.4823C50.3061 24.0228 50.8512 22.1459 51.0131 21.1195ZM44.9669 13.4922L45.834 10.8908L46.7011 13.4922C46.6434 13.9192 46.2767 14.249 45.834 14.249C45.3912 14.249 45.0246 13.9192 44.9669 13.4922ZM48.459 17.749C47.976 17.749 47.584 17.357 47.584 16.874C47.584 16.391 47.976 15.999 48.459 15.999C48.9429 15.999 49.334 15.6079 49.334 15.124C49.334 14.641 49.726 14.249 50.209 14.249C50.692 14.249 51.084 14.641 51.084 15.124C51.084 15.6079 51.4751 15.999 51.959 15.999C52.442 15.999 52.834 16.391 52.834 16.874C52.834 17.357 52.442 17.749 51.959 17.749C51.4751 17.749 51.084 18.1402 51.084 18.624C51.084 19.107 50.692 19.499 50.209 19.499C49.726 19.499 49.334 19.107 49.334 18.624C49.334 18.1402 48.9429 17.749 48.459 17.749ZM51.959 24.8908L52.8261 27.4922C52.7684 27.9192 52.4017 28.249 51.959 28.249C51.5162 28.249 51.1496 27.9192 51.0919 27.4922L51.959 24.8908ZM43.209 26.499C43.6929 26.499 44.084 26.1079 44.084 25.624C44.084 25.141 44.476 24.749 44.959 24.749C45.442 24.749 45.834 25.141 45.834 25.624C45.834 26.1079 46.2251 26.499 46.709 26.499C47.192 26.499 47.584 26.891 47.584 27.374C47.584 27.857 47.192 28.249 46.709 28.249C46.2251 28.249 45.834 28.6402 45.834 29.124C45.834 29.607 45.442 29.999 44.959 29.999C44.476 29.999 44.084 29.607 44.084 29.124C44.084 28.6402 43.6929 28.249 43.209 28.249C42.726 28.249 42.334 27.857 42.334 27.374C42.334 26.891 42.726 26.499 43.209 26.499ZM39.709 19.499C39.226 19.499 38.834 19.107 38.834 18.624C38.834 18.141 39.226 17.749 39.709 17.749C40.1929 17.749 40.584 17.3579 40.584 16.874C40.584 16.391 40.976 15.999 41.459 15.999C41.942 15.999 42.334 16.391 42.334 16.874C42.334 17.3579 42.7251 17.749 43.209 17.749C43.692 17.749 44.084 18.141 44.084 18.624C44.084 19.107 43.692 19.499 43.209 19.499C42.7251 19.499 42.334 19.8902 42.334 20.374C42.334 20.857 41.942 21.249 41.459 21.249C40.976 21.249 40.584 20.857 40.584 20.374C40.584 19.8902 40.1929 19.499 39.709 19.499ZM38.8419 30.9922L39.709 28.3908L40.5761 30.9922C40.5184 31.4192 40.1517 31.749 39.709 31.749C39.2662 31.749 38.8996 31.4192 38.8419 30.9922ZM10.834 47.499H30.084V52.749H10.834V47.499ZM11.709 23.874V19.499H17.918C20.3321 19.499 22.426 17.8637 23.0044 15.5493L23.9537 12.2129L25.072 16.1845C25.5506 18.1008 27.2437 19.4413 29.209 19.4903V23.874C29.209 28.6988 25.2837 32.624 20.459 32.624C15.6342 32.624 11.709 28.6988 11.709 23.874ZM7.33398 28.249C7.33398 27.7652 6.94286 27.374 6.45898 27.374C5.01173 27.374 3.83398 26.1963 3.83398 24.749C3.83398 23.3018 5.01173 22.124 6.45898 22.124C6.94286 22.124 7.33398 21.7329 7.33398 21.249V16.874C7.33398 13.2507 8.77773 9.87841 11.4001 7.37679C14.0207 4.87691 17.4595 3.58892 21.0942 3.76479C28.0977 4.09467 33.584 10.0263 33.584 17.2695V21.249C33.584 21.7329 33.9751 22.124 34.459 22.124C35.9062 22.124 37.084 23.3018 37.084 24.749C37.084 26.1963 35.9062 27.374 34.459 27.374C33.9751 27.374 33.584 27.7652 33.584 28.249C33.584 30.1793 32.0142 31.749 30.084 31.749H27.3811C29.5695 29.8232 30.959 27.0109 30.959 23.874V19.499H31.834V17.749H29.3166C28.11 17.749 27.0626 16.9309 26.7634 15.7357L24.8016 8.76192C24.6957 8.38566 24.3519 8.12492 23.9607 8.12404C23.9599 8.12404 23.9599 8.12404 23.959 8.12404C23.5679 8.12404 23.224 8.38391 23.1172 8.76017L21.3139 15.0987C20.9236 16.6588 19.5271 17.749 17.918 17.749H9.08398V19.499H9.95898V23.874C9.95898 27.0109 11.3485 29.8232 13.5369 31.749H10.834C8.90373 31.749 7.33398 30.1793 7.33398 28.249ZM16.084 37.874C16.5679 37.874 16.959 37.4829 16.959 36.999V33.7615C18.0554 34.1509 19.2305 34.374 20.459 34.374C21.6875 34.374 22.8626 34.1509 23.959 33.7615V36.999C23.959 37.4829 24.3501 37.874 24.834 37.874H26.423C26.0607 38.8899 25.0982 39.624 23.959 39.624H16.959C15.8197 39.624 14.8572 38.8899 14.495 37.874H16.084ZM16.959 41.374H23.959C26.0607 41.374 27.8212 39.8848 28.2404 37.9055C28.8747 37.9563 29.4907 38.0718 30.084 38.2398V45.749H10.834V38.2398C11.4281 38.0709 12.0441 37.9563 12.6776 37.9055C13.0967 39.8848 14.8572 41.374 16.959 41.374ZM3.83398 47.499C3.83398 43.7672 5.97161 40.5288 9.08398 38.9328V52.749H3.83398V47.499ZM31.834 52.749V38.9328C34.5255 40.3127 36.4785 42.9228 36.9597 46.0168C36.1827 45.9984 35.404 45.9197 34.6314 45.7657L34.2875 47.4815C35.2159 47.667 36.1512 47.7554 37.084 47.7677V52.749H31.834ZM48.9166 52.749H41.0005L43.524 46.4403L44.98 45.8164L46.3485 46.33L48.9166 52.749ZM49.9465 41.9235C49.6884 43.1267 48.6095 43.999 47.3801 43.999H46.7807L49.1432 41.0459C49.2666 40.8902 49.334 40.6985 49.334 40.499V38.749H47.584V40.1919L45.1296 43.2597L44.084 41.1675V39.624H42.334V41.374C42.334 41.5097 42.3655 41.6444 42.4259 41.7652L43.5432 43.999H43.209H42.5379C41.3085 43.999 40.2287 43.1267 39.9706 41.9235L38.1664 33.499H51.7507L49.9465 41.9235ZM44.959 31.749H42.173C42.271 31.4743 42.334 31.182 42.334 30.874C42.334 30.7804 42.3182 30.6868 42.2885 30.5975L41.9866 29.691C42.1336 29.7689 42.285 29.8372 42.4469 29.8862C42.7741 30.9633 43.776 31.749 44.959 31.749C45.9425 31.749 46.7947 31.2013 47.2445 30.3989C47.6435 30.6824 48.0696 31.1208 48.2954 31.749H44.959Z" fill="black"/>
</svg>
