<svg width="56" height="56" viewBox="0 0 56 56" fill="none" xmlns="http://www.w3.org/2000/svg">
<g clip-path="url(#clip0)">
<path d="M10.2665 2.80042H0.933299C0.418141 2.80042 0 3.21845 0 3.73371V52.2663C0 52.7825 0.418141 53.1996 0.933299 53.1996H10.2665C10.7817 53.1996 11.1998 52.7825 11.1998 52.2663V3.73371C11.1998 3.21845 10.7817 2.80042 10.2665 2.80042ZM9.33321 51.3329H1.8666V4.66701H9.33321V51.3329Z" fill="black"/>
<path d="M23.3328 10.2668H10.2663C9.75115 10.2668 9.33301 10.685 9.33301 11.2001V52.2662C9.33301 52.7823 9.75115 53.1995 10.2663 53.1995H23.3328C23.848 53.1995 24.2661 52.7823 24.2661 52.2662V11.2001C24.2661 10.685 23.848 10.2668 23.3328 10.2668ZM22.3995 51.3329H11.1996V12.1336H22.3994V51.3329H22.3995Z" fill="black"/>
<path d="M30.7992 8.40015H23.3327C22.8176 8.40015 22.3994 8.81829 22.3994 9.33344V52.2662C22.3994 52.7823 22.8176 53.1995 23.3327 53.1995H30.7993C31.3155 53.1995 31.7326 52.7823 31.7326 52.2662V9.33344C31.7325 8.81829 31.3154 8.40015 30.7992 8.40015ZM29.8659 51.3328H24.266V10.2667H29.8659V51.3328Z" fill="black"/>
<path d="M38.2661 8.40015H30.7995C30.2834 8.40015 29.8662 8.81829 29.8662 9.33344V52.2662C29.8662 52.7823 30.2834 53.1995 30.7995 53.1995H38.2661C38.7823 53.1995 39.1994 52.7823 39.1994 52.2662V9.33344C39.1994 8.81829 38.7823 8.40015 38.2661 8.40015ZM37.3328 51.3328H31.7329V10.2667H37.3328V51.3328Z" fill="black"/>
<path d="M55.9695 50.1626L45.7029 10.9631C45.6385 10.7204 45.4799 10.5133 45.2615 10.3891C45.0431 10.265 44.7836 10.2333 44.5428 10.3023L38.0096 12.1689C37.5215 12.3089 37.234 12.8119 37.3627 13.3029L47.6293 52.5023C47.6937 52.7459 47.8523 52.9522 48.0707 53.0772C48.2126 53.1575 48.3721 53.1995 48.5327 53.1995C48.6186 53.1995 48.7054 53.1883 48.7894 53.163L55.3226 51.2964C55.8109 51.1566 56.0983 50.6526 55.9695 50.1626ZM49.1935 51.107L39.4002 13.7136L44.1387 12.3593L53.932 49.7537L49.1935 51.107Z" fill="black"/>
<path d="M10.2668 6.53381H0.933594V8.40041H10.2668V6.53381Z" fill="black"/>
<path d="M10.2668 45.7332H0.933594V47.5998H10.2668V45.7332Z" fill="black"/>
<path d="M23.3331 14.0002H10.2666V15.8668H23.3331V14.0002Z" fill="black"/>
<path d="M30.7996 12.1337H23.333V14.0003H30.7996V12.1337Z" fill="black"/>
<path d="M30.7996 15.8669H23.333V17.7335H30.7996V15.8669Z" fill="black"/>
<path d="M38.2664 12.1337H30.7998V14.0003H38.2664V12.1337Z" fill="black"/>
<path d="M38.2664 15.8669H30.7998V17.7335H38.2664V15.8669Z" fill="black"/>
<path d="M9.3335 41.9998H0.933594V43.8664H9.3335V41.9998Z" fill="black"/>
<path d="M45.478 14.0344L38.9443 15.8995L39.4567 17.6946L45.9904 15.8294L45.478 14.0344Z" fill="black"/>
<path d="M23.3331 47.6H10.2666V49.4666H23.3331V47.6Z" fill="black"/>
<path d="M27.9994 39.2H26.1328V47.5999H27.9994V39.2Z" fill="black"/>
<path d="M27.9994 35.4664H26.1328V37.333H27.9994V35.4664Z" fill="black"/>
<path d="M27.9994 27.0669H26.1328V33.6001H27.9994V27.0669Z" fill="black"/>
<path d="M27.9994 21.4667H26.1328V25.2H27.9994V21.4667Z" fill="black"/>
<path d="M35.4662 41.9998H33.5996V47.5997H35.4662V41.9998Z" fill="black"/>
<path d="M35.4662 21.4667H33.5996V40.1331H35.4662V21.4667Z" fill="black"/>
<path d="M53.8713 45.7693L47.3379 47.6329L47.8499 49.4279L54.3833 47.5642L53.8713 45.7693Z" fill="black"/>
<path d="M19.6 19.6H17.7334V29.8665H19.6V19.6Z" fill="black"/>
<path d="M19.6 31.7334H17.7334V33.6H19.6V31.7334Z" fill="black"/>
<path d="M19.6 35.4664H17.7334V43.8663H19.6V35.4664Z" fill="black"/>
<path d="M15.8666 23.3335H14V35.4667H15.8666V23.3335Z" fill="black"/>
<path d="M15.8666 37.3333H14V40.1333H15.8666V37.3333Z" fill="black"/>
</g>
<defs>
<clipPath id="clip0">
<rect width="56" height="56" fill="white"/>
</clipPath>
</defs>
</svg>
