<svg width="57" height="56" viewBox="0 0 57 56" fill="none" xmlns="http://www.w3.org/2000/svg">
<path d="M10.1885 39.9434C9.76141 40.3704 9.76141 41.0626 10.1884 41.4898L14.8267 46.1292C15.2535 46.5562 15.9458 46.5563 16.373 46.1294C16.8001 45.7025 16.8001 45.0102 16.3731 44.583L11.7348 39.9436C11.3078 39.5165 10.6156 39.5165 10.1885 39.9434Z" fill="black"/>
<path d="M54.4634 10.3712L54.8494 9.98524C55.9179 8.91653 55.9181 7.1874 54.8494 6.11869L50.2111 1.48051C49.1425 0.411686 47.4134 0.411795 46.3445 1.4804L45.9586 1.86637L44.4114 0.320057C43.9842 -0.106705 43.292 -0.106486 42.8649 0.320495C42.4381 0.747585 42.4383 1.43994 42.8654 1.86692L44.4121 3.41291L41.3193 6.50576L39.7732 4.95966C39.3461 4.53279 38.654 4.53279 38.2268 4.95966C37.7998 5.38664 37.7998 6.079 38.2268 6.50609L39.7729 8.05219L39.386 8.43904C38.5956 9.22914 38.3922 10.3876 38.775 11.3688L29.5121 20.627C26.9105 18.338 23.2375 17.4212 19.8537 18.2865C16.6856 19.0964 14.443 21.3193 13.7008 24.3845C13.4659 25.3516 12.526 26.0139 11.415 25.9877C7.01046 25.8981 2.93801 28.4624 1.21423 32.5049C-0.991196 37.6771 1.01151 43.9112 6.709 49.6087C11.3597 54.2594 17.7808 57.6942 23.8237 55.1171C27.8658 53.393 30.4213 49.316 30.3291 44.9027C30.3058 43.7912 30.9652 42.8514 31.9327 42.6172C33.4905 42.2397 34.8222 41.4943 35.8906 40.4016C36.3126 39.9698 36.305 39.2776 35.8732 38.8553C35.4415 38.4331 34.749 38.4411 34.3269 38.8727C33.5496 39.6677 32.5708 40.2124 31.4179 40.4918C29.4447 40.9695 28.098 42.8021 28.1427 44.9484C28.2164 48.4754 26.1359 51.7534 22.9658 53.1055C18.659 54.9425 13.2972 53.1043 8.25543 48.0624C3.22186 43.029 1.38863 37.6711 3.2258 33.3627C4.58022 30.1862 7.85239 28.0957 11.3695 28.1741C13.5117 28.2204 15.3469 26.8728 15.8261 24.8999C16.5731 21.8146 19.0096 20.7596 20.3954 20.4052C22.9934 19.7411 25.9099 20.4515 27.9593 22.1789L20.063 30.0695C18.5369 30.1143 17.0733 30.7385 15.9867 31.8262C13.6426 34.1704 13.6425 37.9856 15.9867 40.3312C18.3314 42.6758 22.1467 42.6759 24.492 40.3307C25.5784 39.243 26.2022 37.7801 26.248 36.2546L34.1459 28.3625C34.7386 29.0619 35.2224 29.8673 35.5653 30.7352C35.7868 31.2958 36.4208 31.5725 36.9841 31.3504C37.5457 31.1285 37.8211 30.4932 37.5992 29.9315C37.1467 28.7861 36.4974 27.7251 35.6969 26.8126L44.9605 17.5547C45.9541 17.9425 47.1086 17.7261 47.8907 16.9438L48.2777 16.5568L49.8238 18.1029C50.251 18.5299 50.943 18.5298 51.3702 18.1029C51.7972 17.6759 51.7972 16.9836 51.3702 16.5565L49.8241 15.0104L52.917 11.9175L54.463 13.4643C54.8896 13.8912 55.5821 13.8918 56.0094 13.4647C56.4365 13.0379 56.4367 12.3455 56.0098 11.9183L54.4634 10.3712ZM22.9453 38.7845C21.4531 40.2766 19.0251 40.2766 17.5333 38.7848C16.0415 37.2921 16.0414 34.8641 17.5334 33.3719C19.0131 31.8907 21.4385 31.8655 22.9458 33.3728C24.4549 34.8804 24.4225 37.3056 22.9453 38.7845ZM25.7472 33.6635C25.4494 32.984 25.0263 32.36 24.4916 31.8259C23.9573 31.2916 23.3334 30.8687 22.6546 30.571C22.6665 30.5591 40.1083 13.1278 40.1591 13.0772L43.252 16.1702C42.5556 16.866 25.9488 33.462 25.7472 33.6635ZM53.303 8.43882C52.2841 9.45767 47.2369 14.505 46.3444 15.3975C46.1315 15.6103 45.7846 15.6099 45.571 15.3967L40.933 10.7586C40.7198 10.5451 40.7194 10.1981 40.9323 9.98514C41.8251 9.09236 46.8779 4.03966 47.8909 3.02671C48.1044 2.81306 48.4508 2.81273 48.6647 3.02671L53.3031 7.665C53.5166 7.87855 53.517 8.22495 53.303 8.43882Z" fill="black"/>
<path d="M37.2516 36.3016C37.8555 36.3016 38.345 35.812 38.345 35.2082C38.345 34.6043 37.8555 34.1147 37.2516 34.1147C36.6477 34.1147 36.1582 34.6043 36.1582 35.2082C36.1582 35.812 36.6477 36.3016 37.2516 36.3016Z" fill="black"/>
</svg>
