<svg width="57" height="56" viewBox="0 0 57 56" fill="none" xmlns="http://www.w3.org/2000/svg">
<g clip-path="url(#clip0)">
<path d="M40.7684 23.7126C39.367 23.7126 38.0494 24.2582 37.0586 25.2495L35.4962 26.8115C33.4505 28.8571 33.4505 32.1854 35.4962 34.231C36.4874 35.2222 37.8046 35.7678 39.2064 35.7678C40.6077 35.7678 41.9249 35.2222 42.9161 34.231L44.4781 32.669C45.4689 31.6782 46.015 30.3606 46.015 28.9592C46.015 27.5579 45.4689 26.2402 44.4781 25.2495C43.4869 24.2582 42.1697 23.7126 40.7684 23.7126C40.7679 23.7126 40.7684 23.7126 40.7684 23.7126ZM43.3066 31.4975L41.7446 33.0595C41.0666 33.7375 40.1651 34.111 39.2059 34.111C38.6279 34.111 38.0703 33.9751 37.57 33.7188L38.4903 33.1667C39.8835 32.3306 41.0046 31.1202 41.7314 29.6667C42.0621 29.0045 42.4953 28.4038 43.0187 27.88L43.8249 27.0742C44.1722 27.6352 44.3581 28.2829 44.3581 28.9592C44.3581 29.918 43.9847 30.8195 43.3066 31.4975ZM41.8472 26.7085C41.1978 27.3583 40.6599 28.1043 40.2493 28.9259C39.6635 30.097 38.7603 31.0724 37.6375 31.7462L36.2596 32.5724C35.2847 31.1736 35.421 29.2301 36.6677 27.983L38.2301 26.421C38.9081 25.7429 39.8092 25.3695 40.7684 25.3695C41.4447 25.3695 42.0924 25.5554 42.6534 25.9027L41.8472 26.7085Z" fill="black"/>
<path d="M56.2558 42.5375C56.1195 42.2462 55.8272 42.0603 55.5055 42.0603H47.9962C48.4991 41.7189 48.9738 41.3289 49.413 40.8901C51.2407 39.064 52.2473 36.636 52.2473 34.0524V27.572C52.2473 27.1144 51.8765 26.7435 51.4189 26.7435C50.9613 26.7435 50.5905 27.1144 50.5905 27.572V34.0524C50.5905 36.1929 49.7565 38.2048 48.2423 39.7177C46.7299 41.2289 44.7205 42.0603 42.583 42.0603C42.5805 42.0603 42.5775 42.0603 42.5749 42.0603C40.6963 42.0586 38.6622 42.0565 36.784 42.056C32.3988 42.0539 28.8313 38.4616 28.8313 34.0482V19.4128H50.5905V23.7058C50.5905 24.1634 50.9613 24.5342 51.4189 24.5342C51.8765 24.5342 52.2473 24.1634 52.2473 23.7058V18.5844C52.2473 18.1268 51.8765 17.756 51.4189 17.756H28.0024C27.5453 17.756 27.1744 18.1268 27.1744 18.5844V21.0697H25.0202C21.7317 21.0697 19.0559 23.7451 19.0559 27.0341C19.0559 27.9009 19.2434 28.7247 19.5775 29.4685H15.411C14.9535 29.4685 14.5826 29.8394 14.5826 30.2969C14.5826 30.7545 14.9535 31.1254 15.411 31.1254H20.6862C21.7744 32.2772 23.3142 32.9984 25.0202 32.9984H27.174V34.0477C27.174 35.3393 27.4226 36.5911 27.8973 37.7481H27.7815C27.3859 37.7481 27.0637 37.426 27.0637 37.0299C27.0637 35.6597 25.9486 34.545 24.5785 34.545C23.2078 34.545 22.0932 35.6597 22.0932 37.0299V37.5272C22.0932 37.9536 21.7462 38.3001 21.3198 38.3001C20.8935 38.3001 20.547 37.9536 20.547 37.5272V37.0854C20.547 35.6845 19.4071 34.545 18.0066 34.545C16.6056 34.545 15.4657 35.6845 15.4657 37.0854V37.3615C15.4657 37.8182 15.0944 38.1899 14.6377 38.1899C14.1806 38.1899 13.8093 37.8182 13.8093 37.3615V37.0299C13.8093 35.6597 12.6942 34.545 11.324 34.545H6.47689C7.28909 32.5421 9.25399 31.1254 11.5449 31.1254C12.0025 31.1254 12.3733 30.7545 12.3733 30.2969C12.3733 29.8394 12.0025 29.4685 11.5449 29.4685C8.09359 29.4685 5.20797 31.9359 4.55856 35.1992C4.55642 35.2086 4.55514 35.218 4.55343 35.2274C4.46713 35.6696 4.42056 36.1259 4.42056 36.5928C4.42056 38.7872 5.4186 40.7521 6.98361 42.0603H1.16238C0.840662 42.0603 0.548426 42.2462 0.412134 42.5375C0.275843 42.8285 0.320276 43.1724 0.526209 43.4194L3.17813 46.5981C3.75619 47.2911 4.60513 47.6888 5.50747 47.6901L8.12051 47.6927C8.43197 47.6927 8.73745 47.7999 8.98098 47.9943L10.481 49.1927C11.4073 49.9323 12.5703 50.3399 13.7555 50.3399H19.0559C19.5135 50.3399 19.8843 49.9691 19.8843 49.5115C19.8843 49.0539 19.5135 48.683 19.0559 48.683H13.7555C12.9445 48.683 12.1486 48.4041 11.515 47.8982L10.0149 46.6998C9.47958 46.2721 8.80752 46.0363 8.12222 46.0358L5.50918 46.0328C5.09902 46.0324 4.71322 45.8517 4.45046 45.5368L2.93246 43.7167H42.5732H42.583H53.7354L52.217 45.5368C51.9547 45.8517 51.5684 46.0328 51.1583 46.0328L48.5457 46.0358C47.8604 46.0363 47.1883 46.2721 46.653 46.6998L45.1525 47.8982C44.5189 48.4041 43.7234 48.683 42.9124 48.683H22.922C22.4644 48.683 22.0936 49.0539 22.0936 49.5115C22.0936 49.9691 22.4644 50.3399 22.922 50.3399H42.9124C44.0976 50.3399 45.2606 49.9327 46.1864 49.1927L47.6869 47.9943C47.9304 47.7999 48.2359 47.6931 48.5474 47.6927L51.16 47.6901C52.0623 47.6893 52.9117 47.2911 53.4893 46.5985L56.1417 43.4194C56.3476 43.1724 56.3921 42.8285 56.2558 42.5375ZM27.1744 27.9176H25.0189C24.5323 27.9176 24.1367 27.522 24.1367 27.0353C24.1367 26.5491 24.5323 26.1531 25.0189 26.1526L27.174 26.1509V27.9176H27.1744ZM25.0202 31.342C22.6452 31.342 20.7127 29.4095 20.7127 27.0341C20.7127 24.659 22.6452 22.7261 25.0202 22.7261H27.1744V24.4941L25.0181 24.4962C23.6184 24.4966 22.4798 25.6357 22.4798 27.0353C22.4798 28.4354 23.6189 29.5745 25.0189 29.5745H27.1744V31.3416H25.0202V31.342ZM6.07742 36.5928C6.07742 36.4612 6.08383 36.3309 6.09323 36.2019H11.324C11.7812 36.2019 12.1524 36.5732 12.1524 37.0303V37.3615C12.1524 38.7321 13.2675 39.8467 14.6377 39.8467C16.0079 39.8467 17.123 38.7321 17.123 37.3615V37.0854C17.123 36.5984 17.5195 36.2019 18.0066 36.2019C18.494 36.2019 18.8901 36.5984 18.8901 37.0854V37.5272C18.8901 38.8671 19.9804 39.9574 21.3203 39.9574C22.6601 39.9574 23.75 38.8671 23.75 37.5272V37.0303C23.75 36.5732 24.1217 36.2019 24.5785 36.2019C25.0356 36.2019 25.4069 36.5732 25.4069 37.0303C25.4069 38.3398 26.4724 39.405 27.7819 39.405H28.7753C29.1226 39.9292 29.5238 40.4222 29.9754 40.8781C30.4155 41.3216 30.8919 41.7159 31.3969 42.0603H11.5449C8.53024 42.0603 6.07742 39.6075 6.07742 36.5928Z" fill="black"/>
<path d="M32.7378 10.3278C31.9324 11.8578 31.9324 13.6847 32.7378 15.2146C32.8856 15.4966 33.1736 15.6573 33.4714 15.6573C33.6013 15.6573 33.7333 15.6269 33.8563 15.562C34.2614 15.3488 34.4169 14.8481 34.2037 14.443C33.653 13.3963 33.653 12.1462 34.2037 11.0994L34.2468 11.0174C35.0522 9.4874 35.0522 7.6605 34.2468 6.13053C34.0336 5.7255 33.5325 5.56998 33.1279 5.78318C32.7229 5.99638 32.5673 6.49711 32.7805 6.90214C33.3317 7.94889 33.3317 9.19901 32.7805 10.2458L32.7378 10.3278Z" fill="black"/>
<path d="M45.1743 10.3278C44.369 11.8578 44.369 13.6847 45.1743 15.2146C45.3226 15.4966 45.6101 15.6573 45.9079 15.6573C46.0378 15.6573 46.1698 15.6269 46.2929 15.562C46.6979 15.3488 46.8534 14.8481 46.6402 14.443C46.0895 13.3963 46.0895 12.1462 46.6406 11.099L46.6834 11.0174C47.4887 9.4874 47.4887 7.6605 46.6834 6.13053C46.4702 5.7255 45.969 5.56998 45.5644 5.78318C45.1594 5.99595 45.0039 6.49711 45.2171 6.90214C45.7682 7.94889 45.7682 9.19901 45.2171 10.2462L45.1743 10.3278Z" fill="black"/>
<path d="M38.9556 10.3278C38.1502 11.8578 38.1502 13.6847 38.9556 15.2146C39.1038 15.4966 39.3914 15.6573 39.6892 15.6573C39.8195 15.6573 39.9515 15.6269 40.0745 15.562C40.4796 15.3488 40.6347 14.8481 40.4219 14.443C39.8707 13.3963 39.8707 12.1462 40.4219 11.0994L40.4646 11.0174C41.27 9.4874 41.27 7.6605 40.4646 6.13053C40.2518 5.7255 39.7507 5.56998 39.3457 5.78318C38.9411 5.99638 38.7855 6.49711 38.9987 6.90214C39.5495 7.94889 39.5495 9.19901 38.9987 10.2458L38.9556 10.3278Z" fill="black"/>
</g>
<defs>
<clipPath id="clip0">
<rect width="56" height="56" fill="white" transform="translate(0.333984)"/>
</clipPath>
</defs>
</svg>
