<svg width="57" height="56" viewBox="0 0 57 56" fill="none" xmlns="http://www.w3.org/2000/svg">
<path d="M19.9072 26.25C23.7671 26.25 26.9072 23.6986 26.9072 20.5625C26.9072 20.3305 26.815 20.1079 26.6509 19.9438C26.4868 19.7797 26.2643 19.6875 26.0322 19.6875C25.8002 19.6875 25.5776 19.7797 25.4135 19.9438C25.2494 20.1079 25.1572 20.3305 25.1572 20.5625C25.1572 22.5101 23.2619 24.1309 20.7822 24.4443V21.6672C20.8748 21.6211 20.9636 21.5677 21.0478 21.5076L22.5328 20.4479C22.8053 20.2502 23.0267 19.9903 23.1788 19.6899C23.3308 19.3895 23.4091 19.0571 23.4071 18.7204C23.4071 17.5652 22.5032 16.6254 21.3922 16.6254H18.4221C17.3111 16.6254 16.4072 17.5652 16.4072 18.7204C16.4052 19.0571 16.4835 19.3895 16.6356 19.6899C16.7876 19.9903 17.0091 20.2502 17.2816 20.4479L18.7666 21.5076C18.8508 21.5677 18.9396 21.6211 19.0322 21.6672V24.4443C16.5526 24.1309 14.6572 22.5101 14.6572 20.5625C14.6572 20.3305 14.565 20.1079 14.4009 19.9438C14.2369 19.7797 14.0143 19.6875 13.7822 19.6875C13.5502 19.6875 13.3276 19.7797 13.1635 19.9438C12.9994 20.1079 12.9072 20.3305 12.9072 20.5625C12.9072 23.6986 16.0474 26.25 19.9072 26.25ZM18.2983 19.0232C18.2529 18.9871 18.2165 18.941 18.192 18.8883C18.1675 18.8357 18.1557 18.7781 18.1574 18.7201C18.1574 18.5331 18.2789 18.375 18.4224 18.375H21.3925C21.5361 18.375 21.6574 18.5331 21.6574 18.7201C21.6592 18.7781 21.6473 18.8357 21.6228 18.8883C21.5984 18.941 21.5619 18.9871 21.5165 19.0232L20.0315 20.0828C19.9959 20.1102 19.9523 20.1251 19.9074 20.1251C19.8625 20.1251 19.8189 20.1102 19.7833 20.0828L18.2983 19.0232Z" fill="black"/>
<path d="M25.1572 16.625C25.6405 16.625 26.0322 16.2332 26.0322 15.75C26.0322 15.2668 25.6405 14.875 25.1572 14.875C24.674 14.875 24.2822 15.2668 24.2822 15.75C24.2822 16.2332 24.674 16.625 25.1572 16.625Z" fill="black"/>
<path d="M14.6572 16.625C15.1405 16.625 15.5322 16.2332 15.5322 15.75C15.5322 15.2668 15.1405 14.875 14.6572 14.875C14.174 14.875 13.7822 15.2668 13.7822 15.75C13.7822 16.2332 14.174 16.625 14.6572 16.625Z" fill="black"/>
<path d="M42.667 34.125C43.3592 34.125 44.0359 33.9197 44.6115 33.5352C45.1871 33.1506 45.6357 32.6039 45.9006 31.9644C46.1655 31.3249 46.2348 30.6211 46.0998 29.9422C45.9647 29.2633 45.6314 28.6396 45.1419 28.1501C44.6524 27.6606 44.0288 27.3273 43.3498 27.1923C42.6709 27.0572 41.9671 27.1265 41.3276 27.3914C40.6881 27.6563 40.1414 28.1049 39.7568 28.6805C39.3723 29.2561 39.167 29.9328 39.167 30.625C39.168 31.5529 39.5371 32.4426 40.1933 33.0987C40.8494 33.7549 41.7391 34.124 42.667 34.125ZM42.667 28.875C43.0131 28.875 43.3515 28.9776 43.6392 29.1699C43.927 29.3622 44.1513 29.6355 44.2838 29.9553C44.4162 30.2751 44.4509 30.627 44.3834 30.9664C44.3159 31.3059 44.1492 31.6177 43.9044 31.8624C43.6597 32.1072 43.3479 32.2739 43.0084 32.3414C42.6689 32.4089 42.3171 32.3743 41.9973 32.2418C41.6775 32.1093 41.4042 31.885 41.2119 31.5973C41.0196 31.3095 40.917 30.9711 40.917 30.625C40.9175 30.161 41.1021 29.7162 41.4302 29.3882C41.7582 29.0601 42.203 28.8756 42.667 28.875Z" fill="black"/>
<path d="M54.9169 35.875H49.6669V24.5C49.667 24.3205 49.6116 24.1453 49.5083 23.9985L43.3833 15.2485C43.3026 15.1333 43.1953 15.0391 43.0706 14.9742C42.9458 14.9092 42.8071 14.8753 42.6665 14.8753C42.5258 14.8753 42.3871 14.9092 42.2624 14.9742C42.1376 15.0391 42.0303 15.1333 41.9496 15.2485L35.8246 23.9985C35.7216 24.1454 35.6665 24.3206 35.6669 24.5V29.9756C34.4687 28.3648 32.8701 27.0282 30.8962 25.9972C32.845 23.7065 33.9071 20.73 33.9071 17.5C33.9116 16.0728 33.6952 14.6535 33.2653 13.2926C34.1176 12.8427 34.8517 12.1981 35.4079 11.4111C35.9641 10.6242 36.3268 9.71705 36.4665 8.76353C36.6062 7.81001 36.5189 6.83698 36.2117 5.92355C35.9045 5.01012 35.3862 4.18206 34.6987 3.50668C34.0113 2.8313 33.1742 2.32766 32.2554 2.0367C31.3367 1.74573 30.3623 1.67566 29.4114 1.83217C28.4605 1.98869 27.56 2.36737 26.783 2.93744C26.006 3.5075 25.3744 4.25287 24.9397 5.11295C23.3098 4.61075 21.6125 4.36186 19.9071 4.375C18.2017 4.36187 16.5045 4.61079 14.8747 5.11306C14.44 4.25298 13.8085 3.5076 13.0315 2.93752C12.2545 2.36744 11.354 1.98875 10.4031 1.83223C9.45216 1.6757 8.47775 1.74576 7.55902 2.03671C6.6403 2.32766 5.80319 2.83129 5.11574 3.50666C4.4283 4.18204 3.90991 5.01009 3.60273 5.92352C3.29555 6.83694 3.20823 7.80996 3.34788 8.76349C3.48754 9.71701 3.85021 10.6241 4.40644 11.4111C4.96266 12.1981 5.69673 12.8427 6.54897 13.2926C6.11907 14.6535 5.90253 16.0728 5.90705 17.5C5.90705 20.73 6.96952 23.7066 8.91804 25.9972C4.6581 28.2221 2.14641 31.8712 1.63115 36.6218C1.63005 36.6327 1.62896 36.6437 1.62819 36.6546L1.54408 37.8558C1.54129 37.8952 1.54129 37.9349 1.54408 37.9743C1.61405 38.9986 1.98214 39.9799 2.603 40.7975C3.22386 41.6151 4.07036 42.2331 5.03818 42.5755C4.46087 43.7587 4.16279 45.0585 4.1669 46.375C4.1669 50.7172 7.30705 54.25 11.1669 54.25C13.245 54.25 15.1135 53.2249 16.3967 51.6018C17.4764 52.1912 18.6868 52.5 19.9169 52.5C21.147 52.5 22.3574 52.1912 23.4371 51.6018C24.7203 53.2249 26.5888 54.25 28.6669 54.25C31.4096 54.25 33.7875 52.4654 34.9351 49.875H54.9169C55.149 49.875 55.3715 49.7828 55.5356 49.6187C55.6997 49.4546 55.7919 49.2321 55.7919 49V36.75C55.7919 36.5179 55.6997 36.2954 55.5356 36.1313C55.3715 35.9672 55.149 35.875 54.9169 35.875ZM42.6669 17.2758L47.1114 23.625H38.2224L42.6669 17.2758ZM37.4169 25.375H47.9169V35.875H38.0822C37.9443 34.9809 37.7215 34.1019 37.4169 33.25V25.375ZM34.7927 42.5694C35.6172 42.2734 36.3551 41.7771 36.9401 41.125H38.2919V44.625H35.4905C35.3473 43.9126 35.1128 43.2217 34.7927 42.5694ZM36.4413 36.7944L36.52 37.9158C36.4571 38.6565 36.1604 39.3579 35.6729 39.919C35.1853 40.4801 34.5321 40.8718 33.8075 41.0375C32.7106 39.7015 31.2088 38.794 29.5234 38.5615C29.3641 35.0025 28.1644 31.7186 26.2044 29.4196C27.4402 28.8975 28.5861 28.1842 29.6002 27.306C33.6082 29.226 35.9699 32.4944 36.4413 36.7937V36.7944ZM30.4071 3.5C31.3685 3.49969 32.3032 3.81606 33.0668 4.40022C33.8303 4.98438 34.3802 5.80378 34.6315 6.73178C34.8827 7.65978 34.8212 8.64468 34.4566 9.53426C34.092 10.4238 33.4445 11.1685 32.6142 11.6532C32.0034 10.3733 31.1744 9.20952 30.1642 8.21406C29.1219 7.19169 27.9105 6.35739 26.5836 5.74809C26.9635 5.0673 27.5181 4.50011 28.1901 4.10495C28.8622 3.7098 29.6274 3.50098 30.4071 3.5ZM5.03205 7.875C5.03179 6.90573 5.35341 5.96382 5.94642 5.19713C6.53944 4.43044 7.37026 3.88238 8.30848 3.63899C9.24669 3.39561 10.2392 3.47067 11.1301 3.85241C12.021 4.23414 12.76 4.90093 13.2309 5.74809C11.904 6.35733 10.6926 7.19164 9.6503 8.21406C8.64012 9.20945 7.81106 10.3732 7.2003 11.6531C6.54104 11.2669 5.99415 10.7151 5.61383 10.0524C5.23351 9.38966 5.03296 8.63908 5.03205 7.875ZM10.8774 9.46181C13.0973 7.2789 16.22 6.125 19.9071 6.125C23.5941 6.125 26.7168 7.2789 28.9368 9.46192C31.0134 11.504 32.1571 14.3585 32.1571 17.5C32.1571 20.6415 31.0134 23.496 28.9368 25.5381C26.7168 27.7211 23.5944 28.875 19.9071 28.875C16.2197 28.875 13.0973 27.7211 10.8774 25.5382C8.80068 23.496 7.65705 20.6415 7.65705 17.5C7.65705 14.3585 8.80068 11.504 10.8774 9.46181ZM3.29419 37.9156L3.37272 36.7941C3.84424 32.4943 6.20554 29.2259 10.2138 27.3057C11.2324 28.1877 12.3839 28.9033 13.6258 29.426C11.6716 31.7257 10.4706 35.0192 10.3104 38.561C8.62349 38.7938 7.12002 39.7031 6.0231 41.0408C5.29493 40.8779 4.63769 40.4871 4.14691 39.925C3.65614 39.363 3.35742 38.6591 3.29419 37.9156ZM11.1669 52.5C8.27196 52.5 5.9169 49.7524 5.9169 46.375C5.9169 42.9976 8.27196 40.25 11.1669 40.25C14.0618 40.25 16.4169 42.9976 16.4169 46.375C16.4169 49.7524 14.0618 52.5 11.1669 52.5ZM19.9169 50.75C19.0151 50.747 18.127 50.5284 17.3269 50.1123C17.8839 48.9454 18.171 47.668 18.1669 46.375C18.1669 42.3743 15.5007 39.0632 12.0625 38.5667C12.2307 35.1542 13.4567 32.0348 15.4253 30.049C16.8868 30.4402 18.3941 30.634 19.9071 30.625C21.4251 30.6341 22.9375 30.4392 24.4036 30.0453C26.3784 32.0306 27.6044 35.1376 27.7717 38.5669C24.3334 39.063 21.6669 42.3741 21.6669 46.375C21.6628 47.668 21.9499 48.9454 22.5069 50.1123C21.7068 50.5284 20.8187 50.747 19.9169 50.75ZM28.6669 52.5C25.772 52.5 23.4169 49.7524 23.4169 46.375C23.4169 42.9976 25.772 40.25 28.6669 40.25C31.5618 40.25 33.9169 42.9976 33.9169 46.375C33.9169 49.7524 31.5618 52.5 28.6669 52.5ZM35.6669 46.375H39.1669C39.399 46.375 39.6215 46.2828 39.7856 46.1187C39.9497 45.9546 40.0419 45.7321 40.0419 45.5V40.25C40.0419 40.0179 39.9497 39.7954 39.7856 39.6313C39.6215 39.4672 39.399 39.375 39.1669 39.375H37.9809C38.1414 38.9236 38.2388 38.4523 38.2703 37.9743C38.273 37.9349 38.273 37.8953 38.2703 37.8558L38.2542 37.625H41.7919V48.125H35.4905C35.6076 47.549 35.6667 46.9628 35.6669 46.375ZM54.0419 48.125H43.5419V37.625H54.0419V48.125Z" fill="black"/>
<path d="M46.167 46.3751H51.417C51.5661 46.3751 51.7128 46.3369 51.8431 46.2643C51.9733 46.1917 52.0829 46.0869 52.1613 45.96C52.2397 45.8332 52.2844 45.6884 52.2911 45.5394C52.2978 45.3904 52.2662 45.2421 52.1995 45.1087L49.5745 39.8587C49.5019 39.7134 49.3902 39.5912 49.2519 39.5058C49.1137 39.4204 48.9544 39.3751 48.792 39.3751C48.6295 39.3751 48.4702 39.4204 48.332 39.5058C48.1938 39.5912 48.0821 39.7134 48.0094 39.8587L45.3844 45.1087C45.3177 45.2421 45.2862 45.3904 45.2929 45.5394C45.2996 45.6884 45.3442 45.8332 45.4227 45.96C45.5011 46.0869 45.6106 46.1917 45.7409 46.2643C45.8711 46.3369 46.0178 46.3751 46.167 46.3751ZM48.792 42.2067L50.0012 44.6251H47.5827L48.792 42.2067Z" fill="black"/>
</svg>
