<svg width="56" height="56" viewBox="0 0 56 56" fill="none" xmlns="http://www.w3.org/2000/svg">
<g clip-path="url(#clip0)">
<path d="M13.3892 20.7551L15.2058 25.3348C15.4357 25.9146 15.9872 26.2888 16.6106 26.2888C17.2344 26.2888 17.7859 25.9146 18.0158 25.3348L19.8325 20.7551C20.399 20.4082 20.7792 19.7853 20.7792 19.0735V15.1996C20.7792 14.7463 20.4122 14.3793 19.9589 14.3793C19.5056 14.3793 19.1386 14.7463 19.1386 15.1996V19.0735C19.1386 19.2563 18.9899 19.4055 18.8066 19.4055H14.415C14.2317 19.4055 14.083 19.2563 14.083 19.0735V5.0799C14.083 4.89703 14.2317 4.74835 14.415 4.74835H18.8066C18.9899 4.74835 19.1386 4.89703 19.1386 5.0799V11.627C19.1386 12.0803 19.5056 12.4473 19.9589 12.4473C20.4122 12.4473 20.7792 12.0803 20.7792 11.627V5.0799C20.7792 4.53088 20.5532 4.034 20.1901 3.67639V1.98621C20.1901 0.898865 19.3052 0.0140381 18.2179 0.0140381H15.0037C13.9164 0.0140381 13.0316 0.898438 13.0316 1.98621V3.67639C12.6684 4.03442 12.4424 4.53131 12.4424 5.08032V19.0735C12.4424 19.7853 12.8226 20.4082 13.3892 20.7551ZM16.6106 24.4273L15.2695 21.0457H17.9521L16.6106 24.4273ZM15.0037 1.65466H18.2179C18.4008 1.65466 18.5494 1.80334 18.5494 1.98621V3.10773H14.6722V1.98621C14.6722 1.80334 14.8209 1.65466 15.0037 1.65466Z" fill="black"/>
<path d="M3.45337 43.2428H8.18384C9.3327 43.2428 10.2675 42.3084 10.2675 41.1595V8.07361C10.2675 7.39044 9.93555 6.78461 9.42542 6.40436L7.28577 1.01038C7.04565 0.404968 6.46973 0.0140381 5.8186 0.0140381C5.16748 0.0140381 4.59198 0.404968 4.35187 1.01038L2.21222 6.40436C1.70251 6.78461 1.37012 7.39044 1.37012 8.07361V41.1595C1.37012 42.3084 2.3045 43.2428 3.45337 43.2428ZM8.18384 7.63098C8.42822 7.63098 8.62689 7.82965 8.62689 8.07361V36.779C8.56537 36.7645 8.50171 36.7559 8.43591 36.7559H6.63892V7.63098H8.18384ZM4.99829 36.7559H3.20129C3.1355 36.7559 3.07184 36.7645 3.01074 36.779V8.07361C3.01074 7.82965 3.20941 7.63098 3.45337 7.63098H4.99829V36.7559ZM8.18384 41.6022H3.45337C3.20941 41.6022 3.01074 41.4039 3.01074 41.1595V38.373C3.07227 38.388 3.1355 38.3965 3.20129 38.3965H8.43591C8.50171 38.3965 8.56537 38.3876 8.62689 38.373V41.1595C8.62689 41.4039 8.42822 41.6022 8.18384 41.6022ZM5.8186 1.76147L7.49597 5.99036H4.14124L5.8186 1.76147Z" fill="black"/>
<path d="M14.028 43.2437H19.1947C20.3436 43.2437 21.278 42.3089 21.278 41.16V34.2049C21.278 33.5439 20.9678 32.9552 20.4867 32.5732V31.2428C20.4867 30.0944 19.5519 29.1595 18.403 29.1595H14.8197C13.6708 29.1595 12.736 30.0939 12.736 31.2428V32.5732C12.2545 32.9552 11.9443 33.5439 11.9443 34.2049V41.16C11.9443 42.3089 12.8792 43.2437 14.028 43.2437ZM19.6373 41.16C19.6373 41.4044 19.4391 41.6031 19.1947 41.6031H14.028C13.7841 41.6031 13.585 41.4044 13.585 41.16V34.2049C13.585 33.9605 13.7836 33.7618 14.028 33.7618H19.1947C19.4387 33.7618 19.6373 33.9605 19.6373 34.2049V41.16ZM14.8197 30.8002H18.403C18.6474 30.8002 18.8461 30.9988 18.8461 31.2428V32.1216H14.3766V31.2428C14.3766 30.9988 14.5753 30.8002 14.8197 30.8002Z" fill="black"/>
<path d="M25.2184 42.5742H27.6781C27.9362 43.095 28.4719 43.4543 29.0914 43.4543H30.4185C31.038 43.4543 31.5737 43.095 31.8318 42.5742H51.1843C53.03 42.5742 54.5309 41.0729 54.5309 39.2276V4.22675C54.5309 2.38147 53.03 0.880127 51.1843 0.880127H31.8318C31.5737 0.359741 31.038 0 30.4185 0H29.0914C28.4719 0 27.9362 0.359741 27.6781 0.880127H25.2184C24.0696 0.880127 23.1348 1.81494 23.1348 2.96381V11.6275C23.1348 12.0804 23.5022 12.4478 23.9551 12.4478C24.4084 12.4478 24.7754 12.0804 24.7754 11.6275V2.96381C24.7754 2.71942 24.9741 2.52075 25.2184 2.52075H27.5132V40.9336H25.2184C24.9745 40.9336 24.7754 40.7349 24.7754 40.4905V15.1997C24.7754 14.7464 24.4084 14.3794 23.9551 14.3794C23.5022 14.3794 23.1348 14.7464 23.1348 15.1997V40.4905C23.1348 41.6394 24.0696 42.5742 25.2184 42.5742ZM52.8903 4.22675V39.2276C52.8903 40.1684 52.1251 40.9336 51.1843 40.9336H31.9967V2.52075H51.1848C52.1251 2.52075 52.8903 3.28638 52.8903 4.22675ZM29.1538 1.64062H30.3561V41.8137H29.1538V1.64062Z" fill="black"/>
<path d="M45.9512 38.3163H48.7834C49.2363 38.3163 49.6037 37.9489 49.6037 37.496C49.6037 37.0427 49.2363 36.6757 48.7834 36.6757H45.9512C45.4979 36.6757 45.1309 37.0427 45.1309 37.496C45.1309 37.9489 45.4979 38.3163 45.9512 38.3163Z" fill="black"/>
<path d="M48.6942 36.198H48.6989C49.1517 36.1959 49.517 35.8267 49.5149 35.3734C49.5123 34.9218 49.1453 34.5574 48.6946 34.5574C48.6929 34.5574 48.6916 34.5574 48.6899 34.5574H48.6801C48.2272 34.5599 47.8666 34.9291 47.8692 35.3824C47.8717 35.834 48.2434 36.198 48.6942 36.198Z" fill="black"/>
<path d="M53.1609 44.8224H2.73993C1.59106 44.8224 0.65625 45.7572 0.65625 46.9061V53.9163C0.65625 55.0652 1.59106 56 2.73993 56H42.3033C42.7567 56 43.1237 55.6326 43.1237 55.1797C43.1237 54.7268 42.7567 54.3594 42.3033 54.3594H2.73993C2.49554 54.3594 2.29688 54.1607 2.29688 53.9163V46.9061C2.29688 46.6617 2.49554 46.463 2.73993 46.463H5.79517V47.7003C5.79517 48.1532 6.1626 48.5206 6.61548 48.5206C7.06879 48.5206 7.43579 48.1532 7.43579 47.7003V46.463H9.67456V47.7003C9.67456 48.1532 10.0416 48.5206 10.4949 48.5206C10.9478 48.5206 11.3152 48.1532 11.3152 47.7003V46.463H13.5535V47.7003C13.5535 48.1532 13.9205 48.5206 14.3738 48.5206C14.8271 48.5206 15.1942 48.1532 15.1942 47.7003V46.463H17.4325V47.7003C17.4325 48.1532 17.7995 48.5206 18.2528 48.5206C18.7061 48.5206 19.0731 48.1532 19.0731 47.7003V46.463H21.3115V47.7003C21.3115 48.1532 21.6789 48.5206 22.1318 48.5206C22.5851 48.5206 22.9521 48.1532 22.9521 47.7003V46.463H25.1909V47.7003C25.1909 48.1532 25.5579 48.5206 26.0112 48.5206C26.4641 48.5206 26.8315 48.1532 26.8315 47.7003V46.463H29.0698V47.7003C29.0698 48.1532 29.4368 48.5206 29.8901 48.5206C30.343 48.5206 30.7104 48.1532 30.7104 47.7003V46.463H32.9488V47.7003C32.9488 48.1532 33.3158 48.5206 33.7691 48.5206C34.2224 48.5206 34.5894 48.1532 34.5894 47.7003V46.463H36.8278V47.7003C36.8278 48.1532 37.1952 48.5206 37.6481 48.5206C38.1014 48.5206 38.4684 48.1532 38.4684 47.7003V46.463H40.7067V47.7003C40.7067 48.1532 41.0742 48.5206 41.527 48.5206C41.9803 48.5206 42.3474 48.1532 42.3474 47.7003V46.463H44.5861V47.7003C44.5861 48.1532 44.9531 48.5206 45.4064 48.5206C45.8593 48.5206 46.2267 48.1532 46.2267 47.7003V46.463H48.4651V47.7003C48.4651 48.1532 48.8321 48.5206 49.2854 48.5206C49.7387 48.5206 50.1057 48.1532 50.1057 47.7003V46.463H53.1614C53.4053 46.463 53.604 46.6617 53.604 46.9061V53.9163C53.604 54.1607 53.4053 54.3594 53.1614 54.3594H45.876C45.4227 54.3594 45.0557 54.7268 45.0557 55.1797C45.0557 55.6326 45.4227 56 45.876 56H53.1614C54.3102 56 55.2446 55.0652 55.2446 53.9163V46.9061C55.2446 45.7572 54.3098 44.8224 53.1609 44.8224Z" fill="black"/>
</g>
<defs>
<clipPath id="clip0">
<rect width="56" height="56" fill="white"/>
</clipPath>
</defs>
</svg>
