<svg width="57" height="56" viewBox="0 0 57 56" fill="none" xmlns="http://www.w3.org/2000/svg">
<g clip-path="url(#clip0)">
<path d="M25.1838 12.4889C26.1502 13.4536 27.4197 13.9358 28.6891 13.9358C29.9585 13.9358 31.228 13.4536 32.1944 12.4889L36.2361 8.45468C37.1734 7.51898 37.6895 6.27473 37.6895 4.95118C37.6895 3.62764 37.1734 2.38328 36.2361 1.44768C34.3031 -0.481584 31.1583 -0.481584 29.2254 1.44768L28.6891 1.98296L28.1527 1.44768C26.2198 -0.481584 23.0749 -0.481584 21.1421 1.44768C20.2047 2.38338 19.6885 3.62764 19.6885 4.95118C19.6885 6.27473 20.2047 7.51909 21.1421 8.45468L25.1838 12.4889ZM23.4597 3.77026C23.7872 3.44345 24.2174 3.27993 24.6475 3.27993C25.0777 3.27993 25.5078 3.44334 25.8354 3.77026L27.5305 5.46218C28.1708 6.10137 29.2076 6.10137 29.848 5.46218L31.5431 3.77026C32.1981 3.11653 33.2636 3.11653 33.9186 3.77026C34.2348 4.08592 34.4089 4.50526 34.4089 4.95118C34.4089 5.3971 34.2348 5.81645 33.9186 6.1321L29.877 10.1663C29.222 10.8199 28.1565 10.82 27.5015 10.1663L23.4598 6.1321C23.1436 5.81645 22.9695 5.3971 22.9695 4.95118C22.9695 4.50526 23.1435 4.08592 23.4597 3.77026Z" fill="black" stroke="white"/>
<path d="M50.3966 25.9601C49.0317 23.6669 47.105 21.477 45.8011 20.324C42.6166 17.508 39.8222 17.6076 38.4396 17.9177C37.7004 18.0835 37.0171 18.3845 36.4287 18.7963C34.2873 17.3409 31.7307 16.6279 28.6891 16.6279C25.5787 16.6279 22.9755 17.3735 20.805 18.896C20.2397 18.5192 19.592 18.2423 18.8943 18.0859C17.5119 17.7757 14.7172 17.6762 11.5331 20.492C10.2289 21.6452 8.302 23.8352 6.93733 26.1285C4.89082 29.5675 4.49936 32.4648 5.77391 34.7397C7.2648 37.4 9.59591 38.1269 11.2178 38.3254C10.9818 39.5346 10.8408 40.8554 10.8408 42.3948C10.8408 45.2363 11.504 47.7043 12.8116 49.7304C13.9729 51.5295 15.6295 52.9626 17.7354 53.9902C21.4275 55.7917 25.7551 56.0001 28.6891 56.0001C31.6231 56.0001 35.9506 55.7917 39.6428 53.9902C41.7487 52.9626 43.4053 51.5294 44.5664 49.7305C45.8743 47.7046 46.5373 45.2366 46.5373 42.3948C46.5373 40.7833 46.3829 39.4114 46.1264 38.1559C47.7479 37.9555 50.0722 37.2261 51.5599 34.5713C52.8345 32.2967 52.443 29.3995 50.3966 25.9601ZM12.8898 32.9537C12.6142 33.6862 12.3479 34.3935 12.1038 35.1054C10.6221 35.0294 9.45733 34.6015 8.63582 33.1356C7.81408 31.6689 8.79168 29.4281 9.75647 27.8068C10.9336 25.8287 12.6289 23.9029 13.706 22.9506C15.7978 21.1006 17.4048 21.1147 18.1763 21.2879C18.1953 21.2921 18.2142 21.2966 18.233 21.3012C16.2125 23.7578 15.0072 26.8545 14.0073 29.8538C13.623 31.0061 13.2505 31.9959 12.8898 32.9537ZM29.9983 41.8882C29.5492 42.3361 29.0107 42.6489 28.689 42.6489C28.3671 42.6489 27.8287 42.3362 27.3798 41.8883C26.9291 41.4387 26.6144 40.8943 26.6144 40.5643C26.6144 40.2816 26.7015 40.1973 26.8967 40.1153C27.2249 39.9775 27.7776 39.9161 28.6891 39.9161C29.6005 39.9161 30.1533 39.9775 30.4815 40.1153C30.6766 40.1974 30.7637 40.2816 30.7637 40.5643C30.7636 40.8943 30.4488 41.4387 29.9983 41.8882ZM41.81 47.9506C40.978 49.2398 39.7648 50.2796 38.2041 51.041C35.7199 52.2532 32.753 52.6013 30.3294 52.6906V45.5835C31.2096 45.2129 31.9025 44.623 32.3151 44.2115C32.961 43.5672 34.0445 42.2367 34.0445 40.5643C34.0445 38.9916 33.1873 37.6928 31.7516 37.0898C30.9817 36.7665 30.0944 36.6347 28.6891 36.6347C27.2836 36.6347 26.3963 36.7666 25.6266 37.0898C24.1908 37.6927 23.3336 38.9916 23.3336 40.5643C23.3336 42.2366 24.4171 43.5672 25.0631 44.2115C25.4754 44.6229 26.1683 45.2129 27.0487 45.5835V52.6905C24.625 52.6011 21.6582 52.2531 19.1739 51.0409C17.6133 50.2794 16.4001 49.2397 15.568 47.9505C14.6082 46.4637 14.1216 44.5943 14.1216 42.3947C14.1216 38.9952 14.8929 36.9459 15.9607 34.1091C16.3318 33.1232 16.7156 32.1036 17.1198 30.8917C18.0701 28.0414 19.2054 25.1176 21.0625 23.0408C22.973 20.9043 25.3964 19.9092 28.6891 19.9092C31.9817 19.9092 34.4051 20.9043 36.3157 23.0408C38.1731 25.1178 39.3083 28.0415 40.2583 30.8917C40.6605 32.0978 41.0443 33.1175 41.4175 34.1092C42.4851 36.9458 43.2564 38.9951 43.2564 42.3947C43.2565 44.5948 42.7699 46.464 41.81 47.9506ZM48.6979 32.9671C47.8738 34.4378 46.7044 34.8637 45.2162 34.9379C44.9875 34.2806 44.7406 33.625 44.4858 32.9478C44.1255 31.9905 43.7531 31.0006 43.3707 29.8539C42.3508 26.7943 41.1171 23.6333 39.022 21.1535C39.0665 21.1412 39.1116 21.1298 39.1575 21.1195C39.9293 20.9467 41.5359 20.9324 43.6279 22.7824C44.7047 23.7345 46.4002 25.6603 47.5774 27.6384C48.5422 29.2599 49.5196 31.5005 48.6979 32.9671Z" fill="black" stroke="white"/>
<path d="M24.284 27.9491C23.378 27.9491 22.6436 28.6837 22.6436 29.5898V32.0584C22.6436 32.9646 23.378 33.6991 24.284 33.6991C25.1899 33.6991 25.9244 32.9646 25.9244 32.0584V29.5898C25.9244 28.6837 25.1899 27.9491 24.284 27.9491Z" fill="black"/>
<path d="M33.0506 27.9491C32.1446 27.9491 31.4102 28.6837 31.4102 29.5898V32.0584C31.4102 32.9646 32.1446 33.6991 33.0506 33.6991C33.9565 33.6991 34.691 32.9646 34.691 32.0584V29.5898C34.6911 28.6837 33.9566 27.9491 33.0506 27.9491Z" fill="black"/>
</g>
<defs>
<clipPath id="clip0">
<rect width="56" height="56" fill="white" transform="translate(0.666992)"/>
</clipPath>
</defs>
</svg>
