<svg width="24" height="24" viewBox="0 0 24 24" fill="none" xmlns="http://www.w3.org/2000/svg">
<path d="M22.7962 13.55V22C22.7962 23.1028 21.8993 24 20.7967 24H3.20093C2.0984 24 1.20141 23.1028 1.20141 22V13.55C1.20141 13.3291 1.38047 13.15 1.60131 13.15C1.82216 13.15 2.00122 13.3291 2.00122 13.55V22C2.00122 22.6616 2.53944 23.2 3.20093 23.2H20.7967C21.4582 23.2 21.9964 22.6616 21.9964 22V13.55C21.9964 13.3291 22.1755 13.15 22.3963 13.15C22.6172 13.15 22.7962 13.3291 22.7962 13.55ZM2.60108 6.39996C2.60108 6.62086 2.78013 6.79996 3.00098 6.79996C24.9239 6.79996 23.6818 6.83871 23.8403 6.71616C23.9211 6.65356 23.9766 6.56251 23.9917 6.45521C24.0139 6.29451 24.1615 6.69921 21.3636 0.24095C21.3002 0.0946502 21.1561 0 20.9967 0H3.00098C2.84162 0 2.69745 0.0947002 2.63402 0.24095L0.0346393 6.24096C-0.0112997 6.34706 0.00169717 6.17866 0.00169717 8.88162C0.00454649 10.7009 1.48454 12.181 3.30091 12.181C4.54956 12.181 5.63925 11.4815 6.19937 10.4532C7.45032 12.7526 10.7455 12.7553 11.9988 10.4547C13.251 12.7533 16.5448 12.754 17.7974 10.4547C18.3572 11.4821 19.4469 12.1809 20.6967 12.1809C22.516 12.1809 23.996 10.7006 23.996 8.88092C23.996 8.66002 23.8169 8.48092 23.5961 8.48092C23.3752 8.48092 23.1961 8.66002 23.1961 8.88092C23.1961 10.2594 22.0749 11.3809 20.6967 11.3809C19.3186 11.3809 18.1973 10.2594 18.1973 8.88092C18.1973 8.66002 18.0183 8.48092 17.7974 8.48092C17.5766 8.48092 17.3975 8.66002 17.3975 8.88092C17.3975 10.2594 16.2763 11.3809 14.8981 11.3809C13.52 11.3809 12.3987 10.2594 12.3987 8.88092C12.3987 8.66002 12.2197 8.48092 11.9988 8.48092C11.778 8.48092 11.5989 8.66002 11.5989 8.88092C11.5989 10.2594 10.4777 11.3809 9.09952 11.3809C7.75194 11.3809 6.60012 10.2977 6.60012 8.86092C6.60012 8.64002 6.42106 8.46092 6.20021 8.46092C5.97937 8.46092 5.80031 8.64002 5.80031 8.86092C5.80031 10.2856 4.65563 11.3809 3.30091 11.3809C1.92489 11.3809 0.803655 10.2591 0.801506 8.88092V6.48286L3.26352 0.799952H20.7341L22.9869 5.99996H3.00098C2.78013 5.99996 2.60108 6.17906 2.60108 6.39996Z" fill="#354253"/>
<path d="M9.71603 16.3562L9.71604 16.3562C9.85943 15.354 10.7594 14.4285 12.0002 14.4285C13.2597 14.4285 14.32 15.4195 14.3217 16.6721L14.3217 16.6724C14.3217 17.2358 14.1054 17.7806 13.6937 18.2009M9.71603 16.3562L13.2273 20.2796L13.2273 20.2797L13.0274 20.2794H13.2273L13.2288 19.45V19.4496C13.2288 18.9507 13.3934 18.508 13.6937 18.2009M9.71603 16.3562L9.71579 16.358C9.62653 17.0251 9.84277 17.6745 10.2881 18.1635L10.2881 18.1635L10.2899 18.1655C10.6122 18.5099 10.79 18.9719 10.79 19.4494M9.71603 16.3562L10.79 19.4494M13.6937 18.2009C13.6936 18.2009 13.6936 18.2009 13.6936 18.201L13.5507 18.061L13.6937 18.2008C13.6937 18.2009 13.6937 18.2009 13.6937 18.2009ZM10.79 19.4494C10.79 19.4495 10.79 19.4495 10.79 19.4496V19.4494ZM12.5033 19.3935H11.5169C11.502 18.7678 11.2384 18.1542 10.8134 17.6875L10.8134 17.6875L10.8116 17.6855C10.4968 17.3491 10.3663 16.9157 10.4229 16.4609C10.5248 15.7893 11.1561 15.1485 12.0018 15.1485C12.8927 15.1485 13.5956 15.8477 13.5956 16.6724C13.5956 17.0508 13.452 17.4156 13.1794 17.698C12.7438 18.1422 12.5158 18.7465 12.5033 19.3935ZM12.515 20.2794C12.515 20.2839 12.5152 20.2884 12.5155 20.2928C12.509 20.3328 12.4738 20.3672 12.4227 20.3672H11.6237C11.5663 20.3672 11.5298 20.3256 11.5298 20.2794V20.1119H12.515V20.2794Z" fill="#354253" stroke="#354253" stroke-width="0.4" stroke-linecap="round" stroke-linejoin="round"/>
<path d="M11.8364 12.9782C11.7536 12.9782 11.6864 13.0453 11.6864 13.1282V13.8902C11.6864 13.9731 11.7536 14.0402 11.8364 14.0402H12.1624C12.2453 14.0402 12.3124 13.9731 12.3124 13.8902V13.1282C12.3124 13.0453 12.2453 12.9782 12.1624 12.9782H11.8364Z" fill="#354253" stroke="#354253" stroke-width="0.3" stroke-linecap="round" stroke-linejoin="round"/>
<path d="M13.8722 14.4893C13.8431 14.5172 13.8264 14.5557 13.8261 14.5961C13.8257 14.6365 13.8416 14.6753 13.8702 14.7038L14.0983 14.9309C14.156 14.9883 14.249 14.9892 14.3079 14.9329L14.8665 14.3979C14.8958 14.3699 14.9125 14.3313 14.9128 14.2908C14.9131 14.2503 14.8971 14.2114 14.8683 14.183L14.6387 13.9559C14.5809 13.8987 14.488 13.898 14.4293 13.9543L13.8722 14.4893Z" fill="#354253" stroke="#354253" stroke-width="0.3" stroke-linecap="round" stroke-linejoin="round"/>
<path d="M14.9512 16.4105C14.8683 16.4105 14.8012 16.4777 14.8012 16.5605V16.8791C14.8012 16.9619 14.8683 17.0291 14.9512 17.0291H15.7501C15.833 17.0291 15.9001 16.9619 15.9001 16.8791V16.5605C15.9001 16.4777 15.833 16.4105 15.7501 16.4105H14.9512Z" fill="#354253" stroke="#354253" stroke-width="0.3" stroke-linecap="round" stroke-linejoin="round"/>
<path d="M8.25 16.4105C8.16716 16.4105 8.1 16.4777 8.1 16.5605V16.8791C8.1 16.9619 8.16716 17.0291 8.25 17.0291H9.04898C9.13182 17.0291 9.19898 16.9619 9.19898 16.8791V16.5605C9.19898 16.4777 9.13182 16.4105 9.04898 16.4105H8.25Z" fill="#354253" stroke="#354253" stroke-width="0.3" stroke-linecap="round" stroke-linejoin="round"/>
<path d="M9.56493 13.9527C9.50626 13.8964 9.41338 13.8971 9.35555 13.9543L9.12596 14.1814C9.09717 14.2098 9.08112 14.2487 9.08145 14.2892C9.08178 14.3297 9.09846 14.3683 9.1277 14.3963L9.68637 14.9313C9.7452 14.9877 9.83824 14.9867 9.89596 14.9293L10.124 14.7022C10.1526 14.6737 10.1685 14.6349 10.1682 14.5945C10.1678 14.5542 10.1512 14.5156 10.1221 14.4877L9.56493 13.9527Z" fill="#354253" stroke="#354253" stroke-width="0.3" stroke-linecap="round" stroke-linejoin="round"/>
</svg>
