<svg width="24" height="24" viewBox="0 0 24 24" fill="none" xmlns="http://www.w3.org/2000/svg">
<g clip-path="url(#clip0)">
<path d="M22.7962 13.5496V21.9976C22.7962 23.1001 21.8992 23.9971 20.7967 23.9971H3.20093C2.09839 23.9971 1.20141 23.1001 1.20141 21.9976V13.5496C1.20141 13.3288 1.38047 13.1497 1.60131 13.1497C1.82216 13.1497 2.00122 13.3288 2.00122 13.5496V21.9976C2.00122 22.6591 2.53944 23.1973 3.20093 23.1973H20.7967C21.4582 23.1973 21.9964 22.6591 21.9964 21.9976V13.5496C21.9964 13.3288 22.1755 13.1497 22.3963 13.1497C22.6172 13.1497 22.7962 13.3288 22.7962 13.5496ZM2.60107 6.40135C2.60107 6.62219 2.78013 6.80125 3.00098 6.80125C24.9239 6.80125 23.6818 6.83999 23.8403 6.71747C23.9211 6.65489 23.9766 6.56386 23.9917 6.45658C24.0139 6.29592 24.1615 6.70052 21.3636 0.243822C21.3002 0.097557 21.1561 0.00292969 20.9967 0.00292969H3.00098C2.84162 0.00292969 2.69745 0.097607 2.63402 0.243822L0.0346393 6.24238C-0.0112997 6.34846 0.00169717 6.1801 0.00169717 8.8824C0.00454648 10.7013 1.48454 12.181 3.30091 12.181C4.54956 12.181 5.63925 11.4816 6.19936 10.4536C7.45031 12.7525 10.7455 12.7551 11.9988 10.4551C13.251 12.7531 16.5448 12.7539 17.7974 10.4551C18.3571 11.4823 19.4469 12.1809 20.6967 12.1809C22.516 12.1809 23.9959 10.7009 23.9959 8.8817C23.9959 8.66085 23.8169 8.4818 23.596 8.4818C23.3752 8.4818 23.1961 8.66085 23.1961 8.8817C23.1961 10.2599 22.0749 11.3811 20.6967 11.3811C19.3186 11.3811 18.1973 10.2599 18.1973 8.8817C18.1973 8.66085 18.0183 8.4818 17.7974 8.4818C17.5766 8.4818 17.3975 8.66085 17.3975 8.8817C17.3975 10.2599 16.2763 11.3811 14.8981 11.3811C13.52 11.3811 12.3987 10.2599 12.3987 8.8817C12.3987 8.66085 12.2197 8.4818 11.9988 8.4818C11.778 8.4818 11.5989 8.66085 11.5989 8.8817C11.5989 10.2599 10.4777 11.3811 9.09952 11.3811C7.75194 11.3811 6.60012 10.2982 6.60012 8.86171C6.60012 8.64086 6.42106 8.4618 6.20021 8.4618C5.97936 8.4618 5.80031 8.64086 5.80031 8.86171C5.80031 10.2861 4.65563 11.3811 3.30091 11.3811C1.92489 11.3811 0.803655 10.2596 0.801506 8.8817V6.48423L3.26352 0.802688H20.7341L22.9869 6.00144H3.00098C2.78013 6.00144 2.60107 6.1805 2.60107 6.40135ZM4.20069 16.299C4.20069 15.2626 5.04384 14.4194 6.08024 14.4194C7.11664 14.4194 7.95984 15.2626 7.95984 16.299C7.95984 17.3354 7.11669 18.1785 6.08024 18.1785C5.04384 18.1785 4.20069 17.3354 4.20069 16.299ZM5.0005 16.299C5.0005 16.8943 5.48483 17.3787 6.08024 17.3787C6.67565 17.3787 7.16003 16.8944 7.16003 16.299C7.16003 15.7036 6.67565 15.2192 6.08024 15.2192C5.48483 15.2192 5.0005 15.7036 5.0005 16.299ZM9.53276 18.1785C9.31192 18.1785 9.13286 17.9995 9.13286 17.7786V14.8194C9.13286 14.5985 9.31192 14.4195 9.53276 14.4195H10.5192C11.2836 14.4195 11.9055 15.0414 11.9055 15.8058C11.9055 16.5702 11.2836 17.1921 10.5192 17.1921H9.93267V17.7786C9.93267 17.9995 9.75361 18.1785 9.53276 18.1785ZM9.93267 16.3923H10.5192C10.8426 16.3923 11.1057 16.1292 11.1057 15.8058C11.1057 15.4825 10.8425 15.2193 10.5192 15.2193H9.93267V16.3923ZM15.4513 15.2193C15.6721 15.2193 15.8512 15.0402 15.8512 14.8194C15.8512 14.5985 15.6721 14.4195 15.4513 14.4195H13.4784C13.2576 14.4195 13.0785 14.5985 13.0785 14.8194V17.7786C13.0785 17.9995 13.2576 18.1785 13.4784 18.1785H15.4513C15.6721 18.1785 15.8512 17.9995 15.8512 17.7786C15.8512 17.5578 15.6721 17.3787 15.4513 17.3787H13.8783V16.6989H14.8481C15.0689 16.6989 15.248 16.5198 15.248 16.299C15.248 16.0781 15.0689 15.8991 14.8481 15.8991H13.8783V15.2192L15.4513 15.2193ZM17.8241 17.7786V16.1402L19.0643 18.0005C19.2831 18.3286 19.797 18.173 19.797 17.7786V14.8194C19.797 14.5985 19.6179 14.4195 19.397 14.4195C19.1762 14.4195 18.9971 14.5985 18.9971 14.8194V16.4578L17.7569 14.5975C17.5382 14.2694 17.0243 14.425 17.0243 14.8194V17.7786C17.0243 17.9995 17.2033 18.1785 17.4242 18.1785C17.645 18.1785 17.8241 17.9995 17.8241 17.7786ZM4.60059 20.8979H19.397C19.6179 20.8979 19.797 20.7188 19.797 20.498C19.797 20.2771 19.6179 20.0981 19.397 20.0981H4.60059C4.37975 20.0981 4.20069 20.2771 4.20069 20.498C4.20069 20.7188 4.37975 20.8979 4.60059 20.8979Z" fill="#354253"/>
</g>
<defs>
<clipPath id="clip0">
<rect width="24" height="24" fill="white"/>
</clipPath>
</defs>
</svg>
