<svg width="24" height="24" viewBox="0 0 24 24" fill="none" xmlns="http://www.w3.org/2000/svg">
<path d="M22.4989 12.3462C22.4917 12.252 22.4491 12.164 22.3798 12.0998C22.3105 12.0357 22.2195 12 22.125 12H16.7442L16.4995 7.10626C16.4947 7.01017 16.4532 6.9196 16.3835 6.85329C16.3137 6.78698 16.2212 6.75001 16.125 6.75001H13.5V4.87501C13.5002 4.33502 13.3708 3.80288 13.1226 3.32329C12.8744 2.84371 12.5148 2.4307 12.0739 2.11897C11.6329 1.80724 11.1236 1.6059 10.5887 1.53186C10.0539 1.45783 9.50902 1.51326 9 1.69351C8.49098 1.51326 7.94614 1.45783 7.41125 1.53186C6.87637 1.6059 6.36706 1.80724 5.92614 2.11897C5.48522 2.4307 5.12557 2.84371 4.8774 3.32329C4.62924 3.80288 4.49981 4.33502 4.5 4.87501V6.75001H1.875C1.77879 6.75001 1.68626 6.78698 1.61655 6.85329C1.54684 6.9196 1.50528 7.01017 1.50047 7.10626L0.750469 22.1063C0.747928 22.157 0.755732 22.2078 0.773407 22.2554C0.791081 22.3031 0.818258 22.3466 0.853287 22.3835C0.888315 22.4203 0.930464 22.4496 0.977173 22.4696C1.02388 22.4897 1.07418 22.5 1.125 22.5H22.875C22.9267 22.5 22.9778 22.4893 23.0251 22.4686C23.0725 22.448 23.1151 22.4177 23.1502 22.3798C23.1853 22.3419 23.2122 22.2971 23.2292 22.2483C23.2462 22.1995 23.2529 22.1477 23.2489 22.0962L22.4989 12.3462ZM21.375 20.551L22.1743 21.75H20.5759L21.375 20.551ZM22.3911 20.723L21.7388 19.7447L21.0394 12.75H21.7778L22.3911 20.723ZM20.2856 12.75L20.9888 19.7787L20.1656 21.0131L19.53 12.75H20.2856ZM15.9933 12H15.2875L15.0227 7.50001H15.768L15.9933 12ZM14.2714 7.50001L14.5362 12H13.744L13.519 7.50001H14.2714ZM10.125 2.25001C10.821 2.2508 11.4882 2.52762 11.9803 3.01973C12.4724 3.51184 12.7492 4.17906 12.75 4.87501V6.75001H11.25V4.87501C11.25 4.37222 11.1375 3.8758 10.9207 3.42214C10.7039 2.96849 10.3884 2.56909 9.99717 2.25324C10.0395 2.25122 10.0821 2.25001 10.125 2.25001ZM9 2.50379C9.4485 2.71696 9.82743 3.05282 10.0929 3.47248C10.3584 3.89214 10.4995 4.37843 10.5 4.87501V6.75001H7.5V4.87501C7.50048 4.37843 7.64163 3.89214 7.9071 3.47248C8.17257 3.05282 8.5515 2.71696 9 2.50379V2.50379ZM5.25 4.87501C5.25079 4.17906 5.52761 3.51184 6.01972 3.01973C6.51183 2.52762 7.17905 2.2508 7.875 2.25001C7.91789 2.25001 7.96045 2.25122 8.00283 2.25324C7.61163 2.56909 7.29607 2.96848 7.07928 3.42214C6.8625 3.87579 6.74999 4.37221 6.75 4.87501V6.75001H5.25V4.87501ZM9.77775 21.75H1.51922L2.23172 7.50001H4.5V9.92433L3.54197 10.563C3.49061 10.5972 3.4485 10.6436 3.41937 10.6981C3.39024 10.7525 3.375 10.8133 3.375 10.875V13.875C3.375 13.9745 3.41451 14.0698 3.48484 14.1402C3.55516 14.2105 3.65054 14.25 3.75 14.25H6C6.09946 14.25 6.19484 14.2105 6.26517 14.1402C6.33549 14.0698 6.375 13.9745 6.375 13.875V10.875C6.375 10.8133 6.35976 10.7525 6.33063 10.6981C6.30151 10.6436 6.25939 10.5972 6.20803 10.563L5.25 9.92433V7.50001H10.5V8.62501C10.5 8.72446 10.5395 8.81984 10.6098 8.89017C10.6802 8.9605 10.7755 9.00001 10.875 9.00001C10.9745 9.00001 11.0698 8.9605 11.1402 8.89017C11.2105 8.81984 11.25 8.72446 11.25 8.62501V7.50001H12.7683L12.9933 12H10.875C10.7805 12 10.6895 12.0357 10.6202 12.0998C10.5509 12.164 10.5083 12.252 10.5011 12.3462L9.77775 21.75ZM4.875 10.5757L5.625 11.0757V13.5H4.125V11.0757L4.875 10.5757ZM11.2223 12.75H18.7778L19.47 21.75H10.53L11.2223 12.75Z" fill="#354253"/>
<path d="M16.875 14.25C16.7755 14.25 16.6802 14.2895 16.6098 14.3598C16.5395 14.4302 16.5 14.5255 16.5 14.625V17.625C16.4997 17.9233 16.381 18.2092 16.1701 18.4201C15.9592 18.631 15.6733 18.7497 15.375 18.75H14.625C14.3267 18.7497 14.0408 18.631 13.8299 18.4201C13.619 18.2092 13.5003 17.9233 13.5 17.625V14.625C13.5 14.5255 13.4605 14.4302 13.3902 14.3598C13.3198 14.2895 13.2245 14.25 13.125 14.25C13.0255 14.25 12.9302 14.2895 12.8598 14.3598C12.7895 14.4302 12.75 14.5255 12.75 14.625V17.625C12.7506 18.1221 12.9483 18.5987 13.2998 18.9502C13.6513 19.3017 14.1279 19.4994 14.625 19.5H15.375C15.8721 19.4994 16.3487 19.3017 16.7002 18.9502C17.0517 18.5987 17.2494 18.1221 17.25 17.625V14.625C17.25 14.5255 17.2105 14.4302 17.1402 14.3598C17.0698 14.2895 16.9745 14.25 16.875 14.25Z" fill="#354253"/>
</svg>
