<svg width="24" height="24" viewBox="0 0 24 24" fill="none" xmlns="http://www.w3.org/2000/svg">
<path d="M6.75 2.25H7.5V3H6.75V2.25Z" fill="#354253"/>
<path d="M8.25 2.25H11.25V3H8.25V2.25Z" fill="#354253"/>
<path d="M15.375 16.875C15.3744 17.3721 15.1767 17.8487 14.8252 18.2002C14.4737 18.5517 13.9971 18.7494 13.5 18.75H6.64952L7.93877 16.5173C7.89799 16.6322 7.87645 16.7531 7.87502 16.875C7.87502 17.1734 7.99354 17.4595 8.20452 17.6705C8.4155 17.8815 8.70165 18 9.00002 18H10.5C10.7984 18 11.0845 17.8815 11.2955 17.6705C11.5065 17.4595 11.625 17.1734 11.625 16.875C11.625 16.5766 11.5065 16.2905 11.2955 16.0795C11.0845 15.8685 10.7984 15.75 10.5 15.75H9.00002C8.82146 15.7503 8.64556 15.7933 8.48694 15.8753C8.32832 15.9572 8.19156 16.0759 8.08802 16.2214C8.23694 15.8705 8.24637 15.4761 8.11437 15.1186C7.98238 14.761 7.71892 14.4673 7.37776 14.2974C7.03659 14.1275 6.64345 14.0942 6.27856 14.2043C5.91367 14.3143 5.60454 14.5595 5.41427 14.8898L4.13927 17.0992C4.13001 17.0249 4.12526 16.95 4.12502 16.875V3.375C4.12561 2.8779 4.32335 2.40133 4.67485 2.04983C5.02635 1.69833 5.50292 1.5006 6.00002 1.5H13.5C13.829 1.50076 14.152 1.58772 14.4369 1.75221C14.7218 1.9167 14.9586 2.15298 15.1238 2.4375L15.7729 2.0625C15.5417 1.66423 15.2102 1.33348 14.8115 1.10319C14.4127 0.87291 13.9605 0.751136 13.5 0.75H6.00002C5.30407 0.750794 4.63685 1.02761 4.14474 1.51972C3.65263 2.01183 3.37581 2.67905 3.37502 3.375V10.6125C3.13638 10.7236 2.94423 10.9148 2.83202 11.1529L1.12989 14.8455C0.877918 15.3871 0.748226 15.9776 0.750018 16.575V23.25H1.50002V16.575C1.49834 16.0865 1.60436 15.6037 1.81052 15.1609L3.37502 11.7664V16.875C3.37476 17.3229 3.48955 17.7633 3.70839 18.1541C3.73663 18.2174 3.78181 18.2715 3.83895 18.3106C3.89608 18.3498 3.96293 18.3723 4.03209 18.3758C4.10125 18.3792 4.17001 18.3635 4.23076 18.3302C4.29151 18.297 4.34187 18.2476 4.37627 18.1875L6.06377 15.2648C6.16393 15.0939 6.32761 14.9696 6.51908 14.919C6.71055 14.8683 6.91427 14.8955 7.08579 14.9945C7.2573 15.0936 7.38269 15.2564 7.43458 15.4476C7.48647 15.6387 7.46066 15.8426 7.36277 16.0148L5.67527 18.9375C5.64174 18.9955 5.62437 19.0615 5.62496 19.1285C5.62556 19.1955 5.64409 19.2611 5.67864 19.3185L6.48189 20.6535C6.65711 20.9455 6.74978 21.2797 6.75002 21.6202V23.2463H7.50002V21.6202C7.49996 21.1436 7.37034 20.6759 7.12502 20.2673L6.66339 19.5H13.5C14.196 19.4992 14.8632 19.2224 15.3553 18.7303C15.8474 18.2382 16.1242 17.5709 16.125 16.875V15H15.375V16.875ZM9.00002 16.5H10.5C10.5995 16.5 10.6949 16.5395 10.7652 16.6098C10.8355 16.6802 10.875 16.7755 10.875 16.875C10.875 16.9745 10.8355 17.0698 10.7652 17.1402C10.6949 17.2105 10.5995 17.25 10.5 17.25H9.00002C8.90056 17.25 8.80518 17.2105 8.73485 17.1402C8.66453 17.0698 8.62502 16.9745 8.62502 16.875C8.62502 16.7755 8.66453 16.6802 8.73485 16.6098C8.80518 16.5395 8.90056 16.5 9.00002 16.5Z" fill="#354253"/>
<path d="M22.1663 5.18253C21.323 3.97535 20.0651 3.12049 18.6323 2.7807C17.1994 2.44091 15.6916 2.63992 14.396 3.33984C13.1004 4.03977 12.1074 5.19172 11.6061 6.57637C11.1048 7.96102 11.1303 9.48167 11.6776 10.8488L10.4101 12.9975C10.3735 13.0594 10.3555 13.1304 10.3582 13.2022C10.3608 13.274 10.3841 13.3435 10.4251 13.4025C10.4672 13.4614 10.5251 13.5071 10.5922 13.5343C10.6592 13.5615 10.7326 13.5691 10.8038 13.5563L13.2526 13.0988C14.0841 13.8442 15.1078 14.3417 16.2076 14.535C16.5532 14.5944 16.9032 14.6245 17.2538 14.625C18.3514 14.6247 19.4279 14.3233 20.3661 13.7537C21.3044 13.184 22.0683 12.3679 22.5749 11.3942C23.0815 10.4205 23.3113 9.32648 23.2392 8.23124C23.1672 7.13599 22.7961 6.0815 22.1663 5.18253V5.18253ZM22.4213 9.53627C22.2564 10.4718 21.8408 11.345 21.2187 12.0628C20.5966 12.7807 19.7914 13.3164 18.8889 13.6127C17.9864 13.909 17.0204 13.955 16.0939 13.7456C15.1673 13.5362 14.315 13.0794 13.6276 12.4238C13.5573 12.3585 13.4648 12.3223 13.3688 12.3225C13.3463 12.3219 13.3237 12.3232 13.3013 12.3263L11.4751 12.6675L12.4201 11.07C12.4495 11.0186 12.4668 10.9611 12.4707 10.902C12.4746 10.8429 12.465 10.7836 12.4426 10.7288C12.0243 9.78228 11.8977 8.73259 12.0788 7.71377C12.3205 6.34227 13.0971 5.12295 14.2378 4.32405C14.8026 3.92847 15.4398 3.64802 16.113 3.49869C16.7862 3.34937 17.4822 3.33411 18.1613 3.45378C18.8404 3.57344 19.4893 3.8257 20.0709 4.19613C20.6525 4.56657 21.1555 5.04794 21.5511 5.61275C21.9466 6.17756 22.2271 6.81476 22.3764 7.48796C22.5257 8.16116 22.541 8.85718 22.4213 9.53627Z" fill="#354253"/>
<path d="M19.875 6.375H18.75V6C18.75 5.60218 18.592 5.22064 18.3107 4.93934C18.0294 4.65804 17.6478 4.5 17.25 4.5C16.8522 4.5 16.4706 4.65804 16.1893 4.93934C15.908 5.22064 15.75 5.60218 15.75 6V6.375H14.625C14.5255 6.375 14.4302 6.41451 14.3598 6.48483C14.2895 6.55516 14.25 6.65054 14.25 6.75V11.25C14.2509 11.5481 14.3697 11.8337 14.5805 12.0445C14.7913 12.2553 15.0769 12.3741 15.375 12.375H19.125C19.4231 12.3741 19.7087 12.2553 19.9195 12.0445C20.1303 11.8337 20.2491 11.5481 20.25 11.25V6.75C20.25 6.65054 20.2105 6.55516 20.1402 6.48483C20.0698 6.41451 19.9745 6.375 19.875 6.375ZM16.5 6C16.5 5.80109 16.579 5.61032 16.7197 5.46967C16.8603 5.32902 17.0511 5.25 17.25 5.25C17.4489 5.25 17.6397 5.32902 17.7803 5.46967C17.921 5.61032 18 5.80109 18 6V6.375H16.5V6ZM19.5 11.25C19.5 11.3495 19.4605 11.4448 19.3902 11.5152C19.3198 11.5855 19.2245 11.625 19.125 11.625H15.375C15.2755 11.625 15.1802 11.5855 15.1098 11.5152C15.0395 11.4448 15 11.3495 15 11.25V10.875H19.5V11.25ZM19.5 10.125H15V7.125H15.75V7.875H16.5V7.125H18V7.875H18.75V7.125H19.5V10.125Z" fill="#354253"/>
<path d="M8.35988 5.73486L7.78238 6.31236C7.39366 6.05508 6.92324 5.95133 6.46236 6.02124C6.00148 6.09115 5.58299 6.32973 5.28805 6.69071C4.99312 7.0517 4.84276 7.50936 4.86614 7.97492C4.88952 8.44049 5.08497 8.88078 5.41459 9.2104C5.74421 9.54001 6.1845 9.73547 6.65007 9.75885C7.11563 9.78223 7.57329 9.63187 7.93428 9.33694C8.29526 9.042 8.53384 8.62351 8.60375 8.16263C8.67366 7.70175 8.56991 7.23133 8.31263 6.84261L8.89013 6.26511L8.35988 5.73486ZM7.875 7.87499C7.875 8.09749 7.80902 8.315 7.68541 8.5C7.56179 8.68501 7.38609 8.8292 7.18052 8.91435C6.97495 8.9995 6.74875 9.02178 6.53053 8.97837C6.3123 8.93496 6.11184 8.82782 5.95451 8.67048C5.79717 8.51315 5.69003 8.31269 5.64662 8.09446C5.60321 7.87624 5.62549 7.65004 5.71064 7.44447C5.79579 7.2389 5.93998 7.0632 6.12499 6.93958C6.30999 6.81597 6.5275 6.74999 6.75 6.74999C6.91706 6.75063 7.0818 6.7891 7.23188 6.86249L6.10988 7.98449L6.64013 8.51474L7.7625 7.39311C7.83589 7.54319 7.87436 7.70793 7.875 7.87499V7.87499Z" fill="#354253"/>
<path d="M9.375 6.75H10.875V7.5H9.375V6.75Z" fill="#354253"/>
<path d="M9.375 8.25H10.875V9H9.375V8.25Z" fill="#354253"/>
</svg>
