<svg width="24" height="24" viewBox="0 0 24 24" fill="none" xmlns="http://www.w3.org/2000/svg">
<path d="M2.625 20.25H3.75V21H2.625V20.25Z" fill="#354253"/>
<path d="M4.5 20.25H5.625V21H4.5V20.25Z" fill="#354253"/>
<path d="M13.875 4.5H14.625V5.25H13.875V4.5Z" fill="#354253"/>
<path d="M15 7.125H15.75V7.875H15V7.125Z" fill="#354253"/>
<path d="M16.125 4.5H16.875V5.25H16.125V4.5Z" fill="#354253"/>
<path d="M22.5 18.75H22.125V14.2832C22.1238 13.1808 21.6853 12.1238 20.9057 11.3443C20.1262 10.5647 19.0692 10.1262 17.9668 10.125H16.875V9.15469C17.3213 8.95519 17.7003 8.63088 17.9665 8.22085C18.2326 7.81083 18.3745 7.33258 18.375 6.84375V3.78394C18.5179 3.00187 18.4025 1.49536 16.9659 1.1362C16.9362 1.12877 16.9057 1.125 16.875 1.125H11.25C11.1505 1.125 11.0552 1.16451 10.9848 1.23483C10.9145 1.30516 10.875 1.40054 10.875 1.5C10.875 2.19666 11.1975 3.55008 12.375 4.02145V6.84375C12.3755 7.33258 12.5174 7.81083 12.7835 8.22085C13.0497 8.63088 13.4287 8.95519 13.875 9.15469V10.125H12.7832C12.1725 10.1227 11.5688 10.2561 11.0159 10.5155C10.463 10.7749 9.97455 11.1539 9.58589 11.625H9.375V10.4375C9.375 9.65827 8.68809 9 7.875 9H7.125C6.31191 9 5.625 9.65827 5.625 10.4375V11.625H5.25V10.4375C5.25 9.65827 4.56309 9 3.75 9H3C2.18691 9 1.5 9.65827 1.5 10.4375V11.625C1.40054 11.625 1.30516 11.6645 1.23483 11.7348C1.16451 11.8052 1.125 11.9005 1.125 12V22.5H1.875V19.5H22.125V22.5H22.875V19.125C22.875 19.0255 22.8355 18.9302 22.7652 18.8598C22.6948 18.7895 22.5995 18.75 22.5 18.75ZM19.5 15.75V18.75H15.5601C15.6345 18.6234 15.6883 18.4857 15.7194 18.3422C16.5599 18.1764 16.875 17.4101 16.875 16.875C16.875 16.7755 16.8355 16.6802 16.7652 16.6098C16.6948 16.5395 16.5995 16.5 16.5 16.5H15.75C15.75 16.4005 15.7105 16.3052 15.6402 16.2348C15.5698 16.1645 15.4745 16.125 15.375 16.125H12.375C12.2755 16.125 12.1802 16.1645 12.1098 16.2348C12.0395 16.3052 12 16.4005 12 16.5V18.0625C12.0009 18.3045 12.0663 18.5418 12.1896 18.75H11.25V15H19.5V15.75ZM13.5 18.75C13.1005 18.75 12.75 18.4288 12.75 18.0625V16.875H15V18.0625C15 18.4288 14.6495 18.75 14.25 18.75H13.5ZM15.75 17.25H16.0335C16.0277 17.2625 16.0215 17.2749 16.0148 17.2872C15.9575 17.4015 15.8645 17.494 15.7498 17.5507L15.75 17.25ZM13.125 14.25V10.875H17.625V14.25H13.125ZM14.25 8.49919V7.125C14.2501 7.02558 14.2897 6.93026 14.36 6.85996C14.4303 6.78966 14.5256 6.75011 14.625 6.75H16.125C16.2244 6.75011 16.3197 6.78966 16.39 6.85996C16.4603 6.93026 16.4999 7.02558 16.5 7.125V8.49919C16.2912 8.58238 16.0685 8.62508 15.8438 8.625H14.9062C14.6815 8.62508 14.4588 8.58238 14.25 8.49919V8.49919ZM11.6617 1.875H16.8262C17.2682 1.99978 17.5306 2.30766 17.6277 2.81484C17.6613 2.99955 17.6733 3.18752 17.6637 3.375H12.7988C11.9946 3.14934 11.7414 2.35542 11.6617 1.875V1.875ZM13.125 4.125H17.625V6.84375C17.6253 7.23918 17.4933 7.62335 17.25 7.93509V7.125C17.2497 6.82673 17.131 6.54078 16.9201 6.32987C16.7092 6.11897 16.4233 6.00033 16.125 6H14.625C14.3267 6.00033 14.0408 6.11897 13.8299 6.32987C13.619 6.54078 13.5003 6.82673 13.5 7.125V7.93509C13.2567 7.62335 13.1247 7.23918 13.125 6.84375V4.125ZM14.625 9.35902C14.7184 9.36953 14.8123 9.37487 14.9062 9.375H15.8438C15.9377 9.37487 16.0316 9.36953 16.125 9.35902V10.125H14.625V9.35902ZM12.375 10.899V14.25H11.25V13.5H10.5V18.75H10.125V12.15C10.6805 11.4524 11.4893 11.0027 12.375 10.899V10.899ZM1.875 18.75V12.375H9.375V18.75H1.875ZM6.375 10.4375C6.375 10.0713 6.72548 9.75 7.125 9.75H7.875C8.27452 9.75 8.625 10.0712 8.625 10.4375V11.625H6.375V10.4375ZM2.25 10.4375C2.25 10.0712 2.60048 9.75 3 9.75H3.75C4.14952 9.75 4.5 10.0712 4.5 10.4375V11.625H2.25V10.4375ZM20.25 18.75V13.5H19.5V14.25H18.375V10.9003C19.2017 11.001 19.9631 11.4005 20.5157 12.0236C21.0683 12.6467 21.3739 13.4504 21.375 14.2832V18.75H20.25Z" fill="#354253"/>
<path d="M3 13.875H4.875V14.625H3V13.875Z" fill="#354253"/>
<path d="M3 15H4.875V15.75H3V15Z" fill="#354253"/>
<path d="M6.375 13.875H8.25V14.625H6.375V13.875Z" fill="#354253"/>
<path d="M6.375 15H8.25V15.75H6.375V15Z" fill="#354253"/>
</svg>
